<mxfile host="app.diagrams.net" modified="2024-01-22T01:28:36.205Z" agent="Mozilla/5.0 (Windows NT 10.0; Win64; x64) AppleWebKit/537.36 (KHTML, like Gecko) Chrome/120.0.0.0 Safari/537.36" etag="0-Bam56IDazGlFthIuz9" version="22.1.21" type="device">
  <diagram name="Page-1" id="4UURUv6fNhPE5xnEzwsr">
    <mxGraphModel dx="2206" dy="1218" grid="1" gridSize="10" guides="1" tooltips="1" connect="1" arrows="1" fold="1" page="1" pageScale="1" pageWidth="850" pageHeight="1100" math="0" shadow="0">
      <root>
        <mxCell id="0" />
        <mxCell id="1" parent="0" />
        <mxCell id="ZFCfkoxtxYTRv5SqpdLA-4" value="" style="shape=image;verticalLabelPosition=bottom;labelBackgroundColor=default;verticalAlign=top;aspect=fixed;imageAspect=0;image=data:image/jpeg,/9j/4AAQSkZJRgABAQAAAAAAAAD/4gIoSUNDX1BST0ZJTEUAAQEAAAIYAAAAAAIQAABtbnRyUkdCIFhZWiAAAAAAAAAAAAAAAABhY3NwAAAAAAAAAAAAAAAAAAAAAAAAAAAAAAAAAAAAAQAA9tYAAQAAAADTLQAAAAAAAAAAAAAAAAAAAAAAAAAAAAAAAAAAAAAAAAAAAAAAAAAAAAAAAAAAAAAAAAAAAAlkZXNjAAAA8AAAAHRyWFlaAAABZAAAABRnWFlaAAABeAAAABRiWFlaAAABjAAAABRyVFJDAAABoAAAAChnVFJDAAABoAAAAChiVFJDAAABoAAAACh3dHB0AAAByAAAABRjcHJ0AAAB3AAAADxtbHVjAAAAAAAAAAEAAAAMZW5VUwAAAFgAAAAcAHMAUgBHAEIAAAAAAAAAAAAAAAAAAAAAAAAAAAAAAAAAAAAAAAAAAAAAAAAAAAAAAAAAAAAAAAAAAAAAAAAAAAAAAAAAAAAAAAAAAAAAAAAAAAAAAAAAAFhZWiAAAAAAAABvogAAOPUAAAOQWFlaIAAAAAAAAGKZAAC3hQAAGNpYWVogAAAAAAAAJKAAAA+EAAC2z3BhcmEAAAAAAAQAAAACZmYAAPKnAAANWQAAE9AAAApbAAAAAAAAAABYWVogAAAAAAAA9tYAAQAAAADTLW1sdWMAAAAAAAAAAQAAAAxlblVTAAAAIAAAABwARwBvAG8AZwBsAGUAIABJAG4AYwAuACAAMgAwADEANv/bAEMAEAsMDgwKEA4NDhIREBMYKBoYFhYYMSMlHSg6Mz08OTM4N0BIXE5ARFdFNzhQbVFXX2JnaGc+TXF5cGR4XGVnY//bAEMBERISGBUYLxoaL2NCOEJjY2NjY2NjY2NjY2NjY2NjY2NjY2NjY2NjY2NjY2NjY2NjY2NjY2NjY2NjY2NjY2NjY//AABEIBDgHfgMBIgACEQEDEQH/xAAbAAACAwEBAQAAAAAAAAAAAAAAAQIDBAUGB//EAEkQAAICAQMDAgQDBAcHAwMBCQABAhEDBCExBRJBUWETIjJxBhSBI0JSkRUzYnJzocEkNDVDU7HCJYKSB9HhRFRjohbw8SZVg//EABoBAQEBAQEBAQAAAAAAAAAAAAABAgMEBQb/xAAkEQEBAAMAAwEAAgMBAQEAAAAAAQIDERIhMQQTQSIyURRCM//aAAwDAQACEQMRAD8A8gtBk9YlWXBLDJKVO/Q6kpKEXKXCMWOL1Gfvd9q4Arjosk4qSdEv6PyeZL+Z0PZABz/6Pn/Ev5jXT5/xI3gBgfT5+JoqnjyYJU/5nU8FeoxfFx15XAGGOaa9y2Oe/qRQ4ODqSoCjUsmOWye5Ndr9DFTW5JSaXIGxxXsLtT8GP4jvZko5ZLyBr7F6C7F6IhDLH95stjk075mwK5YMbW8EVy0eN8Npmvu0v/VYN6ZcZgMP5Lx3/wCQ/wAh/wDvP8jVOWJbrIUSzJeQF/Ry/wCoH9HL/qf5DjqaaNcH3KwMb6ev+p/kH9HL/qf5G0CDF/R0f+ow/o6P/UNoAYv6Oj/GyqWJYpuKd0dF7Jv0Oe255W36gWLBKWO3LtXoGLCpuvC8jzZJONJfL4LMcnHGkluwKcunUJp91+xbHTxcbfyp+SOSElJXu2XO51FcIoyvBGORRu0X/l/l+X5SLjWqS9C+c3dRQGJYe7I4yfHkmtPCH0xcmSxJzzuMtjXUYL0AxYVPM5L6UvQlLQxScu+TYYfkyyre/CNHZlmtvkQGOOlhL+slQ54tPija7m/Us0uPvzzjN91I0Z8cXglFJX4AowXKFxSS9SOrc4Rj81os0vy4KfNhnUMmNxlJKgIxwynBSlllT9GZs+L4eVR7m0/LN2n7ZYklcq9ER1fZHHeTBJJfvMCqWhxV9UrMuPDH47xzeyOphWTNhjKEI1wjFrseTBki5pfN5QGfNGGPL2wewkGbbK1d7CiBZEtjIoTosjsBOwQluSiBKHO8O5eg/haeTbS7Zehq0PZcu4NXhhPV4Yxj8suSDmZcM4O6u/QljzZMTVu16M62o6dkwwlkxN9sd2mc3Io5km04t8N+QLO+GSskOfKK1mSmlW3uVOE8O/8AJk4yhljvtKgLJ5F3LtYTnHvTj55M2KfZJxmm/wDQcJVOpfoUaoOsleDXGGRq0mc7HO+5eUNZsq/fZB0Xp8k+cd/dlU9J27yx7fczxzZf45FiyTfMmUa8Gh02XH3drvzUjLq9Njwa/Bit9mT1Zv6R82LLfiRV17G1iw54845kGj+jNLdOMtv7Qf0XpWn8sl/7ma4SWSEZriSskuQPJ6q8Wpy44t1GVIoeWa/eo1dRjWv1H94xyAtw5ZyzQi3ackjr9L02LUajUYs0e74b23OHhaWaD9JI7+kbw9eyQ4WWFgXa7p2nx6PLPFBxlFXycPHli/rdX5PUatXo8y9YM8fLhfYDcu1q4yTDt9zPp38hdYEnGuQ7V6G/peLHmxZXljdMuno8D+hNfqByu1C7Tpy6dH92W/uc/NWLLLHLmIEe1B2IFOD/AH1Y69JJlAoL0DtQ6l6Bv6MgVIO1DTtcAmgBRXoOl6APyBZDFGUbaQ5afG+Yphjb7WiasCl6PE/3UQw4IRzw2+XuVo2RtcmfeNtcpgeq1mn0+Z4ZY9Hgi4w7doLcyabCsrzRyaPTKUa7axLct1GHG4Qyw1McWVRVJy/0GuowTcW4OaW7jwyi/puLHp8159NpmnaScF/2PGamLhr9RBRUUsjqK8Kz0uq1Okm4ZNRmlCuO04ebDHPrc2bFPuhJ2r5AoUbW7olFKtyK5a9GSTpAaMeHFBJxgrrmjF1ZL4uN+XHc6EfpX2MHVf8AlfZgc804vpRmNOKVwS9ANcXsjRhSd2kzNDg1YPIFnbH+FfyDtjX0odBRAu2P8KDtj6IdMKYUVH+FfyE0q4RJRfoHY/QIi6pUkJ0/BNwYdjflAQpegFnw/dAsafMkgIWOyz4MK/rEOMMVbzAgiSb9SaWBfvWST0y8sCFv1C36k+/TLxJsj8bCntCTAabIzsb1GJcY3/MrlqYL/l/5gYtYmlEzUmqNGr1CyJLsSM6dlEowSLFiiKKLEgK56eM4158GCceyTi/B1VycvUP9vP7gQAAACUXQqGk1FtcoC2MyanuURyexq0kFmk2+IgWPBklH6Vv7lmHT9i/abt+DRYgIfBx/worzwjCCrZtmhe5Rfxc9vhcARjjpJVuycsMl2xi1XklC5ZG/CJRTeRu9q5Arnjl3RiuPRCnGTmopUi/Hvkcl4DFOMPizmr2pAZ6fd8qtrkSTcn3Mljmpp9rq/wCY4RpNzkl9wK4yhBt9rYll7YScUle5apQhifdb+yIuXbhXbFb8bAZ8mSaw9ylu+SWlk1CeRu2TlhUorvnt6I06eGGMe2Cp+rAwz6hqZYp4m0oSVNOJHGqilRo6nPJ8kMkYc7SiqKYcAWw5DKm0o3stxwRPPiyQa7oVaTX2YEdPj7k7e1nb/M6ScXDWRySh2dq7HRztDHHV5M+PH7SdFvVdRo4dH+BhzQy6h5FvHeo/cDn5IafJkb00ZwxrhSdnQ6Hj+XUSfiSVnN0u6aPRfhuCj07K5QTcsr5RUTjjXncf5bE9+1JnTXZ/0of/ABC4r/lQ/kRXOWKSVduNoi9NGTuWnxP9DqJr/pw/kHcv4I/yKOX+UxedNjBaTCntpYfodTuriK/kHe+KW/sOjl5WtJgnl7OyEVfJxdFjeWUc7zrunJ5MjlxGP28nW6/knm+B0/Dj75ZZKU0v4V7+DH8SMdJn1P5dRdrBCXbtGN18q8sdEJ4XLRrJlhUtRkSVfXNXyl4Hm0eF9SjinCWOMMXd2w3k9zb8NQ1eiwwlLFDFF5PiTdzn44/Us0U5/ndbmwKOLEoqDy5lvf2/UdHF/o74unzalp44wk67uXQpaKGKOnli78nxGtkrN+neOXRc8vh5dRkffJyaait/BfrPzcen9Pnky4dPGM4NUt/uQZNPpNR/SGTTrS9kpQ7qbrb/APpnGz6eemzThJV2yadep6HV5cEOtaeeTX5silCUZzhL+S+Uwa2Olnk1kMCytuKnDuT588gc6EmqabR39NPNmw49XHPF54VCONrl+LPN45NxTNenyKM492Rwje7Xj3A6+fJmwxzfHyRyYoT7ss0v6yX8K9kcjPnnqs8s2ZrulwlxFeg9VkjPI44HJaeL+VN3b8yKfcqL9FpMmt1McGNc/VJ+EdrHHHjySyZMH+y6NOMMkdvm8spwNdM6TknmxRjPLvCammWuKWn0uk0mohmx5PnyJyXjd7/cipzWR9PxYdR25Xrcnc5x+qK5/wCxPLOsuqztSrDBYsGaMt1tw/8AIMeXHm6jky4smPH+Xx/S2qbfJg/Maf8AomeRZ01mzXmx3ut+UBryuMFGMdLHH8PT1mV/TJ/vI0/h+1n6h3STffFWuHsczWajS/H1H7dzrFFQp7Sj5ia/w+4ynrXitQc4uKfoB1Os6aGp6Zlj3xTjHuVs8HjUpS+VP+R3fxT248mH4bkpzT7t/wDQ5WkjNK2/lIr0X4d6VOHbrNQq/gi/+56Htt7ujhdCWfUp/t5rHhe0bO6+SAaS4dgICgAAAQAAHJ/EWqnpunVjl2yyPtZ5LTShHKpZE5Jb1fJ7D8QaZanpkmpLuxfNVnicUpNqotgeg0XVq1OPFDT44xk0lUdz1NUkjzf4e6XKeRazMu2EfoT8s9I/cBAMAEAAACGIBFep1OPSaeebK6jFfzLaPO/i6U1DBBfS1bAzZOu6/VZktPP4UW/likrZ2enT1qivzOeGS/DqzyGnzTwSuHL8svx5c+TUY+2UnklLamB7kTHG1GKfKW5GWyYGLUvuyLGvPJbxsimHz6mUvC2LgA0Y0lBJlC3dF6VbAStEWwYmBGW254brWX4uslGL2TPaarIsWmyTb4TZ4SD+Pre5+ZWFao6HEsabTtoi9LDw2aWyEmEZvy9cP+ZF4JLjc0iAzfCn6C+FP+Fs1oYGJwa5i0EYuUlGK+aTpL3NWVSaqMJSfolZHDGcNRhlLFOKjNN3EzlnJFmPWjqPTVodLhyvJJzntJXwzmuUl9M5L9TufijJCOmwQUrk5OdeiZ59v/Z3J+XsZ15XKdq5Th/mtTF/LqMi/UuxdQ1if9fL9TCnaRfgj3fodGG+PU9ZHf4kX90WR6vqVzCD/QxNVsR8O+AOri6vnm6hp3Jrnt3M/UNXPVKMZ4lFxfPk39MnDT9DllnGSbk948s48pd+Ryfdu73RzmU63xt6Xl0+mzfEeGWWa3VeDqy6/Ff8h/qzD0WC/MTccrjN0knG+5eRdbWCOu7cCSqPz1tuSZy5cPH11t/p9PjDX6h/Tv8A+6j/ADOIo3+8h/D9zsy7X9Nyf04ofzE+tZP+lA5Kxv1JfCflhHRn12cV/VQZTk/EOdwlGOGMbVWZseklnyRhHmTpE+o6GOjwpOVz+xOxXLUpvJbt27K9Y5OMe6+fJog2na2KNbknKMYvhMouySnqp9kPpNmLGscFFHR0/SY4caje/ll39Hx/iIjl0B1V06PqNaCAHJCjr/kcZJaHGFcemFM7P5HGP8liA4csaltKNlctHBva0eh/KYvQPyeP0A8y9DP9139yqelzRW+Nv7HrPymJeA/LYvQDxck4yqSp+jIs9XrukYdXFU1CS80cbV9E1OmhKcZRyxX8PJUc6xohbXgO9oCzb0CyvvYu5kFrZBsjbYgJwe529Pp5ywRklycTE6yR9LPa4IQWCFJVSKOV+VmH5SfodrtXoChH0IrjLST9B/k8nodntQqQHA1mKWHTylLbwY9JpZajI6XyrlnR/EGRKEMa8u2Y9Cs2Xuw4X2973l6IIjqlFZY4ce+9bGmeCOkxLud5HwjPqsENNrYwxSc5JJtvyzq6bTXkep1TUpeIvhAcdRyT1Ucc4uLk1ybc8Mem+RbyKdZkWbqieHlJJHS02jhi/a55KeR77vgo5GKD1GtWJpxk/XwdKekxaeFyn/NmLPn7esyzYq8JfyNWLTy1U/i6nI6/hsDnxTlqn8P5m3skdHH0yeTfPNr+ymZcSxafrj7f6pe/sbNT1KKfbii2/UDn6LFCHUcsJSSjG1bNmfLghxJWc/D+11fZN9rk92djHi0eCP0qcvLe4HH077tS1hTlN3sbn0/Uyg3KcY7WkuSjFOGHrTypfJvwbs/UscYtRXjywMHScMdRPIs27gbtVpcK0uSopPtdHK0+b4Oabxyty5SLpZMs036+GwJdGyQjgyRyfUpWXdQlj1GknDGm5e6OfpcjnllHaHrRslji4P8AazuvAC6dqlg0vZkjbTM/U9RHUxiqUXF3yV9OlCWSXxvmSXD9TXqoaaenmo4oxlWzS3A4rbb35Jx4K97LIrYCe3kcSK4JLkCaLIlceCyJB0tBo8OfTSlk7u5ypNPgonHLh13wMT72qa7iOn1LwR7al23ymT74ZM6zQy/PXD5KNEtdkWGeHPFxlJURWmhn6T8BtKcN016mfVd+TE07kyiDyYl3Qk/dAU/EkofDzK62ZB4nFd8N4+xdmjHPHujtLyirFKeK4yW3lARhWV77MjjXfk7eGmPsfxO6HAmrn3R5QFsIr4jUeVyRb+ZoIJxyOd/dF60zl86klfgCWixLPmcJPsVXZ04aDTRdyySl7bUYsOPs3vcviyDo4ngww7cVRXoV6xwzaXJjdO47GREk6YC6Nqu7R/Cm/mxujf8AGj4s4ab0fUb4x5Tpd1MDj9Wa/pDI/VJnPmbur/77frFGFgRj9a+53dfJ4dZo9UuKSbOCtnZ6DVw/MdMj6xipIo6mWXdhyVw4v/sePbuK9kei0Op+No4291HtZ5x+V7kGjT/Sy3wUaZ7SLijp9JtxzRXqmdCMKOR02coSypOtkbfiz/iZBrarc871N1rsnukzrPLJfvNnG6lvq2/WKAzxe7JJ16kI7Mk2AfEnHiTX6j/NZl+//MrkQfIHS0GZ6jI4ZK4vY2vTYzmdLdav7pnVsCqWmS4ZB6d/xGgGgMyx5I8Md5Y+DQkFBVUM2WLVxVEZfM3tyy+hOIHczYMEMUHnxtynBNe5y8UPi5c3ydtK4os/O5ZKHeotQVIJdQliTlHDBtL15Aw6xQl0x5JKUc+KaTT4aIaWal2+rFr+rz1uB4fy0Mab3afJHSxSin6FRGW2Sf3LoYY5ME5/GjGUf3Hy0Q1Ee3LfiW5DwBsjVL7GDq3GH9TfFfKvsYerL5MP3YHN8l+L6UUGrFFrDCXq2Box8GvA/qpGTHwa9OtpgXJug7gQURR3MO5+oAAW/UVtgBEDb9RDoRQcgMKIFQIkACAYiqi+QGwAGUz8lpXk4CMWflCiPM7kKBRdEnbIRJ+AGnucvO/20/udNcnLz/1s/uBGycabKiyO4FirwScfll9iMVwWuOwGU6HTvon+hha3N/T1+ym/cDYgF4B7JsCGefbCvUhjXbjtcsrt5c1eC6n3JXsBOO0BwXbibf3FOqUfUlNJw7QCCaxvx5FGSx6Sfde/LRLLaxpLngjnlCGlam6XqBgeq37NPj3/AIvInhzSl3ZJdv3YlnUVWCCXvRowYHKPxdRJt+I2BLFhgl82SUvbwPLNJ0kScvsjLmypN07YDcvVk8WVJ87mFSlkyK+LL5x4oCzVTeXNBP8AdQQKYNuTL4AWx4bDLrMmbtt8QUf5Cb7ccmUxq6Ao1DUsrveiCrwiM8lzb9wjK3QG/SbR9Nzdg69k6fjenx4cc0pN2+TmY8rwrhMzZH35ZSa3bA76/FWof/6fEv5//csX4oy/9CB5tBdBHpV+I9TN/LHDH7xf/wBxrrevk/knpf8A4v8A+55yMmWRuStFV35dW6sla/Lte0X/APczS/EPUlLt7sSf90x4MjjBqTZRN22yDRPqOryZsmV5KnOPa2l4E+o6x/B/artwfQq2TMvkLXqBrfU9ZLU/mZZrzVSlXgrlqdRPJOc8rbm7kvDZSiVNAaFrtWtN+XjnksNV2+xTklPIorJklJR4Td0IPIEviTjkjKM3Fx4aJvU55ZO+WWcpOPbbfgrb+YTbUlWwFUNtl4LYvYqivmf3LEA0S3fyxV3yKPqShHuTnGS2ATlcqnFtL3JQir+V0NKSjbpoT/kwJp4mnHtipetcli7HkUFKCrnYohjlml2wjulbfoiT0uRY8mT5ZRhG20wLJ4VP9pGUa7qo63RdTDBl1KnXzdvD9DzvD9glJpXdWB2+uQydS1UJ4lBRhGluZIaXUY49vZa9jJjzzS+XIzRj1Ofxll/MzVj0nQf2Ggl3XGcsh25eFL6ly0czpMW9HieTeUvU6cvqZjG9rf8ARCHYjowAAAAS5oBx3aCvE/iGPwep5MWPJJxe7TkYsEMqxvJCD7I8y8Iu6vkeXquokt0p9qO9ptDNfhnUYlD9rJqdPmjls2TFqY9ZuhS1Wp1Dxxzyhix05JeT05w/wpjrT6jL/FJRO3R0nximIAKABUFAMQbgANpJtukuTgfiHW6HU9PnCOVSzQ+lHfq9nx5PAdTlGXUc/Yl2qVKgKMOPJPdP7I9V0DRYMEfj5ckZZnwm+DzGNbI7H4f0WPVarJLLDujjSav1CPUydsryyUccm/BY68GfUv5GvUKz6ZfI5PmTsvRThf7NFqAnBXJF5Ti5stATZFsbIsDl/iLP8Hpct95vtR5jQxrM36ROr+K8/dqMOmX7vzM52lVdz9dgrQ+CEmhtlbCCxkRgSTGnuQsPBKsdXpcPklPy2b8qj2NzV0rKNFHs08I+xobXxYY2rUtmfL3ZW5+nrwk44H4kp5NPkS+uCORqPlxwh+pv6xn/ADHUFFR7YY/kSOdqn3Z6XC2PoaZzCPNs+qzTp5dsWZ63o3w0s/hq2lZ2c1Esvc+KLtLheo1GPGv3mVTx9kq5N3R8M8vUcTinUHcmjGd5Fx+u7GCeJYXCoQl8qrk2YNPidd2KH8jFhyTzarJKfEXSR1NOly/G58nZnZfT14ycZXDDDqKlHGoqNQpLyzzfVIKfUM1vyeh02buWXK4380pJv2PK6qcp5skr3bPV+aW3tY2eohUY8f8Acsx2pLcwzySTqzRpZNyVnueZ08C7m2+EjbosGPNOffG1FWZMSrD92dHpi/Z55eyQG7H07T4VHLBNTVPk4v4ldauGNPiNtHpHvhXtE5eTp2HWZ3lzd3c9tjz5bJje12xx7HmapGPUSlLniz2Gq6HpMOjy5rl8kbW55HMv2afqzpr2TP3GcsbHscephOCdrdEvjw/iR53TTcsEXZb/AP1ydHN3fzEP4kL8zD1RwwCu7+axeZIT1eJfvI4djsI7X53D/Ehfn8Pqjij+wHZfUMKF/SGHwcexAdd9RxIX9I4/Q5IAdV9Sh6Mg+oxe1P8AU5uwAY+o4kszyY1UZf8AcwSOxkgskHF+TlZo9k3F+AKwEAElRohpp5I3Eyrk6eileNrygKI6PLa4R2MWsy48cYJ8KjOhkVp/PZ3xIX53P/EZwA0fnM3qJ6vK/wB5lBGUu2DfsEZtXmlnz3J8bFsNRLT4u3H9T9DInc/dmpRWOPdLkoqwzcs/xJvfk0Zc2XO6TfaZ8S75OuC6U44o0gKsK7NTtfyl08mTI6T2KMT+Jl22NLmoKkBmxxa1O73RqlladbtmaMu/NSW75ZpjFR38lGbulPUdtVbNMYKLpIpcVDN3trngscpz4SivUgr7XDU98trZY8r/AHI2/Uz9j/NKMpOSv1NlcpIDC5ZZajskkrfg0xxRXO79yE8dZ1OTqix5I/upya9AM+KCjrHsanzsZZahvOksfbL1ZocZy+qVfYCnHjePUNvh2aLiuZxX6mGSlHWKDk3F+ps7IL90ozReLFqW4zTi/CJZMt7QjN/oL4EY6l5bXb6Fks1cAYJYMu8vhtLkUNzXkzOUWm3wZI8AT2GC9aBATgWoqiWR3INGKNxtrYojjjLJJNOr2LMc8mNP4cqXo/JJa3u/rMX6xAh3ZMKtSuPoyUcylSlHtZJLHnjUZ17MU8bS7ZL9QI/ApyfrumiqTvuhkVPwxwlkin81pPhjydueFxdSXgozY3LHOvBFrsy9y3V2SxySk45FuRup9suGQXyp1Nfqa8TuNmWUO1L+FmjA+2NMC6iS4IqQ+5AWIaIdw+5EFetw/H09L647xDQZ/j4e2X1w2a8linRi1MJafMtVg9fmXqBV1hVqYP1ic9m7qOaGo+FOD8br0MLKInpNC+7R4u7hxo835O90+d6LH7WUV6X/AGXXTwv6J7o5WVVlmvSTOv1GDqGojzF/5HHyvuyyfq7As03kvM+m+t/Y0EGnQOs01/ZNlnP0r7c33Rr70kBZRzOqKtRH3idD4qOd1OSllg1/CBkjySIp7kgIsgybIMDT01/7ZE7COHo5dmpgzqLMBoAo+ML4zIrQNGb4zD4zA0/qV5NVhgt5W/YwazI2o7tIzJXwVHQev7pVBUvVmeeqyy7k5WmUdkh/DlQEbZ0NK7ic29zRp9R2NRW9gbtT+4/Yr8BLK50mlsJcFG2Ml2R+yMPVnePF/eZNTaRm10nKEPuBjNOF3iivQys04PoA04zXp5U5JmTGWKXa+QNvcgckY+9+o+5kGruDvRl7mFgaXkQviR9TNYrsDV8VC+IjNuMDSsq8j+IjKAGr4iD4iMthYGl5UJ5UZ3KlZFStAaXlQllRQlKXCsHGcVbQF7yoqyZNnuV9xFqwKt29ycFQ6GUWRJIriWWA0crN/Wy+51HJUzlZP6yX3AgyzGtrKmaoRrTJv1AIrc04498aM8TTp381AYp7SkvRm/Qf1MvuYtQqzSXubdD/ALvfuBrKc8+ILknKXbFyZRG23OXkCWCLUmXY0rk/0IxXZC39yyDXYqXO4BGpZOOAkrmq8Chv3Oq3JQrvbXP/AGAU+6UkgyVKGODVu7CTl3vf5aIuXzwSXzJAVa1Sxdi+Vdz8IjKb7bfgr1vxPjQeSSb8V4LsdfFh3fTTYGTJlc32xT39CicXB1JNP0Z1O7H/AEjGUaUVEzdQjHLnc+9JNAZcf1IuzZFFrbkhGKi1uXavHBYlJyqS4QFOLls0wM+JUjTACc1eJohp8Ms2X4cWuOS17Li15LOmL9rkl/CgOHkTjlnH0bQ8X9YgyO8s36ybJYP62IF2R7lLe5bk5KG9wL8MVODb8F/V9Nj0moxY8d/NijOX3ZDSx/YfdlnXMin1HZ2o44R/yAy4490kj0HSOnafNjb1HHdS3OFpt8qPR6HFHLo3Cc+yPxLsDoaXo/TvzrjPElCMe52ed6pPTR6jqHp4R+DF1BJbHZ6jrI6TBmlBu8kO2P3PMZYyjCPd53IrRpZaWWNxyVCT3cmv+xfB6fNoOzHCGN44tznNfNJnLjybtFBtKUYd7c1FXxYHRnoscukwlpdG4Sc4xeab8v0RLqnS9FoNLFLUyyaltJpcHR6hppRxaSPUtZGGHNnV4YKopIz9czaJafTafQadxj8Tu73Cu6l6vkDhvTylOEMcLc32q/U6OT8PazHm0+JZsLnmdelGZLPk1WKMZrC72l/CdjJ0/Dk6po8eq6jkyx7JTk3Oq+xRxupdLz9PyY45smOXfaXazDOLUqtfodjruLQ4s+njoZdySbm+6zkZ3HZxW4FMNiwhEsQRJXRbHJjWFQqi/peilr9ZDBGUY3u3JWbtX0qWDX4dO9MtTac2obOl6gc3tTilBoMy7aUqv2OnDR9Kz9Ujgay6P9m24N02/A8/RsmTWZsWknHJiwxi25Pdt+n8gOfonPHkllxq+1b/AGB5Yv42zWLJs0iueZ6N5IKMnK+2S9CnJli8cYQi6btgQTgslONpPdeqIahp7xXam9l6G3RaRavUrFL5VJ9vfXBl1GJ4sksUquEu0CGk0s9Rmhjjy2en0/4dxRpyzt+1HO6Piyw1CnCCdeX4PU477H9jwfp33C8j0a8O/V+mwxhhxqPEEWt2V6VyUHGXoTR00W2dqZzgAAPU4gAAAIzkoQlL0TJGfWy7NFll7UTK8jWP15jH06GXUrL3PulO2v1O/jxzWq1L7v2bh2pehzcScZQcVumjs/FlLTU403Lk+Pu3W17McJxDpWkWh0Xwb7m5OTdcmwHHtUfsI+rqvcJXkznsAAjowYrAQDbEAARyy+HgyTfEYtnzub7805eXJs9x1nN8HpWeXrHtPEQVsKtxr5T1X4Xxxj03U5P3pzSX2PL1UW/Q9f0bF8LpWJfxfMyVGxmfM7kkaJOjFmbt+pQsH0v7stIRj2xS8kgLse0SZGPCGwE2LyJleafw8GWbf0xbA8Z1bP8AH6rnyPdKVL9CtalY1srTKIxnqMkuzeTbbJaicsijjkorsVbBU5a/+wiL1rf7o8PT8uSHd3RSfsWrpj85EEUPVzfhUL81k9TUumR8zZJdNxr96QGL483zIlDPJPk2rp+K+X/Mr1Gnx4UnFbsUaMXV8+Nb44yX3OlotZPVxWeONJxmo1yedukdvoscmPQ6iUVvKNx+55durH6645Vyuqdv9J564UvBkcVy+TXrajilJr5ny/c5yk+Wd8Pjnle1o02L4moXojqTrxwYemfNKcvQ2ZNoNnRlhyu8jO50rD8Pp2LNGSjcnKb9jhKMsuVY4fVJ0js9Rh+U6Pp8WPJdSqVeWcdvucaxQx9YWLNNfBc05PdM3LrscmKWOGnlGbVW2ecjs7N2gj354p8N0crox510867jvD0OMny00/1PMxx/Fyy9D0fVnLB0rLCXCku37Hn8TUNNPI+aNaJzqZ1zsqXxJJeGasEowUdzJvKVeWzaoRjFLlnocnQhNShFRZ0emZ4935dp92SVnDxt4s/Z+6+Dv9J0/wAy1MvHBnK8ix1ZvtxzaKsEd0Q1uoxYVBZJqKl6j0+p08mms+P/AOR839Eys9PVhZGb8SZvhdMWO98jo8dql24oL3O/+ItVHUazHig04448o4mtUVCPrZ6vy4eOHty3ZdvpdoJJ45R9GaznaCfbla9Ube5HqcUxkHL3Dv8AcgmBDvF3hVgFffQOdgTtWMq7w+IBaBT8T3D4nuBcBT8QPiAW2Ytfhusi/U0fFRCc1OLi+GVHM7QaJStSa9CLARs0EqyteqMiLsEnHImB1EwbRn+JYd7A0dyDvM/cLuINDmU6jLUKXki5MpyStlDxPtnb8EpN5E3J7eEVx5JSnS4AnhbhjfqyyFL5pblEH5ZK7AlBpTbVbl0Urt7sz4obyb8cEnka+kCUV2ZnOW3oT7nLbhGWKk8lttmhRaVyaSArjGtStrXO5r39aM0s+ODqCbl6kZZJzfzP9ALJ5MUMnd3d0vQk805rb5V7GV4+6aqP8jVHE6uXygZ8sf2sfmb+5pUkqSVFU54ISuUu5+hJaiUtsUCiOSLepjLwaad8plaw5JfNlnXsSclHaIBPHj71Nq2iOTL7UQlJ+pXKSoBSlbsqlIJyrzRTPIlwBOUtiMWVdzZODAtGJcDRBOPJbHyVR4LEBowYHlhJqSVMjLTZMSfDTfgt0ku2MvuXP51V0/UDmTjvxTJQz5IOm++Poy/LNYZdubH3J8SRX2Ysj/ZS3fhgS78WRXB9r9CicZRndUOeGUNpKvdBDM4rtyLuiURUY5ZVLaXhlM03Nwkt/U0zxqa7se6KJVll2t/MuGBbvGChL02ZZjbUd/BGDuDhNVJcCjuiC3vJKfuZlJ2Stgae8O73KsVSl8zLe2Hn/uA+4O9VUuGVZai9nRS80VzJAUavCsUrg/ll4M7NGpyxnFJO9zMUI7fTJRWjTlVKTOIzXps6x4+1uldkHR1mdTwTiuKOK3bNmbOpQcYeTHKLjKmUWab+s/Q1UZdNfxdvQ1EDxvtyJl3cUwS+JH7mikBHu2Met3cGbJ0ZNYvlgwM0eSZBckwE+Cssa2K2twJ4f6yP3OrHTtq+9I5WFXlgvVnZnHtTUZcAVzw9qtSsrougnKDlKVIrmlF0BGgoa3FyBVqlWOO3khBduSL8MesfyRXuD2xRl5QF0Ur2LI402tkVRdvutUXQzRS3aA5EuX9yWH+tiRl9UvuSwf1sfuBvRIguSa4KJLgza76I/cn+Zxp072KNTmjlilG9gM/k0af6X9zOaMG0P1A0wNGJxUn3pNNbbGfGLNl+G1SsDVNJ7qNIrM8tbkkq8Fb1U36AbAsxfmMnqL8xk/iINwoGL42T+Jgsk/4mB1Pk9V+orx+qOY5t+Q73XIHS74LyiuU43s0c/ufqwbA3Ocf4kJTh/GjA2AG95I0/mRFZYJJWYrHYG+GpjC68hk1SkmmjD3Eu4C/4sR/FXoZ+4TkBe8q9CPx0vBQ5Cso0fmH6B+aXoZmIDU9X/Z/zK3qF/AihiAued+IoayykqfBSicALo7IuwupopiWQ+pfcCrWbZ39jbottLF+5l1q/axpcouxycdPGC2AsyzeSSjHhckvRJXb3srxRqy1V3xtu/QC2V0+2v1JVsl7FU2tlK934LHx6AOHHzcjx7327K9xR2guG/IQVpvhWBFr5pOXHgJv9qqXzVQqpyb48Es0k86cYvucfIGDWOazR73vRrxYvidr5S5Rl1cMjzRc642o06bJUV4AfwVDU93alGjJrsTnk+WkjfkXcrizLmjF7zhfuBmnDt7JWtvBfrMfdpo5PSjPmkm1W1cGvNK+lV5ckBmxcGmBRjXBogBKX0vemluaND8umzz9n/wBjNNJTfrRfil26DU14iwOAuC7Tr9pfoilcF2n+p/YCc3yZ3wy+ZQ+AOjp1Wlxe7Musn8TV5Je9GtfLp8XtGznyfdlk/VgatCv2yfoe16No5fk8byRVSbkk0eL0CqbZ7fW6qeh6Phjir4+WKhjXuwOF11y1+svHHs0mCSxyyeLf/c53V8K088MIxpOLabe8l6nalpVOOk6dLWRio92XNkkvl/T1PPa6ayZ32uUoq4qT5aJVU4+dju9L0uq1Olw4sbWOCm8rmuVWxw4JeTv9Lno4tLUvNqH2VDHjvl+xB0Iy6bh6tplGOXW5IQlJ7977vfwW67Ta/rPVMOH4EdJDFjc/nduntwg6dLXfn835LQY9OoQjjby8x3vhFmDDky9W1mTXdQyL4cIwfY1FPzRYOJ1TSafQa2OF6h6iSg3Nrbtfoc3vjF2934dhqJJ6rM4ty7sjUfLaIw0mqzyccWnyTa5pcFEJ5SiU+4eSEsU3CcXGUXTT8FfLCLYk1yRiiaA0afLLDkU4ScZLho6em6tnxaxamT+LNQ7Kl6HEm2nsycM1cqwPS6LW6PVavVz1+JRWbtjHvjaVe5Z0rTajBDU6vRZoyxSyOscuHFcbnN6TrI4Xmhkg54ZQbe2ydcm3S4sem6I9Roda7+G5ZYXab8/YDzWoyPNq8uZbqc3Jorgu6TlHxygSbk5Qdryhwq2+GgOp02KUcTzNPFkytKnumlsZNXjlDX5ceXeayfM/U6fRsacMaWNRfw5TyRf7yvlHNzQ/2yclLujKdxb8oyR3ekpKMkubR2I7Q+xwen6vDgzZFmmoJpU2djDqsGe1hyxyOO7SPlfowt2dezXZMXQbpqvKESyU1Br0Inv0TmLhs+gLADu5gYgADF1eXbo0v4pUbDndYdywQ8J2zns/1reH1Toow73kyfTjjbOhJu4NrbZsx6LC8+LLBNJyaRulTzyXiNI+HnO5Pb3026qFSjOP0SRQasaePKtPJ92OcflvwZXFxlKL8M+xov8Ajx48/oEAHocyAAAQAOrBHO6vCGbBHBO2pO3TOfi6FpJ73Nfqa8779T60asC4Pmfo/RljeYvXhhOe2FfhzSv/AJmT+Z1cUFixRxx4iqRYluiE5dq9W+EdPybMs/eTntxk+FN7GP6sr9EX5JT7btL2MndLHkfctpeUe9wXhHeSEt1Y4bzQGhAwjtHcGAmczr+Z4ukZWuZfKbNV8f8ALz/L9vxa+Xu4PI9Q12s1KeDUzUlF7pLyBk00/g45tfU1SCeB48cZy5kwxJPIrXk6v5J5oPvaW2xUV6R3por0bLiem0OSEPhpxk29i/8Ao7Ux/wCWn/7gMoroWebxZvhTi/iei3J/l9W1f5Wf80FRtD/o96uKk8navBF4NU1S000/ejr4sThjjFrdI4bsssZ/i6YSX642Xo08eOU/jJxju9jpaNxhoIZlJKMYNNerH1Lv/KOME25OjPPTPF0Z4+5ucJd7Rwxyyzn+TplJPjidRbbjD2swNM7Ok6PqepTlldY8V13PybM34XccbeHL8SS/dfk9mMsjz2zrl9OXZp5Py2WZ8nyNDeB4EoSTTXgjliljcn4Rai3oajLqkFJWu17+hLqE3q8y02ki8kMTbb9XZr6PhjpcfxckX35Mblb8Ij0PEuyeWvqk6Z5s85O5O2OLDHQau/8Adpm3R6eUMsYyTU7tr0PQ4doW+EcvQ5I6jqGdvmSaicsN9zlay18Q/FE38kE/laRwNVLs0qhx3M6f4hy92qx4ccrWOCT+5xdTNzaT/dPTpn+Lnn9LTJvN9jZKTrwZdJ+8zRJnZzOU2545fws9dpGo6GDrZqzy2LC8s8MEt5yo9Wo/DwRxriCSOOy/03jHn+vZ/i6uMPEI8HO2StbFmryfF1uafhy2KcrqDN4ycMuoxytyuW5DVu8cfuRjKKi+67Ks0+9Ld7GmDwS7cqZu7vQ50dnZti/lQFncFkLBsgn3MXd7kbEBPuDuI+BcATsLIhYEgHCm0iztS8AVCsv7V4RVNJSdFERDZEDPnjUr9Sk15o3AzUAlyXQWxUjRCNrgCxboa4EtlTGAWMT5BMAk6TKWm2W5X8qXkr3oBxTrYclUSWPaHuOUF27sBRtxV8D44RK06UeOCSjX/wBwKYylOTvZehYory6HFwVqLTkJxb5oAWohCXbjVy9RScpfUxY9O5ZO5bFjcIOrtlFcMMpz2VIucMeP+slv6IonnyOXamkvYlGHdvyyBy1Ki6x4/wBWKU5zacn+hZ+Uk2pS+VDk9Nh+rJ3P2AzyxKUlsjZBRxRqK39TJLNGc12LtSL1O0UWSm2VSbGpK9+CnPqoraCtgSk/LdFGTLFfTuymeSU3uyNAEpOXJBkmIBIshwQJwAsiNCWyJICcS2JVAsiQadLKClKMpJN8WWzfbKjlapu1ToWHWTg1HI+6PqUdScPjRSS4M08Ti3tTRZGdwbg+Vs0ZFrMsZtSqaT4YFkM2RbTfdFepJRx5E3B1L0Y5ZcGaNdvw5P0KpaTLBOafcvVAKp4J2tirJFSl3Q2l5LMWpv5MytevoQyRcMndB9y9QL8Uu+oy+tIW/cyDam1JbSGptzV+QDtp+P5j2XLRly2sklfkhb9QOnHJijHlWVZJRb+WRhvcaZBbkTk952RUI+dxJjQBKMK2VMh2FhOKTKKOz2GvkfzRv7mqMUX4tHHUQbk2knSr1AyxlGvliQmu520W6vR5dBl7Mi2fD9SmwDFHtyWaPuUR+pF4BHaaZoso8k+5kDmzLq/6uP3L5u0ZtR/Vr7gZ1yXUUrkvSAjQ1Bfwok1SsI7oolCCTTSposcslN9zryV93aeg6dh+SUMkYvG4qk1yQcJ5JpbSdFc82T+JlueKx58kI8RlSKZKwI/GyfxMXxsn8TDsYdgEe6eSSV22XJtY5QfKKvmxyUl4LFNzcpPlgU9z9WJtkqE0BWTxbZI/ci0Sx/1kfuBuXJYuCC5Joo50vrf3Ilkl8z+5BqgImnT/AEfqZjRp/pf3A04yvVbuJZAjqIuVUBlaAs+G/QaxMCoC34T9Q+D7kFaGWfCXqEYJgVhRpWGIfCiBlYGv4cPQhLHG+NgM1BRo7V6BS9AM9P0HTLtgApUX6DUG/BcHkop7GP4bLQbAqeNgsXuTGuQEtP3Pkf5T+0WwLEm2kluBmlpUlfcKGlUlu2dBaTvXzya+xJabFBUpTYGFaTGuWya0uPxZsWKC9WWRWFNXjv8AUDkRVWvcsjyLJtnyJKl3bIVgXySk1L0CrJ40niT8h20A8UXLaKb+xYotTUdr9CWlah3Lff0LXNfFjKKjGvPkCuWLJFRuHnlknBdsrTltyvAZnGfbtKTT5LZZMji4rtimAsWKUsSkkowrlkccYJN5ZrnhEUvlqUn9hQSV0m2AReNTbinJXsgyZJSyKXak6obW/Au12BnzwnPLjcpbPbbwGSMcUkoyb+5dkxppXLhledY+1dq3TASyUKeS+ULUZFPElGFU+Sqcpdnd2qgFOGOfsw1DrBGCd/MQkm8amuCmUnJoDVBcF8EVY1si+C3AJK34+wZZfD0Wfx3KiTSU67W21dojqoXocuz2Vgcbii3Dw2V8luL6QJ44RyZFGbpPyX/lNKv3pfzKcf1l1AaG8LiopOkqMWpwY8f02n6MuxySzQt7WPrGWGXWyljrtpLYCvRNRTlLiz0eDJh6vqvzeb5sWnqOPE3ST9WeTjJ1R6v8MxhHQyc+3ulPZvf/AC8gQyYsms6rqM3x8cMenxL5pqkvaK8nGwpTlKd91t/NI6izZY6nWZIrG/jS7PiZl8yS9Ejm6aKa2i5u7vwYrUXaSGHJnfxMc88k6UMa2Or0v8xPXSjpsGLTXk7bmrcaRn6Ys0cTccmLTxbb7mrZd07HoZdOefVanJlzyk5dsZu1vzSMS9rVjqaPTqc9bn13VZQTzdrUJKKlSM/T49GUuoZneaayNQbuWyiS6NPQw6fGePp2TLNylJycL8+rJdO1eRdE1UoaFw73kl3PZHaObn/hX8vHJlyT0eTUZq+TtjdI6/R9bn+JrcmLpmSSnm5bSSpVR5Xp2ry6dQnhyyhNLlM6+i/EOp0WnniUIT75OTk1vbKPOdRm8mu1E5x7ZPI7j6GWK3Rq1EO+Upt/M22/czxXzUQWxLIogkWRQHZ6T/Rf9E6l6v4fx7fb388bUGfouj/oFa3Bl/bRx9813WiUNZpV+HcmknBfHaaW2+/uZ9Zl0+bFjxaTSLFFRSk0+QKum5Jw0GolDG5qSUHXNtnT6tPSrpn7HBLBqFUexx7bXkz9OwZ1hgtP2PvzRVS4tbmj8T5c89Nhx58cceTub7k9mB5lVyrjL0Jr6N9m/ImpqF5IqvVFuGLk4xilNN/SwO1p+3BieTM38TFiUMOb91+e1mDUR/3XJ3KSnG69HZvSh+Q1Dg3KDm+7DJfTW1x9TH1Jxhl0sEt1Hd+phpk1WeEMnbJHR6D1PRaOeb8y5LvSUWo3RzM8I5M8m+DpdL/D8NfpXm+PLG1KkktjGcl+rOvRYusdOyxShqor0UtjXGUZxUoNSi+GuDy8/wAL6qD/AGeaE178npNDpvymjx4HLucVyaxnIWrgGFG2SAlQUBFcnlfxPrMkOpxhik12w3o9YkrW6PB9Zn+Y6zna3+dRRnL4s+vQaVZoZtAu5pZId+RlnSNbl12q1ne/2cJVHb3H1DUy03Tp9qS+FjjFP3aKfwuli6dknL6sk+TxateOVtsdssrI7fxclRjW+LdS9vQu1FOayR4yKzLPURxwcoVJ1wW5ssYaPT5F9Ev8n6Hok8cnPvYTEZ5a3GvFkZa5P6YM7MNQuTI9a47OJF9QbaSjyUbaFOSx4XN+tGTJqMsIp+pZDNCWjUcz7ZORw35+OPpvD3XPj82pk/Fm/AjMsLxZnF+vJrxKlufF2W5Xr2znFrmoq5OkeZ1vXs8Nfk+CoyhH5UmjrdYyvHo32unTZ4vv2bvd7n1PxY/4debdfb1eg18tdpviZIxi1KtjV8uRUzmdOj8PRQXrub8eyPa865JKkuCyK9Ci2Z9RqWrxwfzPl+g4rbk12PD8td0jNk6hldtQjFGSKfmV/ceoy4VgaUk5elmuI26XLkzpzm4xglycbS9Fx9QyZc7m8encn2u95e5HJ1KWPp88WP6mmr9DVoMvdosUXk+WMUu1F4iL6Fo8U/2WXJOS8Lc0x6dqZtVKMV7l8NRDGqiok/zm10BlxrNpeoRwwhjz5UraTpRXuzpRlmavJhhF/wBmVnJ6XqF36rPL+syZGm/ZGnV6/s08nH6nsgMWKEcfU8upzpSe9JG7R9Q/MycZx7JLx6nPw45ypvezRlxRwwWRbSQR24Y4V87SBR0Uv/1GO/ucTU9VcNE0k3kltsvBztNp46nZZkp+j2FkWWvXrS6SW6z43+pR1LBgwaLJkWXHJ+iZ5LLGWHI4SyShJOqsWSGq+H3yjN4/VvYx4xrtrsaPX44w7JUle1G/DqsTklF7nG6fj0sIqWaac3zfg7OHDp8i+Tt+8WdZzjje9eW1k+/WZW3t3OivJgnm7MUE05urPS4ujYNLnlkleRN2u7wa3jTkuyMab9DnlHWVwOt5ZabSYtLCk5RUX60aemYvh6TGvNWZPxNi+Hrscrv5P5HNw6/V4qWPM0lwmjy7dNyx5HXHLj1eqy/A0WSXtscrosV8f48uFJQXu2ZFq9XrMLjmyXC/Sjo9FUVgakrSydy/Q8+Oq68fbpc/JxuobdRzW7pnMyS7ps366fdlzT9ZM58V3Hu1zmMcc/q/TKosuru2HpcDnH2Nc4RxY+OH5NViNXTMDfUcNK1iXczq5c6lkeNSW/KKdMpYMOLPsoSTlOX/AGMXTHLPqc2d7pt0eXPL7XfGNmPpGjnvLG/5mL8QaDS6LTY/gxalN+X4O/p47K/J5v8AFGf4mt+GntjVHl0bc89nP6dcsZMXAl9TK8i2RJ3fBCb2SPqvGkjVi3gjIThmnjVRewGwKMv5vJ7EfzWT+IDYkPtfgwvPkf7zF8bJ/EwN/aw7Gc95Z/xMXfL+JgdDt90Ol/Ev5nN7rCwOrCeOK3av7ilkh/Gv5nLsNgOlHLjXM0N6nF6o5YwN7z4v4hPUYvf+RhsEwNss+NppWZ+SskmBOK3NeDeNGSJpwS3oB5ZrE+LKnqn4gizVwuNoxAaPzT/gQvzTb+lGcnjjcgL3Jyd8D7tu3yVtu6oaSi75YEl343cnsyPfLLJJcDqWT6tkNZFj2gtwLOz4MblP7IpyZ3N0uAePLldyTr3JLsxb/UwHj085K0+33J/Ex4F9TlIrlkzZFSuvRChpnzkfaA5Z8uRbWl6IWLBkm9k69WaIajDgi1GHe0Z82ryZHtUV6IDXCODCryy7n6Ihk6hGKrBjS92UYME8vi36stegad5JqKAoebLml8839rIdrukm2bIS0un8PJL2Fl17SrHijB/zAzxhKG8k0aYv5TK808krk7NcF3Ym/RFGbPm37UUA99yShJrZMCI5JonHFO/pZdPGpRVuqAygW9kFzNAvhRe9tAVtbBEnJxa+VbEY8gWoaRFEgJxRYiuLLIgU6r6UZTXqvoX3KYY++La8AaOnZLk8cv0J5oafJldS7ZLko0UGtXjJazBJZ5uMW0QWZNJJYrhJS+xViyZsTr5kl4CHxIYO75k7LMWqnL5ZQUihRyYc7qfyy9SEu7DL+KBL4eLJO18rFLuxS47ogE0pVPFs/Qscozgp1Ulyiuai6nidPzFk1+0XFS8ogz6pVlv1KTVqI3BP0MyiAhoagyaxgRRJeg1jJKDvwBEnFgoe4KAFsJHQ6Vq8Wnyyhn/q5O79GciblCVv6S+CUo2nZRs/EWtxarJjjhl3Rh5o5KZrlji1ujJngsctuGBOOzRejJ8Rvt2qjXHdkD4HZGXkLRQTkZ8+8C6T2ZTk+ggzrY0LwZzSnaiBYlcSMKSaJx+krlswHKvQ14up6nFh+GqaSpN8ox2vUaa9QBybbb3b5FZK4ryhOUfUAsKYu+PqPvj6gQyRbgyGIu+JAj8SMVsgIqO5NYlJEHkTd0SWZIDPLaTQ8f8AWR+4S3bfqEP6yP3A3/vE/BBfUyfgopaV8FWdL4d15HPI7aRVOblGmBX5L8H0v7lHkuwcMDVjHPkUOSGpUnGPb6gPYLXqZ+2fuNQkBfa9UDa9UU/Ck/IfBb5ZBa5RXlEYSV3ZH4HuP4C9QLfix9UL4sfVFa06fka08fcCXxUReVeSXwIoaxR9AK/ir0F3l3w16D7F6AUd3sLul6GjtXoNIDPcqtoE5N8GhoNvVAUfPYVMv2H23wn/ACKM/ZJ8sFCXqaVjb4i/5Elpsr4xsDPHG3+87NunisUbe8vUUdHqLv4YpRyQfzY5IDR335DuRk+Kn5G5+4Gm0FozKQnOlb8AUanbUSfqVrdilNzdjTA16ffGWUUaZu2vBpAMbq9iafzLhFa28f5lkGnJJOP6gSlx9Ta+wd8fRsmntbyR+yH8PHLeWT+SArU6W0RKUnbSRNwx8KUv5CjjipbuVV6ARTnKVd1EL+b5myS7YZFdumSyxSyN1Se6sCDpS5IyS7trosmk0pJbBK5QUqVLYCmcW1SK/gZJwcXJRXsaKdOnwQUVKT7m6oCiOmXwJKUna8WUZscIYcTXLdM2Y1iU5KTTXuZNS0vlT2TtAaMS2RoginCrhH7GqEQJZccnjjKDpoUFHJCeO27iy9P5e2jLjdSUY8Le/VAcJpptehbD6TR1HT9mX4uP6Jv+TKIfSgOh0bS49VqckcqbjGN7G7PosGO+2FfqVfh1b6mfokjXq39TA4OqShfaZW23uatdx+plAlHdnoemazDpenRi5TcrbcYpL/M8/A14pfJQG6Obs07nCCTdtv6mVYoSjhvtnVelWEs0vy/w7pWlsaMzTwUoye1byM2LGnSYZw6fOcNJCVQu5y4N2jxZ8Wn7oQwYu3DTvfwcjUY3HS9qxySdL6iWa44JJ42k0lbZmY8Xr0Okjq9P0fGp6vDBRxXtH29TFoZ6qPSYRlrEsMsbcrS3TObPPOGkeNQVdvbu/BY9XqIaD4UccK7O22dIzWePSYx6Xi1WHWY5Sce6WNvdGGGbuinvX2OxHqeswaD4McOJRUO268UV6nX6jL0eGkngwqOOCSmluUcuTTMsFc39zT+WzfA+K3FKr53KMC7rZBYiyEbaVke0kvlVga1DHDndkfiPJJY8MXKb2UYqyNwrH3uXzTSkvRHSWpWHNg/JtRhjk5fMluBbpNPiwZNDjzZcmDI5TnO3Xgq/FbaWnjLP8aFNprwW5epZsmshlyY4T7IuP8zB1NvW5YyhD4XauKsDlbrGvhztXxI2aSEJavCskHV2+10Relk0k5Rkl7UaNBictU5KL/Z429gOq0pdLwduVZU5bSW04b8e5wc2SefWZZTlfbJpex18jeLHhyRvb1VM5OH5pSm+ZSbMVpCbq2ev6Mvg9Kxv1SbOJ07R4dVLJ8aN9lVudrDqMP5XUaeLUfgL5r8Hn25e+R0xnrrW9bjXgj+ft0oHPhJTgpJpp+UW4VeRHpnxztbPzeRq1idFb1uRP6V/M25Zxhpqclx6nHk7m3exWWh67Ldf6lspZnicnb2OdKfa7OVLB1Z6nJmx5mlN7Jt1X2A7j1E4wk72imeY6Zier6m5O+1N5Gzq/E1K088WeK+JKLprhkfw1opxlqYzXZknj7Y2ctuUmLeMtrd17Pgz9Elkwv6ssb99inp6ePQYY+qso6ppcuPpul0WGMpuORym4rY2QXZihD+GNHPRznpvZK0aSDy56vZJtnQi8UNI8eqT+DKVp/wsxdP088qnOGb4a+l7XZOM1j1GTSaiTyYprtv0Z0z+emMWfWYHps3w2+6LVxfqi7GqgvsXzx48+JaXv7s2JXBvlr0Myiknd2hrz7Pa5RRmd5GZ8uR47cfqrYslLkqce5nVzc7HPq8L7p/Eg33U3wdyMv6R6UseSPw9Rja/VGeMWlwYuqaiWDB3Y5VK1TRy24+U43jeOzrIZNXofiaTI1qNOqyQXlepwf6X6hC+3OtvEoo6vQ9bHXZI5ovs1OOPzpcTRDrXToZk9boknjl9cV+6zxYTHHLxyjt22emb42bXYIvUyvuTW3oUrp2kxftJJ1H1exdjzY8GKMZOqRVqs61WCWHCrk/KPoYSYz0897b7a4a3SNRiskIpcbm2E9L2p/Hx/wDyR5GfT9S6rTSf2H/R+pqnpZ/yNo9XkyQpxwTjN14d0YGnC3L6uWYelQyaKeSc8Tj3UqZ1sk8eowNx+uuCozY38eSjFW26o1anpcYYflg3JrdoydMyfBzPI962O3i11/TKO/hlHj8umy45OM4Sq+aIKCiuWv1PV9W6niw6bs+DDJqMm0K8e5lj03pqwxUp5JZX9TcXyUcCLa4lL+Y3nzRdKbNXUNJhw5IwwylKc+I0ZpaXLjVya+wRo6Rjll1MnKTWNbterOxrJYpQjCMFtucvRtYMXKtsWbUP43PAHU08o43fkr1c3kmlxHyZMOa7lJ7RLfjRyvcg06HPhTUJKt6to7nVNFoZ6CEMKi8tWskOTh4sUYQba3KMmoy45NYpNLyFZtdiy4tNDVZ4xeRS7Fa/zMWbrOqzaPLp80INSSSktqOnllLUYZQyy7rWxxs0Ph2nVpizpLwabDKePulJ+x2+jY8mDHKUYuSlLm+DhS6lmSjGSTS4pE8fVFVSTivuT4X29PqdfLHGWNq5NbexnwdRyxjWRq/BycWqwzf1pfdly1Gnjzlt+i3ISIa+GfWTcnO64swPSZ4PeDf2On+ZxXspfctxa3Jjy9uFQltfzIzWmPF8mCMKp+TqaC4dJzZEt1bKNb1DNlxqOTTY1X70UbcKcNDJ1WJ4G39zjtnpvG+3ltWpOKpPcyqEq2i/5GyeqSdRS2RW9XJ+KO2PxnJRF5Yv5XKP2NOkxanWZ1i7nXMm+Ein47d7Ha6AseTTauWV9i2Xd6IzneQxntLrryYsOl02Ft41BXXkh0rXYNLi7M3ytu26Of1LWPVat/BbWKC7Y+6KIu+dzn/HLjyt3Llexx9W0EYd3xlsuKPPaeS13UcmaUbjbatGNqPlbGzT5ViqGN9rlwya9GOF7DLZbON+q6bh1ME5LsmvKR5jV4lgyyxremei02qyZck8U+YnE6rBrP3erO8jkyCYxPcoiA6CgEAwoBAMKAQDoKAVBRKgAVBQ6HQEaHQ6CgESQqfoSSfoBKJbjlUkVrgkvUo06j+rZgfJ0F8+IySx7ugKaLcfy7i7K5GA5zXCW/qENt5CjDctWNR3k/0AG55XUVSGo48W8t5exZ3uaqOyI/Dgt5sCGTPPJUYql7DjhUUpZZUWfFjVQil7kXj7t5AP83DHGscL92USnkzPyzRFYIKpb+xGWVX+zj2oCWLSrtvJKMfuKT0+F/L87K6lN72yUcLf7tANanLJ1D5F7GfLLJKT7pORshDHB/tJfyHPLgX0Qv3YGTBhnkku2LLsmiyp20kh/mcvEKgvYjllkkrnklL9QK5YljW8rfsadI1KLj+hlou0r7cgEMmky48jqNxHH4rVRaR1YtSjwQeLEt3Gn7Acz4GdveX+ZPLjcsFPZo2dkXxOiOSEE0lv7gcz4YdtbGzJjlF/LDuRS5ST/qkmgK1AhVSNMZTyPeKS9inIqmwJKiRGJICSLIorS3LIgTjp1qJLG3XmyeaGPBi+Hj39WLG6ypl0tPLPk2VLywKum4e/M8lbQvcp6jlnh1NRdJqzq/JhxrHDhHP1koRkp5IdwFOHVTnjakk19iUVju5RcfsEc2HInGMXF1xRXHHFypZK9mwB4VLJ8klROalhSpN/chmxTjK4tP7MJZMmOMXNNxfqAsvZkipQ+SXlEottw7l2utn6inLDlhcU4yQTUoYouW68MCyUVJyTXJkku1tPlG7svFCfKaM2txSjGGX92W36gVRasmmjNYWyDV3L1E5L1M24U2Bp+JFeR/Ej6oy9jGsUvQDS5wezaZVHJ8KXyu4vwRWGXoSWB+QL1qMdeTPqJrI00E8Uob1sQktrAUH4ZtjukYE9zXhlaS8gWy2TZm+N7Gp8NFHwLAreVkZTtNF35f3FLT1FuwMpph9EShxa8F+P+riBdHgz5W+9o0Q4D4abutwMlMKkbPhr0GoewGLtkNQb8G34a9AUF6AYuyT8D+FL0NvZQ+0DEsUg+DL1NvYHYBi+DIl8F0a3EOzcDnNU2gh9a+5LKqySXuKC+dfcDcvqZYuCv95k1wUUyxpu6IZYRjjbaNsdPOSTUXTK9ZglDSyk1wQcwvwcMpLsOyZRqgOatkMexpw4nmy9q8K2BR2B2HQWi9UyUdFH0/mRXN7RqJ1Y6ON7xRatJBLhAcZQb4TH8OX8D/kdpaaC4SJfBQVxVhm+IMksE3+6dlYUP4MfQDkLSZH4Q1o5P6mkdj4cfQOyPoByloL/AHn/ACJx6bfMjqpJLgEgOeum4/O5L+jsXob6HRBgXT8f8KJR0WJP+rX8jahlGeOkxr9yP8iSwwX7kf5FwiCqUIpWor+QQUe5WuSya+VkcMe0Cfah7NU0mhiAw6rpeHK3OCUJ+xyM2myYJtTi/uemKdRjhkg1ONoqPMSj7kJKovdmzVYPhSdfSY5tMqK0TSK7p+xbFpgX6fZs0rgy4tpGzH4AnHDKUJP0XoZMWV96e3NHUhLuXb3JWvKOU8OSMpUrV+ALsmRxyOOyRpxZZfCi4SivDtGPOm4Rm0/Rhp5KUZQb2e6A3YczWdXOO+zdFs8mS+YM5Sl2+NzTmlFJTfEwOhKOSWNOMccrXrRXPDnyQinCNx4pmbTyjOHam7RZjlUqWaX/AMgB4MixyjJJehDHgyNODpRZfU1K3nk17sJ4puVxy7MDJGEoyaknTIPF2St3t6s1ZMTT+pul6kJwi4p0ve2BlnGMJKScV6oo6gsb7J49/D2NcpY4wcZdn3oz5ssJaOcO5uSdpJAW6T5sSfobccTB01pwkvRnSxrgAzzWLBLI1skYk3L5Ma2a7ov1N+sahpJTauMd2vVGL5p92OC+HFJOEkBKWKOTE8dppnJnjeOcoS5R3cWLZuto80Yeo4XKKyxXGzA1dBksemzN/vSLs8ZzvtRT0aF6RyfmTOlGEVHgg8z1CE8c4qapvcyHQ61K9Yl6ROeUTiWJuMqaaaIY5dk4yq6dnUyrD1JqUJ48Mowt921v0AyRy9zVrZF/f3uKSXPFmOUHjbjJpteUOEqdlHSyy7lFOMufUlnlFwSXfVrdmGOVuadtIvWVycV3Or8kF2ftcPl7/wBSE9lXdJr0JTyt9sVJPceRyklvHdlEJvG8dJysjk7Hjr5/5kskJQp7Ecrk4b1RBXmeJaWSqXd2/oU6WN47ot1PxPyz47XsS0kP2KYB27jULaV1uWuFEe1d0b9Si5d1rucZUS9+3+RCP1rZonFL1YBabumvsHdts2NJU6kHj6kQK9uUEZyhfbtarZ0yTS7fqjZHJ2xjF2twNeTUQ1OkjjXcuznu+xydL82KL9Tf8J49LOf8SdbGPSRrBAyrrdGkoSyt8WrN89LixafUSu3qnbXsYulY++Ob7o26vJFZYwlKlGJ5L72O09YsTxPRruxJ/B/eh6C1slPC5Rm1GEJZH2urr/8AuXyzYqa700zk6qWT9tpsUVLvhSb8Kz1xxrC9TkyV809+PmZ6TGu3FCPokcDT9PywyweSqi06R2XqWuIr9So2aWMJ6mCyNKN72a9fPGsMY43Ftvx4ON8ab4/yBPO2lDut+qAvzuoK1vZp6TilPUya8RMepw5dPJRzyUpNXsb9M56fU44Q27oJyPm/ryevVPSc123fizA8kK+pG/UQnl+LGHMmZYdJm955EvsPxd503Hh6i9Pi7IU1d8GbJq05ynv3N3ZtXS8KXzSk2H9F4fDkj33288GLU4suXBqI/Lki1GSWzIdWz5MGqk1D9nPeEi6HT8GPdd13ybYRhkxPHnSko7p1wcLPC9b+vMy1Od7RX8kKtbNWoT/lR35Y4405fJ2cpr0MX9JxlNrEouCdW5HbHOX4xcXMeDWSdPHk/mc/q0MmKOPHkTTe9M9ZDUQlC0lf3PL9f+LqOo3HHNwjGlSNdhzrN0/V5NHqI58Lprlep7fpOp02pxz1WCXw5Sj8+N8X60eFx45R5xyX3R1ugTnj18UrUJbS9Dy78Mcp2N4dleg1Gnw6yHx8mKPctnSpMyrRYlNRxY1GUnWxvz6mOPDkxSXy93yui/peBSb1ORfKvpvwdNNvimf1izaKGhgsmbL2pksOTBOKfdKUX5Ri6jmx9W1WRZE3hxPtivf1FoHDG/y8ZuXatjvGHVh03Q6xX8+3LsWPo3TllUMWom5ParsnhrTdMz5JypVz6HL6TFdO1kX3ucMktssnaiiozdY00+l6iWOMX8PxJ+Tmw6hjv59j2nV8/Sc2nli1msxv5dq3pnzPLKPxZ9juNun6o1Kjq4NVHL1dTk/khH5Tt/nYRi5TfypWzxik4u4umW/msvw3BybTHR6PpOSObJl10675y7YX4SOo3DIvmhGX6HkdD1H8vijjktkdPD1PFOqm0x1OOll0Wnmm3BR+x57VKXx59n0p0jrZdbKWFqMu69tinHoZZI3KSVl6jDoryZOzI6iuT0WkxadxXZGO3scp9OeN90Zu/QnjjljJON2vcqV1dVCKwt7KvQ5GbIoKrLNRrMuR9knx/wByL0VKOTLJfN78BYqxLJOEsqTUY7nL1Mnmyyn6nQ12Z48Lw4srd7NIwQVYVFrf1AyTgyHbXKNeSOxVGG9pWZqq44e529kacUIQ4X6kHOMF8zt+hZpe7UZVHhJ8IirZ5Vjgm1bfBdh1Dji7mt2T6lpoYIQeSoy/divJdh6W82KPdJw2vYgWkzPUZJyyV2QXB0NXWbpeWEZuEe27RDRdPhgjKGSXL5Z0fyWGWCWHu+WSp0Ys6seEeKcb+Vv3IVJeGezyfh+L3x5Wvujm6/pWfRR+JPGp4vMkVeOHpdPPU6iGGP7zq/Q72ulg0vR8mPCnFdyjf8TXIujYXLU/muztw409/U5vWNc9dqailHFB/Kkc7fLLjUnIxqcfSiyDTfKN3RNLDNLJPJFSS2SZ6DF03STq8EP5GM9+OF5WscLk8jPfgMvdGMJp7pnQ6zixY+oShhioxikqXqY80bxI74ZeU655Tl424Hbjnhy18xm6zBPFjmvMizpWRd08Mv3ouivqzvR40+VOv8jTLlAMAGoNh8JlkHsSAqWJh8ItBgV/C9R/CVckrHYFfw0NY0NjsCKxofYh2G3qBHsXoPsSDuXqDaAKodC7kLuAnsR8C7kLuQDGiN7kijTgfy0UzTUmSwSp7hkacgKmEV6Env4BRd0gDj7k4xXMmQbUdluwVt3IC74iaSgq9w7VVzf8yMs0Yw+SG/qVrvyu3x7gX/ExxjUY2/UrcnLn+RNQxQj809/RFUs6W0F/MC6GBy32SFJY8b+aV+yKsXflk026FLT5O7dUvVgXR1LjtCKRXkzzk/mkPHHFCXzyt+iJZJYVL5cb/UCuEXJrZsvlpsiSbjt9yh55/uLtXsiWT4s8afdNv0AmoRg/nmkSnPTdn7zMnwcl24S/U049PKeFp0vSwKJZI38kaXuGOXzEvy0rr/sEsUsa+aL+9AbcWV0qZojlTVNWY8eLL8KORQfY/I+79ANTxwlxsyueGcePmIKb9SyGWvIFXc4+qK5yZrck47pMplDHLjYDI5dt15Kp70aMuCS3i7RmmpJ7oCUCzYhDgmgJInEgiyIFkPrj9ze8lcbIwI0K2kBKU2zPqYwyYnGTp8plvdG6tWP5HJPYDn6fBGGZN5E16Mjm0zeVuElVnSnDA7tJMhk0+PJGMk0nQGXLgmscHCatc0xrHmeG381epctPWKe69tyOKE5NxUnxwgKn2PG4yxU/LRGME8Mu2dv+FlsJ5Y5exK+7Z7EMckss8csfzPYC/B2y0atPuTopzReTF2PhO0WaOSSyY26fJKcaZBz1h9iXwV6GrtDsAzLEvQfwl6GjsD4b9AqlY16D7aZd8J+gfCl6ERWkOiag+AeOXoVUe1NU+DDqcLxO19D4N7hJIzaptwp+GEY1yW45U014K63JR2YG1bpMsUbRnwytUzo4saeNP1AzONEaRscIvajPOFN0Bze/5m3v4J4/oRXJU2vcsx/SBfAuxQck2kUQ5Ol02KnhyX4kBR8KXoNYZeh0YYo3wTUIr91E605nwJehJaSb8HS7V6EkgOd+Tn6E1oX5ZuAisi0Ma5GtFj8ts1BQ6jP+TwrwJ6bFe0TRRHyJSvN6yHZq8q9JFMfqX3NPUf8Afs394zLlGmW5ckmvlZFck/3X9gOzp43psT/slHVIL+j8rS8GnTf7ph/uoq6n/wAOz/3Qry/kuxeSkuxFRox8nR6Yr1U/8N/9zn4+UdHpX+9y/uMlWOj22uRqIDRlR272SpUJDAQwGFIbAAF4BDAoY0hAQMGCGUACYEB5GJAUKQ4oGCCGAwARDL9JNlWonGGJynLtS8sQrl6iKn3JnGyXHI4nYnkjktwlaRm/Kx1E2vJUc0nEhw69NiSKi/E23sX49Sovtm6KcH1oWrhU00B1MGaLknCe5DPF9/cot3y0caM5QdxbRrxdQnClL5kBuxSkvli0/NTRZOM2relx36wZTj1mHK/mdPjc0Rx45bwnJP1TAhPHpZfNmlPDJ+i2CGHBNPHHOp7bN7F2OWTH8qjHIvSSFllvGUtGoNPdx4KK46HUYH8SPbKK5al4Kcmly45rJHHKUXvaXBsWDRS3lnzYZS3q9ien7ozljwapWvpb3TIMGoUp1kSaSVSvwHf36dJP5ovemb5Q1enzKeZY5qezaWzIahZXNZJaF44rlpbNAY1JzwSV/OnxZHA3PHPHLZvjc15ngqEsemlCXlrdMqzrTqMZ4MM4ZE92t0wMmO5QnCfb3+3gzSmkpJO3w9jo6j4Dxwyxg45G92vJky443aX1AQ6dPtyteqOxjexwcDePOk/DO3iewGtKM8bjJXFqmimGCGKahlm3jkvlafA8OVvI4tbBjhj75xzbvmD9AJtzzpRjG1jj8zWzaKs0IyuEd4VsWd0pO4p9yW/htCbXbUX8vLb8AQ6elh0yg/EmbO/YpxU8cZLyWtpQYHmeqS7uoZPZJGQu1ku/WZn/AGiOKNxbAjHcmtjoaBaXH0rNPUx7nKfal5MLcXJ9qaXiwHtQ+247CJNpRV7AEbjFssx5OX6ChvG7v7k4Ri2+6NL2AlHIpPiqJqcG1VlcMcXJqMv5klhkpUmnt4ZRJyTdW/5im43tJv8AUjGE4yqSZCn5i0yBamUfg0ptv0s3aWP7CO3g5WV2u1LydvTrtwR+yATiQcWskPuXMoyy/a4l6sC351JJ09x9zT4Rmjk/bpdz+qqsUMj+NTk3uUalK72XBGM4tSuK2RmxTl8aSttbolghl75Jxlumt0BN5O7FJxS2LsGN5McJNNtO1sV4NFlxpwzNLv8ALZshLtlHFPL3RUaXwiB6lzyYo9ydR2dv/Qz4cLjp3F8p2jRHdZIpLjZ5OSeCLkk3wlv6Eo0dHxycM9K25JF2p0ObLqck9qb2tj6FJuGWa4eSkdOW8n9zhMO59de/4uN/Rmd+I19yGXp/wcuHLkaUe7tk74TO2cX8VaiWHp2PEnvknv8AZHaRiubrupYseqePSx74QdOT8sUeuY4tJ6fHfurOK2lx+oKnuzTL1Ok69pZTUcmKGNP96jqx1uinG46nF/2PBUOLlF/KYvxXquoZFm1UpxkpRSSTR0oZoT0+PN2ftJOl9jzfSc2TU5ZYWkowVyl7Ha1WpxaTQYM6+eF9u3qfL/RjcsuPXrvI24Fd3yW/Y4EvxCsf9Xh/+Q//AOY8sYd708Zw9I8ns/NhcMOVy25drv16hSKdHnnqdLDNPF8Jz3UW90i1npcgynUZPg4ZZV+6rLWzn9ZzLD092/qdEynYsqWq1/wtNinh0/fif1NcR/Qw9Q0MI6XJqtNvjmvpXhnK6V1LPiyZYfVie7izr49ZCUU4ZVgldVJWmePxywvp17Ky9H6bin0t6nKsjnKTrtkzdgj27NP/ANxqhJLBKOknjTlv2rw/Yv03xlHuy44SfuuTy7tuVrrhjIjjhBpfJF/oYur6yPTsMckMcbbqkjrxnhm6nheJ+q4Ob1ro2o6nkw48MoLGk25t8HLRlbs5lWsvjjQ/EWKUlLNgnszoaj8W6PLonhx92Ob2+nwcbN+HNXjk1jnCfvdWcrV6TNpcrxZlU17n2scZz08Vt67mLX6VqlnV+nqX6XNCer+J8RKMFvvVnmtJjb1UNtr3PTaDDCXc3FNG+I6fUOoafL0aeGM03Ok0cnT9TxaWPw5Puxr91+CvVdsHNVSuqRysuj3cu5q/VlGzVyx9U1s3podkaujkz2m4+jo63TMb0+n1OWX7sHucnuTxpVvzYQhcgABQra4G0xMDd0vM/i9k5beLOupyT5Z5pNxkmtmjoafqSiu3Nf3RqI7UM8k6b2N8MuGOBzlVJbs8/wD0lp0rUn/Iy6nX5NRH4cH24/NeS9RLV6v4uolKEmo34F8ecl805/ZlGF41mh3r5E9ztLTafVQTeSNeKaVE6rmWmCVm59Kxtv4ep/m0Y9VgemyfD+IptrwydFOSUIvd37Geeac32wVL0RdHAm7ZdHBP/lQX3MqzY9LJ/NNqK9zqdLjGEnLHHj95mVaTN3XlTZuxzhpNG7rud7egOOfqsss2ryZJtyadKz0Wk1EJxUeJJLY8rktQcnyy7pCyZeo47m+2HzSt+APUtqeVR9GbII4mTrWiwZmkpzae7ijRi/EOhaV98fuicWO3CTRGauOeOWXdinCu18I5sev9OrfLJf8AtIarremnp5LApTk+LVEqxh6tm/o7SPDGaua7YxXhHmlJpN+TXqYZ9TmllyNuT9Sl6eSW/BMceLa9F0bF2aODa3luzt4/lh3eErPN6HrGLBihiyY5fKqtGzVde08tHOOGM/iNUrPnbtOeWfXowzkjh6zP8XVZZt8zG13Q/Qxybd+prwS+JirykfSwnJI82V7VWCbxarHPwpKy7ri7aXhytfyMc01Jp+ps6vqIZtPp1BPuS+Zm6y5gAFEEoyofxCsAJ94viMQqdgT+Ixd7F2sK9gH3MSkFMfa/QBNsLY+x+gdj9AI2wJ/DYfDl6AQCyz4b9BrE6AqsZYsL8j+CwIRJIbxuO4ASiMIbuh9uxQlv4JqG3zOiMdmWUn4sC3DoXmi5Y2lFbWyGTQuLf7VSfpFFuJy7e1txj6F2OfY/2ULfrQFGnwrK1ijCperNE+mQUby6hx9kVqeZ5ZPtUZPyiztin3ZZ9z92Bl/LYFLt+J3L18l2Ppqk7hjderFPJi+KpRVV4SNS1meSrHBJerArzaCeHC5xmrXgu02lw5MEZ5d35tlGT8xkT78n6Ijhxdz/AGkm16WBfnhoIQajGHd7FWmy4oJr4Tyy9omhfBiq7Ipe5VhyQwZZTtb8V4As7c+XbHp4QT/i2M7hmjnWKaipPyanrt9k2Z8udzzd7g78Aal0+P8AzMkpeyKdboccIKeJPn1GtRnlH5UkvchN55rfIBt00MSwRaUU63sp6h8KWlknKPd4RljjlL6pv9CT0+JreNv3YEtHrsOHSxxZHvFvarKtXqNPkg3jwz7vDqiOHFHFnd1TWxp74JfNKKQHMwOWV1FNtclsoyi94srxZVg1k2vofoaZ63HTUYTl+gFXe6IqRmyZZfGbUXFPwy2GPNJ240gLHJdvO5nzPuiSy3CVT2KpXQBjLUirGXJACRZFEUTQE0tizHP5SEfQMce5yXpuBNRTk2hXTW3kIx+ZP3JTxftHT2AM8I99xWzQQgnhkm90TWNOCT5QRxpOwK8WP51fD9xvF2zuMvJd8KHirJKONbyqwMGbHkw53OE9m9kLOsizxyQkqlVm3JDHOLjz9jNPApYHjk5Jxdp+QFivFrVdVLay/Nty7/QxtwnhhODb7HR0JruxqW26AMGBZMakq/Um9L9h6J/LKPozSRWCWKalSgyUcORqqo2sEZFWLCox+bdkvgwu6LBBVbxQS+lFUsUVukaGVyAzygq4OdroJRs6cuDBr94MsRzaHJfImIsik4UVBjlW529P/u2N+xwFs2juaKXdosb+4E+2mUzXzIvZTPkiuRnVZpr3DH9L+5LVKtTMjj8lRdDlHU6Q7hnXujlRe51OkP58y+zFWN62GIZhoUMEDAEMSHYCGAuAgI+STewvJZ9V57qX+/ZfuZfJq6l/v+X7mXyaZbUT/dZWvBZ+6wO1pv8AdMH9wr6j/wAOz/3SzTf7ng/uEOof8O1H9xkg8v4LMPJWW4jSNOPk6PS/96l/hv8A7nOxnQ6X/vb/ALjCx1AEMw0a2BACAkJiGUAwQEAgCthlBY/AgAYyI2ACAYAMSGQADp+gihgFkMmSGKHdkmox9WBHPqMWmh35pKMf+5wNTq8muyOTTWNP5Ym/qE9Nr8UYRzNdsrTSMy0ujjSlqJv7IIxu47w29ghrc+KVxxxbNM8WJW4NtXSvklpYwWX50qKy5Lu25Km3Y48l2qj/ALRlaT7e7b7FMSi/E6yRLdXC4WUY3TTNmZd2HgDkvkLJTg4sjQDsnjz5Mb+WTRUMDoYeqZsdd1NGyHV8c1WRNL2OGAHpsOt0soq5Ql7SJt4JZIywqCd7pPZnmIbM1Y50gO/PR4JwuOfJCXhXaHijqcuLsWp+HWzTVpnEWeUf3n/MsXUckF9ToDrY3qMLlp4yg5eG1swxy1OknTjj+d8eGchdXyKSfbfuya61Jtd2FOvcDpL42nyt5MUEsjtUrVmfNp8kN8uNLudquCl9ZhNVPE/5kpdYxTgoyU6XgDn6rE4z7167m/Dl2j9iOTU4s+Nxjjl8y5ZVjwyUVbA6MMkVvsXx+FlwtdtZFupLmzDhwSk/mdIwanqGT4koYX2RWwHcz6mEYxnnyRhKKp1yzla3Xyyx+Fgj24/L8s50ZvJkubcn6svUbperA7OHK4YccUuIpFvxW074J4tBJpXLYvloljwzk5XUWyDx2V3lyP1kyzCv2TbKE7bfqzXhi2oxircnSRRD5pQjBfSpXRYtJqXxpsjvikaNT0/UaV1lwyj7pWQx6zU4P6vLLbamBk7Ml/TJV4otistb4sjXtBlsNVkg7pSfudnpHVu/UQwyxQgpPeTlwQcTiPzwlH7xaLMXL7ZJUem/EkYS6XklHtbStNUeMTceG0y9HQVuVySdDj239LiYFqskJLyWw1yjK5R/kBqSj37Sf6i7X3fX3EFrsUmm21Xqix6jDJpqUUBjzqskV6s7MNsaXscfO4yyRcWnTvY3R1i7d4hGmyrIrnCVcS59CH5qNcE8U/iYskfPKCnmxy+Kp/BSSl9SJ5YSTU3igo39S5HOOKWJPvl31vuJvBLH9XzLy2BZljk7U7xJXtXI80nUXLUXv9KRW8mmWKpdvf6oU9dpopQfPqkBdk+F3Qko5JNPfv4L5Rms2KWPFDEr5hyV6OUtfmhp4bX5fg7UOmQxQlPJkk+1N+iIOZOMcU5ZcuX5a5k9zmz6itRN4dMu3EuZfxFvU+oaPJ0xxhivPOPbfpvyc7p0Kg2Qew6HDt6bxzks3ctsy9L26Xi97ZqM4/WqDzf4wlc9JH2Z6TyeW/F7/wBs0y9IM2jz0uSNjlyBULuaZZCbbVlY8adv2JR6H8P4ZZNFr541eSVQiifWYvTdL0Wjl/WKTlNehH8JxmpZcrbWNb14bObrNTk1eryZskm93V+Dyc8tjt3mKpJZcrjdGjQZ/wArqOydNJ2rOapP4jafklFt5bs9Tl32+h4ciy4MeSK2lGyRTpI9mh06/wD3aLLAdWef/FeWo4saeyVtHfT3PI/iXL8TUSfo+1foBk6YvlyT96JdUmoQwx92yHTsj7PhKLbbsn1LRanLOEljlUY0OHR0iWTJrGlOVRjfJ6XT48j+b4kr8bnl+nZ10/JOWeD+bY7un61onHeUo/ofP/Vryt9R6dWU57djFlywl+0l3wappjy9T6dpNNljLK+9qu1vg58eraGXGf8Amjx2v1Hx9XkmnacnRy0fmuWXcmtmck9PXw6roZS21EV9zzPV9THUdTyzhJShdJo5lgmfVxnPTyd66HT13Z5y/hR6XSLt01+p5/pUP2U5eZOj0UfkwQXsbRw+ralx1E4R8GWHUZqHZPHCa9WLUy+N1Cd7ruolnwpaqMI420v4SKs/NZJaWePtShPloyPHXB0+oLBj0mODXZNbpLyYo43NL+JoIzNATku1uMvA8mH4cYyTuMuAIqVRarkliliv9pFlTEgNGRYX/V2hLTwkr+IkUodAWR06cq740JJR4Iokt2UKhdvo2v1JqLfCLPgSq20iCuMJdnepUk/Xc1aHRy1+X4ay9svVmf4bXuWYpZMGWOSFqUdzOXeemp9dN9Dz4d1qE36UVXn08u2cU/c7mg1ePX6dSW019SIarS/ETVHz7vymXK9Uwxs9MOmi9Vacuz7Gt9E+PDsWXZ8utzJDFkwZFXqdfBqeyHffC3On8t/pPCR5rW9PlLPLDjdqHmvIsemn0zp+pzZNsk0oQO/psa+D8SUblN9zZl67pMup0UXij3OErcfVHqxvpwynt5eMeL58knRLu7ajkxTi/sTXwX+8/wBTbPFmkwLNPdbI6SxKKpKqMukzYofJF7m9QtLfkgzSSuqsq1MHDDKTjS9w1up/Kz7YO5v/ACJ6+WbLo8cVFtunKkBzcdthmbikmi3HjyLnDNP+6UZm3PdU1yhLKllVpluDJ8OW5XZGe6NI0ajtk1KP6lWoneljGrqXP6EYT+XtFml+yS9JAVDEMgaVtIuWD1KVs0zelcU/UDOsBJYEaO0O0Cj4SQfCSL+0KAoWNeg/hr0LqCgqr4YdnsXKIdpBUobj7VfBZ2sai/QCrtDsLex+gdroCrtBRLewOx+EEQnjXwpevgxcI26juxQ3XKMTKJQ+pFtFEXuaEUR7SyKfrRCnZZFewE8co45XK5exa9Vkk2oQUEU0/ERU/LoCa7pSvudsujLDDlW/coUY2rkySaXCbAnlywnSUH90TWVtVGP8yu21tAmlOT2il+oEmptfUl9iEYTt3N0T+Dkf76X6C+DO2nP9QH8OC+q2/uJYod9qqIPDLy2x48SU1a2YFvxIRW7SISzQ/i8+hGeOMJtJJ+5Fr7AXSzQT+VSaIPPJrbG/1ZLJODwQaa7lyUd6AtU8jhtFKiDlkfM6+xPT5F88Gm+5bFLdSap7AWRwvIpfM7S2IdmNcq/1JYZzjPZc7biyxnGbUkkwEsUJS+WI+7tVUk0RjcXdlmqwx+KpfuySYGTU1k7Xe6GtU+xJptrYtWOH8KDthjk1HyBj1Mp5UnKDSQsfxMmP5UmkbJ5Mbi1JrcpwSji7vMQKcX1U+UaUtjNaeVuPDNUN4gCVkoodDSAnFDh8uZN8cMcUElJuo+UBKeJrI6lt4omsTlG+52KKnPCpRq1s7HFZbUdt/QBxxU95Nk1gTvdi+Fl/iRJYpS/faAccUOG1+o+3HB/utCenUFcp9xJQxxj9KT9QE8kG/ki/0Rk1WoWPU45SjSaqvU1rNCCqn+hj1sVPH8Vwtx4TAik4Z/hQhWOavuLMKqLg5d016eEZsWR6vC47xnH6WXYJN12Jd30zYGjTvt1D90bDD9OSMlxZvtPcysIYJC4IoABADIMmRYFMzn65fKzoTMOtXy+1CI5THF0LwCNIc1Uk/B0ulZO7Bkh6O0YGnPE9t0X9JnWpcP4lQWOqUzW5cU5XUqIrm63/AHh/ZFWN7s2arTyyz74+hmjinF/NFoInBbnR6S/9oyR9YnOSN/SnWta9YMVY6gD8AZUeAEMBhYgAYgbFygGRGJclg4HVFXUMn6GVco19V/4hk+yMiNM1rXgs/dZUvBZ+6yo7em/3PB/cI65XoM6/sMlpf9zwf3A1avR5l/Yf/YzFcDLgwT1OHHgn2xlFdzfFlc8SwanJjjNSUXXcvJSuEyeN/M2zSNGM6PS3/tn/ALGc6HJ0Omf77/7GFjqDEMw0BiHRQD2EhgNAAAPgHyLyMAAKAAAAoAFYClNY4uUv0AJTUFcmULJn1D/YLth5nL/Qjjxy1U+6d/CX+ZtVJVFUlwgMctFqV82PWSc/RrYjHX5NPNYtdi7b2WSPBvI5MccsHDJHui+UyBSnGOJ5LXYldo8zrdTk1+p3bWNPaJ159P1EP9m0zlkhPiPlF2L8K66Me54lfp3IxdmOP1rxrk6XJk0s1PEkmk0rVkIwklcnbOvm6JrcKblp5V6pWY56ecX2yi190MdmNvpLjWS2vsSi21sdvpnR5a2ShXPkr1/SMnTNZDHmXyt2n7HXrBaHpmR6d6ieF5aVqEeS7UfhzLqMfxJLBp5VtBvf9SL6p+UxZdVjf7XL+zwxvaMV5OTDLkzTpyyZMkt6VtlRVqelavST+fE5L+KO6K3kfZ2zi0/c24dXqMDfwsrrzF8GiOrw6nbV4F/egByYxi1wP4EXyl9jqPpuLNb0meEn/DLZmXJo82F1ljKHvWwGV6PDJfTT9mVS0MVxNm1YslbU0JwyLmDAwflEv3iHwHZ0GmlvBr7ohtdgYZ45YpVJEos05o/HmmuK9BR0rfC2XsBQ5e5CVt7G3Ho5zVxi2vUuj0/K/wDlgcpQbJxwyZv1GNaNxWVby3VFP5vGtowf6gVx0rfkux6aKe7v2HLPJx4pHZ0MILS459q7pK7oDFj02SSShCl6s149J205u2anJ8CCl2xUW0uEzyDdyb9Wz12V9unyy9IM8hHhBFmBfObMMe7Pij6yRl06ub+x0NFHu1uBf2kB6mqdFevn8Ppupn6QZYuTF16fZ0bP/aqP+ZB46MdkdPpsO/X6aHh5I/8Ac5y2aR2egw7+q4Pbco9jNKTakk03wzz3XdBhS1GfHFQWGCbS8tnoL+azz/4nyShHJji6jOMe4ivNxyxlzGi2Me76YydeiMsFuj1P4UxJ5M+RxT7YJb/cDgPdV3Pfw2QyY2lex7fWaLTZ88I5MEXat7FGT8P9PnxCUPsx2Lx4eUXZHtfoexn+FtO94aiS+6KJ/hbIvo1MH90EeV7X5GsbZ2tX0bPps6xSeOUnHu2Ocl8zVK06KcRxwpFyRpj0/WOKcdJOSe6YLS6lZJQ/K5XOPKS4J1OK4wvwKUXZesGpj/8ApM//AMRPHm//AGXP/wDAooqvO52+qZNDl6FpoYox/MKk3W6OV8HLy9PlX3gyWSGaMO16fJf90DJHG4O5SVFeZxlkTT4Fn7lNxyJxa8PYjjg8ku2IG7RdUzaPKsmCK7qq2W5tbrddKsuaXa+Uti/pPQ3roynLL8OEXWy5Ojq+kafQaR5IznOdpW2Zt4snXO0+hxRj8+7fCL9N06c8nbjXbF8ya4OrosGN/lp41FXHf1bL8C7oNrmzxZ/p5eR3mr01YsUcGDHhhK4wjV+pIT2a9kFnqwvpypnlPxbK+pYl6Yz1dr1PHfimV9Ykv4YI6MuLLkYnyBUMtw4nkjLtTfjYpXB2OjwUdN3yX1TOWzLxx63hO13tHNafX4tDGCWOGFSl963PLZa+JmcVt3Nr7Hs08ThLURh+0l8t+xzOsrHh6PmcccYt1FOjw6t08+T+3oy1/wCLyWPmyzFvmj9yuGyLMG+de7PovK9+s2KGHGpTSqKX+RXPXaeP71/ZHLlwr9CCq/uBvy9UxQg5KMnR5fqHdlj3Pm3I6mt+SDh5OXq5rtdehRzVOUfpbT9UacfUNZjrtzSr3Mj/AMzZgx/En2QW6VtlRHU6nNqO15pW/GwYkkivJayuL5TothwZ4dW3UG6XBmjjjkTexbldYHXnYg9NPFpFnc+XwXgFo0+GD0LraRVHPkjwy7HqsnFJlRv0KjhhGMnsnuzp6nVYliSjJPu2OHj1WJz7Mt15pFufUYcnbDHFqvLVFUseiyLJPO2nj7m7Rt6bcfi5pK/EWyODW6bDgWPMnLu8I14JwnC8cag+FQHN6npZ5YR1cJucUt16Mho9POemeZ7QjKrOtkjDHB/wy2aFDtx6J4ZKoOXcFcjX4uMkV96MksjlijF8I9E5XHIowXw1jduvJ5rfs3CI8j7dkRXJpWNy06mvDpkFSQ+ABcgCJ96iqiv1K2woCSk0S+I3yVOkCkiDTjyRXJc8uOSqmYU2XYJR7qktgrXpc89JmWXH9P7yPUYM0NThWWHDPLSca+Xgv6Z1B6PUKE23ilz7Hl/Rp8p2O+vPjuanG67kcrUayUMU4Llqjs5qljc4yuNWeWyzc22ef8+Nt9uuzL0hDUamEqhmnFelnS0+s6jLDPJjkskcf1JrejlxjudXpOv02j0+b4mSpy/drk9+Xp5Z7rTo+pyzqXxMUG17Gj8xgW8tBim/c43TJp5Ms3spNtI2wyzlNp4qj/FZZUsa5a/AoSjDpeCMmqUvQ56l2y7mmmaasOy/Qo8/r5N6uWTwd/pbeTBCc1u/Ap6bHNfNFGrSw7YxSWyPP+jK44umE7WxKlulSR5Lq0EtZKUeJ7nqtS3HSza+pqkeZz9Oz5KfctvU5fltvut7Occ1oi1sap6TJikoTashLBNS7VG37HvefjOluGf6V9yc8eSP/Kmv0Kcql2q01v5QQAgJURQkdHDjcsMJeGjAjsdKanpmn+6wIrBtdiWF+p0VCNcB2JeAOesH3F8GX8LOj2oVEGKODbdEvg1xE10JpAZPgv0BYfY0tEb3Ap+CDx0XKEm/T7kvh1y7AzvHd0Rjp5Xu6RrpLwJoKoWKK9x9voWNIVERzOptrLGPsYjodUh80J/oYGaQItxvZWVJE4FFvknHghFliAaV+WJyjCVXZNRfoinUNwmm8YF/etqhZNSb2jAyY88/CSNMpz7Yu9mBbWRL6Uia73FNV7mdTn/1GWw7/hy+fdAWqM3++L4UlJXke4Y8Waa/rKX2CWCcd3kbAk8Fyp5ZA9JCm+6V+7CWCcpR+HlaTW43o5/v5JMCP5THLGpW2/O5F6bHH93/ADJY9OrlFuVrjcsjpU/rUn+oFeHHjXfjklUlsylYoexpenxY5KXbJ1zbHk0uLvuK2e6VgZoduPJGVrZhqHj+LKUWqZc9NFcRQ5wjPTxTS7ougMinFO97LtRl+N2z7GlVWRlD0Lsc4vSTxSq7tAZKk+Ir9S5wll0d7KcGZ5Sa87F+jypTlBu+5VQFPwW1vlr7Dhhi1NSblS5Iz745JQadxCEskZpuFRe1sA+Dp0vpsrShjyPtXyjy4sym0mkvcreLJHec016ICOopZ04qky7FvEz5sahBSTbt8F+mdxAuoaRJIlGIBFEpKo9w0iVXBoCGLLHvcFfzexY8jjt8OX8iSxynjXao7b2TjKE6c3XqgIwyyatY2/uEpZnv8NRX3LJ5scPoa+xGWq2aS59gE8Mpr5slEVjitm+6g+JNwtKvuVxjKc2m+eaAcpRtxiqK8udOFfw7SNCxQir8+pi1OKPdLInSa+ZLyBRlhlx6iMsS+R00aklFSljjbk92imGaGaEsKuO3ysnhTwQ7XK75A14YrIpJfuQbL8T7oJmaMVhjJqW8q/UuxTrJKLrfclWLgADKgAEAmRZJkGBCZi1n0P7G2Zi1a+RiDk+CPkk+SLNMr8O6ZLTL4Wvx/wB4jpuWSl8uqxP3QWOw+SnLyWvllWUyqCYUn4EkSRGuIvDB+KJ6dLBnWRbpJoBjq8bo6nG+XX3LFJS4aZzfuNNrhtE6cdICjDKSju7LkwnDCgTQblOEwHXuFBERh4DwBwOq/wC/z+yMi5NnV9tfL+6jGuTcZrUmTX0sriWX8r+wR3NJ/uWD+6PUK9LlX9h/9haP/ccH90lmV6fKv7D/AOxP7V5P91fYni+oguETx/UVGmB0OmP/AG1P+yznQfB0Ol/78l/YYV1gBDMtENACAYAMoAAEADAAABhQCQwSoaQEHsrfCMva9Vmq/lXP2LdVP5ljjz/qXYcSxY1Hy92wJUlSiqS4QwoaRAUW6fT5NTlWPGvu/RBgwz1GRY8a3b3foeg02nhpcSxwW/mXqeXfvmuenTHHpaXS4tLCoRTl5k+WX2/URKKs+Pc8s72u/JEo2Q1HT8GrxuOfFGTf71bo044VuxZciWx3w7j765W9vI5M82DoWGUXGXxH9MvDR52XU8HUtdKPUMs444Qbg48tnpOtada3puWK+uC7os+captQ7ls/J9TRu8455Y8VZczl2xT+WOy9kd/8M5Py/wAXUr6n8t+Ujzfa2k0dzoGswafHOGpbST7ltdnp65o9YisXU5xhHtUo9zRkUvmRZrNS9XrMmftqL2ivZFUV3SS9yiy1e2z9jXj1uZY/hzl3w9JbmHiTXoyakEadluvI07K4zbglSJJkC1P+65X6ROPitxj7na1ka6fmf9lnG0/ECj0kIRho9OlFW43wV6uSx6HNOltFlzVYcC9IIx9Tf+wOC5yTjFfzIrRo4/D0eBVv2JsvRFrtqK4ikh2Bw/xBL/asMfSJzF9SN/W3evXtBGGCuaCL5uonpdOq02FekEeaauaXqz08VUIL0igGxeBiIqjXNx6fqH/YZ5VcI9P1SXb0zP7qjzHCKjRpFbk6Op02N6/F7bnN0a+WT9zrdLX+3J+kWwO9F2cz8TS7elRj/FlR0cbs4/4rlWDSw/tORFee/fPRfheN9QlL+CDPOxTlkSjv7HqfwtjcJ55S2k4pIqPQbHnPxHH4uZxutkj0S5PNdXyd+tmvRma3HL03TMmWaSnH9T1nRdE9Fp5qUlKUq4OR02Lckz0eFVjRymduXG7jyI9s1nnl7vlVRUS90mzPb/Mzx+HHu/zLr5N4/WKbFe6INii/mOjLyf4h1WT+msqxza7IpbHN0ie7fqS6hl+N1HU5PWbRLTKoNhXsulZpT0uD4j+bt/yRHpmR5FqNVL/nZWo/3VsGLH2aXCo0m8SV/oWaaEMWmxYoSi1CNbM5432tX5NVDEk8mRQT4tla6jpr/rk/sed/EGfv6h8G/lxxTperOap19LaOjL2k9Tizyw4sc+5yyRvbxZ0p5McVLJkcFGPLZ4LSa/Lpc8c2NpyjxZo1nVdRr8Tx58lQ5ajtYHL6zqY6rq+qy43cJSqP2K+nq8kn6GO7b8G7p6/ZyfqwPadBx9vTE/4pWQ65bxYYLzK2Z9Dq5Y9FixwlTSOZ1vqOVanEo5LajZyy7Y1j9dbQLshpsiXFo2aNLFHJKcqXBytBmyZsHTmuJyl3GmOWc9BOclXfmaivZbHg/ivn7em306D1enjdzb/Qrl1DEvphJnOFdH0pHlrXk6i6+WCX3PI9UzSz9Qy5JcvY7uV7M81nl3Zpv1bNIr8jI3uSKg4TPS9I0/dp8Xc6jH5pX6HmabaXq0ey0OGWTQzhj+p1FHk/V6xdtX1umksUO36XbRxfxPk7dDhx/wAU7OzkXYoY7vsikzzf4oyJ6rFj/hjZ4PzY92vVnf8AFxo7E9NLtzd74iytMnp4SyNxjyz7LwOrPrEK+TFJv3J6XXPOpSlDtSe1HL/L5/jRx9j7m9jv6LSQ0enqdNvdtkRX1KS+LB/xQTONq77W1wzra1xz4JSxu5YtmvY5OqT7ox+wisK2NGn1LxuVfVJVYZ8XZPtapl+k0sNRqI4+PWi28STrNu8km/JfGOx14fh2E9452vZlsfw5kTVaiNfY4/z6/nXSa8nA1Mu3GkvO5HJqnm00cLXHk6XUemrBrHglPuUUrZhzRwQfbCO65Z1l77jFnGRQ35LsMKbbDuiuEizHOPE0biKseKXxXLxY8mVvI3Jf5GmWGcEsuHdLmIlqVmuM4QSv0COz+HdPCWmWScIybb+pHU1E9NhSi8acnwkjymDJm/NwxYcklFvdJnd7UvmlyvLCoZV8ZyWOLSju0iWZrJ06SqpQaY9K544TyQaayc+xKGNz0+ogt5SjaXqBLpjWZZcbXGOqPNazE8eRpLbk7Og12HBHUTk6mqSRmyYfi4nmjKNpW03yRXEXJq00/lniq+/j2ZXGH+0tS2i2VOM453GKdp7AWNNNp8rYRr02inqsj+dY4rkqzYvg5Xje9eQilKxy22JwVshO7ewCUbV+gLG7454LMSjTc068UXZ3Dsit1JLYDItm0ycOSH7xOIF8YyS7lwSlDvUfVySRHFkr5XwzRo1FanHPJ9EZWYy+NR3OoP8AKaCvZRRxI4sdJfFR1dX1DDnjTxdy/tHNzajTpfRjj9jz6Zzrvn7gjgxfx2E1ght8OLfujHk1u/bijt6lMXL4ik5Nuz0uDraeTyPtxRUUuaNccDv5ptlHSqhBqXMmdHs9AK0qGT+G75QnFQ3lJJe4FGsy/B0k5+Utjmafq2rxql2yr1Rb1PVQzx+BhtpPeRm0mhzaiVYu2/dmcsZlPay8dfT6/PrMTeVRik+F5LHOMXb4DBpZabEsc0u7l0SeG+SYYTH4d79ef1uSb1s3u1fym/pWKS78uVfVsrOg9NDnsVj+E1GlRtBcXt2xf6HI/EcYrS4nGKTc/H2Z1uxrk831jLPJqGpNqMXSRUrF/wBiSEwAkjqdGl+0yQvlWco29Ln2ayHvsQd4TB7EWwJWRbErlwmS+H5k6IqFoKb4RO4x4Vi7mwI9i/eHsuEOvUAIttgMVAAMAYEGIbEBm6jDu0rpW4uzkM9BJKUXF8NHByLszTg/DNREaJx5IkkVFkS2O5R5LIyoDXCCfMW/sU6zHBRTTkn6McMzj6olqJ/GxU5qS9AMCv8Aio1bS0i+b5kyiUKXGxdp98U4JcryBTGW+7NWlcZTcZPZr1MVU6LtPJRyK3tYFiyT7nF5JKvcujHa3Nv9SnVxSzd0eGVxb9wOjBd2FOM3Fp0yxYpSjfx539zHpH3d8X6bFPxskZUpNUwN/wAJwmnLI3G6dl6wZ238PUPt+xy/izfM2ask8kcUZ48klfIGjJptTTTztr7EVhyyh+zy1JbUyiObUP8A5rJYZ5pZKUlYFn5XVS3nk/kOGDtk1Pu3D81qo7KMGQnn1M2u9RS+wEpabG9pfE/Rjhp8MJxaUmr3UiWWepw9vYoTUlZVLNrZKnjgl7ICebS445ZpNJXsVxwKElKLjsOazvEpJ3LyqKe3NL6oz/RAaNVD4mRZI0u5blEsTit5qvuWwxuennCSdxVqzPHDDzglL/3FDyyj2Rk34pszSzYknTv7GyEIxtdlJ+GO5JfLjxr9CDmZZd2PZOiejlv2luqg5W2km/Qy6Z9uZL3A6qRJIIkkgEiaQq3LEgM603xMkrySil6Mshgjil8Ntyi90/cM0pYn3pXtwZpazJafYlT9QNvbhgvpSI9/arSTRRrJOEYZI/TJEdFm+LOWOXpsBd8XvbTWzJxbiu2Md/Ushhgo2o7+pFzUZVYEXFvaRHJGEYNNbPlMWXULwm68olHSrUO5Tfb7AZoaWpVhVN+X4NEIxhD9rH5lsScXpZuCalXG5XJZcjWRr5b3AUe3LOnGkiVr4jlFVT4HlnFQSjH5q8Dh2qnNWmvHqQab3BsgnsiVma1BfICEwBiYCAjMyan6TXIy6j6WIjjy+p/crlyWT2lL7kGaRbpn+0/QtnvqcP3X/cowOsiNeOPdqsW3mwsdKXJVk5LHyV5OTLSA0IaMtGhiQyKCeNXJbEC/DHayC5bEiKJInWuGNMiMdOJpjIJjsdOH2toVUCYNmpWbi4XWP9+/9qMS5NvWd9an/ZRhXJ1jlWqPBP8Adf2ILhEv3WEd3Rf7hg/u/wCpbP8Aqp/3X/2KtF/uGD+7/qXS/q5/3WRXj19KJ4/qIL6UTx8lRogdDpb/APUI/wBxnOi+Eb+l/wDEIf3WFjtIGAGWiJIEh0UIYwSAAGkFUAAhoYCAkCQEQlLtg5P9CbRm1ctlBfcCGmh3ZXke6T2+5rDHjWPFGHot/uTSIIxVlmPFPLkWPErm/wDIIwcpKEFcpbJHc0WljpMdc5H9Uv8AQ82/dNcdMMepaTSw0uJQjTk/ql6l4IaVnxcs7sva784ErZoxQpWxY8fljyT7VSOmGHPdc8r31BkyVsZZytjnJsrk6RM8++nTHHiOTJHHBuclGL23PnOvh+3z41xGbSPc9Ry4I4lLU24wl3KKfLPIZNNPWZNRkh2xfzZKl6Hu/FjfrG1ysKqMlLwaoKPb8rRlbUo9y8kO5x4Z9N5W1qxNVujPDUTXKTLPjKWzVFE73JRdsrcgg/mA2RVJGjTYfiP5uCnFHvlCPqdPFCOOCSQRl6ulDpWavKSOFpl9P6Ha6666XNesl/3ORpVc4oqvQZPlcF6QRj1q782jx+uXu/ka8r/aL+6jJld9V0sf4YyZBtk7k2vUCCkNS3A891eV9RyeySMuP60Wa+Xdr8z9yGH6wjRiXdqIR9ZI9NLb9NjzWD/eINeHZ1/z2VriP8iVqNo/BhWtyfwxJR1mV7LHEnV4j1x10yXvJHmjt9ayzloYKSpORxGajNbdGv2f6nY6TG9VkfpA5WlX7FHX6Svmzy+yA6uLajg/iud6nTw9IWdp5I4scskvpijhdXw5uo6hajT1KEYKNXuFceM3CSlF00bdP1XUYHtIzYtJqMuR48eGUpLlJGjJ0fqGKPdLSzr2COji/EuWKqSsqn1DS6ibnkuMnycacJw+uE4/dEO5E4der0Ot0cKXxEdrFrdPKCUcqPnak72s0YvzT/q4ZX9jHhO9auXXvsU1LUyn3Jpxrkue3B4vB/SirtuK/tM6GHJ1BV8TNFL2NScTr0TKs2WOPDkk2tot8nHnqJpftNQv5mXNqsUoShLMn3KnuVOuCm5Ocn5bZt06/Yv3KtVHTxSjgbcm999jZoIRytRbSoK9BrcssOhxv4fxEu2HbdXtuceet0kdnppYn7HU6hNvHp8dp1bZm7YyT74pr7GMZxbXCy5PiZp5FbTe1kO4c3vL7srs6sLEwyTaxS+wlwV5n+zfuBlR09KuzAjmtHUiu3DFexA1qZxez2MuqyPJlUm/FEyif9ZfgzY1HpukZ3p+lYMz4hKl97L+s6+Gnlhg1XyXS9yPQFjzdMhiyQTUZOW5xOsah6nqOWbVKPypHlxx7td7/q1f0wntHG/1NmmzSz6b40koq+Tzl0X49RlhjcIzfY/B7OPP109RqoOLhCcW/ZlGHRYtToZqb7cndszn3G77VfsaMebFVTcl9mEYM2LJhk1JJ15RFTOvBaXJs3/Mm+n6CXMn+jA5ON/PF1wz2HSpzWDHmacYu5P7I8/PQ4YZ8UdO5Puko7s9HLUdkddhUUsWmxdia9Wjy/onl6dtd57Uw6xo5SbcpW36Hm+r6qOq1+XLG+3hWRwrZfYxyncn9zWr8+Ou9hnsuXpKPBp0OCeefZjaUm/LoyqXjwT+ZV2v+R6HF38EZ6GE5anPidR+WMXbszz18sqfxH+iMGDHFVKcqfua/iaSCptzAhptXGGocuVPaUfVF+q06x5YTXzYpbxf+hlnLSN3CLUvuTwazIl8DaUJvZNcEUtY8efM8lU6LejRvWTlW0Y7E9XhWCXzQTvhrya+nYlHulFVZz25cwreudrsaeOyNcVbijPgVUXuXZGU3xCLZ8Lvcnu56eQ6xrHPW6jtfMqsyaPRfmJqWafZi8v1KsjebUy/tTNzl3SjjW0Yqml5Pv65zGR4M/rZHQdJcVGDcpPzY9V+F9VDCs+mhLJje/2Dp+LSavJlx5ZSwvHByi4+WvB6PpnWvzHQpaaT7Jwg4N+p0YeL083jcoT5WzM+uxKGSLiqUtyNtZpU9u5qzY+2eKMZ7lE/w/BT1MpyX00tzudQnix6eTfb3vZJHn8MJY01jk0m96LXCSg5tSdb22Ub9LkcMcXfC3XqWYcs8mW8cJRpWpVscvT6tvLHH4lwdnRTjFZO6dVHhkVDNotFru+eZfBzKP1RdJ/c5ulwQ74JTU7dFuXLleJw9Vs0Z+m456XKp5Eqi7pmVdTV6PBg7MnZG5GSGlhq9XFd0cbe1tbGvqGXJrZfHh8OLf0xWyRzMkdVp4ylLF3e6J0Ty4p9O1mbBlfD2kuGvY5upn36mc/DNn9K/Gmo6rGppbXe6Q8ml02o3081F+jZUYsNd6bJ5sfoSyaTNi5i2l5RB5HVSRRS+5Lt8cgpyTb9dixtC5CKu2iSHKhEEmnaI5dVLG+3G/uKc2o3e5ldvdhVks2SXM3/ADIq2xIvwYJ5KUUTi9pRXbybdNpM+oXdjh8vqzVo+lQ7lPM268HahGMYqMYpJeEBxMkcmjinKS7r4TsS12WT3yNHVzaDDqPqtP1RiydB3/Z52vZoCh6icn9f+YpKU/qk2vSxT6NrIfS4yX3KXpNZifzYp/oVFyxLhIvx3jrsbi/YyQnkh9eOf6plq1uOP1YL+9ga/wAzlU05ZHL7miGuT+qJz11HAlvo4v8A9zHHqeDxo4L/ANzA68NThlt3Uy2K7uHaOOupYr202O/7x1enZZZ4OTxqMfFEVY8afJwvxLp8WLS45wh2yeSm/wBGelpehwvxYl+Rw7f8z/RgrzYWCEysmWaeXbmhJeGVIlB07CvVRTmlL1Q6hH6mZ9LllPTY2vSi7sb3ZFN5WlUUKm+SSSXA2gIqKFRIRAhLkfIUUIAYiA5E9hiAi0RJMj5AGcbqkOzV2v3kdhs53V4XDHP02LEc+Mq5Jp7lPkkmzSL07W3JJX5KVItjNAWRbfD/AJkp04tSj+qIbNk49/7r29GBWl/Dkr7l2HHk7vqW5R8t/PCvcshBWnDJ/mAskJqTTxN+6IVTuUZR/Q1TnmxSSilJD/NzS+fE6+wEcn7XAmk6j5M3ZJq1I24dTjalCSqMnwWx0uknxL+TAxaXuhlTk9g1knDO6jcXvZsn02KXdjyPbxZKemlnwx7K71s7A5azL7G7STWoxSg3wRn07UrnHFix4s2CXzYnFeWBDvptejJ4syjkTshqtMoz7913ehRGKTS+JX3A6WacsTt8PgrepXDYZpPNpUo7uPkwtSvj/MDrQzSngS57PJFayK2boo0GRwcoz4kZ80JRyyXi9gN8dRGU/ktjlrIRbVSteDFppSx5outvJPWxl8buxrZgXx1ilki1FrxuLUZp4Mnb2p+bZiUcjrwa9XB59NCSfzR5ZRV+ayOW/ZQ9XLJice2dRkrsyfA3uU0kbcqjqNKlduHkg58pSk/myNkPoyIJOCe07FJ91P0A7GGXfjTL4owaCd42mbkwJbEkQscWA8i7o7nOy4HGe80k+DpeKISwYtVGMctpw2tMDPp+zJhenc+690UY5R0uR9kJOXBqy9Ohp5RyaebUk+GzZi1OPFi7skE/dIDJh788PknTfgnPR5sEVNv4i8oqnqsTzueP5LNLWs1D7Y5F20BPHkwQx3JJOt1XJlhkTyOGOTgm9iaxywZvh513LlP1L9ZLTLCkqUluq5QFb6e1B5fiN5FvvwyMtQ44u1R3YQlkzxUIZNuAeB6bIk5d0Xvv6gQxtxb+Iqlyhdy3Hmn3St0kivDJTkwNkXcUxlWF/LXoWGGgwAChCGxMgjIy5/pNT4M2d1EQrj5PrkVssy/WytmmTg6kjp6SnnTfhHKWzOjop3nh77BY3SK5ljIZPYy0rWw0RsaM1qJjRFDRFicVbNMVSoqxR8lxFMaYkNEaPyAAgGthiGAILATLBxer/wC+L+6YUbusf71H+6YDrHCtaWyob+lhFfKvsSrZlZdvRf7hg/u/6lz+if8AdZVoF/6Zp/s1/mXVcZL2ZFeOXBPF9RDhte5Zi+oqLo8m7pj/APUcf91mJGzpn/EcX2YWO7Qx8gkZaKhjrcCgH4AdAJDAPIBQ0AIAGkAANK2ZIft9X7Rd/wAjRkn2YpS9EU9PjWOc/V0QauWPe1GKuTdJC81y3wjsdO0Kwr4uVXlfC/hOG3bNc63jj1LQaP8ALR7pq8r8+hsSHQz4e3ZdmXXonoJF2LH5YscL5LJSUUdNeHPdYyv9QTnSM052wnNsqbGef9RrDENmXVamGHG5ydJE8+ZY4uUnSXJ5TqnUXqsrp1ii6S9TWnTdl9tZZeMR6jrnqJvJkdQXCOHl1mVZJqEnFSVOvKNOrjLJppze1K0jnZFfZLxJH2teEwnI8mWVtQT7VyCnY3G1uVuPa9jowviyRCK2Q3wUTU/konhfzIpgi7BG8iCOljyRw41llt2vazXj12KX70f0ZzeqR/2TFBctnPhgm3zX6gdfrmeOTQKMfM0YdGrzQ+5n1GKUMMe7J3W+DRpFUr9Cjs5X+1aMd31n+7hM89f2yfcyENbj+M8qfzNUZV1O7cknuYoa3HL6tvsW/Hg03GXCKPPZ5d2oyv8AtMlgdSk/YqlblJ+rssw7KQRo002sqfodLCvjypNRZy9P/WOzo6D/AHqCfkzW8W6Gia3nkRfjx4sfBOSS5lFfdlcsmKKt5YmHT+nM/EUl8LBBcW2cN7nT63mjly4owdpJnNo6RyrpafbDA63S324M0vWXBy8SrHH7F0M0scaUmr9Co363Nky4HihCk+XZzZd2F7Pt+zHLUN+WyuTT5QVfpOoflsjkk7fLRv8A6SlkVucq92cfYhJt+Qjq5dVjnFqXa79WcvJg06n3fLX3M+RblcnsBtWo0+P6YW/sTfVckVWPGv1ZzotVSTb9iyGDPN1DFO/VoI0y6nq5Laor2KJ6nPk+rJL9GdPF0RrD8TUazHjVW6V0VPQ9NT/4jOT/ALMArmd182/uRk7kdP8AJdPT/r8k/uqKtRptNGLlh7tvUiMMfrN2mbUk14MUPqs26eEp3GKt1skUH9LajuqVSS4svj1jG49uTG1fLTOVkw5cTrJjlH7oglYHVh/R2Z7ZZwfuS/o+Et8WqjL7nJr2Go+VYV1JdO1MVcYKa9mYtXDJiUVkg4t+pCGoz438mWS/UWfPlztPLNyriyiuKuSXudObqK+xz8Ee7NH7m/LxsEVRj3yUfLNEOk5smRbrtb5IaRd2oid/RtPPjUnSR5d2zwdsMetehxw02BY8e6xtJv1PP/iDT49P1G8X05Yd56aGFabC4SmpSyPuv7nnvxO4rX4sMX3PFj7ZP3PN+fK3bXXZOYuMyS4LNDi+NrsONrZy3RXrcn+25+xVFSpI+k8hDKVlflElkQGnBH5zXGqRjw5IJNuW5dDNF7Aa9Lv1LTbWoy739kdLrerwx6XD4Me2erk3J+qRR0bHjyQz6jM2ouPwo16sz9bx5ZarFixYpyxYcajGkeXKzLZx2xnMXMvthN+iMCR0NRiyYtM5TxzgpOvmVGDhnpl9OdSSuJPHESXypFsFRWQ4v1Ds3JpBQEOxF+lSjqYP0srrY6HTunvVRllk3GK2iRY3KePNh+Bl4r5Zv91lmgxvHHsk05J70zP/AES7V55Nc00cXJkmtTkeOco1KtmctmvynHTHLxe5xJqtmVdUm8XS9RLhtUjy2LXauEdtROvubMS1fU9Dm788pdjTUW+TxY/jymXXX+bs44lvFmi34ds6kYRv4kd01ZzNRCcZPvi0/sS0usy6fZJSj6M+lPjz118G1rFC5y2N+acOk9KnLI18Sa2XucddbnBfs9OlL1swarUZ9bl+Jnm36Lwisq8dt3W7dm2GbFjmvivZLgzY6hTl4KZ4cmWblFXZR0snUtPHbFGzPm6lly43jpRi/Qz49BqJzS+G0n5O/wBP6NgxuOTNJ5Jej4HVY+laPLHGtVKOy4Ujp5Iya7+xU/KOiop7JLtXgyZscsWox/Cap79r4M1YxY8E8mdbOK9x/l5SytTfy3Vo6UMinNRrtyeYlObs0k5PUSqMt7I0oi9BilBZ5/NB12+pD82lJ9jTi3sjm49R3Zc2VYnkc7UU1wjtdI0PTloILUwjLM7cu57oIzZtFi1Ee+WNRvzEwZOlTi+7DJs9FLoukyK8E8kH4qexztVptZopvsfxILgsK5XdrtPs8cpJeqsnDU6fMq1GP4UvWjbi6tml8j0yb8tM1Rww1OOUnjSaVtMqOcuk4s2J5MGqi/SBgyYc2OTg8M7+x31otHHQ/mI5HDOpNPH7epRq4yx6ZZIybTCOLPBqIRU8mDJGMuG4umKOnzZHtBpe52sGqzdQxQ0+WblDGvlvwaY6KlV0Bw49Nb/rJ0vYtjotNB07kztLRw/etlsMOOH0wV/YnVceGjjL+rwbe6NWHpzTTdR+x0qJVRBRDTqHlssqiYNbBUK3JUNK3yNxa4qX6kCpjSYrkucX+Y+2D/dkn9wCUa5jf6EXDC/qx/8A8JOPyvZv+ZJtsDM9HhlxFf8AxQR0WFfVii/0NFAUVR0mmTv4EL+xdGoqopJewgAnZwvxa70OH/E/0Z20cP8AFn+5Yf8AE/0ZUrzjENiKyBoQJBXoeky7tGl/Czacroktskb9zqkUDAQAxBQECEMRQMiSEQITJMXgCD5EyT5IgIzdQh36Oa9NzUyvLHuxyj6oo88CHJds5RfhiXBWV2OmLLj7XaFje6NNJxAxrLKPk6Kw5Vjhkiu6LV7HOywqTRbg1upww7YT+X0aKNacZbSW/uHwIXa2MmXVZcruSSfqh49TOL33QG2UcsIp43fswWoyxfz4rRHHq4y2dovjkUltJMCuGowvJFuNb7pl8tHg1E3KEqvwiMoQkvmir9UD08ckE4zcJAS/otr6cskPBp8scko/Fakla9yK02qhvHO3+or1UMkXPffkC6ObqEOYKX6Bl1mocWsmntNconLXzwusmNv3ROPV9PS71NezQFWm1ajD9pjbivay5azp838yim/WJTDU4J5ZOG8JPdUXvFocniH8wKZS08Mt4pRlGXKROOg0mZKdtN+EyOXQYFHvxVa35Iw0kNXXbN45L0Alm6ZDHDuxSdremyuOkjqkksjhJL+ZYuk5Y/8APk/ayp4Z4ckscpSjLw7Ak+j5UrjqG68NFawd6eKcnGSdWW/leoP6Mr7feRVPBqcMk8+6b5uwJf0Lkav8w1+hHFinppSw5Jd0ZeSbwa7I/wBhlbj7yIT02vxPvzVOK3fzWA10jBO28st/QjHT/lMnZFuUGvJLLgy6hRemdequimWg12P5pU63ruAhPR4G2+xX9zLqcSxY/lXk35sL1OKDi+zIuSvLgmtO8c92lyBl0M+3I16nTTvc4uJvHli/5nYxytJgWXtbIxy78beo2u6LXqilPt2ldr/MDXFpq1wVTyLDqccpK4SdMePbGvfwOST+pWvRgR/ozJqMkpQzdsW/I4abJppPDkfxIPdMsw5ZTjKONuGRbUOWi1c95Zk34VgWS/JxxOMlFWvQz6bM8bccUrr19CeBQyz7dRBKS2aZPV4cEIKWLthki/3fKAhLHrNRU6TrwGn+FkdzilJbNP1LMWpyxx9qirXDfgzZJRU3Kclbe9ATyuMdT34Ntt0uLIzm5yubt+hDvlP6FS9S/HjUact2FPHpY5ccnkbV8GZaeWCb8x9Tf8SMFb59DFrVl1EH2y7K4XqQWY/NeSzgwaTWfN8HOu2a2T9TdZFSsTEABYADAj4M+fhmjwUZl8oHGz/1jKZF+p/rf0KGVlFGrRz7dRi/vGUsxOssH6NBY7suWVyLZLz6kJIyqiXI0wmqoSJW4miUVbIJl2JGFX41SJkY0hoKaGmICNJJjIokA0AgAYmwYgOP1j/eYf3TAb+sf7xj/umA7Y/HCtu9L7EvAlwvsSSKjtdOd9Pxr0bNCXP2MvS3ekr0bNaW5B42e2Sf95ksG8xZNsuVf22SwK5hGhI19M26ji+zMtM1dN/4ji/Uqu8hoQ0ZaMBIZQ0AAADEMIAAAoAEBKM3UZ9mmivM5F+GHwcEIvwtzJrE83UMOJPaNWj0XT9A3L4+aOy+mLOOzZMJ1vGdT6bonBLPmiu5/Sn4OigGj4m3bdleiTgRbjhfIoQtlzahEuvX/dYyy/oSahEzznbHknbKWy55f1FxxEmU5sihFt8IlOezPNda6pu8OKWy+poatV2V0yvjFXV+pfGk4Rl2448v1ObpcEs7ebImsS+lPyZ23llb+lce4Ty5HFR72kvCZ9vXrmE5Hkyy61ant7JptK4s5KUZdMxO/nhNr9C7t7n80m/uZsEf62Ho7R1YRiQyRbaLMdfFXdxe5Z2YpRnKU6a+lepUVxWw62CJIAxo1aaK+ItiiHJq0+2WP3An1NtSxR/s2c+WScXSR2evY/hZtGvXBf8AmcqVBGfJOU4rue9mnE+3FkfpFlGWlKPoaMcHLHOMf3o0By+5vlgWTwSTpEfhyXKKEpNcNk1mmvJHsH2EB3WOLoO32DtAu084xm2/KNkZxW9tP2OdVD7pRezCui8sXzb+7IvNFcIyRzSXNMsWeH78L+w4dqnPLvyWQS3JTlGUm0qQo7zivVhHSiqjFexTmyVOjRXBJYISfc4qyNRi+J7Ek5S4izVLGlkUVDZl0YJLgnWuMKx5KbaD4cnG0bc22FkIuDWzX2LKzY584MUcVtWbc0U1dFUUVF+lyLTzi1BbeaOzDqWDtfxYVGvTycWFUSk7gyVVE28kWpOVSd1Zdg0mOSdKq5IJXKKRuwx7YkFeLpsMk4x7mrLeodGhp+m5tTHLJ9i4Zr0S/bx9k2T/ABHk7OguP8c0io8jiR2uiY+/V/3VZyMS3O70HJjw5MksklFtJK2UbOp5I4VGDiu6f7zjaRmx9F0mSHdfe3u2jtShHLBd0VNevJiy9OSn3YJPHL2exBy834fg/wCrySj7Mx5ei6qF9nbNHb/M6rTbajF8SC/fjyasOTFqMayYpWvPsB47Lo9Ti+vDJL1KGqdPk9w8fd7nP6h07TPBPLLGlJLwUed0kV8Wy/M62Nken4tPi+K21asp/Zz4aAfTleZv0R3tJp3PFLI2krpX5ONp5Y8WTtbSc9kegjieJRc/lxwjs29mzwfpj0avie8pyb4W38jhfiPB2atat748yVNep2vjY5ZMeNTi3kbWz9jm9V0uaP4cxrP9ePLtv4Of5545dbz9xxMOeGLIskdpLgxy3lJ8tuxStS3EfTjyU6BCtjTKicC+D4S5IQzQiqeNNs1dNwrLq8cZfvySM5XkWPT9L0CfT9PByUWpd8k/Je5OUm/F7FUceTDq8s5KUYJVBPyThwj4u3K3J7sJ6c38Rxlm02HFDm3Kjykk4SqSp+56nq+T/bopXUYIjptJi1P9dp3JetH0/wA/+kebb9edg00XKkuT0b6JoL/qmv1JR6PoY8YL+7PR1y4833w8yX8xd8fd/ZHqoaDSQ+nT4/5F0cWKH04oL9CdHmdFo8msyqKUoY19Tao9NCMceKOOCqKVEqp7JJBXgiuF13NKGrxwhNqoNtJnFhyzf1fJ8TqOZ/w/KYYIoui9jo6TN8HD2b/Nu6MEI20a0qoI1PLiap43L3ZGXRIaiPxFL4be+xXFd0oxXMnRrl0jVf8AL1so+z4KMMugahfRljL7olh6FlT/AGslXsdBaXqWOWNrLCcY/UvU6SSl47X6E6rk4+k4I/VHu+5ohpsWPaOOK/Q3PE3xRCUI3UnROjI12+NhPUdv7ps/Lpr1RXk06p/KOqoWsjGnLg1YdfpZ0/ht15o5eoxTV1jbMU558f0xlBfYdV6v4uizNW+1+6oo1GjeVNYsmKcX4lueY/pDUQ/eT+6LcfWJRfz4r94sDoZOn67TptYY5P7pTix588pQzY5YUv4oksP4gxp/1mXG/fc34euYsi3y45/3iDnvoeSe+PVOL9FJluLp2sxbSm5L17rOtDW6bIt8a+8SalpZcZJRfoy9OOK+n5U+5Np+6LcUMsZdkmrOzjUE1L4qlH3M+txaSGT42TUdnsh044+vTh8OPFvchkxavVaWOPHik1Fc1Rql1XQ45JY05tfvNWWw6vhyupTlH2qh1FPQ9E9LKUtWqbVUa9TqdHhzxxd7eSXEaLcOXFkrsbf6EprHGam8DlNcNQtkFDyOL3wzJwnGe3a190WrULzhzr/2B8KOff8Aaw/yIqPZtdOiqWWEXUlP9Isv/KuP06jN/MsUJJV3yl92BkWTDOkpyX3iTePb5cjf6Fzwpu2Hw34CKFBJbpMkoJcIt+G0HaUV0PtJpbku0CrtCi1oVFFVBRa0KkBXVAW0g7U/BRUcP8Wf7lh/xP8ARnoPh+hwfxdHt0OH/E/0YSvNStNr0F4LtVDszzXuUlZAxDQVv6Tk7dXFXtLY755nSz+Hnxy9JI9NykyAAACogNgiBBQxICL22ESa3EAhEiICZFjnLtVsgpqRQ3sivv3FknyitOyFcnWx7dVL33KUbepQXdDJ6qjEaZSTpmvE7gYlya9O01uBXqI1KyOmwSz5HCPKRfnVohocnwtbBt0nswNMelzfMoosj0qP7+T+RvAKyx6bp1zb/UsWi064i0/uXgBg1GHNg+bE++PoyrHrlVTg0dTYz59Hhz712v1QRXDVY39OSvuWubyRrvTXjc5Gr089NOpfS+GVKclxJoo9Diy9iXfBSryW/E0k/qxx/WJ52OrzR27/AOZdHqGRfUkwOtmhp8bWTAkmnwhrQ4NU+9zcX6I5seoxe0sZNdQwee5Ab30ev6vUSRVDHPDN4pSan4lfJXDX4vGaUST1GLK1J5k2vUC74HVOY5rX3K8sdbCp6lXFeUWw1rUajmg17kpamWTHKDlCpKmUR+Lq4xXwPni0Ry5tdPG45cPy/wB0lp5zwP5Wmvuao62XmH+ZBjwZcsE/hPfyiU9TrZKnidP+yKaazvLjj234NkdY63g7AwYJyjJxdwkicp66X0ptfYlqpLLJSjFqa8luLU1jUZptr0Axp5Iy7cse2TIr4sXL4quD2TNeoyRzQVJ9yezZWpfspQkrvgDja3F8LLa4fBp02VfCV+C7U4Fk07XlK0czFKUVQHUjlt7Mn3b3sc6M5LyTeSbXIG/4i9SLypLkxRcvUkrA6UnHIo5Y7ZEqdeS6Opyxitlt5ZzMcssVUZOgl3v6ptoDZknFzc8k42/QqlqscV+zg5P1Zn7FySUUgHPPmyee1eiJQhfO44pN8Wy6OKT/ALKIqSaiuBtyl9KpepKGNL3ZPgiq1GgkiYmgMeq0kM8fSa4aKdPqp4J/A1S2X0yOg0irUYIZ4ds1+pBYnatcDOZHLn0ElDJ8+L19DoY8kMsO7HJNATsTYvIMoCnN9JcU5X8rEHH1X9aZ5GnVf1hmZWUSUSIID0UH3Ycb9YikthaZ92jwv+ySkRpnyqoJlaZdlV4pexmizNai6O7NUFSM2JW7NKexmtJokitEk9yKkx+SN7Dsipe40RQ7CpDI2OwgsTYmIK5fV98uP+6znnQ6v/W4v7rOedp8cL9b4r5V9iSIx+lfYkgjrdK/3Rv+0zYuTF0h/wCzTXpM2r6kSLXjs3+8Zf77/wC5LTusn6Ec/wDvWb++/wDuS0/9Z+hplqNXT/8AiOH7syo06D/iGB+4V3vI9roT5Ay0fBISVhTXkBgRc4R+rJFfqVy1mmjzmj+hUXBZkl1TTLaPdJ/Ypn1T/p4v5gdIKb8HJfU8747F+hVLW55c5mgrt1XLS+5GWWEfqnH+ZxPiSk7eRy/U7fQukfm38fUJrCuF/EctmyYTtamPawrvernmxd1p7NKzbHq+ug13aiS9pHqsWLHij24oRjFeEhTwYcqrJhhJe8UfOz/Vjn9jtMOOLp+v5Y0s+OOReseTq6PqWm1bSUnCT8SKsvQdDmtxxvFLw4Ov8jm6zpmo6d80byYf4lyiYa9ez3C3j1K+RFM8ls89oOvPFNYs7csT2UnzE7jkpRU4vui+GjntlwnDGdobKpyoJTo4/WOprTQeOEv2kl/I4a8LneOtvIo611T4UXhxS+Z8teDzEpPK7k3S/wAyeScsk+6T3b3KnkjfJ9vTqmEeXPLqXdsRb3Dd/TGT+yJRwZpcYpfqju5oNmeHy6qXujbHSZpSSaUb9SnVaSWm1eDulcZum0VGXIqytIiaepYVptdLGrrtTRmsgmlsSQovYYFkFsacDSywv+JGPvkuCWCTeRblHqev6bFqM+lt/ThrY58dDp4/8u37lmGcskLk7a2tltbWQcTrEIY9ThjGKj8r2RZ09fOyHWHfUMa9IE9LJY4TnLhIowcyk/7TBxLV8Ce8ZNWTWPHTp2wM3bF+CM4UrS2LY4siuTX6FUm1FpNpXwEQCxEZMCfKEW4I3j/U6Wh0GHUYZSyx4dbOgvHIrYR1M/TsEdsORr2ZkyaHJBXFqS9h04zEsKvLFe5HiyzSq88R046Xkvjwig044ubpIxXTEizHhnley29S/Fpkt5/yNKSSqKpHPrfHP1+BYdDkldtI898WXiVHsZQhkg45KcHymY8vT+ny5gl7xZvGsZR51Zsq/ftFsc8UvmnX6HSydK0jf7NzT+5X/QU528cc0vtBs25scNVcu2O5rUZSjctrJ4eh6/G7x6HPP37KND6dr8cbzaTJjSXMgMeCLeW/RG7GtjHjlDDJ/EnFfqT/AKT02P8AecvsgrqaP+uf90534l18M6x6PHd4pXNkMfXY45Xjw37s5uoyz1Wqy52knkd0vAQsS34O/wBHwaXNgyx1EYyl3bJnDjFx28nR0OPK5dzT7a9Cjsf0Vjj/ALvqc2L+5O0H5XXQ2jr+7+/GzIp5IfTNx/Uuhrc0dpNTXuQXfC11fNqcDXn5COOGLp2DLnySu95Uv9C3HqceT6n2s5vUte3lWCeGccF13y4kwOnpdRHV4PjQg4RulZl6tlj+U7FJNykroy45xnp28U32b8PYjhy4tO4ZM0VJJ8S8kV0I4sGqx1KKlDtSpmbL0LSTa+H3Y37M62Lrel1SlDT6XBFJU5VVFbyRS+X5l7Et4sjhafpM4a+f1ZMeCHfdefCH1rWZfg6bRyl86Xfkrw34Olmz5sWbI/6rTYY3OTX1t8JHnZY82szzzfvTd7vhHP8A2vW76gw6hYJRm1K018yPQ5u7NoNU5XLG4LJBv1H03TY4aOOLJGEpq273N+KEVH4LiuzivYxskl6Y2vId2KaXyRaE9Np8i47X7HY1X4ahHI3gzSgm7S8GDJ0bqGJ3jlHJH77noxyljFjDk0ONfRkv2ZTLR5VulaNcserw/wBbpZ0vKVgtZGO0ouP3NdZ4wPFOP1Qf8jo9JjPNrcMYxe0lb9CX5nFJXaOrp5PSafTRwxrLnfdx4OezLmLWM9uhmyTnqZ9zdLZIlj3kjLrJa16iU8EMUoRjvb39znQ67m3rFjj4b9D5t0Z5Xr1eckTz9UyQzZuzDCSjJruaKV1DV559rm4Ln5divHqtNGEovInKUrdlkXCb7oyjv6M+lhPHHjzZXt67GiyvUYm3Gu3a/U0Uc7S6qWDGoKKcbs1R12N/XBr7G0aKDtK46jBN/LlS+5amnxJP7MiI0PjwToEt16IivM6/Sy1XVM8cCiuyk78spXR9dF7YVL7M6HTn8XNqcz/fyv8AkjtYlR4936bhlyO2OvseaxdM1ylvpmq3bshCcd97p0eq1WX4Gi1GXf5YM8fgVYk353Oujbdk6znhMXV6XhWfJ8Z/Tjlt9ztcuzF0XF2dNg6pzbkb1E7uZUJk2iNALcThGaqcUyYUBnehxN3GeTG/7MhxwZcT+XO8i9Jo0ABFRi/qVP2B6fFLxFk0rJKEnwmQc/No9N/zMUUvsZJdM0OS+xxX6nanHIlthlN+hkniyyl83Sr9+9IdVyMvQIy3xzMuToOeP00z0eNSg+38i8X/AL7NNxfKHR43+j9bhfyxmv7rJwz9QxOrnt4krPYOMGuCrLhj2327eaReo8tk1Wv1FRfekndQVWS/o3XZ33ywZK/tM7HwdOp2tZmxS/u0acWByprqOWa9LJ1XFw9KUZf7RjzV6RRvw9O0Mto6bOn6yR2IrsW0pP3bDvCscOm4oL5M2fH9pF+PAsT/AK/NP+9IsbsVhFne/Vibsr7rFZUWDRTuSV0BZsREk2yVFBQqH2saQEa9h0SodAVuJGi2hdqAqCrLe0OxAV0FFnYKiiNHn/xh/uGD/F/0Z6Kjz/4yVaDB/i/6MJXB6lGs8WlyjJR0epx/ZRn6OjnlQq3BBQ0BKOzPT6aXfpsc/VHmInoOlZO/RRX8Log1sQwAQABFAnuNgULgQ5cCAQhsGBTnXyorx8l84qXJFRSIMs/qZCmapYot2KOKPkIy6rA82milynZyp4skHvF/yPRUuPAnCL5SZR5vyacD3o36rp8Jwcsa7ZI52CMnNpLdclGmatMx5I7m1Nbp2n7oplC58BCxa3UYopXaXqXx6pJfXjX6EfhKuCDxL0Cuhi1+HIvRl0dRil++jjqFcE1FkHXU4t7Ti/1JWvDRx0nZYnNLZsDo5sMM+NwyK/T2OVl6XlhfZ8y8Fvxcq/eY1nzL99lHPninjdSg0V0zpTnPIvm3KfhR9AjIFGl4knwRlj9EBRQF8cTk6SKckeyXb6ANMkp16lSAotWWXiT/AJkvj5FxOX8yhi3Av/OZlxkf8w/Pahfvsz0OmBo/P6j+MPz+o/jKFBk1jAs/Pan+MHq9Q/3yKxFkcQCjkyzXzSbLIY16E4wUR3RFJRSJJAmv/wCkSg+6XZFXL0AT2I3uaVo80uYqP3ZZHp/8WT+QGfFkirUvQLb4Tf2N0NFgi+HJ+5eoRj9MUh0c+GnzTfHavVl8NJFO5ycjUHgnVQjCMPpikMdBRAgCgIoQnzsMCogFEgArnBTXbKKaMGTRzwT+JpZNesTpMi0FYsWvi32Z4uEvU1Ramri017Ecunx5Y1ONmP8AI5MTvBmcb8MqN1NlOdqEW5NL7mfs6gtvixa9SL0OWb7s+Vy9gVg1GVZJ7LZFJr1mKONLtW1mWishRTJpRIcDTA6ek1sceGOOUXS8mpZsWT6ZK/RnGhJLktjKLIvXTlG4S+xgi+CcMs4LZ7EYpJp2LF61YVSLSqE1XJNMxY3E0x2QTHZGliY0/crT3JJkVZYWRsLAnY7K7CwJWDEmFhHN6v8A1mF/2Wc5s6PWPqw/ZnNZ0nxyv10Y/RH7EiMPoj9iaKjpdJfy5F7m9bSOd0p18auVFtFEtdqZ/vJfZEWuPqf97zf32Gn/AK2iOVt5pt8uW5LTf1yNMtqSot02RYdRjySTai/BUhhXVl1WH7mJ/qymfVMr+mMInNciLdkVvl1DPL/m19kUT1M3vKcn+pm7qIylyVOrnqE/ci868IzNiT3CNPxpMTyy9SpSJ2gJqcmt7JptsrUkbOn6f83qseLuUIt7ylwkZyvI1J2un0HpMtfm75pxwQ5fqe2hGMIKEIqMI7JIzaSWiw4IYdPnxdsVXK3NKTatNSXsz4v6NuWV49eMkiSJxi2yEbs0QqKs8+GHlTK8ThBRW5Xkmt00mnyn5DJk8IzyZ3yy8fUZxxt+vN9e6Z+Wk9Tp1+yk/mj6EehdUcJflczuMn8rfhnocyjkxyxy4kqZ4bX43otbOCddruLO+q/yzxq2ePt6XqvUY6TE6aeR8L0PJ3l12pcYu5Sdyl6Ilny59fqElc8mTj0R29F0+OjwqEac39UvVns06Zrjjlnaxx6bp40pKUmvVl0dJghvHDH9Ubvg+o/hHpjmxOFKlFL7IrljkzofCRH4aCOfjwv4idGXr2D/AGGOVc45pnYUUnsijqWJZun58dbuDoDk9R00NXCOVfU4WmcOO8eTu6DJ8bQ4PVJwZxFHtbT8OiQCsmr23ogia4KBr3LcP1bFRZi+oo7eid42iWryPDpMmRfVFbFWgezXsLqUv9gy/Yg4scn5jN35Jb1Vm3TOE28c38j2fucvFwbNN9SKMuVRxajLCLuMZUgjkfhlubT5pZpzjByUnexRKMobShKP3QFqzzT3dkMmTv8AFFd+5PDNQyKU4KS9GEQsUuC6Lwyhkc01N/SlwQnSTtBY0YqUFszfpnmePshCTTd1R0un6KEdHhl2rulFO2boYkjFrpI40dJqJf8AKr7lj6bqErpfazsfKgeSKM9a48xPQ4p23cZeSfT+kyzZ32ZUkl5Rtz409Tl7Wu275NnRMdxzT9C9Tjn49A3N909k628m3HijjVRJQaa2a59R17r+Zi9agGKvdfzDjyv5mfbXVOsn2RxrzJhNRhGMMac3+9L/AOwtbp558EZYvrg7+5l02u7G8WdOLXqdcXLJ1cXUsmDHGGn0eng0t5yVtsjPrXUscJfCz9j9EjPGeLL9GRP9SM8bN9YUZvxL1xJqWplXscvU9T6hrb+Lny5F6Wzo5oUqcdivT9sXJJA44so5L/q5L9CNS/hf8j00Vx7+xc1ixY3kyqKjFW20B5SMXd8JHQ0WCCxPV6i1hj9Mf42SjD+k9TLK4rFpYc0uSvVan42VRrsxY/lhBeEVCnlllySm0o29kuES+PmSUfiSS9EyuLRsj03VZIRyQxrsl5bAojqc+OV93evRm7FrcWSlN/Dl78GTNpcuH66f2KpRdXKEkvWgOs51G+5NeqKOp6t5+l4sCh3ZO7eX8KMGOcse+OTXsXrPGe2bHT/iiwjXpIvF0qEX9Tu0c/UZo5dTHHfyQ2Zpj8Rr9jqFNfwy5M89LHvuUXGT3tEV1tJ/Renxx+LPO23bSWxr1eo0zyJxz/sFTjixKm/uzlRfw8Sfa5xXlIgtXp5LZ1+hjLHrUq/qmuz9RlGE0seGD2gvP3M2OOSK+VCnkg94yTHjzSX736FxxkLWjFky45qUZNM3fnsz7W9mmnaMUc8dl5G8rvxQyx6Su9izqcrj8+KW7V7oUZafNkcMGe5J12tbnExZfh5FPHkcJezL31HUJqUYY5Tjupdu5x8bPjUvXVaabjNbrlFWTTYMn14YS+6J4tZg1sXPMngyxXzPwyaUezvjJSj7FmXPpxkfTdE3f5bHa9gz67Do9Ku6EO9vtg34RY8zUJTrtiltfk831vP8bPiivphHcl/zq/HYnrcUdDmmssJT+G6p+TjdFwLPqo45q1VtGJJLw6O3+HMT+LPK00u2k2jrjjxm3rZk6Po8nOFL3Rmn+HsD3xZckH/M7S3Cio87Lo/UMLvBqFJejISl1TTf1mnU15o9LVg4Noo8uuqxT/a6eUX9i2HUMM+MvYzuT0uOf1QTMmbo2lyW3i7W/QCnHrsiXyZu5fcnl6rkx4ZuSW0XuZsnQYL+qzTh7GbN0jVxjXxlOPoyDodIxuGjx3y1Z2sa2OfpIdmOMV4VbHRhsj5H6P8Ad68L6YuvZPh9HyJc5JKJ5t/LCvsdn8STvFpsPclb73ZyoRTkqcpu+IxPd+Wcwct316bS/stNix/wxSL1JMo06yT08J5Y9s2t4+hYov0PS4LFTHSIrFOX0os/L5qtdv6yCo0goqni6i38ktNBL1dkU+pR/wCZpf0iwqU8+HF9bd+0WyC12mfKzfpjZox5dVH+syQb/sxJfFyS5kRFCngzbR/MRX2oT0mHxqNT/wDIufd5YVRRTHTQg7WXNL+9IuVrbcAAN2FABQ9h91EeAYDbT5imvdEHjxvdQSfsOh0wCMnHble5LvT5h/IhTHuAppv6Hv7lUsmWDp6eUl6xZaSTa4YGdanHdSjOD94lyamri7Jd7ez3E0lwiBVuSQ1OSrZMbmpcxr7AIkVS+Iv6txl7SIfHzRfz6Zv3iyjQCKY6mEnTjOHtJFy343RAxi45QWAwEPYoLGKqAB0FCTGAqPO/jL/h+D/F/wBGejs87+M/9wwf4v8AowlcvWw78E16KzkrdHdzR+aUfucOqbXoaQAJ7jQQ0dfos/6yH6nI4Z0Okz7dVFeJbBXb8ANqmIimRZIT4AQeQAAEx0IAIskxARexFk2RogQmOgAQUFAAvKOVql+T1qzL6Jvc61FGr061GCUPPKKibjjzQUu1NNFL0WJv5W4sp6XnfbLTZPqi9jdRRklo8i+mal9yqWmzq7x2vY6KCyK5EoyXMGv0I96R2rvlJkZY8c+ccf5AcqMifJtekwS/cr7EXocXiUkBloO00PQemZr7oX5KfjMv5FRR2ofYmWfks3/UgJ6PUeJQ/mBX8MbxQVbk/wAnqFz2/wAw/J6j0j/MdBjUYSTMWuUXm+VG78nqP7P8yD6dlk7lKIHM7A+HZ1F0yT5yRLF0uPnL/kByPhjWM676bBLabbOPLI45JR9HQEljsksfsPDK5JM7GjjF6eL7VdvegOVHDKT2i/5Fq0uV8YpHZVLwNtk6OVDQ5/4Uvuy1aCf700vsdC2IdVkjoca+qcmTWlwx/dv7l4mTohGMY7KKX6GDVf7N1TFlX0zOi+DN1HF8bS2vqhuh0bPfx4Az6DP8fSQb+qOzNADAQwAQxEUMAAAABFADBiIAAAITESsRQmJoYAQoUok3ViZRzeowrBdbpnMZ38kVK01aMmTQ4pW1cX7FRyhm+PT4OM33y2RDNofh6P46lfqgMgWWSw5IwU3F9r4ZXTAkpteScMrKu1kkmgNMMib3dFynS2ZjjFPkugq4JxqVqjlfoTWWLMvxEuWP4uPi9zPF62JklIxxk1unsTjnrlE4vWqwspjnhL2fuWJ2uScXqd7ibsjYWF6kmSTIWCY4MXWOcP2ZzDo9W3+D9mc43HK/XSh9EfsTRCH0R+xNGkb+kv8Abyj6xaOd3NSlFeG0buly7dTf3MGd9mpyxXibIrBO++V+pPTf1yK5v5pfcnp/66JUbh+AGoPJKMFzJ0giiT3IOR1IdFd/Pmr2SLo9G0y+pyn+oHDlNJbshvN/LGT+yPU4ul6eFOOCP6qy948WFU3jh/IDysNHqsn04JfqaMfRtZP6lGK92d167TQ2eRv7Inj1emm6WSv7yCuRDoM/39Ql7JGnH0TTR+qc5v7nZjh7oqS3T8liwL0A5ePpulhxhTfuc7WZFLUvFixqMIbOlyenhguXB5rquWEdfmx4Gmtu6S9SKp72nUbVGnB1HVYJJ4881+phUizBCebKoQV2c7qxy+xqZWPWdI6xr9RkjjqGRvanyd38/COT4WoXwcnu9jz2HUaf8N6aGXPHv1E/ox+V7s4/Uuty1+ZznDsb32Zyy/Njz015+3u5y83afkrlNLyeU6P+IJ4Jxw6h92J7JvwdmWtm56jJkh26XHXbk9T5uejOZcejHOcWa7WQ0+J5JvjherPF9Q1UtVqsmWXLpJGnqGvnq83mm6hFGnpHSH8VarVx2j9EH6+p7/z6PCdrlsz62dG0EdJo4Skn8Watt+DobDuwo9kcEWJhKUIr5ppfqZ8mt08P33L7FRdJlbMmTqkV9GJv7szT6lqH9MYxA6NMhOcVF20caeo1E382V17Ffe4yttt+7Aq6XLs1WfA+FNtGHVY3j1WWL/iZoxTUOsp+J8i6pGtdk96Zn+1/pjJoonkadJFuJuas0yk2l5CGRbOJVkdd3sgg+2MF67gdjpE25ZXJ/uot6m/9gn9irpkHixynPb4lKKJdVfboJfcK4uLg2aX6jJBbGzSr5lRCOtBqKVehau2S+fGpr0aLoaaO225dHCkY66cczN0rT5+MXw2/4Tk9Q6Vl0mT9nGeTG1dpcHrflSF8VR8llOPCraVNNP3LJLvqME236HoMWHFqtVleTHGVNvg0QWHFH5McY/oXrPGvFNQ0+KP8MEv8hPMYZ6qN7O36IFHU5d1Hsj6s58dGmWb3IwlLLJKHHqRho4c5ZOb9DTGoLtiqReJ1myaDT9s8jg+/m7NPRlXTc0/Vv/sR1E60uX+6yzp67OjSf8TbLEZ49N0aW+N//JkvyGiXGJ//ACZbewJlqdV/ktIv+V//ABMFpNKnax7/AHLluHaycO0JJfSqRn1Ojw6n61UvVF0pwgrlOMfuymeu0mP6s8f0LIlrn5ejZYO8GTu+5XF67TupO0vDVm2fWdJH6e+X2RTk65Bqo6dv+8yhLqLW2bTpr1iEcmgzytTlil7oyZepTm/lwwiVPVY5f1mGN+qKjsQwrnHqcc17nM1GSfUdR+Xx7YYfXJ8fcqjn0zf0ZI+6Zqw/lskXCGZJPlNclRm1Wqhjw/l9LH5F59fcyafTSyyuZ6TR9I6fmk/zGWUNtnjVm+PQNBX7HqDX9+AHmFoXW1npNKoz02OKW8Y00WR6Fv8AJ1PTP2cWWroerX9Xq9LL7SocGeWkxN28asfwIuPb2rt9DZDpXUo7Oemn/wD9Cz+j9eucGJ/bIicOuLl6TgyX8nb9jBl6LKL/AGU/0Z6n+j9e/wD9PH/5oi+m65/8iC+80F68dk6bq8bv4XdXmI1PVYlWTDKUfRo9h/RutXP5eK98qIy0cYK82t0sP1sqdeRjq4Y5KUISxy8x8Ml1LQxy6Va7BHtqu+PhnpZYOmNXlzPM/THjq/1ZmngjmbjVYPEGRXkcOZxp9sZL3NcdfFL/AHPFL3s7k+j6GS/qe37MrfQtG/419mBx5dQj/wDssYv2ZFdUlF/1Mf1OtL8P6RraeT+Zm1HRtNig3GWRteoC0euyZ3fw8UV/dNvx8vhqvZHBV4ZfJwXw6jOG042iDfmxyyu5Sf8AMI5NRpo/sZ1H0ZTDX451+79y/vU1SaZLjDrLqNRqM/8AWTdeiOe03N2dWaSVUjNLG27pFmMO09Jkjha7oKS9zqy6pFQxvFjjDt5SXJyu3wThgTVuRriOvj6vilSnilH7GvHrNNkpd/a36o4uLHCPLL/lqtmOK7kYqSuLUl7D7fY8/F5Mcu7FklCXs9jbpOqyWRY9Wlvspr/Uzw66fag7UyXgEFVvCmZ9bGOHR5sniMGzZucz8R5PhdHyLzN9qB15jS67V4Yrsyvf13N0et6+Mfqi/wBDk49qRek5NJcs55a8bfcWZ16jBhWr02DUazHGc3HZvwWPWaPTfL3wj7RRPTZ9WsGLFHQw7YRS7pS5NsOPnwYU/wCyhJz1C3rFHqmhr58kv0iWxy6XUL5J50n6KjS4x/hh/wDFBS9EaGN9N0bdqWd36zCPTtLF3WSX96bNbSCgIRhCCqMaRKvYdB5LEKk0Hah0MojRFosrYVAV00G/ksoTQEfArJVYOJQrFYNOwIHaGnRFIYD2BiSGEJBQ9hqgI0BKkPYKg0w+5ZsJqwIXvRJNryxqI+0CLd87ji+3jYdbkkkQNZJezFKpcKgDcCmSzx3goz9nsVvUZofXpp/dbmm2O36lRnx6qE3TUov0ki5O9xyV/upiUqewU+5DuySnfKQ2oy4XaBWzz34yv+j8F/8AV/0Z35Y80d4dk/Z7HnPxdkyS0OGM8EsdZefD2YSqtW+zP91Zw86rPNe9nodfDuUZV7HE1mNxmn6mkZgGAQF+ln2Z8crqpIpolHZr2YV6nwn6gQwT+JghL2JkCAYAJgFAFAmMAIhQ2hMKjWwiXgTREREyQmAlz7AMRQAOhVQHK6hjem1EdTj4fJ0cWSOfFHJHyh58SzYnCXlHO6bkeHPLTT9drA6K5H5BqhrcgPAb0MAEgQDYAJVYUFUAwAQDTAEAACAOEAAIYAuTzmqj2azKvez0Xk4fVI9uvl7pFRXidNM7PT5Xpmv4ZM4uPwdfpzr4kfsy0bUAgRlTfIeAACLCxsiwB0JbunwxiKOdp29H1CWGT+Se6OqYOp4XkxLNH68Zo0mZajTwn58kF4CGFHAhiIAAAAAAKhWAJOxNpcyS/UimKyEs2KP1ZF+hXLWYY+W/0Ki+xGWWvj+7jb+5XLX5HxFIDdTEznS1Wd/vtfYqc8suZS/mB1XOC5mkVT1GFfv2c135ZHsvyVGzJr8EXxJmefUov6cf8yl4Y8tsPgw9AG9dlpqKSUiMsubJj+HKbcPQl2RS2iRZQrlVOTpeBNUgvcbCK2R7hyuyAEnNkXOXqwZEB3fLFYAwqUck4/TJlsdTL95WZ6Y0gNazQl5oujNxXys5yROMnHhsnF66Mc8ls1aLVng/ZnOWZ+dyayxf3JxeukpJ8MlZzoz8plsdRNOnuica6j1TeOH9Tn0btdmjljBJV2mSrRqMVuh9EfsTRCDuEfsTRRp0TrKaPyejyZpSm7m3dNmfRv8AaFesko6uS4dJog5uvxxxa3NCPClsQ0/9dEWeXdnnK7thg/rU/CKjok8Eow1OKc77Yyt0UKTbJplR18vVsfc3j08m/wC0ypdU1Mn8mPHFfazDihLLkUI/qdFaeMV2rZeWBTkzarM6lllXpF0VY9M8smo905e250lhw4tO9Tq24aZOox/eyMx5dbkzR2n+Uwfu48fL+4Dj0/Ot8ixYo+s5f6FuDJ0vR5o5NXlWp7Xvjitn9zjarApPvWpk0/E3yUYdJm1EmsSi0uXZB3n1zFo87eBd2KcnJ472ir4R6DRajDrsSy6eXcnyvKPC5em6nEr+SXtGRo6VqNXpJylgbhaad8MD0HXerfl09HpXeaX1yX7qPNKPbVb35Zs02hnnyO8tybuTX+rOpptB0fHb1eqnJr92CsK4uHDLLNJK2eiwLTdC0X5vURU8z/q8fqyiOr6Zo53ptL3VxLLL/QjqfxHkytJwwdqVV8JOv5gcHXarLrdRPUZ592ST9dl7IzqbljcXyuDrZp6PXyqWOGnyPicVSv3Rys2DLpNS8WVb+H4a9QI4M0r7WzsLVarJpY4MuWUscX8sDh44yeojGK3cj02LEoPue8v+xnxi+VX9OxYNL+31PzZnwkr7UbZ9UhfyYm/uc+hFh1sn1LLJfLBQM89Tnn9WR/oViKB7/U2/1Iv2G2QbCEyEtkSkyqTAjKSXLKpTXgjll8xWpeoGXUyl+ZU4v5o0Go1Us+X4ko02kgilm1ajLhyov6hoY6aUHjbqV8mVZLj5JxnGJV2tbEuxtcGkRdyc78luCoyjKStxWyIqDLYRQRv0kpZc8XLhPYl1l/7GveRHROsiF1rbTYV6yCuZHg36FXmgn6owx4N+iV5I/cUj0s5qLa9GU5dTHHjlkk6ilbM2fVR75Pu5Ziy63BlvC5c7NHLnt061Yeox1VuEZKK8vyOWoik3fBnjCKj2wVJeCCgo5OxO73NeKeS3p+pxJ5m51KSpF0NL3u8uRyXojZ0z+j8a7dXjUvRdyRLM8H/6fH2x7ue69hw6qhjx4l8kEifc2Ra3BbEVK/AWICirVyrSz90bMPy9Ixx/iRh1zrTP3Z0Jrt0GBeyCM6UrdpJLzZzNT1zHim4YIPI06cvBp6tkni6bllC03UbOR0XQ4tXqZRzbwxxTr1LGUsvWtVNbShj+xmnrs8/6zUzfsmehj03Qwd/lYfqXQ0umg/l02Nf+0o8i8kZcym/uwTj4T/key+DhXGHH/wDEHHGv+VD/AOJUeP7vSMv5A3Jr6Jv/ANrPYrs8Qj/JDv2X8gPGpZPGLJ/Ifw874wZP5HslL2X8inVayGlheTeT+mK5YHk/y+e98co36nQ0ejrdrcu78+szd2TjxFeDRlzR0sOyDTnX8gHKUNLjdvc5ubqeaOSseSS+zKtVnb3k7kzIvm3COhDresi/6y/ujTi69ntd6i/0ObotBPXZ/hY5KLq7YanQ6rRSrNjbj4kt0FehxdSlkV7WLL1XPg/5dx9e5nncOeUN1JnT0+sjkj2y3+5Rr/p/U18vyr7kodbyS/rJNmJ6COaf7DKoN+HwEuj6+O8VjyL2kRHThr4ZXvG/1NMJYsn01+qPOS0utwu5abKveO5KGrz4fqjNf3ohXqFFVskOjgYOsOLXc2vsdHD1PDk+qa/UittBQY5QyK4O0TSIqHaiMsUZKmrTLqH2hHB1vRPiSc8E+1+ng5GfQarB/WY216xPa9onBVukwPBNVzt9xxck9pP+Z7PNoNNlXz4IP9DFk6Bo5/TGUPswOFj1E0qlv7l+OUZ/VlUTdL8OU/2Wf/5FM+g62H0PHNfc0hKGFv8A3qC/QmoYq21mP+Rnl0nXx/8A06f2kVS6frVs9LNAbHjxvnUw/Qj26aP1a7t+0TC+m62XGmyIhPpmsxruyYnFBHVx/k2/96zzXtAll/J9rUMeecn5m+Dn6TURxrsktkb4Z8MlswroYepZI4IQWBScYqNt8in1XUJfLggvezH3pcA5dyHFPL1LW33fH7fZI5ut1GbWNfGyOfbwma54+4zTwNfShxFem0+OWRLItvY9F07o3Ts+SDjkcGt3ZwYKUFumW49Rkx/RJonCPURzReWePuVxdItSPJvNOcu7ufd6mrBrNRDjJK/cnF69Gojo4+Pquoj/AFkFNextwdTwZWlJuEn6k4rXQdpJeqdoAIUFFlCoCNConQqsog2FkmvYVAINh9oUUFIKJdoKIEKDsRLtACHYvAdhMAK+0KLNhbARSQuz0J7AgIpMbW5ITAiMfaDVEAg3ChpAFjteg0kDAWwVfA9hlENr43CrJiAOxeoLHXuOySaoCNBRJoPAEKPO/jVt9O0/+L/oz0Z5z8aqtBg/xf8ARhKWqj3YX7HF6hG8cZejO/OPdjkvVHG1UO7TzXlIqOWNijwiTQQhp+RcDQV6Dpc+/R1/C6NZy+iS2yQ97OoQAhiABDaCgEA6FQUESQqAQmSoTAjWwkiTFRAqENgAgGIA8HL6pB4s+PUQ28M6pm1+P4miyLylYFuOay4YTXlEkY+lTc9J2t32s2AMQJjAQBYMAAGIACwfAkA0MSAKBiAIGPwIYCOR1mNajHL1idc5nW4/Jhl70Bgxvc6nTpft5L1gcrFydHQyrUwfqmijp2NERpkVIQeQAGxBuvANrm0EITIyyQXM4r9St6vAv3yi6lJOL4ao5+gb02tyaaT+Vv5S2Wvxx3jFyoyZ9QtRnjmiu2UeAOyrHRy3rs7/AHkv0IS1GeX/ADGyDrWly0v1ISzYo85Ir9TkNyl9Tb+4u2uaKjqPW4F+839kVy6jBfTBv7mCo/xBcF7gapdQyP6YpFU9bqHxOvsipzXiInkfshwS+JqJ7yySY6k/q/zK++XqF+pRPtXqkHy3y2QvcQRZcUhXvaVEQIp9zC35YgAd2IAYCAA815KgZXJl8NPmy5FCEd36k8fT5z3lNR+wVkQM6cOlYv35yf2L4aDTQ/5bl92Bwnv4sPhTlxjk/wBD0SwYofTjiv0HOH7OWxFedjpM0n9Nfctj0+b+qaR0KAnV4xx6fBL5ptk/yOBxqnfqaaFROrxhn0+S+hqSKHilDaUGjrDaUlTVr3HTjjuCYuw6WTS4pcXF+xTPSZI/TUkXrPGPtYVRbKLjtKLX3RFxTi0VOFEmpMjFUiQCm+51RFRJVuPYovx/REsRXi+hFhFaNJ9aMfWrjqccvWBs0n1L7mfrq/a4n7MkHLSdN068suwqiePVzhosmlUI1N25VuRg6NovRPuqLfoUqRZBqTUfcI7OhwfCwKUvrnv+h0NNjwNTlqJOMYxuNLl+hzVqla9EqM3VOoSx4I48cqbdtoDNr9dm1+rvMuyOPZY/ESDffLvm/liZoScu6cpXKXNiy5H2dvhgV5srzZO5/SuEaemznHVKEE2pcpGR14NmCfwNOlH68nMvKQG7NnjHJUEpKPL9ymM5Tuvlh5opipZJxxY1vJ0asi+Fljiwx7p2ox+/lgXyzZc0YaTDj7Ulfw4/95MmtJCC/bZHJrlQ2RdCK0mL4GF3N75MnmTIdu/IVHJp9PlxOEcfZ/a8iwdP0CX7aWRv7lqj6ElGgM+fQdNm+3T5csJf2laKtRpc+TSrFkj3yx/1c159joKUI/Ul+pOM3N1jjKT9kBg6f09aaPxcqvK//wCE2Wa46XUzh3ZcahH1k6KcmkywTlCePIlyoy3IKrE2KxP2QDsVh2SfCDsd7ugqLZFlvw16NsmtPN8RS+5Bl39CEot+xtenkvqml9iL0+L95OX6lHMyQj5Znls9k3+h2Z/BhH6YxDB0/Ua5XpdNlyL+JRpL9Qjz0Pl1MJf20dXq6Xw8L/tNGro/QMethmz6nV48EceVwcXu7RT1eEfgfK+5QyUpeqM36s+ONy7JJ7ECaNICUSJJFRt0m2SP3MmsnLUZ3GU9oNpF+BtSRhm13zd79zAuhpcjVx7X+pt0+nywacuxL+8Y8WKcl8sW17GrBps7ltB/dsDqYdNgiu9RUm/L3KeoaXC9JlnGMcbXzOSW5XLPlh+zw5N47S2tWU6jLqc+CeLJ2uMvK2MtdZ+kTlkyZnKTfymuU1jlLJLiKMWnl+SnK8b+ZJWGrzrNi7Md7vewnVeKGTWzty+Zy8vwemjCOOEccVSiqPL6bvx5IteqPURcXFN5Ir7scWUwE8mFc6jH/wDIPi4P+vj/APkTi9MbRB5cPjNj/wDkHxcb4ywf2ZF6p1z/AGUF6yR0tX8unwROTrJKWTDFNP5l5Oh1DJ2rEvRFSuL13VyUFpoPaW8jBCUtNj7otrJIl1a5apT8Mz5Z92SvQrLq9O6pmlnWLUdrjLZNLydfvrY8zo4uesxqP7rtnoO62FXdzYfqU91eQUyC9WST9zM8jMms1ThWOEvnl6eCjVq9fDTpxx1PK+PRGDFiyajI55H3N8tjxaXb4md9sed+WNznnfwdOu2PmQDy6iOGPw8L38yMk3i/L9/xW8zfFeDq4dLgwRUXHvl5cvJb2YvGGH8io8xrFJThFpq42RguEautST6k16QSMsQO3+HYL8xmn/DGkd2SjNVOKkvRo5P4ejWmyz/ikkdVEVy9b0DBmuemfwp+nhnC1Gm1Oin25sckr2klsz2cRyhDLHtyRUovwyjxuLVZEri/1On0/qOfG6yvuxv/ACNGt/D2OVz0cvhy/hfDOLkjqdDk7M+KUffwwj2GOayxUoSu/BLsTVSSf3R53Ra2qcJ0/SzuaXWwzVGe0wp5NDpMq/aaeD90qMeo6DppQlLA545pbK9jqtGPqusej0qaVzm6SA4PS9Zkx6rHHudOXbJHqmkm0eQ6XD4mshLipd56XSa6Gq1mbDGP0K+71IrWgGkFECGFBQCoTRKhUBGhUToEiBJD39R0NIog+71MWu088+KSjKpeDoNCcUx0eI1OKeGbWXHKL9fBnVxfytnusumx5Y9s4KS9zm6j8P6bI28bljfsy9R5yGoyx/eL4a9x2ka8/wCH9VD+qkpowZNBqsLfxNPk28pWXo1Q1UMitck4zvw39jmJ9jpxlF+6o0YtVlx/1cl+qCNrzJfVF19gWXE+P+xRHqerjxLG/vAnHqut8rC//YgJ/ExqV3/kHxIvi/5B/S2q8wxf/BCXV9b4+Gv/AGIC7Hk8VJv7FyhLI6WGbf2Mf9La6XDgv/aD6hrZbSzNfYDuaDLm0+WGHMqjk2im90zq9tM830hOerjlyOU3Hdye9Ho45sWR/Lkjfo3TM8Uxrcn2teLEBGtxE6E0BGgcfQdAFKhNEgaAihthRGUbfIEhcCpi3AGABRQCodMaRBGhjaDtT5KFQ6QUgogKQ9hAADoEgAEAAUADCiBAOg7bAQ0Kn6huiiQWJMexAu5HnPxq09Bg/wAX/RnpO1M83+NI1oMH+L/oypVxy88alOPudVIwa2Pblvw0VHn67XJejoLLNRHt1E167kAhPga5AArf0nJ2atL12O61TZ5rTT7M8Jekkembvf1AQgYeCBsQAAgAEFIRJ0IBCGAEaENh49yBAxD2AQAACFKPdjlH1QwA5nRnUsuP0OkczSv4PV54/wCJs6jVAR4GuAZG6AkAJryWJKgKwos7UFICtJh2ssACHaw7GWVYnt7AQcaEE5wXM4r9Sh6rDHma/QguCzNLX4Vxbf2KpdRpfLi/mUbjD1eN6NS/hZB9QyviMUZtVnyZcLU3a9CjNi5NuCahPHJuqkYcTuqNapwYR1JarCm33lb12JcJs5qolaXkitr6g0/lxr9SuWvzPjtRlco+jF31wXiL5ajPLmb/AEK5OcuXJ/qQeSXjYj3y8son2h2q95JFbb8gBN9nDbYJwXESutyVMIl377JB3u2Qp+hNRYB3P1F5H2ku1tWBX5ofks+HS3E0kBACxQtEe3ccEd7H5LI473YnFL7gQBbk4Ri3vFs0RyYMa+bCFZV7Jv7EljnLiEv5HQxanTvhdv3RrhDvVxdr2A48dNml+7/MtWgyP6pJHWWF+hNYfYDlR0EV9UmyxaHEndN/c6cdP7EvgJeAMGPTRTVQX8jDpofG1mWVbQex31i3To5PQ4fE/Nyf8df9wJ6eNa+F8tv/ALDxx+X9WWzh8LqenXhyHghc5r0k/wDuFOEdiajZbHGTUUEUfDvwSWBtVXJpjBFsI/MiVY85W7Xowqi3PDs1OaPpNlbMOiLoiSkRIGC3ESXABQcAA6cNpSVSSa9yjJpccuPlLwZZUsYZ6Scd41JexnmpR5TR1kDipbSSaL1OOQrY3ya9Vp4w7ZQW3lGSVGus8aMT+RFhVh/q0WCjVpVaT9y7WaJayKTn2yjwQ0a+T9Tdw/0Mtf08tkxTw5pY58oaO9q+n4tQ5ZN1krlHE7Gm1LlOjUrFiKe5JT+ZEe2iO9lRq+JJR2Zk1GRzyJt8EnKSVFL5AnGVIjN27EJgFmvFFPDCblcm2q9EZPJox3CLbA6XT6w4s2qlzH5Yfdlmifb36qW8n8sP/uY9RJw0mDCtm/nf6lvxe2EILiMaKNqlfncsi7MMcpfjyoo2RLYYpZZqGKPdN8Iz4ppl+r1y6fpHHFX5jIvq/hQE9Vl0PS2oZP8AatV5j+7Ex5eu6uSrCseGP9iO5w5ZHKfc22292yyMnRBpyZdblTyajNKWNuknIrg+yVwk0/uVNjg9wOpoMss2X4c95Phs6H5eSe8kvZHG0zcMqyLwzdPWzk32Rr3ZFa/hRX1SbD5YLhHOlmyye8iDt8yb/UK6EtVGL+pfoVz10V9MWzEkhpd30pv7IC2WtyydRikUzy5XJQVyyPwvBbjxyT7pRaS9SGjh35cs5zUN7tgWafHpsEe/WOeTN3JpR4S9DdrfxDq8uJww/s8aVJLav5HPyZdBik3PLPLL0ijNl6hBwnDHgUYtNW3bAOnqb0vd8zTk3szRrYt9Ok64aZyseTJHTrHGUu30To639Z0mX9wzVjiskiPi/UkjUZG9k0RJJhF+LaSMMo/tpr+0zZjfzIz5VWpyfcC7DqdRhjWPI4r0ojm1Opcu95X+mxFEcibjSA06XVK3GS55NUs0FtHdmHFCMYpLdvll8IUFOU8uTaT28KhfD9S1DSsIrWNJcD7IvwWdrDtKqv4cP4V/IPhw/hROgaIiHZD+FD7YriKHQFUqVDuXmUn+oBQRFxT53+4nhhP6kTSGkA9M46Vt44J3zZpWs9cS/RmagocOtsdVgf1KUX9iyM8UvoyL9Tnj2Jxeui49sXJtUk3ycvR5ccJZNVkj35JP5E/CLOVVun7kYwjFxaXHCHDq+Ony6lrJqJVF8I248cYR7YKkZVq5t/NFP7Fi1W3AFziNKijvyTfyh3ZFzyBz/wAQRgpYGku+V2/Y5+KLnkhBfvNI7Wow4dU4rUKVx4aJ6XpOmjljkxubcXe7A6Omw49LhWKC2W792XpogosfaRU7Q79yv9BoipqT9SGfFj1ON480VKLCnQqkUcDW9Fy6aTy6R98Oe3yijTaymoztNep6apIyarpeLVp3Hsn4kgizQa2Umsc/mT4Zh/EWa8ix/wAMLRkwzzdN1jw5abStN+UX5dFqOpf7RjlFJ7NNFRj6dP4cM2ReFSZ1vw5C8mbL/Zopn0/XSxQwww41FKrTo7Wg0kdHpo41vL95+rMtNCWw6AYEaCiQUBCgonQUBCgom0FEEUOhpDoBUFEqCiiNC7SY6Ah2C7aLKCgM89LgyL9pihL7oz5Oj6HJzgS+2xvYqA5Evw7om7TnH9SmX4axfu6nIvud3tGojo8//wDy0/Gsl/8AEP8A+WZf/tj/APieg7R0OnHn4/hhX82tl+iNOL8PaWDTnly5Pa6OxSCkOnFenwYtNDsww7V59yObSafUf1kN/wCKOzLkhpAYv6NyY99PrckfaTsafVMD+ZYtRDzvTNlABXi1Mcm04Sxy9Gi6vQiCsgHFiSJdzr2KM2ljk3xzlin6xewVdQuDmyfWNPJ9vwtRD32Yf0vPE0tXosmP1cVaKjpAU6fWabVJfCmr/hezL3FoCIUA0AUFB5GBGgGACoKJBwBHtCiYmBGgokhgJx9BdpMQEaE0yYqbYFZJWS7QoBDQUFMADbyAAFR9AoA38Cgo85+Nl/6dp/8AF/0Z6OUcri/hw7peE9jyn4txdQWlxS1fw1ieT5YxfDpkl9lbDNrlcYy9DUirUx7tPL23NMvP69VkhL12Mxs18f2Cl/C7Md2UAAAEoOt/RnpsE+/BCXqjzCPQdMn36JezoDUAAQAAJgAeAAKQADAQhiCEJjEwpPgNg3DggXkYC3oABkXOK5lFfqQlqcEfqyoDn9QvD1HHmXDo6jalTXDOX1LNi1GOKg7lF2Tx9R7cUYuFySqyjoCp+hz5dRyP6YpFM9ZnlzOvsB16a5COWEXTml+pxHnyPnJJ/qVuV8sDvy1mngt8i/Qpl1LAvpUpfZHGUkNTSA6kupr93E/1KpdSzPiKRg7xd5UapazPL99r7FcsuSf1Tm/1KlMff6ASq/X9Qr7EO9sTbAnt6haID8AS7kvBGc24NUt0ApJ0QUY9ma4O0ZMezZqh7AJ7CslLkVAL3AboLXgoVMCahJ8QkyyOlzS4g/1AoJRg3vRpjocid5KUfJXPKk+yG0f+4RX20yyMEPGot/MXxjCtkUVw7UvpFKLk7ou7fYfaBn+FLmjr9L6Guo4+6Otw42t3CXKMI1S3i3F+qA6Wv6BDSRhKWpWZPZ9i4K8HTtA1w3L1bIabqObTvtnc8flPc1vPpsjU8Md/3ovgo52s6XLE3LDLui/D8GFrtlUotP3PU6dxyT+HGLbnsovwadR+GcmVXJ44KuW9wPGb+A7LPS6v8H6zDheXT5IZo1dLk89PHLHJxmnGS5TIFVIbp8oXI+2VcAJwi16Cjkyadpwm0SUH5QSi63iB0NJ1aEmoaldr/iXB1oqMoKSacXw0eWpJO0eg6Rjlj6djUndtyX2IrX2oXaiTEAJUcT8P/RrF/wDvDtp7o4XQ32ajqGL0nf8AmwNWtfbr9LL0a/7k9M/9ozL+0/8AuY+p5VizYJzdRT5/Uu6fnhn1uZ47cVe9bMK6CSokthJPzFjbjFXKSS9wJxLI8oyvV6eHOQj/AEjh/djKRKMPU49nUMn9pJmV8M0a7L8fP8Sq2oyyZhuI2ArCyKkiVCiSIpUCW46HRQgodDogiBKh0BD1KcmlxTXFP2NFbg4l6nFej0EMtqUnSLtRpMeDUvHFOqT3NfRsanLNf7qQdWj29SdfwRL04z4opOkqNMvH2KMfKL57RMyrYSdM5mswKWebivdm/uVktClLqnbJJpx4ZtzcFwpEVitnoOqdNhGcJ4Nu+/lOR2OM+2cXGXoVOM8sJimqm16HZjjh3x718t70c/X44Y9RJw+mTtL0QGZchNVKgirkiWaNT+5plWjXOak7itn4Mhpwx7nFerQF2pd6lR8RSQu8WrVa/Mv7RFwZRNTfqTjka87FNNArROjfi1Tg1uZdXneXI5NttlTZVJ7l6JLkti9imO+5dCLYEieP6hKJbjjuQXR+WK+5qhhyTpKEv1I6bEsmfGnwpJs7Um/HAac2Ohyt3Jxii2HT4/vzb9kawIqmOmw4+IX9yxVFVGKX2RIKIKNbGeTTNYlc0069TlZoJNxlGr9TtlebBDNBqS38MvUcPBoJ521HNjj7Pk0PoslB92oTdcKI82llgl3Si68SRLFrMkHTl3R9GBn6V0/FqtK8mSUrUnGkb8mCOLTzxQT7VB8mLo+phhy6jDN9qlLuXsbY6iOqnl7YtRj8qvyZrUed/dX2HEJKnXo6CJqVhIaBDRROHKKdSn+alXDSLo+pZKC+LGTXKCMiWRcpmrTad5Yyck0lFuzbHEsi24J5HHHpclbPtopI5WN7JmuHzIOn9J1mvko6XBKaXl7I9DpfwpPClLXazFiX8Md2YuUa8XCSLMeOeSSUISk/SKs9Ti0fRtLxjyamX9rg1Q1yx7abS4sK9UtzPlb8Xjz2n6B1HUU44OyL8zdHQw/hiGOnrNbCPrGG5uyanNk3nlk16XRTLLGKt7e5eVTfTOj48bhDBPNJqu+TPPvpWd6z8vhSyNvavC9zsYJanqeb4OjXbjX15mtl9j0Gi0WHQYezErk/qm+ZM5ZbJgsnXjtf0HVdPwLLlUZRbpuPg5koJH0jPjhqME8OVXGapnz3qGkel1eTBkddj290XXt8vRljxmdDVUJRh/ESUV4Z6HItgVD7ULtKHQUKmPfyAAFDoABDoEiAGhDAkpNO06NWHWdrSyRUkYxpBXYxZdNl+jtT9Gi+MK8L9DgqJq0+ry4fLkvRkHVaCiGDPDUr5HUvRlvwpXuyKigcox5ZP4aQ1FLwgKk3L6Yk1jk+aRO6QJkU1jiiVKiKZXq8jxaTLNbNLZhHnPxBlxy6rGWN324+114dnV6Nmjj6dFTfaubfB5yK+Nrd9+6VM1azL8bKsEflw4tu1eWaHq8co5I90JqUfVMsS2ON+G1UNRFfSq2O2kZUh0Oh0QRoKJUFARodEqCgI0FEgAVMBgAgJJAURodDGgI0BIQEGBJoKIEhgCABgABQDFRQwFQwChDsABIZFtjQAxDCgCh+AoaIKMmlw5H3SxR7vVKmTx3iVK2vd2TCgH3xkt4EJxTX7NpP0YwHBly6qenbebTz7P4o7kcXU9HlaS1EU/SWzNvKM2fp2kz75tPCT9aooujKM/olGX2ZLg5suh4E+7T5smGS4qWxdhhrsG0pw1EP5MDagDG1NbxlB+jJ/Dfhk6IUIck48oSkpcST/UAAdAUAAAQAFDARFpyexMAorcGmAWQKg7Qn3KDcYOTXCRy88+uZJ/7Ppo44/wBpqyWxXTlGaj+zh3y9DnZsPXJyfwlixR9G7KO38Sf/ALtfqjTpMHVL7tZq0v7MUZ7Tij8p1986vGjj/inDrcXT8L1ep+LeXZLhbM9gltvJs81+OF/6dp/8b/RmpPfSpoJK4Sj6oSJeTow4Wrh3YpxOat0dnUwSyzj7nGku1yXowGFEUNMIkjsdFn8uXHfozjI6HSZ9urS/i2YV3FwIEmNpkCEDklzJL7sqlqMMPqyw/mBaBln1DTRX19z9iqXVcX7sJP7lG4LRy59VyfuY4r7lE+o6l/vJfZAdoTlFcyS/U4EtVmlzlf8AMqlkv6pN/qB3p6jBHnLEpl1HTR/eb+yOHLJETyIDry6pBfTjk/uUz6pkf0QS+5zHlF8Rgb5dQ1DW8kvsUZNTmkt8sv5mV5G/Id7AtU35k392S70Udw0wi7vEpsr7gsCxyfqLvZCwsCXc/ArYJjW4CTJbgkMBBuMABMl4IpUSUZPhN/YKEBZDTZ5/Til/ItjoNR5ikvdgZ0hmyHTpfvZP5F0en4/MpMDmgdeOiwr9y/uWxwwXEEgPOraZogifUsfwtclWzjZGAF+PSSzNtSSSZdHp8V9UmzR06Pepr0pm5YPYDnx0WFfuX9y2OnxpbY4r9DcsHsTWD2CsKxPwkifwWbo4K8Fiwr0IPOdQebHmcXaxtbehjUL35PXZNJjzQePJFSizynUcH5DWz08ZNpJNWWIipdr3LceWL9mZlkjt3BKWPxOyo3fF23F8ZceTJGVraQ13X7+wGp5GR+I0/qSKnHKlbjKvWityfiLf2RRoeS3vKxxzyxyuDplEMeonutPl/SJbHTal86XM/wD2kHS0XWZ4XWXGpJ80dD/+Zs0I9uGM+3x370cOOk1b+nRZW/dUWrp+ufOmUf700ijbl/EetnfzyV+5zNRqsuoleRr9EWy6fkj/AFmfTY/72Qh+T0yfz9W0/wBo2yCqLS5J/EjXr9if/puL6tTPUSX7sFSZW+pxg602kxYq/ek7YF0MWfNHtx4p0/NUOWmx6aN6zVRxv+GK7mQxrWayHfl1yhH0Ry805Ryyi93F13PyB19Novz2ftwTb08KcpNU3+h6GMFCEYxVRiqSPKdE10tNqMkVv3o62TqGedVJR/QK6pVPJGPMkv1OPk1Gaa+bLKvQpUXlko3bfqyDtfmcEXfxFt6HEwZvgdZ1XbtHLbTMMFklnWPEn8S6qzRqGsPUsWSS+VqmgN3w3rMqhFfEbeybL8ui1Wikvi4vhp+VJGB6jGm3jhuuHwWucsmBSnJyv1fAFmbNk2Xx5fZMzybly2/uxbLgLAaRbEpUqJxkCKo5JOc45HbjwRk7JahduTvXEluVWYrcSGiKZOG7MtLIqkSEhrkiiwQ0AAMBoKKHQIdARoaW46GlTEGvoX1an7IXV/8AiLf9iJLof16j7C6t/wAQf9yJqp/bPhVyNDpx34KcCov8fYzFqKW67YEdKmusRtVsLJrccZVu69ELQ5Vl6nGdVtRthu6hHvWDet5GXJpcOTG4z+qtpeUW9ZnLHp8Lg6fe0cmU8kuZsMs+SawylDI/mW33MerlHL2pfUjbnxxlHdfP4ZgyxjGW99xYldHo34c1nVG3hlijFPfvml/kdfW/gbqOGKlhePUKt1F0/wDM8xi1ObBJPHklBr0Z0sf4m6tix9kdbOn67mmWDXdL1ehzxw6jTTxzn9Ka5Lfyeo0Wpx4tViljlJdyvyirWdS1Wrkp6jNLJNcNvg73W9Tpdf0fRamOb/atPFXGSpyXkLHD6iq6hkfrUv8AInGNxT9US6h/tGDFqce6rtl7MpxZe2KUmZVOUfNEJRXoWLKvIm01yBnktiHbbL2iKSe3k0iMYGiEdiGOpL5fGxfFbcAJIsxxq2yKpbm3RaWWolck1iXL9SK0dIi5455ZRqnUfc3pNMcVGEVGKqK4QEUnsACogkqF3IBbMoLAKrd7IqzazTYV+0zwXsmBY99qTXoyjLo8WR90V2P2MmTrWK6w4pZPfhFGTqGtzKoKOOL9FuBTrsH5HqOKUpfLkjyb9LUW+2akudjkayGSUO7Lk75Li2belZYTaivrktyVY52oXbqMq9JtCwx75qNpX5ZdrYNazP8A3rKIwbNRgRknKSXh1fqTSt0NYqXNFuOG90UWafC5SXfwas2OOTLF7KMY1RLTYraO5pdfh0WnWPLosOVN/VOO4HKxqEItppbepf07p0M+KWs6g3j0cOF5yM6+HWdOzXLNodFjxpW33b/yOXr+r4tS4wxYnKEdoY1wjjst5zF0xkqnq/4i1OGEcWhitLg4iordnKh1/XRuTyQlX8UQ1MZ63Isc+3Gk39W1GSGg7pOKuW/7ruy68fXszvv06GP8T6xLfFikvsX4/wAU5l9Wlg/szlrps39Lcf7xXPSZsL+apL1R09Rj67sfxP3OvyjTfpI7XTunanqtZtReHT815kcr8K9D/N5fzeqjWnx7pP8AeZ7N6uF1DaK2SR5d2/nqOuONrRhxYtPiWLDBQhHhIJOjP+ZT8lOs6hh0WB5c0vsvLZ4rncq6THjRnz48GN5M0lGC8s8V1TqOHW6+eaMflrtW3I9frsnUpuWabjD93Gnskc+WNR+jg9ujXZ7rnnfSffBv6UkD+G+NimmvDGj2OCztiuBUK3Y6AQDoVAAANIBIdjoKKEA6sO0gBoFElQAidkVFt8FsYAEG1JOLpryjs6LU/Hj2zXzrz6nMhhvhF8JLDqcEI/VKSslWOp2i7Sx1ewmjKqnEi4l1C7LCqXJR5Mmu1EXpcmPtk+5eh0fhr7i+FB8oDxGCUsep+aLSTb3JrfJKt5SfCPYS0Wmn9eKMvuPDotJil3Y9PBP1oop6No5aXR/tFU8nzNehvWw7tAiAHQUMgVBQwAQ62ANwFQAMBAOgoAAGIBgAyhADFQAwCgAKHQxUQABQUADEModCoENgKgoGOwEIYBCGAAAWFEJqa+lWFWMjbEnKvmVMAGwTATIJWFkPJJAOwAZQvIfzHwBAu58Pcz59Hiz7x7sU/wCKDo00CA5c8HVdOq0+dZo+mTkh/SHUcC/2jQOXvjdnYBcAYNN1TT532y7sU/4Zqjat1cWmvYJY4TVTxxl90RhpseN3iuHsmBLzuGxO6W6sjafKoKBWVZ5Zca7sajNLxe5zMv4gWGXa9Bmk/WgOrlyfDj3dspe0VZy8vUuqOf8AsvTW4+syC/E74j0/JZq0fV9brcny6D4cFzKcqMW5f8Vm/P8A4hfGggjRpM3Wssr1Kw4YelWzpvJJ8uvZCLMe/Qd0ny7DcNgNcTpo81+OP+G6f/G/0Z6U8z+OP+Haf/G/0ZYlQ0+eGeHdF/dF8eTzmLLPFNSg6ZrfUtQ1S7UaZadfFLKn6o4eqj26iXo9zoLUTzy/aO2Y9cqyRl6oDMOiI1wwhlmLJLFkjOL3TKvI7A6Mup6qS5jH7Iqlq88vqyyMXe/UXe/UK0SyOX1Tb/Ug5xRS5NibYRd8VEXl9iqxNgTeWTF8WXqViAm5yfki5e4hASsViAB2AgoBgmFBQBZJMik34ZbHBll9OOT/AEAgNM0Q6fqZ/uV92aIdIyv6ppfYDnjNuo6dLTwU3Lvj5Nej0OnyYlOnJ+lgclEowlL6YtncWnxQ2WJE4R9I0FcaGlzy4xv9S6PTs7+qo/qdhQY1Bgc3H0q/ryV9i+PS8EXv3S/U6EcRYsQGKOiwpqsS29S6OJJ/LFL9DSsTJrCyKzdjIvFvwbViJfBT8AYFh9iXwPY3LD7E1hAwrD7Elg9jcsKRNY0VHk/xDi+HqsMq+qLRhxnd/FWKtNp8npOjhR2A7XQfn1OSHrC/8zuLBRwfw9KupwX8UJRPTJbAVLCh/DRbQUBBRDtRIAI9qs8X+IJd3Wc/tSPbJfMjw3W3fWNX/foDPosaza3DjnvGU0mj1mToHTW2vgyj4tSPL9K36ppv76PczrubtclR5HX9Lx6bWSxwlLtauNs5s08WSUFOS7fNnb/E03DV4MkHv2U/5nAySc5uUvqYGrDLU5+7HDNKkuGy7D+f0kn8GaV8urKOnZ4Ycknkddyqzd8fTyqs8f1APzHV8vOqlH7Og+H1WX1ayf8A8y6GfB/14fzL458Ff1+P+YGL8hr5/VrJf/Jj/ofJL+s1Mn+rOhHVaVc6jH/Mb1+jiv65P7IDnPouNbynJih0vAppSUmvuaM3V9NHaKnL9DFPrEu79niS9O5gdWHTdLHDNQxfM4v5n4PL21Ld8OjqPW6jLikpTq1xE5TVMo7HTpd2CvRmLqEO3VSfqW9Km/iOHqiXVo08cvVUQZNLNQ1WNv1O1JU2cBbO/RneUu6MZeqIqMijJLwXS2M2XcIr75YZrJjdTXDKtRqsmecXOKi4+gpy7JJu6sqz5VkyNxVIDZpZSywd1sb0/wDZkvQ5vT1kePI4Rcqe9GrLmUNJJ8MBqasl3IoxyvHFvlodtgXKm9iSdFMIzvZFjlGC/aZIxCoaubjDH7yoqvcNXmwzxKMJOUlJPgimnwZrcWpl0FSKIK2jQjDSSGRGiKYxIaAaJISGFMYhhRQxrgGEa+hfXqP7ouq767/2RDob/aahf2SXVP8Afb/sI1/Sf2z4ti+P0szxajHuk6SKMuslkuOP5Y+vqZkLVUo/tJV6lulyrT51kkm0vQoeWEfqluVvW4rpJtm5GLXZzavQayEVqPzCUXdQVBDUdAi1DLp9RBfxOZwp66EXTjT+5B6lZOVsS49WV6/F0Xomtj8TS62UXXEpbHk+uaSOi6nkxQyrJCLVSX2HGu19jaXszJqFJpqnZnHGy/UtZ3OpbrZjco3V/wAx4oOXySVPwPJgeN90mu07MISi6LPjTyQjHJK1BVH2RFNyh7Fd1II1aTURwSlizK8OTaSXj3JZ9NLBLnuxveE1w0ZJLuZfg1mXTx7Np4/MZDioPvS4b+wlOfo/5Gn87p+fyaT9pshLXyX9VjjD/OicFXxZLm/1HGTbsjOeTNkTyScmadPp5ttrG1F+ZFFuDH3RUccW2/Y6WDpmSavJPsXp5L+nNvE8cKUlvwbq9yKow6DS4Vfa8kvWRfdKopJLwgoKMqExeRiAa3FNrGu6clFe7MvUNctFjXalLLP6Y/6nCy5cmZ9+pySk348IQdvL1XS49oN5JekUY8vVdTk2w4oQXq92YYZPGPG5P0SLo6fX5to4Jxi/Mtiohllqsv8AXah16J0VRx4YPf5mbY9IzSV5tRCPst2P+jtNBVLLkm/5FGH46hsopEZaicuJL9Dpx0ukh/8Ap+9f2pFWvjjeKsWnjCv4UUcxz7trbJ6PI8GqxtbVIhp/lyfP49iWKLy6yMI8zdEpHR6rBLVRkuMiMPDNet1OHJjWNzrJhl20/Jj+rdcCJU0+5q+DVhjctjJDk36Xt7Hfnayok9XHA+2P7SfpE6WmnHW6GWJfJqEm4xb3s83jnPS5541VvyzZ0rI4dRU3JttbhVUVLuazY5qadSv1LsanFqWKTi09mvB3smKGZ93w1K+X6HO1mneln8SH0/vR5v3Q4vUdLpJZM0c2WPxt7ak+fuLLnek1so4ILHNb7eLLNJr44JrzCRl6zlhLV482N7SVOipQ55Jtucm2zo9I6VLqWorjDDecjj4pyz58eDF9U5KNntNTm0/RumR0+OXakrnLzJnn3bOTkbwx6nq9RFKOm0i7MGLbbyZlOS4ZRo9Vi1WFzw32p00+S+K5R83KW329mPJE455QTlOVRW7Z5jqXVPzupcnKscNooPxB1W3+UwS2X1tefY5EMS7U5T/Q9mjRz3XHZn/TYtTG7UlZZHVpeYs57UFwyLXoz2yPNXWjrV5gmTjqcMvqikca5LhjU5L94qO5Geml+9RJQwy4ypfc4SyzXDJLPLygO5+Xi+M0f5jWll4lF/qcRZ2vUl+amuJSX6gdr8pNcRv9Q/K5P4DjLX5lspyJLqOf/qsDr/lMv8DH+Vy/wM5K6lnX/MY/6V1PiYHV/K5P4GC0uT+E5X9K6v8A6i/mL+k9U3/Wf5gdlaPJ5X+ZNaRrmv5nAl1DUy5n/mR/M55fvsD0axYofXlgl9yEtVosX7/e/Y8+p5JPeTZOMPLA62Tqfeu3BHt9zV0XE8+rlmyb/DW36nGx0kek6Fj7dDLI+Zy/yM1Y6AAh0Rog/QY7IEKhhQUqCJKh0AIdBQwhIYAVQABQAACIGCAAGAAVBQUAAAAAAAAFAUABDSBgAAAWAAqCh0CAW4t/QmAEaYqZIaAhQ+1krXgAIAOgAQ7BiAHuKhgAmgG1YqAVbkkhDTAYyNjAewbCQwCg8AhgIYUACYDABBVjGQRUaE4p8pEgZRHtS4S/kG4wQCpBRKkFAJRQ6AAEea/HH/D9P/i/6M9OeZ/HK/8ATtP/AI3+jCV5pMlZWiSZplbidZVXAtcu7DfoyMHUkX5oqWKS9UBzB2J7gA+Q8CGBBiG0IBgFCYAKiUYuW0Yt/ZF0dFqJ/Til+qAzCOhHpGpnz2x/Uvx9El+/mX2SA5AHfh0fTx+rukXw0GmhxiX6hXmlCUuItlsNHqJr5cUt/Y9PHDCP0wiv0JOOwHnIdK1MuUo/c0Q6LPmeVL7I7XYNQA5UOj4V9c5Mvh03Sw/5fd92b/hjWMDNHT44V244r9C3sfoXrGSWMis/YP4ZpWIksIGR4VNOMlaZy8fd03X/AAsn9VN7M9CsRT1Dp0dbp3GqyLeL9wK5Yk33LdPyOOL2MnRdU++Wi1Say49lfk7KxpOioyrFW9ElitmzsQKCIKY4iaxIuSHRRUsSRLsROh/YCHb6Iaih8DQAkFDC0AUDcYpyk6SVtj5K88VLT5YP96LQHmevdXxa3TrT4YPtjLu72caM/XkSbiq9NiXfaoI06bV5NLmhlwq5xe1npeldZeuzfAzYljyV3KuGeTxZHCaaN2j1E8evwZovdNr/ACA9nTfAdrSttI4ktXnmqcq+xS5zlzOTX3Cu7LNign3ZYr9SmXUNNH95y+yOP2oNiDpS6nG12QfPLPH9Sm8vUdRN8ym2d3yef122tzL+0A9A2tdha5TO9LJOX1Sbf3OBodtbi+53mqZRg6uv9mxyfiRyJM7fVVfT5ezTOG+Ch4n86T4YZEvQinuSyO0GUFRoxqLjwZy7F9H6lFsFG+EW7UUx5RaVlRkW5S/qL8nJTLkK24t4tf2TFk/d+xs029fYyZPHsKRfoJ9mqxvxZu6rG9KpfwyOXifbOL9GdnWR+L07JJeiZlpxWt2dfRz7tJj9tjlJWzqdMgpaVqTqpsip5JbGTLNtm/LHGtkzJkx39MbCMmof7KDM17mzLgnKDi41W6M602RvekBLTarLpZ9+KVXyvUlqNTPVSS7VFN715FHTxT+aTfsWxhCP0qmBtjCMIRXotyE8lP5I2UKT9WS7mUEpZp7d1exW9Jle9xf6miKstg1+hFY4fF073x45L3H3W7pK/CNeTT/GT7HT8GR4cuKXbki17kWLsPqXIrgqiiaZiuiY0RQ0RU0MiiRBJDQkCAkNCSGiKkAtkuf5illxwXzZI/ZblGvov9fqF/Z/1JdTf+2Jv+BGLSanJDLP8ngnmnJb2qRDqGfW4336nDjxyey3ssZZs+o+LOlagn/MWHFl1Mu1S+HjXMnyx4pz1GVY1LtvlqPB0f6P02Dp+TV6vLmdqsUYunJl+CWoxafp3TfhaTFDPqsy+ab37UcTFoMmPG5yxuWTwr4J6XFPKpTyXCKW1vdhiwZ5y2m5P0jbJLxLOsOXS6nv+fFKycYSxQXcqOwuna2StYMle7ox63TZsE4wzR7W+CzOU8ayqbXBd8XvVTj+qFDF5aLVDYdZ4zfESn80X9yOWMM1fO1Rt+HGSqSKp6KMvpbEyOMUsaxxSjLusWPF3t21t6ujRPSNOnJr9DRpsePDjksmieeL/ed7G5U4wyxyguF/MqcZPejoZp6T93Tdnt3FDljXEf8AMqMqhL0JKLLHJPhCTCNemx4lFPt7per8GpW1uzHp51SNiYGnS5PhZIy8eTrbPg4iex6Dp0MefSQclclsznnl4zrpjOocIOTb+Ug+U0UZdDmTvFJSXozlN2NbuFZ9guKYnGcHWWLi/chmmsWPvatXVHSZS/GbK4PVsvf1XJfEIqKNHSNJDPjlqMiUqlUU+Cnqyjn1lwj2Ps+avLOnosuKOlxRhHtjw/ubZaUnD6VGP2RGTlLyyxxpuyLogpeO+RfBiWtibKKnhSF8KO+5N2Rew6EtNhk/mjZzesQjotRps+mioNJ8ep0fiUzlddn3RxL7sDjzblJybtt22OGScHs/0F4Gku5J7K+TTDbgzLJtVSNunfc+05WeEMOoawZHOK4l6mzS5W2pfzCtk9EtTvGSjkS+Vvhs1aDpU9Pm/MamUYNqu1b0V/FU0tt+K9TsaeGPQ48fxZKWoyb1J7Y1/wDcor0qzpN/AyqDeza8GTqeaUV2y5Xr6HRy6p4o92o1UlHw3tf6HL1ufRdQxqCzTjkX0zaA5OGVJxb2T+Up1Mn3JeE7JyjPDlljyqpL04a9SvM1KSoI09MyrF1TS5JcKZ3fxKsmo0+KeOMpVO2keYcWqa2a4Oxh/EMsWmUJ6dzyRVJ3sefZjbZY7YZST26fQtJPSaCUs/ySyS7nfhGbrPWseHC8OlmpZZbOS/dOHreravWL9pPth/DHg575M46e5eWTV2cnIk3crbtvkmiuPJaj08cLemhgNBAAwZVIQwYQmAAAAAAKxpi8gQO16DXaRGgJJr0GmR8klyBOLZbD1KoouggL4L5T2OkxfC0eGPpFHksGP4mWGP8Aikke0kqfauFsiNRHgAHRlSoGhoYCoKGAColQBQUIYLYYBWwqGFFQh0OhUABQUMilQqZNiKiNUMGAAAUNAGwmiQmBEBiCgYkMIAHQwItAhhQBYCoYBYACAEgGIAQ0IABq/IhjSAjQE9hNAQe/A0iSQ2gIUFehLcaQFfbL0DtLRUBXwCJvYi79gAaYqYUwGAh0A7AXaLewJALcNwGJNgADsdkQoAHWwhlAkOhcDTAAoLAiCjzP45/4bp/8b/RnpzzP46/4dp/8b/RgrzEoOEqYG2cFNboyZIPHLfj1NMomuL7oL7GRGnC7hT8Ac7Iu3JKPoyJbrI9uob9UmU2AwAALcGnefIoRkot+Tow6Ikv2mb9EjDosnZqsb9z1HbbsK5kOkaaP1d0v1L4aDTw4xL9UbOwfYBTHFGP0wivsiVP0LVjH8MCntfoCiaFiGsT9AM/Y/QfYa1hD4IGVYySxGqOJE1iRFY/hDWLc2/CQ1jVlGNYiSw+xrUEPtoIzLCTWKvBdQUBWoJPgfar4RYQcbfLAUopeUCa8jUY+4UvCA4/XdBLIo63SrtzYt3XlGvpOvh1DTq/66G0kbltdq0ed6lgydJ1y1+kv4bfzx9APRUOjNp9bh1WnjmhNJPlXwyb1mCKpzt+xBdQWZJ9RxR+mLk/crfUptfLjUQOgOjkS12pfE+37Irlmyz+rJJ/qB155ccPqnFFUtdp4+ZN+yOT+rDYDoz6pjX04pP7lT6rl/dxRX3MQAXT1upm950vYr+Lkb3yS39yDCgPO6hduoyR8KRFFuuj2azIvV2VIomjThdSg/SSMqZfD+rv0A7j5ASdxi/VIYAAMZFKt0cDqUe3X5fdpnfZyOp6fLm1qWGDk3FcAY9I61eJ/2j0LW7PP5dPn0eaPxsbi00zrx12mljWR5Kv93yVkuo/7jlXscF8HcnqsOoThGLcX6nJ1UIwzyhHjwFUIGShjnN9sIuT9EE8c4/VjkvuisoLguw/SVLgtxUuRBYi1FPcky2Ny4jJ/oaRXl5KZLY1y02fI12YMj/Qkum6mS+aMYf3mFivTSSSb8GfJvOVep2NN0mCivjZHL2Rt1OlwQ6XqIYcUU+y+6t/5jpx5iL3Onl1Sh0+MFv3xpnMijp6PBizaaLyRum0ZVPpnT8ORKeveTHikvkcKtv3N+PQPBqFg0C/N/FdxUnT+xh/I42/lyZIx9EzTooy0WrxajB3TyY3cbYVrzabqOmbWTpThXmO5zc2qyOVTh8P2aPd6bXS1MO5xnjn5jIjqtJptTFrUYIS963A8C52imXJ6PqP4aqLyaGbf9hnn8mOeLI8eWLhNeGBX+g0htV4I7hDqgTI27GBYpUTjkrlFC5GuQrSsnoy6Ga1U90ZYRbaSVtnRw9I1mVKSSxxf8RCKXjxSVwuL9GVSi4Pev0Ovi6C/+dqG/aJox9G0mN21KT/tMnGuuAmTTN/U+nxwQWXCqj5Rz4mLG5UkTQlGT4iyThNL6dzKmiM82PF9Uv0RnzyzrZpRj7Msx4sMVcmpP3AHqpT2w4m/dk4R1E95SUPsThkxpV3JfY0YI48s0nl7V6qLYVnWni95zlL9aLY4scfpgkacWg1mSbWHTzyR8PtaNuP8P9RyP5448S93uYuUn0c/pmSODPkeSXanGlf3M/WP9syw+HOKjFbtno8X4ZS/rtQ3/dRpx9C0GNpyxSm1/Eznf04Yr4deIxRx4ZXHvyz4+VbGqX9IaxQhj00uyCqKrg9xj0mlw/1enxr9Czx8qSXsjjl+yf03Nbx0OharLh/aafI8j/elOkv0NPT+k6/QQnGLSUnbaSbPTOLZH4TZxy/XllONTCRycbzQ2zPJJ+so0ef67ljl1qTi49i2b8nsMrxY1WTJH7N7mLJpsGu+WWDvj6uJnVu8cu1bj2PHRVkkj0Gp/DDjFz0mRL+xNnGz6fNpZ9upxSg/Xwz3Y7ccvjjcOKktxrkarwNI35JxXlVpGPNKcbSyZEvaTo3Zdot1ucvLkk38zr2OuFc8oqb9eSNh58sfw5y4j/M6sBO2NjhGUE05RSfIudwLcUqNuOScbMEDTjuVRim5eiA0/ESOponL8rCcW09/Jhw6Hbu1EqXiK8mz4vbBQxx7Yx4RLOrLx1dN1eeHbPjWSP8AmdXS9Q0OpXyvsl/DLY8n8SN/POK+7IfFxOSjHLFv0W55tmjG/HXHZXu3ixzj82OM4/azn63oel1cUoSliad7cHH0WbqeGUVhWeUb+mUW0eqi24xcl2yatr0PnZ+eq+q7eq8lreg6nBklk+HHLDxKJzWvhaaUacZKadM+gK0UanQ6bWRa1GCMvdKmdtf7L/8ATF1vKz1HdK0tmVvJudrU/h+t9LNP+xI5uXTZMEu3NhcH4vhntw3Y5fHO48ZXlrwReV+EXywtv2COni+bs6ssjzzXBCWXJPg6C00f4SS06XhBHMUZswdaVTwx9Ys9H8JLwcP8Q43HNp5VtuilcRxp0NRs0zwrn2KUqdGmA0q3J6WTTafAu1Mvw4v2WSXoB0NBKMs8Jy+mG5rjq6lk1Of5m3sv+yOZgn2YperLYywS08+/v+MpLsr6a8hSz5J6jM8uZtt8L0RXW6rYWSTsUW2wDqOXJnrPPlNRv2MkPmb9jVrMz/o/4O280y38PdNXU9Y8M8nw4pOUpeiJbyEnazTbkop1sqIUvVHrMfSukwcvhqWocXTcnS/kWS6fpMsex6XHGPrFb/zOF34x2muvF518ipeSiMJSfyqz0mp6Lh1KyS6bnWR4n8+N/wCjKdN09pOLg1P0rhnSZyxi4XrjRwzhTnFpE1R6KPRpZEnllx4R0dP0vRY8LhPT452921uamSeLx1L1H2nqsv4f6dkdxxzx/wB2RS/wtpn9Gqyx+6s11njzbTQmd/J+FsyV4dXCf99UY8/QOpYYSk8MMkYq24SvYdOOWwDmvcFFt0k2/ZBAIbpc2vuguPqihAOo+qCvSgIhRKn5B0vIEaGh0FJeSARJIcY39MZP7FsMGWbqGHI36UFKCLlSRt0nQtbnSlOCxR/tPf8AkdfSdG0mlkp5O7LNfxcIgo6H0/JLItVmh2419KfLO/3J88kFK0vT2GRriTYIj53JEUDFyNAMAGUKiVAuBsIQIAogkIBbgSsLEMqgAAgQDEUMBJjCEAUFEBYWMRQAJhuAAAyAsLCgooAFQUyBjojQWAw8AMoiOhqgAAAAAFuA7AQJDsaAVEqEOwFQV+o7GBEBtIKAixUSEwEA6CgI0G5LjwHIEdxjCkAbBsJrcAHSYUIG2AwEvcbpAABsxgIBjq0URAdBRAjzX46/4dp/8b/Rnp0eZ/Hf/DtP/jf6MqVxiM4KapmjLglDdL5SqvQrLFkxvHL29SzTVbXsXtKXyspjiljy3+6wM/UI7xmvsY2zpa6F6d+zs5j5AdjTIkqAnjfa1Lymeywr4mGEl5ijxkbR7Po0ll6djl5WwVasZJYjSojUQKFiXmSJfDX3LXCL5Go0BUoJeBqBZwCAj2IOzYnYX6AQUUuSSS9QVDoBUh7EXKMfqnFfqQnq9NDnLH9ALAMs+p6eP03JmefVpX+zxL9QOkBx59R1M9rjFeyKJZ8s/qyP9AO5KcI/VOK/UplrMMecn8jjtt8tsQHUl1HEvpUmUy6lP92FGEANE9dnb2nRVLJLNBxyy7lJU0ytiTpgc9d/T9Q4vfHJnThJSipRdpkM2KGoxOE1zw/QxabNPS5np83HhgdKwsj7jAl3pxS7d/UjYBQA2CCh0AnyIbABDF4ADi9Vh26y/wCKNmU6HWI/tMcvY56AaL8T+Voo8luJu2EdzTu9Pif9ksKdCnPSQrw2jQscn7BpERZ8L3H2QXP/AHIis52q1OTT659rS2XPk6vycQi2/ZHO6p03V580cuHC2lGnuFYM+fNnzOTkkpcpDxafHF3y/YzfNCbjNNSi6a9C2Gdrh0ysr5KcXtCVfYw6i3ldmx6/UxVRk6MmpnPJkUsiak15CtHSbeuSjy4s62RS7Wpx/mjgaXLkw6iM8f1I2Z+oauW0t4lRoxRg5V2w/VG6GPFX9XD/AOJxcGph3XNST9ka/wA9CKqKn/Ig6ijBcY4f/Eui6WyivsjhvqD8dy/Qj+eyeHIDuTnS+qjLkmr2ZzJa3K19MmQ/N5r2jX3CuvjyUtzQ6lp8ib5gzhLLqp/81R+yNui0UNTNx1WvyRVeEEcBKnvwmdbprxrTS+LmjiSlyynqGgho9VKOCbzY1+9Rd07UY4aPV6XP2qOSmm1umijY82gires7/wC7EqfUNBCVpZp1+hPBoNO4KTjNp+uxdHR6OP1Y4fqwqD/EeJpRWLJtx+0ZdH8UZkklG0vV2Vv8hie0dOn90V5dXpuIzwr7IDoYfxTByrNHtX2NWV9O65h7XKKyeJLlM5kNV0V4Kyw7slfurlkuh6PS6/WzwQ71NY3KMobNPwBh1ejz9Py/D1C7oP6ci4ZmlC+D1OXHq8eKWg1+OKlNVjyZI2vucvqfRNV0qOOeZxyYZr+shwgjkOAJblrxzlOMca7pSaSRZkxaTTzePUausi5UI3TIKFBemxv0HSs+tkvhY2ov95nW6N0vpeTEtRLVrPXjijrz6np9PD4eHtil6FC6d0DTaFKeX58nv4LOoyxunCrj6HOy9XTbubfsY59S75cbBXR+IJzOfHUWtnQPO/4ijXkcckHCXDVHCn+yzSw3GDj5l5R0Hmb3szamMs2WDx9ictnKbpIxlGsWaTg3Tzzk/SCLsfTdXqF+w0Wqmn+9LZG7S4OsYKWkwQkn+/GCaf6mzJp/xE8TyZ9XHBBLe51/2PLls5eR18WDD+FOo5d8ihij/alui5/h7pmi312u7n/DAoxvV6mfZLVzlX1SlPZf/c2x6BHUK4Zc+R/xtdq/zOV3cvutTFm/N9E0m2n0LzNfvTkJ/iTJBVp9Lgw/3YK/5m7H+EYc5dVJL0ijVj/C/T4r5pZZP70Zu/D/AKvi4cvxF1XJtHLX2pEX1fq0nvm//jPRr8OdOX7uT+Yn+HNB+73r+TMfz66eLhYuqdUk/wDeoR+8jXj6h1n93Npsvt3q/wDM6D/Dmma+WS/WBRk/DMH9Eop+zaJ/Lqv9LwR6r1WCTy9NeResFf8A2JL8R44vtzaXLil57lRkl0jqekd6fLl/9srF/SfVdPUNTiWWK8ZMd2TmvL417dXD1LDq1WLWYcbfhrc0LQvKry6vJlXpBqK/yONDL0jXTUNXo1pssv34fKrNMuh5sD7undQnHyozZnLXjPlTrpw0Wmwu8eCN+st3/mWO/wD+xxP6W6l06XZ1LTOeNbfEgv8AU62k1mm1uNS0+VS9Y+V+hwz15T21KlKF+WV5MEMsHHLjU4vwzS0Jo4y2X004Gr/DmnyXLSyeGfpdpnF1XT9Zom1qMMnHxOG6Pb9onBtU6afho9WH6Mp6rNxj5+2pKluVZJKOKWOWDFNeJNbo9xn6FodQ+6eBwb8wdHPz/h3puO+/XSxr0ckz26/0YuWWDxMlSpKvYrfc3w2e1w/hnp+dN4NX8WvK3ok/wwltj1KT94Hb/wBGH9uf8VeJWHLP6ccr+xctBlUU8s4417s63WtDqOkqDlNSjPiSOFlySnL9pNyZ2xzmU7HO48X/AA9Hj3lnnka8QWzLo9QjhXbpdOo/2pO2c1zrgfxXRtlsnr9TPmaj9kZ8mfLL6ssv5md5ZNibYEpSb37nf3L9Pr9Rp2njmlXsjJuNMnF67+m/FHUsTX7eUl7npekfiqGplHHqklJ/vI+fxfoej6N+HdV1DSrVYM2JLurtctzy7tWFna7YZV9ChPHKKlFpp+SXdE8/pXrOn4fharHLtXElui2PU4viZ8rKcvp3mPXb7omfqOOGbp+aL3aj3J+6Ob/SSX7wf0gpxlG7tUa12zIuHpz4pOMXXglQ0th0fZx+PNUKCidCo0iNLyV5cePJBxyQUlXDRa0RaTA89q9BPTwfanKC49jk7ZMnZBPuPaSW1PgxanpWnzvuinjn/FE1GePNxi9jbpO2Wnz43zKO33Ohi6FDurJqW16JHKn/ALNqMmOacZQfnygcQSko15NPwMkcEMskuzI32777E8ukyxxRyyxSipq1sVYoSnLtTSpN7uihfDcuNmHZ27J2/UO5KKb4Zs6doMmtn3tdmCL3k/3vsQ45mveOc8Ucce1Rj8zb5Zo6PqMml1Xdji5Ka7ZUvB6F9O0fnDFv1aJwx4cSqEEvsjGd7ON4ziWiw4dNjl238zt3yXvKqaUbT9SmKlN/LFlkcEn9bPL/AA23tdvP0q0mDFpISjhXb3O37l1Nu6JrEo8bkqo9GOHHK5dRUfUkkkKwbs2wlaHaXkhuFW0BHWaj4OD5fqk6R5/VazO45VjyzjjUWqT5NvW8zx5ccVwsbkcJ5rwTj5a3NQZsUba9EjtfhuEX1VOk+1N7nHxrwd78LxX5vNL0jsVnj0OTDhy7z0+KX3iVPQaGXOjw/wDxLxka4z/0b0//APYsP8iufSOmz50UF9m0bEOidOOeuh9LTv8AKf8A8TLP6K6bFVHQ4/8AM2UHaOnGGXRumz50cV9myWLpPT8Eu6Gkhf8AabZtSGOnEIwhBfJhxx+0SVteEMCdXiOwu2/clQ6BxU4K9tvsS7ZLh2vclVj7fAEbp7pkoyi09xpNEWk3/wDYCVMNyHbJP5Zsd5I7yj3fYIs7lQEIzi93s/dE0rVoBhyLjkaaYDqgBUCCgYB9gAAAoAAACgAAgoBiYDFVi/UYUNCRIAhbCoGAAABsAAPkKASGAAIVUMKAYCQwIsdkqCvYCPcMO0KABiGgESFQbgMGAAAJgG4DAVDAW4UNiZQAxCAkISY7AFuOgQ2QIBDABDDYAE1ZJJAURVIbG0IBRi1yS8ArCgI+Rg0FAB5j8df8O0/+N/oz1FI8z+O1/wCnaf8Axv8ARhKksNqmjFq9HLH+0xr5fK9DrqI0lRWXmXG59y4JuJ0dboVFvLgW3mJh28AUZoqWKUX5RxZKm16HpJOOaOPDjwRhLzNy5PP6rG8WoyQfKfgCoaZEALIyPVfhfJeny4/R2eSTo7n4b1UcOsksjqMotAesHT9UZJdR00dvmb9iqfVUvoxN/dhXQS9x035RyJdSzy4UYoplqs8+cjr2A7jpfVKK/UhLU6fH9WVHBbcvqbYVH0A68+p6eP0vuf2KZ9Vf7mFfqc4ANU+o6mfHbH7IqlqM8vqyP9CqxgJ3L6m2CSXCAABiGwAQhtAAmCHV+BU1ymQMAABA1YwAUduSGq0y1OKnSmvpZOhptFGTRalxk8Gb6lsjc1Rj1un+LH4uPbLH08hotZHNHsm6yR8MDWOqIuSTryFtvZASAXZP0GsTv5pAK0K0TjCCe7sm5QjxECiUlFXJ0jJk6hig6SbKNdqJZtQoS+WKNehxYf3YRb8t7gc3W6j8xFOqSMqO/wBYwx/IuSq01wcBAMtxclJZi+oI6ug1mPDF4sklG3ab4OrCCyR7o5lJPyjzk3iWNrL54KdPrJaXLeFvt9G+QserWKHlyf6j7YR4Uf1OLptR1PqEmtPjqPmT4R0sPRpZXWq6vjxy/hirMZZSfWpj1dLV4sd3OKoy5OsYIP63J+yOivwbgyRUvz85357f/wAmfXfhLHpNHl1C1ScYK6ceTh/6MO863/HXlNVNZdRlyRTSlKzNdM3TSjjbkvBgPTHKtGHKu+Lk0qfk29X1X5t4e2MKgquKo52ONvhui5NJbFF/TMMFn79Rj74elmnqsdK8kPyqUG7tI5rbvloaaXncItjpnz3k3GUf+ajM5XyxWgNLrzmQu7H5yP8AQz2hppgX9+P+0w+LFcQKbDuCr/zLX7iIvU5G7jcH7MqtsW65QRoWpyz+qd/oKUldpKL9iuOw39gqXxMkvqyTa+5FqP3IvdPccUqpyQDXZ6BaRFqmHkC2DXk9h+CdBlhL+koLvTvH2L0PGrY9j+E+sZdL0qenx44txndv3QHsepaDF1LSSw5FT5jLzFnF6Tlcvj9G6nTcV8rl5RCfV9dkf9aoJ+iOL1TJP83j1Lk3KVRb9QKep6XpnR9fPDqHly/vRcJUkjyuZwefI8d9rlce57nS67k79an6wRynywLtLrJ6dSjFumXPqOVmHySA0y1ud/vJfoQlqMr/AOYykE6ZR0On6uSm4Sk2uUdL41RcnwlZz8HUI/D7fyuFt7d1bk3lvFKPqmBfg18c/wAtOL9H5LnJSjX/AHOBHI8eSEk+GdSWe+OTN+LHqNNrtX0PLDBrbyaXJThkW9fYWt1Oo63q1p9KpLCvXwvVkYdWwaroT0uogpZIxqLe9mbpf9IdMwLW40s2mbqaTtxXueDLD7a9Er0eh6Vp9DjSjFTn5k/U27sz6HXYNfiU8MlfmPoaao+Zs8u+2yodBsI5qYB+g0n6BCDYU5RgrnOMV7sxajq/T9P9eoi36R3NzDK/INxHJjhkhWSKcfc40vxH8aXZoNHlzSfDojLRdX6jHu1eaOkw8uPk74acv7TrB1hafJqIafSvuqV3zR6KGmi8MFcoyilumcrDi6dop9uPIm19WSTts05uvaHAqj3TdfY3sxyynIvlGuUM8YuNxzQfMWji6zpssGT8303uxZYu5YvX7BqPxS4RcoYe2Pqo2c2fWNZ1KfZjy9jfFujpq0bEucel6Z1PDrtP3ZJRxZY7SUnRbl6nocNqWoi2v4dzxeHBmhlyYMsrm2na9zprpEV82Rr/AN0jd/LO9ZmddLN+JdJC1ihLIzHk/EWsyX8HAoL+7/8AceHQYW+3FcmvEImqHSdRLiEYL1myzVqx+ltcfJq+p6n683an7lEenvJL9tnk/dnpsfRFd5tSv7uOP+pqh07Q4l/V/Ea8zdnT+TTjPSTyrznT1k0OpS0/zxbX02+5HrGknaIxljxxqEYwX9lFc8qT2Z4d2yZXsdcZXH/GWGOXojyRXzYpp/ofPJPc+l9ZazdI1kP7FnzRpvwe/wDHl3Bx2zisRqw6OeTeXyL1NmPp2CE4vJJzje/jY9jhxyKJxXg9a+ldDytQ08c2WflQdtFGu6L0/T9sazRm9+34idffYDzPa26StmvB03PmSbqC/tHWxYcWFfs4U/V8lngoxQ6TgS+bLNv2Rq0qz9Nl36fWOKu+2Rm1XUMeB9mJd8/X0ObPPkzZLm3Jt7Izlj5TlWWx9J6D1pdRi8OVxeaK5X7xu1HTtNqL7sajL+KGzPGdA02bQdV0kp1UppSXpfg+huEbPk7tPjl6eiZPOanpOfCnLC/ixXjyY8VSlVNNcprdHrnGPgx6vQY9QrVQyLiSM6/WXtry7HEoKotyYp4sjx5FUl/mQaPrY2WPPUaE0Toi0aRBogWtEWQV9vqPauAZBtlGbqet/JaX4sYqU26imYdTgwauOPqEYd7yUmm9kHXU+/TxfG4tDlrpGaH8E21/3KNuLNqFNQzU4tUti7LoNHqoL42Fd3rF0c7Jrfki2/KZ2dC1nhOT37ZUVGTF0jR45p/DnOuFKVo3xxzkkoxUYrhLwaVCK8DMtM6029yZbHFCK2huWUFEEa2Eok6QUBDt9g7SdBQFfaLsss7QoCpxaK8mWGNb7v2NDjZCWGMuUEeZ6zqo5c/c/lSh27nMiv2M5X7I9lk0GDL9eNP7o4vXtDj0enxSxpLvnRqDi4trPR/haPyaif2R53H9P3Z6r8MQrQZZeswkdWhkqHRlpBWNMbQBQMQAAwAIBgAAPYiDAkkFbEVKvBJO0A78UCS8gABSFuNsEBGXd5SoioN/TaLUD9kBFRyR5lGQfEUfqjQ6b5YmnECSlB8MdlThGe0kRcJY/ok/13AucU3dv7D2RX8WS+qCfugeePFdr9wLLCyK+bjcdeoDsLDYQQ7BtgkOkAR4BoEMCIx0gSQCE50MKT5CknY+ApLgAATVjdAmvAQVQD8AAIYhgR8gOXsBQqAdhyArDufkkxAAMLoSa8sB0J7DteAdAJMdgkKTrwFOwsjsCCLEKxXQwCwsLSHsACB0gVAFBQMACgob5E+dgCmFgnJA5WAqGAAJqxpbBuADoEKwsokn7C/QLCyBjFYyhMAAAPMfjz/hun/xv/Fnpro8z+O3/wCnaf8Axv8ARhK3JMbjfJyX1TN+7FL7lc9dqJqnNpexWXaqHmv1OT1LT4oT+Jimk3zFMySlKX1Tk/1FQGaWojbW+xzNXvlcl5Olq8Kp5Ir7nMzbgUgDQIBmjRy7NRB+LM5LG2pJ+gV6REvBXjl3Y4S9UifgAGLyMAENggooAAIQCfIwAEAAOuA8AuRsKjW24kMGRC7pp/K6C5P65WFvwtxrHke7SQCsLJfCfqP4SXLKIWMneNctAnf0QlL7ICKQdjLFDLLjE1/eZNafM+ZQivYCpY16nP6hom5fmNO6yR3aXk635eK5m39g+Hjjulv6gc7Qa2Gph25FWWPK9TalNrbH/M5+v6e5S/MaV9uRb0vI9H1i0sWqXbNbd3qB0ezI/wB5JE44Yr6ptlL1UKtStexVLWpfTBv7gbOzFHetyE8i4SMMtVkfsUZM0n9UwJazSY80rcu1+pgnonj3hmf6F8tRjjzIh+YU3WOE5v2RBn7MqT7skpL0bKkvm2RrlOT+VxcX6NEsUIxeytlFMNLkn6Je5dDR07c9y7vjBXNpFctdij9MZS/QIt/L43Skr+4flcMd1jVktEtX1DOsem0633uTpIy6jV6jT5p438O4un27ojTfjy5YYuyGSUYfwrgrnhhO7j83r5Oa9dqW/rS+yIy1mp/6rHInbHb0XW9b0qXbvkxfws19W/Ef9KaKODHilj3+Z+p5harPJ1KVpmrGnVvg43Rhb5cdPOqNbLdRRRhxSz5oYsauU5KKQ9RLvyt+CEJyxzjODcZJ2mvB2nxz/t7bH+GM3TdN3Os05L56XHsc7JodNPu/ZqMjN0/8U9Q0jXdkeWPlSdnR1fV+ndS0mTL82n1cY2lFbTfocZc5fbryceYyUpSVcPYrbLsi3t8sqaO0ckRhRdDD2ruyOl6FFcYOS2DaPIZM/wC7DZFF35CNuDFDM3+0p+hd+WhGMm1wjmxk07TpnT0MtRrlLTY4d83FtMixu6T0J9Y71ps0YzhzF8mzN+DdVg3nnjZi/D08uk6xFKThKScWkz1Epzk25ybZOtcebf4e1MX/AF2L+RdDoHHxtQ37RR2myLa9CdOMGPo2ihziUveQZul6OcHFYYwfqja5P0ISVjpx5TV6Welzdkt4v6WUNHouoaVZcbdfMlscCcXCbjLlFTheDufhmpfmotvZpnEZ2Pww61Oqj6wTKPQqEFv2p/fcp6lD4mgyJJJxXcq9i6LaXohZfmxzXqmgrxnU33ZMc/VUYJcm/XKsKXmEqMmPBlz5O3FBzl6IrKlckkieXBlwT7csHFv1RAAZFsZFgW4XT5NaMWN7m2FOIFOTTTnkj8NWm/5Gqu3bmgi2uG02OgNOKealiwQlOb8RVnT6dPrGgb+Hj+rnHLz+hy9JlzY88Xp3kWV7L4fLO1p+t5ceRYuq6bLBeMsoU19zhsnXXGsuSfUMGreoWhy4O52444ujr4PxPPHBR1Omfd/b+VnShqJ44Qni1CeOSuLk9qK9V1XSzxvHrcePNH0VM8WU7eXF0ZH+J5SmoYtBKUm6VW7LX1PrWT+q6VKK/tKjh67L02Eu7p+TUafJ6NpxRnx9V6tssWozZP1ZuaJZ2RLePSf/AOR5uMWLCn5clsQydM6tPfV9VxYo+ab/APwcf8513LHteSST9Zsh+T6rkd92Nv3kzU0X/h5ui+mdMxtvV9Sz6hrxFUiP5/oeh/qNFCcl+9lfc/5GL+hupZX+0lgivWTJw6Drou8U9Lkl6RT/APsdJhJ9TytaZ/iPWZ49mjwOEfHbGkZZ4Oo6192o1Uq/h5NsNF1zBBN6TFkS8Rkr/kC6pm08q1vT8+JLlwiWTWnLWfF0VtLulNrzbpGiHTtNh2bgn7bs04uu9Gn9cc1/2/8A+5vwdV6bX7DLjgvRRoxlt8fkamNrJh0fdShhyzXq40v8zfLSZs7hLM8KceG1bRL89glutRCvuZNb1fDpsUpRyxlKtlZy/wDTsvqRf445OuwQj13HjWRzcmu51R6RYtNFprDBv1krZ5fpkJ5tTLW5VSbfZfn3O3HO0qbOO/Zl8dMcI6DzUqv+RVLMZXlvyyFyfCZ5PdbkjS83uVvLvyZM8oZIZcKzqOTtd9r3j7meesx4NLp+zvzzyKoKPMvc1NeVnpfTovJuQlO0c/NqdU82DT4Yww5ckXOXxXsvY2StVdXW9DLXZO0Q1T7tFqIvzjkv8jwunhiW75Pc5XeDIvWLR5bqHS9PpMWHJg1+PPKe8scF9P6n0PxepY4bjwYJ5pKGKDnKXCRt/KaTRb9Qzd+Txgw8/qzD0fXZtHmhmxzfNUlZsjn0P5nLk1OpnKFdznLHu36H0HmV6nqOaUfg4Ix0uHzHG9392ZYVHhcmWWoWTLKaj2xk/lj6IsjksqNSkvUxa/UyUOyDqy5PuTl+6vJys2RZMs291wvYIq9zpdIwJzeoyLaP02YMcO+SivJ1u7twxxx2pEWOv0eU9Z1vSwu44597/Q9xPJuzy/4S0nw8WXWTW8n2x+x35TPkfq2f5cj1YYr/AIhNTRieWgWdHkmddLgv1unjqcVfvx3izjVJScZLdcnXjmvyYNdCs3xFxLZ/c+h+bd28cs8ORmaE1uSpid2fRcEWtyEuCxoOwDM/sJKPLNDh7EJYXLZAcTr0ouOJxe8ZUY9K60uaF13PydvV9NlqMcoNb+H6HPX4d1s4drzY1H/NlHKeT5447uTfg9V0ZP8AJzb/AHslo5+n/DMsWSM8mojs/Q7+LHHHBQgkkgGiSCkBkNBt5CgoB0h0JDCigoLYcgL9AaJUFICFWNJeB0CXoEJrY89+LZb6TH7SkeiPL/iyd9QxQ/hxf92UrjwVQs9f0CHb0iLr6pNnkor9nR7Xpcfh9LwRrlWVI073ZJcEbGZbApq1S2Yw8hEMff2vvStOtvJPwDq7ACLVeSSFQwH90PYQ0A6Qmh7AwIpbkuBWh7gPYQL3HSAVIKGAACChgIN6vkY79EBGn5FuTsQEUttyPba5X2ZYRpAR7Y1w4v2COSSdX3L3JpegpR7nulQAskeZRol3RauLTI/DSVJB8OK/dX3QE07QytRl+7J/ZhJzW7j/ACAsAqWaHHc0/ckpe4EwQkFlEkvUKFYXZAANDpAQoEidEaAKYIY+QhUA+AbKChdoWOwIuAqonYnQEQodBQUfoJpEhBEO0nFUAJsB3QMQMCL9gTolWwmgE5bjuyLiFASCxBQDBCGA7CxbhYErELyNAAxUFAFjEMAFYxAHIqaG2K2wGmO0RAolYd1iBEDTGIACjzH46/4dp/8AG/0Z6hnl/wAdf8O0/wDjf6MqVzFySIIkioYxDAjOKlFxfDOVrMEsT4+XwzroU4LJHtkrA89QKMnxFnYwYMUZtdi2fk3TwwWNNRS+wHn46PPP6cb/AFNGPped/U4x/U6mPhr0ZICOHH8LFGDd9qqyYBZFMBIZUFgAfoFADjCT4RNYpBFYFqwryyXw8cea/UKz2SUZPiLLu+C4S/RDTm/pxy/XYIqWKb5pEniqNuRao5HylH9RPEn9WR/oFV44RcW2Puxr0J/DwwVNtr7ji8UPpiQRXc/pxtjeLK/MY/dk/jP91bEZ5vWSQEfgyX9ZO1/ZJLFg5abfuymWpgnvKyD1kV9MbA1L4S+mCv7A8zXGxgnqpX8qoj8WbW8gN7ztctFctVFcyv7GGUpS3bDYDU9Zd1FlUtTN8IqbUVu6NOj0Ot1zrSaWc/7XCX6gUSnOS5M+pw4ssbyUpLz5PT4/wzi08e/q+uhhXPw4PcX9IdA6ftoOnvUZV+/k3/7lHkcemzx/qviSX2NEdPrHzUPuztazrOv1/wAqxwxQXEYqjD+Uyzd5Mle1gZoYMEJKWs1EpJcxxurFqMvTnL/ZtJNJfxTbs3R0GGKuTv8AUjkz6LSr5pQteFuyDFj1Lg/2PTMU36yjZPJrOrKLmscNPBfwRUaFm64knHBiv0b2Ofm1+o1O2Se3ogJvJPLkeTJNyk+W2Qnqa+XFz5ZTOTfyrgglRUXxcW+7Iu9+7L8eaUpxx4sa7pOkjNCDe/g9D0nSY+m6R9V1iTkv6mL8+5nK8iyLddm/oXpi00ZL83mV5Gv3V6HlW7tsv1mpyazUyzZHcpO2UTfhGcYtQScuDVi0r7e6Sv2LNPp/hqLn2ttXs+DTW1vZG2WWaxRjvjqa8hml24YpcyIzby5pPdpOuCOW5S9ktgqildy4LXo5SwPNi3iuU/BpxaPFminHMu7zFnV0cF/RHUMCxuU5pdirex048zunTuzVjXZDfknPTZsDSz4nB1a7lyVyd7D6FLdifhEkmkQabAu+TDvtJmbNleR8kpJ/oVPYIjQUFhZUCNfTcjx63G/i5MUW6lLHzRkSLdO+3NB+5KseiUdJo+r4PgPNkcpdvfOXqehly1t/I8tqX2avTzr/AJkWeqyLcy2qZFk2iLRFRZFk6ItFRVkja4OL1LS7fEit1yd2Rj1MEwjzi3R1Pw466nlV84X/AN0YM8FizygnwzX0KXb1ZW6vHJFHp09thSe5D4sF+/f2Vlc88Vv/AN2B5rqManqIeVKyrperek1kc3f2JLfa7NXUZKesyNU+6Pg5LXO3BUdTrXUdP1LLDInkbhFpfLSOQSaaV9rRKGP4kknLtT80VFVoO1vg9p0bJ0rDoI4tRo8WRx5lSuX6vc4es0eLLq82TBKOHG5fLCKbpAcmEaZswq1QPQahO4Y5ZF61QksuKXz4mv1CrY8Dsr+JbqMWW4tLq8rXZgyNPzWxnq8WabPPT6iGbE6nB2juZus9Z1uJwnig8UuU0kmVdM/D7ywl+bxT7nVdsm2l+h39P0j4OFQx6d9q4eWdHPLLHva3I5XQ55H36HWY4rBk+hp2oyM89Bg1GqyYJ90NRglUsfc0pL+JHfXS5Qm5SzY4J+Ixv/My9Y0WOfZr8drU40k5LzXsZm3C/F8ayR6PhhFWscWPH07NGf7PDlyL1SpHV6PrYZ9Ml2RU1y65Nry+smefb+q4Xkbx19YMOiypL9ljxL+3K3/ka4aWCXz5n79iSK8mbfkr/MP1PLl+vOun8UbY4tNDdYlJ+styx5UlSqP2Ob8d+oPLscbsyy/tZhI2Sz15ZF6iVVe3uYcuojhipZJUm0l92PJkWOLnkmoRXLfBJc2vGJ5selz7ZdLgn7uCswZej9OyO44JY2/4JUWvV4Py+TUQyxyY8auTg7ozY+qxnlwt6fJHT5pdsMsvL+x3x/kSxzdVpuk4MzxS1usU4/VGMbo16Pp3TZY1qMWSWoj4eR8P3RfpP2XWOoR8yUJKzDn0yet6hpsCaUsUcqS4UrPV9nOo6c82LFJRm+1qLkopeEUY+rYMmTGo4s3wsku2OVxqLfoUafN+c1Ky89ulqS9JPki9/wAM4HHdwcZL9JHP+PH+1aeoarV6Rzzd+nhhxvbHN/PP1KcuGWt1euU8+WMMeOM8UYSpJtc/5ENZill1WtT0E8+bMksOR12wVf5GzS6fLizSyZKXfgjjkrv5ka/wwiMeLFDHp+l6pK82XJ2ZJvmV3yLTZY6eHTdRm2xY/iY5Sr6XexvxaKENHgwSbn8GXdFrbey6GPHixvHGCUG2+177s53di1GDqWTSavTRlHBlzydrHkxp2n9zbhU46bFHK28igu5v1ompUqSSiuEuBcnO5+U4vwnumn5TPFpqODJ6qTPX6jVYNNjlPNlhFJPazxUsiePI/EpNo9f5JZK8+2un0DUT0reeFd0N1aMfUdZLVZ5OVXdulVixZvhaJqLqzCnbt8nueddFtsti3JqMeWZ0y3EsyXxMcu3xZWUtRqHHG8UX4MCVE8jfd83PkeKMcmRQlJRvZN+AqekyxxZbyJv7HV0qw6rLDHCMlklJJVumc96HLhmoz7WnxKLtM9T+EempZ5ame8cf0/c47c/DHrphj2vTYcUdNpseCKpQjRFsnOV2UydI+Hnl5Xr2ycQnPcplkaZKbsomzMx6q2Oop7uvuXZZrJp1W9NbnNlHukr8GvC/2fb4R7dGHMuuWy+g0JrYsoTR9TryI1dBQ0hgR7Q7RgAKO4V6MY/AUmrVMEqHQAAAOgBAwQ2AgSAkmgooOBgAgHQJbhCbpByh+AAXk8h+KJ93WMi/hhFHsYxuS+54fr0+/q+pf9qiozfuHutNH4ekwQ9II8NjXdOMfVo9/KPb2peEkEKgACNAAoPACYWOg7UwFYA0CVeQJIGA79gEiSEMAofgX6h+oDAVuhrcAAAAYUILoBiCxhSAYBB4BAFANAAwCwpCBq1zQD4FW9hvXI7KFSfKTK5Y0n8touDjcgzN5PKUvsThPepKvuWP5t2iLhtsUFpyru/VDtepB42/b7Ee2a4l+jIL7+WxqWxneSS2lH9USjNN7MC5MexWpepJO/IDaBBuOwBoVDsVsIQ6EFuigCyLcvCGm3yqIobF3NEqIyhYEk7GQSY90twJJBQ1xYMqIuxL7kvuLZAArRJLu44DtoBbCaJV7CoBCJUKgEmS2F2hQDfsKgGAUNIEADoAsQBuxUMAAQ6CgIjodCAKCgCqAKAfgSQAO/UOAVMAs8x+Of8Ahun/AMb/AEZ6lo8v+OlXTtP/AI3+jKlctEkQskmVDALQ9qAA3Cm/A1GTXDIqiu3UbcM7E8MPydq20jlZouLjJnY0r+Jo2nvaA5VduRr13JIlOKWSDlxwyxzwwfKX2AqSb4TGsU/QtWVy+jFOX2RJRzvjHGP95lFawvyyfworkksOR/XmSXpFB+Xw/vSnL7yIIt4o8tII5Iv6E5f3UWJYY8QX6jeWltS+yKIVml9OKv7zJLFlf1ZIR+ysTytkXl9WBN4I/vZJS+2xH4eKL+lfruVSzxW0poqlqoJ82Qa3kSV40rIx1WdqskotLjajDPVN8IrlnlLyQdF535aRXLUR/jRgc2+WLYo3PVQXG5TLVyr5UZw4ILHnyS8kXJvlsVgt3smwoSv1GTjhyS4iyxaOd/M6ApGaZ6bFhh3ZJswZdQ3Lswx/UqLHNR5Zu6b0jW9UaeDH8PBe+WT2Rj0WLBiyrLrVLIl+5F8nUlrtTmxfC0/dh07/AHbA3x0XQ+kru1GR63Urer+VFef8Ra7NH4eljHT4q2UEc6OCEfmnu/LbIZddpcEX3ZE2vC5AsnHLnl3Z8kpt+WySxY4LhfdnJz9ab2wYv1kYsus1GZVkyOvRAdvLrMGBb5I/ZGLN1lu1gx/rI5Sj7ElEqLM2t1WbaeSl6RM/b939yztGkBX2ut9hcMuorS+dgKmSUCXaXafDPUZoYcauc3SRm1ZOtnRenvWai8jrT4/mnIfW+ofntR2YvlwYvlhFG3qmWPT9FHpmllUnvmkvL9DhrHv/APY4y9va6c/pU1XA8OFzn3PhM6Wn6RrNQk8OmnNerVI6ml/CmolUtTnjiXmMd2XLbhj9pNdrk4sPxHUGr9Ay4s6TTxS7Vy0j12n6BoMKTeP4s1+9I15sMXpcmKMUk4tJUee/swl5Gv4a8FPUT/LRwQhGK8tLeRb0fQQ1+v8AhZm1jUHJ0yOXBKEnHse22xdodLrJ52tPCcXVNtUqO92SwmF67U9P0bQbrFGU1vcnbM2bq7cJPTYlCEf3qNWm6DBNT1WSU5P91PYw/iDU4sajodNGMYx3nXr6HDDLyvO9bynI42pzT1GV5Ms3KTKErJNNs2dO6fk1+Xtj8uKP1yPX5TGOEx7VOj0GfWyl8GK7ILeUnSfsLJp+yThKLjNcpnrYYY6fEsWJKMIrZIzarRw1ManGpJbSXKPNP1Ty46/xenlJwa5KJxOtrNHk022Rd0XxNHMywam0erHOVxuPFFCou+FYPFXk11nikt0qg9RjWWXbByXdL0Q4Yu5scsLXgnYsjrdRallUseojmxY2lHtPWX3KL9YpngMVqLS4fJ9AwVPTYZLzBf8AYxbI3Ii0RaLpJRW7S+7MOq1+nwL+tTfpHcnkvFzRCTS5kjm5esY4Rvtkc/L1rJK/h40vRm5UdyWSCvk52r1sIbRcE/fc5T1mfLKsk3T8I7PTl078svj6bHKXlt8lZcPNkeTI5NqTfkeHK8GZZo8xQamMIanJ2JLG5NxS9CemwSz5oQjjnKLfNNJAWy6tqJRfa0n9ilz12pdL4kk/RHZw9Jyp2vg4/ft7mbYdJcv6zPnyXylUV/kUebWlz4o9+aNfd7ouwaPBlffOWWT/AIcUL/zPT4+j6eMd8UFaq5cnPwY10nqHwsu+myPaa4ROyHK50sumxy7IaHLklH/qb1+iN+mw5NVi+Vwxw4cYY6PU6bR5opzw41GORbuUluv0L49OkucsYP8AsR/1ZjLbjF8Xlsf4exSd1mfr89I3YOmabSrtThC/Dds7sdBp07m8mV/25f8A2L4Y8eL+rxwj9kcb+rGfGpi42LQxntHT5p+7Xav5ssfQcOVftsWOC+9s7Dk35Eccv1W/Gpi5uDoWgwu1C37JI2w0unxL5MMVXruWkZM82W7KtTEOdLwvsVyye5GTKZyPNlstdccYWbLsZdQ70cn/AGh5pFeZv8kl6zO/577plHL0E3g1iSfy9zidd5XRx5Pt12NLl5Y/9jop7s1vneLilPJUZSq2k3RyV1TXPSR1ktNgWmbppS+Zb1Z1Y/Ul6nn8Gn1ufp+fHDJj+Bpssv2bi7lTurNaMMbL2La7Gr1mPSyhDsyZcuRXHHiVyopzdUg9D8bTqsjyLG45VXY/cq0upjLq2LUZGsUc+nqDbpJ3xZGMtPk1PU82WHxtK3FNRV2/Y6zXjP6Q+q4NVPpffk1SvH80vhL5ZbktRih39N005zyYMku6Xe7cnVqyPT9P8XQ6zFGGTHpsrrCsnMVX/wBy7HpMufRxwa6UO7HXw54b7o15L2Y+hXqdNjx9Rz4cMFCGbSycoR2SfrRHUb/h/STim/h9klX3Nmm0sdPKeSWTJmyzVPJkduvQthCGLHGEF2xjwkYy2yfFYtX+cw9WlqNJplljPEovulSTsnpNPLTyyajU5FLPl+triK9DX3WxdsntVryjF22+uDndLhjWXW5sP9VkyVF+q8m/HCGLHHHCKUI8IjOeDTwSyZMWKK4j3JV+hhz9d0GG6nLK14ithlM876idkdNPckrex5rP+J8r20+nhD3luznajrPUM9qWeUU/EVRvH8ud+s3ZHssubFgi3mzY4feRz8/X+n4vpnLI/wCyjx0pzk/mk39xUd8fyYz65/y3+noM/wCKJ21p9PFL1luczUda1+dPuzOKfiKox9rZdh0Oozy7cWKc2/EVZ2mvXixcsqzPJLJK5tt+7Lo7wa9jqR/CXV5YXl/LdsUrqckn/I5EO7HKcJrtktmn4Oss/pzvf7Tf+6X6FKdFnf3aZxRB7s2yaluW5ZZ8MFHuXb4RR5LM2R5JtsCl7l0NHly4nkxJSjHlJ7/yIY4PJljFLllk45dNnaTcXe3uQX6SWZzji+ZuTqmj6RodMtFoMeFfVVy+55b8KaN63Wfmc0Plw736s9fklbbZ8z9mzt8Y9WqK5vcpnIlORTOR856EJMpk6ZKTopcrfJ2wiULk04GnCVcp0zLKaxY5ZZfTFWS6T3y0SzZNpZpOdei8Hv0Y++uGytogBntecmtgGJhQIYJUAUNIi5pcjU09ktwHQBY6AQ0wBbBDvYB+dgQVHyNIdCoKaGJLwJuS8BErHYk9gAdWhUlQWSXKW3IHl/xT1TVYNZ+U0+Tsxxgm3HZts8y9RKUryW36nY/Esu/rGf8As0v8jixirs0zWrDqnGcZQg207Vo9b0Xquo18p49RjVxjayR2T9qPHQTtdrPUfhWDcs8nwopAjvgCQ1sZaIYNbip2FMGgHyEJIdEWmuBW/IE69xUwTE9mA2FiHQA79Rr3YcByBJCEh2kA0x/YhY7ASU0/mmmvsSbQgQDSGkCCwCtwEmyXgBBfoF0yLdfYCVsLEl3LYEu1buwGnfA17iuuKF3ICYkJSt0SAKY+1gnRJMCFMb24HJNsg01sA0LZMSajsNu1aAUkntRGWHu5SJKUXte5J34asDM8UofTJ/qSjKa5V/YuqX7wdiYFSyVs219yXf6Mm4uq5RX8FR33X2YE4y3JWZ6mns1IfxpLaWNr3aAvGVxyJ7WrJd0U92AwIykr2Y+5eWBL9BWHda2BblQUNC3CyKkmD5I2MIf6C7Ve6GuBp2igWy2E2DQmn4Ad0KxJutwv3AbYCteoWAwoQJgFAOxACHYmJASAQ7ABiTABjEIKYCsYCHuMCojQ6AYEQXJLYXaiBo8z+O/+Haf/ABv9Gemo8x+O/wDh2n/xv9GVK46jJvgtWJ+pFSm/pg/1LYwyy5lGJUOOKPkn2447uq9wjp4v68jf2LY4sEOMd/3twKHnxLZO/ZIay5JOoaeb93safiRjtGMY/ZCedva2RWXVYs/we7IopLwnbNnSpqWOr3KMsu7HKPqhdLn2zoglrIVJ7bKVlinjjFOMIr9CeuXzv3Rz1qEoK/AVs+O/0Izyt7K0Y3qW/pWxXPPN+xUa3J+ZieZQX1X+pgcpeorYVteqXgrlqm1sjLY0mBc9RNrd0VucpPdsiCAKQdquxqMntGLZbDT5J+KIipcEapmuOkf70i1aXHHy2UYETjjnLiLOjHHCPEUTTft/IisEdJlfOxdDQr96d+xqthYRXHS4Y/u2WRhCP0xSGgIp2zPqtRHTwbf1eEWZcqxY3J/ocPU5ZTyOUt0yiyOaWqytyb+/oaMWLlYkkvMmc16ntj2wVe5XLNOSpt0UdeWp0mm+qXxJopzdam1WHGor3OXst2SVPi3+gRZl1WfN/WZJV6JlKj7F8NPmyfRim/0NEOl6yStQUf7zAxKLH20dOPR8qSeTPGK8pRsvx9Hwczy5JfZUEcXZBcfU9DDpmig7+F3P+0zRDDigl2YoR/QK81DHkn9GKcvtEvj0/VyVrC0vc9F3NeRLcnTjjYuj55q5zjAw6rTy0+rlibuq39T1MWk6M8+gavqGreSCWPG0vmkYy2Y4ztrUwtefSTgl2/MvJ6Do+jno9K9RHE56rKqxr+H3OxoPw5pdG+7JJ5Z+62OskoJKCSS9j52/9s+Yu+Grn15jB+F8ufJ8bW5u1ydtLk7Ok6RodHXw8KlJfvT3Zu55BfY8eX6s8nfxhb1tsvYVFb7sDveWJ/ziW7NXFpp+TjbavEBNE2hUToyy0enbt4Y23ZYoxjGoxUUvQtaFR087/wBTjPkl2Ysk/MYto8HllLJmnOW7lI+gZcfdgyr1gzwMopTkn6nu/HfrlsS0Oiya3VRw49r5foj2On0mPTYI4cMajFc+rPOdI6h/R8MvZhjPJN7Sb4Rs/M9W1u2NOEX/AArtR23XLL130mGLr5ezGrm1FerMObqGlx2u/vfpHczw6Fq8zvPljH7/ADM24fw7gjvlnPJ/kjz+OGP2ujlajqMMqcFiTi/4mcuXT8mad44v+R7TF0vTYmuzFH7tGuGlf7qr7I3P0TH1izcJXh8XQdTPl0jXi/DV/wBZks9ktE/3nS9WQlDR4f6zUQX3Yv6c78Z8MXnMfQMEOW37GrH0XTr/AJSf3Oo+pdLwv/eIN+xD+nOl/wDWf8jn/Jtq8xcvVdAx5Yt4koSXC9TBm1Wv08Y6e3FRVLtjuemx9a6VJ/16X3Rrxa/QZH+z1GKzU27J/tD1/TxePp/U9busWeafmbpGvH+FNdJXLLix+3J7ONTVxkpL2JKPqT/0599RnkeE1P4c1uG28TzJeYGRdPzRv/Z1Gv4j6QlXkp1Gmw595pKX8Xk7a/0Xv+TNn/HglpNTiivzOnyRhL6XGNJ/5GvF+HMGSpdmZ+znsetWlapS1DaXHy//AJJLT4F9XfP+9Lb+R6L+rCM+Fefw9M0+kS7Y44P05ZtwaWc9oYMrXq12r/M60HHH/V44Q+yJ/Ek+Wcr+yf0v8bBj6dl5fwsfu/mZfHp0f+bqMs/aNRRqTvkLRzv6cqviqho9Njdxwpv1k7f+YtdocHUdM8GeCrw1zFl6ZHJkhjj3SaSXk5/yX/p4vKaN59Nqp4c7eowYG4425NfyPSaXU4MyrFmcZfwzf+pxtdGLm5QyKafjgw9rjvjkvsz1a7jnPZcbHsWnH6lXv4EcDR9V1OBJd6cFzGfH6HQ02vyZ9QouMMeOXq9lsZz/ADz7GZlW8CvJqcEE3LIkkc7J+INDjbjic88/4YRbPJcLK3K6pGa2OUuo9U1D/wBn6Y8Uf4s0u3/Iy6zqPVdFjebKtPlgvqWOVuJLrtajsSKJnG0/4s0uWo5sfY/Ls6OLX6XUx/ZZotv3OWWnOfY6yoZVckhanZQx+UrZa1T7nukYtTkcMU8s3TaZ6NOPjGcr7YsT+L1WD8KTk/0VG66MXSoOeOepnt8R1Bf2UbWTb94snpJPdM5z6blc86WsljwZpd0scI8/qb0ySjJ8RszhlcPiqp6XTzwQwSwxnjgqipeC3GoYYLHijHHCPEYohly4cCvNnxw9m9zBn6707E6jKWWXtsjcmzL4nZHTbvzYJSfCZ53N+JMrVabTwh/ak7Ofn6pr9R9eolXpHY6T82V91m7JHr8mTHgTebLCFer3Ofn67oMVqMp5WvRHlWnJ27b92Lt9jrj+XGfWbsdvN+JcrtafTQh7yds5+o6tr9RanqJJPxHYyr3LsGjzaiSjgw5Mjf8ADFs7TDDH+nO5ZVndydyk2/VsXazvaf8ACvUcu+WENPD+LLKv8jbD8O9P02+r6i8jXMMMf9S3ZjEkteU7WWYdJm1E1HDjnkk/EVZ7DH/RemS/LdO+K1xLNK/8iyfV9U49uL4eCHpiikcr+j/jfha4Wl/CXUc67smOOCPrllRth+GunYP986kpSXMcMb/zJ5cssr7suWc37yKXKK4Rzu/KtTW2Y49G0irT9PnnkuJZpf6FmTrGqjHtwRw6aHpiic1zK5zdGfK1fGRdl1WXNNPNmnN35keezQU3qMr/AI2dZvyzHmxqP4enmfOTNt/M9WiOWxy4qk0MF8yqO7onmwZtLKMdRicJTj3Rvyj1OCmW0qJQjLJNRirbEo/FlK5qFLa/Jp0Mp4sny4/iN+FyB0NDoPgJ5Jbyfn0NM8ePKuzJDu9PUlDUQlcJKWPIuYSVNHR6HovzesWSa/Z4t37s57M5jOt4TtdvpOiXT+nQxL6pfNIunIsyTtmebPh7MvLLr24zkVzluUTlROctiib3MYxUZy2K1yEpbhH1fg9OGLNrPrYvUZsGhh/zXc/7q5OtskklSSpI53R4/HzZ9fJfU/h4/wC6jpH09ePI82d7QNbodbBVHRhBtcXuMdJ8oTaW+9AICPxYt0kyS38NAFL0HyFAlYB42Gg2rcewCXI69wCmA6EgQANMZGx2A00N0R8AmwGAu5VyPkBpbDivnQkNOn9kIPBdbyd/U9VL+3RzYrY1a+XdqM79ZszRVI0zVsOUet/C8e3SZperSPJQW6Pa/hyHb0q/4pgjpWMKQIy2QWDaFaAdhbGg28gJ/wCYNNkqXgOAiPHjcdJ7j5GkqAh2jSHQUAvIWOl5Ck+NgEAKND8gJIHwMewEUBKkJoACqCh1YAmHxK2oKDgAVNA0qC/YYEVtxyTjvFd3PsRe40q4AbiqvccaXKFuJqwJ90XKkNdnNblfBKNtgNx9BpDIymotK934CJeCLi0raJ06sFxuBTcG90yVJKiaUfQGl+gVS8dsmouPH+ZKkMCtW75sSnTqWzLbrghJW+ACxt2LdBv4AK9hOD9Rpv0sfcwKZYe7lfyK5QlFvtk+OGa7sTSrgDF3TXMP1RJSTNVR9CGTHGX1RTAUZVEfcV9kYcN/YXdNfu9y+4FynQ7TKfiQ/e+V+5ONPdSv7AToFaFbQ07AdsEwr0FW5UTsV7glYNVuA9iLgpcjVPySAh8NLiwaa4JABDcCdXyLtQCAl2+jFTATQu30dk0FLwBGgGD4AQxeAT9QGFBQwEA+AABiAoXI0AAMLEMAPM/jv/h2n/xv9GemPMfjz/hum/xv9GErnKRNTp0ZIzbJ9zA1d69RPKl5M1sQF7zb8EXml4KwAcpzkqsnop9mZr3RXZHG+3NZB29YrjCfjg4k12zkvd0dyfz6M42bG3lpeQql/agLo6Wb5kkWR00V9TsoxvYO1vhM3xwwjxFWS44pAYI4Jt8FsdI/3pUa0DIKo6XEt5W2TWLHHiKJAiB2o8JL9BpiBIodjEhvZEAOxJ2OrAADZB9gGmAh0Bg6hkuUV6HPWCepm4w5Ru1KUpu+UHTlGOonfmOxRVi6Ha/a5Wn6RNEOj6aH1OUvubl7jKM8NDpIcYI36vcvhCMF8kIx+yGqGvuRBb8se41XkPsRQkOqEO6AQ2nQrt3e5LevmdL3ASVcmnQ6L85kcVkUIr+bMGbV6fDtLKr9FuX6DUrNB5sFxp0m9jlttxx7HTCdr0Gn0Gn03EVOXrLdmm/TYy6LWLUx7J/LlXK9SWbXafA6c+6XpHc+HsueV9vVJIvoVHNydTzyf7PHCC9XuwxdSyQmvzFSi/MVwc/4q110gCLjOKlBqUXw0OjHOegkUyxyxtzxK1+9AvoEWUQhKOSPdHj08ofaRyYX3fExfLP08MeLKstxa7ZrmLKdPtF2llDUfYHVTgpRcW6tUc7H0PTxm5T7Z36wOuo+wN48cXLJOMF6t0dMM8sf9WbxiwdM0enfdiwRUvVqzWoOtkv5HP1f4g6bpU6yfEkvEUcTWfi/NJNabHHGvV7s9E1bdn1nzker+FW8qS9WZdR1DQaZftM8ZNeIuzwmq6vrNQ38XUzafizDPURb+Zt/c9GH4b/dc7te11P4t0uLbT4HNry9jk6n8Xa7KmsajjXsealm9CDytnqw/Lhi5XZXUzdX1ue/iamb9u4ySzuX1zk/uzH3NhZ3mvGfIz51oeWJH469CgFya8YnlWhZr8E45Kd21+pVhxyyTUYRcpPhJHVx9A6pOKktDla90c8vGfW8e1PpvWtXoMqljyOUVzFvZnvOm9Wx9R0yyw2kvqj6Hz7L0vW4P63S5IL7GvousnoNZFttQk6kmeXbhjlO4u2Pv6+gvKyLyGT4vdFSTtPgPiNny7b11kjQ8hH4pR3sSluZvV41RyWWKRljL3LYSLCxoUgafKK5ZIYoOeSSjFeWznZOuuc3j0Gky6mS8pfKdscbk510pY5tbNoz5tM3H9pPb3MM8nXM6vI9PooPzKabMWbBgb/2zqufUS8xxbI3/Fz7SU9e8MJU80Y17nKyamEHcMspf3VZtWPQQd49Gtv3sztlc9Vp438+NJeIRuj0a54/Greq9PrVmi45IuL8WuSyOWUGlCbe9qPihrJGeD4qfyVd1RinqZcxXYnx6npwytccpx6HQdRi55U6+MqcHJ7G3X6+WDp8pwxrDlk0u6KVNnl8GoxKChJdr8v1MWv6plzy+DCc1gxva3yzpcJfrn11dVqdVNN5MmXN7dxDCu7C5Si1cXafg4+DqWXC+W0/Vmx6+WFRyTj3Yp89q+k5ZaZ9jeObi49PqMsn8PFJqzZg6Xr8mSMMce2UnSqXB2NHlWvbjpFKfrcWkvuy7V9Rw9Jg8WmvPrJrdx3UTfcv+KesyZ+l6HHodHJ59TJr4mSW6XsczqPVO/JjwZ5fEUWvjPHsv7qHp8Wt1dyzS+DCT3afzM6mFQ0+JYseLH8Nfuyinf8AMxlljiSWqo/iHpval25YJKkkk6K8n4l0MF8mLLkfvsTz9P6Zqf63Tfl5v9/Dx/I5+b8MZZ76LVYsy/hm+2X+ZiY6sr7btsGb8VZaawaaGP3btnM1HWuoajaeomk/C2Lcn4f6tifzaLK/eKv/ALBj/D/VcjpaDN93Gv8Aud8cdePxztyc2WSU3cpNv3YJHoMH4P6i6eeWDTx8ueRbfyN+H8O9J09PU66eokuY4o0v5jLZhiklrzEFcTTptFqdS+3BgyZG/wCGLZ6zEunaRVpOmY7/AIsz7n/mTn1HVSXasqxQ8LGlFHC/on9NTXXG0/4V6hNKWb4Wnj65Jbo1w/D/AEzT/wC9dQnna5jijX+ZbObk7nOU36uVkHJHK78q3Na/GumaWnpemxlJcTzO/wDIsydU1bj245Rww8LHGjE5vwRtnK52t+MTnknkd5Mk5v3lZBtLhCEZXgcm/JFt+oCZqKiyLJPdkaNSITIMsoXadIzVM/ol9jndR1uDJ0zS6PA5N425TbVKzpaz9lo8s/PbSPOx00577JerPXpnp59iEHPvXZyaMk8uSlk3aVJ+hZhwxxfM3b+xJxt8HdxYpRotwTyYqlC7NUcKk91sX49Okr8egVZk0WqWPS58rjN6naHz90l9z3XTdIun9Px4f32rm/c4f4a6ZGWd67NDaG0E/X1PQ5Z2z5n6tvb4x6deKE5bsonIlORROdWeB3RySKJMJzK1KztjiUzPrpSeGOnx/wBbnl2L2XlmiEbZX06P5rqGXVyp4sK+Hj+/lnr1YdrlneR0sOKOnwY8EPpxxpE6Fw/cdnujzfTewhN2NlBdBQwYAtvC/kRf3GIAAYt/C3AYIKa5AB8BYmOIAkFMdpci8APYQcD2YCsLHwC+wCokRc3F/TZK7p1VhQKb7cWSXpBsbM3UcscPT87lJJyxtRTfLER4DO95e7IR4QZmC4NsVbA9z0hdnS8UfXc8PjVs93pI/D0eGP8AZslWNNsfdsRT33B7mWkr9RIiiS+4ErQr3EwQE00FoiAEkx2mQGmA+AC0KwGJ+wN2ICSAS52HYAFgxASQCAB2vAyOw9gAAAIAAAoGiLvwMBuTXAu+nTHvQmrW6QD2fAlF+zCMaW38iS2Aj+0T5LHUlulZGyMm62Al3uL52H8WypRk3uPtdhF3dsKyCtErAYCV+R2FDEOxWESSGRTQ7AKsO1eRDTATVCJsjQCGkAIKHGL5RCUF+6WPcQRVUa3in90Q+Fj5Xyv2NDpi7Y+QqpLIuJKS9GL4na/2kHH3W5ZKCr5diHa0AllUn8jssUn5K5Y4y/dX3RFYpreGSl6PcDQmDfqUOeSH1QUl6xZKGow3umn7ootUIp2idlfff0rYfcq3e4Q+52OyIvuBOxWRJANMZDyPu33AZF3ZMAINvyCZJqwSAFwKqHVCsAQ+RbehJewDoVDEAACBgKgoYFCAdAAjzP48/wCF6b/G/wDFnpzzH48/4Zpv8b/xYSuR2pcIdWWxxN87FkcK8kGftDtfoa1jivAOKXgDMscn4JLA+Wy/tGkyilYY1uyvNjjFKUfU1UVaiP7J14IOho5d+mab8HPyfLmX3ov6ZO002V6tds3Xh2FAyI7IGJgCKAA8BQQDQNCoipAC2HZUAbABFOxiXAADQ0JgAwQWFgYNbiayKSb3KE5QyKcdmjqzgskHGRgy4/h7S/RlRuw5o542nv5RYzkRmoO02n6mzFq2l+0i2vWKA1DRUs+Bq1liv72xTk6lpMX/ADO5+kVZFa0OmcjL1qX/ACcVejkZcmv1eVVLM0n4iqA788mPGryZYxMmXqumhag3kftwcN78tt+4bGuI6OTq+aVrFCMF68mOeoz5fryzftZVYnKhwTSVnoeg/wC4y9ps80pnU6T1PDo9NOGfvbcrSSOW7G5Y8jeF5XoMk4Qj35JKKXluivFqNPkl248sJS+557Prnq8zyZX8q+mHhIz5NUpSXbCqfKe55J+Xs9u/8r2HbP0FL5YvuaS9zzGLJrtR8uOeqye0bYsmPPizQjq454Rk/wB+zP8A5Z361/I9To+oLTZOyM1PG+Yp8HdxZI5YKeOVxZ4j4um78a0uCfxFXDbs9R0nT5oN5sl44SW0H5PL+nTMPfWscuukFDA8HWyIZcSyb32zXEkWjSEqM162Oyx4sq9e6iSnrvGnww95Ts0xgSUDtO/8c6y/C1WXbJqYwj5WKP8AqeY/E2u0+F/l9O3LIvqk5Ns9N1fVLQdNy5r+aqX3PmGrzSy5Zzk95M935dPle1zyy58QyZm3dlMsspPki2QbPrTGR57lal3PyKyNgmaTqXIF+n0uXO/lVR9WdHFocGNJyXfL3CORFOTqKb+yLY6TUT+nDP8AVHcVJVGMV9kV5NTix7Tmr9EByfyGq/6LB6HVLd4X+h1fjTku7HpNRNL97sdFL1uRSr4KT92FizoeZ9M6jj1WXH9Phn0fTauGrwRzYZ2mv5HzPJrMn05McbPRfgvVylq8umv5JQckvc+f+vXcsex3116/uk+d17mPV9L0OsT+LgipfxRVM2JBR8rHLPF29OZHRZdLj7YS+LBceqEpL9fQ6dMqy6aGXf6ZeqJ5WtSsViumPLCWF/tGkvXwY9R1LQ6eLc88ZS9I7mscLl8a7G2LbeyMvUOs6bpsH3y+Jl8RRweofiHJki4aZfDi/PlnClDUaiTaxZJt+aPbp/L33kxc3o9Nq8vWNWnqptYVu0nSSOln6g4Y/h6V/l9PBfu7NnD6NHJiU4ZIuMlHhmnWNR0m/l0aywnn4z4n9IZNd3tvtlN/xTYaXUZMup+HLt7avZGCWeLpdzdeErNfS8eX408s4SimqVnfLXhjHPHK2pa192q7bVRXkzajLHtlUYq1XyrY159BnzaieRZlGD9iMen6XHJSy5O+S97/AMi4544zi3G9Tl+y6QnvtFcHNi82T+qwTn7vZHY+MltjhJpeqpA8uZ8KMP8AM547ONXHrnQ0Ovy7vsxL72S/ovAk/wAxqZN+xslBzdznJ+10gWOEfpii/wA2SeEcnP01X/srnkj7qjq9OnPHg/2vS48uSO0e+WyX2J0Mn894fxxdm1mozR7LjjxfwY49qKMeOEX8kYr7IkSjGjnlstamMSSoYAcutATX6A3XkXciKshmzQ+jNkj9pMk9TqGqepzNenezO5sXcwcWyabuTbfuR7qIW2BTiTl6EXJsBEUAAFAIYUOBMTJUHaXiK2hUWUFGpE6r7QULLKGkdJEqtYySgvQtUHRVPUafFtPLFy8Qi7b/AERqY1nrm9XzK1poO2t5exz1F+h1c3TdRrs7zafSZManzPK+3/I16f8ADKlT1OraXlY1X+Z7MJyOGXuuA8E5vujNxXuSjjmlvUv1o26rHgx5pYtKpfCjtcndvyUpb2b6xxDHKPdUk4v3Ojo9O9Vnhhx79xTp9Hl1s1HFjlOT81weu6R0qHTcNyalmly/Q827fMI6Y4drZiww02mhigtoqijJLYuySMs5HyMsvK9euTkVzkZsj3LZsz5He1msYVVKdtpEVKgmEItvc9OMYq6OKeWLhB9ra59DZhxY9PhjixqoR/zZHBHtjfllj3R7tePI4ZXo2fCHQvAzswB2Lfw9gsCSEwTCwheRsNhNoKBpCW4WwJMQW/O4wEC9idbbiQFcnnT2lt7IcHk4mrfsTDgAoEgbF3AND8EHJ+A7/UCdkWyPeLutBE091Z5HqOplqdbqpyk5Rx3GC9D1d/8AZnicrrFqZerYK5uR2ycSuT+dImjbFaMKucV6tHvox7McI+kUeE0Ue7VYY+s0j3cn8zXoSrDvYO4SYS3j8plo+4a3IJ70yd0AyXy+CN2F+oEtg2IqS8MbYANCGlYQwFwMKBPckJgQrfyycar/AO5F9yXyxTBq6v8AkBOwIp7EqAewJJkadklwA1SHS9CI7AdUwC7EANAMAEThjeWXbHn7kRdtu2BPPos2GDySlFRirpspxtzgpepY/u/5isA4Fdg9wQBYxDAf/cBIYAMQIBjRFsLsCUt+CKVebALAYrAK9ChLckrQVQuQh03vZLciuBgDQIYAJ2KiYqAVMTe5JrcNgINSe8UFPyTr0EwFGlyJ7JpDe/CFz4AUX47URlBT5SLG0hEVRLFjT+WUoy9pCbzRW1TX8i6UbdsSKiuOoitp3B+5djlHItpJ/qDcHGnjTKJYoXcU4/Z0Bpfy8gmn5My+LH6ZuS9JElkkvrxv7oC9rfkEVxyRfE19mTUvYCSZIg75satoCQhPkE2gGFBdjAFsDZGwAN/UbYgKJAhABKw2Ib2NoCQCHsgIpPyeY/Hi/wDTdP8A43/iz1B5j8ef8M03+N/4sJWZc7jWwhmVMBUNFCAdIKCERnHug17ExNXwBT02fblcWaNbG5P3Riwy+Fqn9zpatXCMgrHi3xos7SvTP64+jLiCPaFEhPgqEAARSGIAGIBgFjuyIyhgAAMBbilKEFc5KK9wiQzFm6np8bqCeR+3Bjy9V1ErUEoL2CuzwrbSXuZdRqtLGLWTLFv0TtnDy5s2X+sySkVUkEdGWpwSl8jde5ZiySjvHf7HKJQyTxu4Soo6stVj/wCdiVetEFj0Wb6cnbJ+GUY+pTj/AFuKORGiGp6dl/rMbxv22Ab6XkkrxSWT7SKcnTtXBN/Aml7o0fA0mT+p1na/TuNOHFmxxpZ+9fciuNLT51+4v5kfh5FzGX6Heksz/wCV3fqR7JfvaZ/yCOC4y8xl/Ig79H/I9C8ON84JL9CLwYPOORejz6e+yZt0Ghz66TjD5YpXKT8HRjh0ndUoZl9j0HTdJi02FY4J/Pu75OW3ZMMet449eUzdH1WJ1ji898OC/wBBw6FrYOMtRhyYoN8yVHdxZPnn2Ou2TRozZ9d1LLDFH4bcFcYt1Z5/566+DsaHNpNBoMWDTftGo8QW9+5g63ol1Oemnqn8GClTa5Rz8Gpy6fPKWJSWWH9bglta9jp5dXh12heTE9k1cXzE82dzxy8o6SRt0fTdHoYJafCrr65bs1VZyNHrXpqhmuWLw/4TsQanFSi00900eHZ5ZX21PRUSUSagSpLkxNaXJBQJqCQnkiuCuWY6SY4p7q5uMUQlmSMmTUpef8zLl1aXkvl/xZg5X401T+Bjwp7PdniMkrkeh/FGZ5dRi3bTiecyRpJ70/VH2Py48wjz7fqDZAbEj1uA8m7SaNNLJmTS8R9SWkxYceNZMiU5+F6FzyuTtsC9SpVFUl6D70lbdJFCnXkenx/ntQ8csqxYo7yk3yAPJk1EqxWsfHckdfp2p1ulxLH07Q4lNc5fy/fkb92U9O1+n0sZ48XT46zJF/LllNrGv0rc0ZepavLppy1GtzYJfu49MlCC/wBQqGv6x1mMMmHX6qcU1Tx9ij/lR5+OonHL8SDqSe1qx6jPPUZW5TlNesnbK4Y3OSjFbkVa3PPNyaVt7nqfwfiX9MKUIdqjhd/fY4+LTQ0+C5bzaPTfgzFUNRqWqT+SJw3XmLpg9R2oO1FbyUHxD5VyxdeVNwXgi40CyB3o52Y1favLihlg4ZIqUXs0zz2r6B03Tt5smPUZIt/TF0l9z0zSaKpxTi4yVp8ouOV1/Fjy6jpMVfltBix15l8z/wAyMpyl6JekVRq1+kelzXHfFLj2MjOs2W/23yKMiljzRzwXcqqaHkemzY1HKu5c0WkGbmS8RxvDjX7HT/rwN5Msv4Yr7WG/qAuVpyIuDl9U5y/UajGPERiY6gAAIoAAKGgENWQSWw+7YiAD7gbsiMAsQxEUxAMoAHQUTiEA6HSRTqNDoaV8EcmTHh3y5Iw+7NTG1OnQUZM3VNNBbKU688L+ZmXUtTq5rHo8FtuvlTlX3Z0x05VLlHUAvnoNQ4YscJ44pK8knzJlsdDBV35JSfmjpNNYucYhwhPI6xwlJ+yOpHDhxqoYo/d7sn3OvH6G5p4zdjBHQ5Wrk1B+jIvQ6tuo5sGOPr2OTOilfkex1muM+dc6PTcN3qs2bUP+Fy7Y/wAkbMOLBhVYMEMS/sx3/mSeNN2Nqlsa8ZGe9EuN5Clgz58Mo4XHH3Ku6Xgt0+JZJ3L6UbG7+x5P0fp/j9R0ww77rg4vwwv+brf0hA2Yfw90/G05LLla/ilt/I6SRNHg/wDVnXbwkRw4sWCKjhxRgl6IlJ7DK8stuaOVyt+rxROT3M05FuSRnnLYRpVkluUOVolm32TKmejCM0fUaNPj7pK+FyUwjub8MOzHflnq1Y9rnleLKvjgCHdL7Au5rlntjgk3XgO5+IgkHgqBX9gAEA6ANv1Dl15AKb4Dsn6HA651XLDVfkdNJ41D+smuX7HNhqMq+nNNe6myo9ioyXKHyeUh1DXY94a7IvZ0y6HXdfB/Nlx5P70CnXpRnAh+JMkf6zT45/a0XR/Eul/5mlnH+67HDrsp+BqNnKj+IOnS5eWH3jZfHrHT5/TrIL2k6HDrc3XJHvRRHVafJtj1OKT9FNE6k+En9mOHU++vJBy3ItS8xZG36Mgl3VwCmuHZFyQbeoEmwTItgnsBKUqxzfomeJzv/ZJv+KR7S000+GjxOsajhUfXI/5FRge+UtRTHfIWt7pGmXR6X2rX4HLhPuZ7Ru5Nrh7o8Po/6ybXjEz2WByWnxWt+xEqxdewWQbY0zLR2O/QVgnQEldku7fchfuF2FWdyHZWhphE7GpEVQ7QRLYdoh3ILAmmmMgFsCYUmRug7qXDCpAJNP1Q2ALkdiQ6AYhN1yO9rQBuMQwDahWDEgG262BSflUA2lQDAUVaGgDYVbku3YVUAA9vcK9xsCClbrskvdokG4UwAQDATDjwMQBuNJiH3UAUxi7tgsILsYWw5AYNoTaWwgJ2CIpjTKJWhMQmBIi4jTABboE75JUgSQBXoJpokKwEknyHbQMVsBSQkiVDSANns9iMorhbkqTGopcAVpNcCcZLcsoKoDP242/nj/kL4cFviyTXs+C9q+SLggILLljzFTXsxrV4m6lcJejJLH/aITS4klJe6ILFNS+lpr7jvyZ3hg943B/2Qby4+JKa9HyBovbYScvSzNHUu/nwyh78lscqfEkBft5HS8FTk2yePfyUDT9BpDf3HaATXoCAFyAwdeQCgI1vcW/sS3SCkgKBHmfx7/wvTf43/iz0x5j8ef8AC9N/jf8AiwlZ0vA0grcZlRQ6ACoVDGY9T1HT6d05OUlykBqoaVHEn1fNmyKODGkmztY1J44t81uBh1f7PVRl/EjpN/E0ifpuc7qjUYQnz2vwQ0/WcKw/D+HmnL0UQrRhVZ5L1Vl5zcGqk9R3zwygknSfLN0dRil6xfuVFrIsadiZAAA6AiA6FTIpbB9iKjPu+aq9CYCGIaAY7UYuUnSQjmda1DhGGFOu7ksRHVdVk5OOnXyr95nOnkllleSTkym6VF2HT58++LH3I0C0gczXj6TqZfXKEF97NEOjQX15ZP7bBHJc9txRjKbqEZSfsj0GLp+nxtNY7fqzSoKPCSIPPQ6fq8itY6Xuy+PR9Q/qywj/AJnb4AK5UOjR/f1En7RjRfDpOkj9SnL7s21uBBnho9LB/Lggn6ljSj9Kpew2Lkil3y8SYLJkXEh9qE0UN5crX1EG8741Eo+1IkqJRj3zjGPMnsZt4Rf0zT5smb4mXK5xh4ao7uBftYoo0+JYcSglv5+5oxSUJOcuIps+Vu2eeT1448jzODLXUNVguvnckacOS8tN9uSO6Zwsmoa6jkzx/wCo3+h3IQjnhDLj+qrR6c8PUSV0pRxdVjGOSXwddD+ryr977mPFjePWThnxvFqUvmS4mvUINSS5Ul/kasmqy5seOGVRcofv1u0cu2Ti89hGrp2qelzdsv6qfj0Zki7JeDzWN/Xo5ZkuCmeZeWYFqqwx7uUjLm1j8HKy30nJHQyalIyZtdFLnc58805+Spuy46/+r1oyaycuNjPOTfLEJnWYwYertpaSadfN2sz4JrXav4WtffHFePGqpJGrqzitDHJK6xzT2OBl1fdn78acfm7j6n5/9Hk2/Wnq/SJ6CSyY/n08ns/R+jOXy6R7XpesxdS0UsGdKSappnB6n0eXTtTa+bC3cZf6HpcmK6SXoPvKnL5mw7gi5zTcYyn2JtJurpHXz48Grx48Gjx/D0WH6srXzZpeW2cCUjr9H02bMnihnx4bXc3llUUkBphOEcqwwVKKulwjH1XUVWNGfVaqUZuKSuLpyT2fuY5zeSdt2BKCfLZ1en4YwXxJcmDT4nOS9DpyTS7Yq9uEStQZpyz5FCHMtke76bploOn4tOuYx+b7nlvwzonqNe884v4eFXv6nrJTbdnzP2bf/l6tWKx5A+IUORFzo+Zeu/Gn4g/iGJ5a9RLN7kOOgsnuPvswrN6MsjmvyalqeKWrxLPglDz4+555xcW4vlOj0HxDiavbVZF72dcE4poi0SFZ3ghVCJCKEFDABUMAABgACHQ6CihAOh0QRodDoAFQUN0NW/BeCNDohl1GDD/W5Yp+idsx5er6fGvkhKXu9kbmu1nyjetx1W7pL3OOuoa3VPt0uGT/ALkP9S6HROqatqWd48S9csrf8kdcdFv1m7I1ZNbpcV92TufpFWYs3W4Qf7PFH7yl/odDB+GcEWnqdRPN6xiu1HS0+i0ejX+z6aEX61b/AJnbHRjPrnc681HJ1PXusOLI4vyl2x/mbMH4cy5F3avVdjfMMat/zPRKUpcsR1mEnxjytc/T9F6fgaawfFmv3sj7jfH5Y9sIxjH0SGPY0nUaCqJC38KwE2HbJrZIK9qY91ywhRve0S5EPwFFUKmwb2LMMFOad7Lcxnl4zqydrRij2YkvPkmkLl2NHwNuXnla9mM5DGhDRiKG6RnyystyypUZcj5NCvJIzZJe5bkZlm23Xg64xEZPe3yQW8gk7fsSxx3O+MZq3FCzTjbXypp/chD5VTJxW90/5H0dWPI8+VTrfclXoG6H22dWUJp0klY1db8kqHwERQiQktrsoEEK719wJQdzivcI8L1OUv6T1bk/m+I/Jic5erL+pw/9R1LTq8sv+5hblHiV/c0y0/mcqVd2wLUTXKsy/EflE8fdll2wjKT9EVGj8z7DWeL5TRTlw5sG+bBlxp8OUditU+GBs+NGuUQeRN+DLTFuEaXKL5SIrNKD+TJKP2ZnbYrYV0MfU9bj+nVZa9HI1Y/xBr4KnmjL+8kziuTFbIr0cPxNqV9eLDP7bF0fxND9/R//AByf/g8tdB3Aewh+I9I182HLH7Uyz+ndHJfI5X/aieMWRrhkvjSCPWZOtY4Jyb2rwea1GoWaSpNJW9yhycnyNQ9QFj+sm9pxQRh2u0yyGmyZZptxil5ZR1egxxz6lJZGqUNr9bPUvu9Dyem0uLE3Oc1PI+GlSRt/MZ4x+TVTgl4uyLHfV+Ro88tdrPGt/nFE1rtd41uP9YIcOu/uG5wo67qF7arA/vAsWu6n/wBbSv8A9v8A+Rw67VsEzjrXdR8z0r/9v/5Jx1+vveGlf2TQXrr9w1I5P9Ja5c6fTv7Njj1PV/8A7Jh/+RODrJjs5a6nqv8A9ixP7ZP/AMD/AKT1H/8Arl+mX/8AA4OmhnMXVMy56fP9MhL+lp+dBl/SaHB0gs566tFc6LP/APJDXV8f/wCxaj+cRwdCwi/uUYNZi1CqMZ45fwzW5ciKnyMiNMIaJWRoP1CmxL2Aa9gDdBYMjclKgJCokk7sajYEO7tW5NLcjcVk7Gn6p+CX2AOAsW/lEoxsBdzQ+4KSFwA72FyFoLAW6DuaHYmgC7GQH4AdhYq2FwA/uCAEwHaByXoK0BUPZhwLYAGHIbeQrbYBNbjQr9wpsBtvwicWlyQ4GBKVP6RIAKBoadcisTAn3JhyV7k72AdBRGx2yBgkCY/IQNegA90IKGgGIBNIQ/sFAL7lX5nF3drbT90X9rISxwk94psCPyveLQnEl2qOyVD2ogrcZLgqnjjJ/MtzVvYc8gY1CcH8k3XoyzvcVvG/sXuK9CL9AIY82OTpyp+jLtvFFEscWt4p/oQWLsd45yj9ijX3eqHafDMizZY/1iWRfyZZHU4OJRnB/YC9MZBShLeEkxqTTpgSAXkLKJHmPx7/AML03+N/4s9MmeZ/Hv8AwvTf43/iwlZ1Y0iPduFsypvce6BcA+ShS3TRw9X0ub1DlCScXu7Z1tTkeONpq36mXslN3OX8mEZ9JovhtNPta/eRtlOSXb3Nlccbj9MmDUr5Kg+FKTu7On0vNHB3Rnhg2+JUZ9LDHJpZW+2/B6DTS/D+GCvFmyTre0+SjidTlj1GZZVFdy2pKjFLTanL80MEuxeT1mbqvT8UX+W6bC/EppHB6n1rI8UoyyrHB/uQSQSM2ijJKSl48GijPomp6dTjdN7WaLoy2KABkQhJEtgYUmthUMVgFITBJtklD1YEThdb31kf7p6DsoxdS0cdRp5TqpxVpliPNvg9J0qK/IY3XqecjCbdtOvLOx/S8ceKOPDiqlW5UddR2Bqjj4up5JT+abT9PB0sGpjkqMn8wFoEthNIjRVQAyEp+xBJkXYvieBOXuVDsi2kJsi2A3NeCPcxOvVCUkiKkpM6XScHc3ml42Ry8cXqNRHBje8ufZHpsOKOLHGEeIqjy/p2eM5HbXj1Yl/M5X4g6itJpHig/nmqOjnzx0+GWSfhHgupayWs1cpt7Xsjy/m1eeXa6bMuRDG20zrdH1UkpYe6nHeJyoqkTw5XgyxyLwz6eeMsefHL29VH/aE3B9uRcx9SOLK+948m0lwzOpOXblx7WrTJYcuPXScYyrMvHqeb+HKz1Ho8pG1NrkujJGHDmam8OTaS4NEZHkyx41KNRJ96V7UU2WZd5X7FZz410AAARYAwNIy9Rx/F6ZmjdVTv9Ty+bE8UqbT+x7GWP4uLJi/jjR4/UtvPkT5To9/5r/jx5tv1p6XrPymoTcmk/Q9V1LJDVdCzZZbpQtfc8O9mdnBr2/w/qMEnbtJHrcHIsdkUNgWYIOeRNrZHShm00sdTn2yW1rkxdPc8k3ivarFk07x5ZyyUle1MCGp7ZZpOEnJerI4cfdIUppOq5N/T/wAvLaT7ZMisyz5cc+3E6/Q0w1GdyStrI3SSJS0j0+eU5fNF/S0dj8L6COr1j1GRXDE7/Uxsy8Z1vCdr0/TtN+T0MISr4klc37l0mSnK3bK5M+BszuWXXuxnIi2QkxyK5M5qjJkHIcmVtm5FHxe31J481+xnYJnSYxlvjk3SOVqpd2qyP3o1rKscXKT4Oe25NyfLdnTHFBYABsAhgUIB0OgEkFEgoBUOgGOIVBQSkoq5zUV7sy5eo6TFfzubXiJqYWpbI1DSbZy8nV2/6rEor1kzJn6jlmqlqH9oI646cqxdkd3Jkhj/AKzJGP6mXJ1PTQ2j35H7LY4U86e9N+7I/Fk63r7Hafnn9sXb/wAdbJ1XK1WPHGC992QwafqPVk5Y8n7NOnKcmo/yRz8WOWfPjwxbcsklH+Z7rT6eGk08MGJVGCo6TXjGfO1xMH4Ziqep1bb8xxql/M6GDo+g0+8NNCUv4snzf9zc2vI1bWys3xm0o2tkoxivEVQ2vcdSS+ZJCXuVCSoL3HdIVAPb9Q2oKB0kAc8WKhpkZN3VAMfHkO117glfIUbPlhVku2g5Aih1aHsnTHQRHtpGjFHthfqVxg5SSo0Hg/Zs8ceR31Y/2EMEM+Q9IGIU3SNRFOWRmnIsyz3M2SRuQV5Jvcokyc2m+SqTO+MZpLdmnT4nJ34Xkpxxt0dHHBwxqKSPXpw7XPK8CTS33GtvsHbfLY0j3SccCuxq7F2klF0VBuLkdURsCVKtxPtWxFyfhkGwJuSXAKa7k+KIWmuCqc1Fc0EeN6tB4+paiM1T73L7pmJqlbW/g9R1eGh1cV8fIseSPEo8nmcyis0owl3QiqUvUsZqmUb55DHPJhl3Y5OLap15JNEZKkaR7D8PdQyanpjhll3Swvt3V2jTl0Og1NvLpMLb/ejHtZzui4FpNCpNvvzVKSfj0Og8q9SLxgzfhvQzbeGebE/vaMGb8M6lb4dRhyL0lcWd9ZX+gnMLx5HUdJ6hp03k00nH+KO//YxO4upJxfo0e7+K15oryfDyKsuLHkX9qKYTjw+3qI9Zm6V07Lu8Hw36wdf5GLN0HC/6jUyj7Tjf+ZU48+B083RNXBXD4eVf2Zb/AMmYcmmzYnWTFKL90BTZOEJTeyLIYPMv5GvBpck1slGIRnjFRVLkdP0Zt+Bjxrf5pEMklCFyr2AhDtjBWtxxdu1exmeTudjjmcVVgdHFq8cX2yRZml+z78XzR8nJU7abNWDP2Or2Apea3yL4pqy6WGoXfhajkfjwzBKMsc3GaqS8AXLM1617B8aX8TKbBJgXrUTXEpfzJrW5Eqt/zM1DoDT+dy1Vy/mH5zL4nP8AmZqYU/cK0/nc3/Ul/MmtfmjzKT/UybLlico/xIDb/Sef+KX8w/pPU+Jy/mYu+K/eJRlF8KTftEDYup6jzOROPVM/nJIwyTStwnFPy1RDuS5YHXxdTzfEi+98ntOYxfrFM+d6WUZ5scL5kkfRa7Yxj6RS/wAjNagpj42YKwZFSTYC8EkAtxgu5y3rtJJJAL3Ck3dEmiLT5AkiMop+WEWSAjBU7JpJiQ3ugBxDhEVa44JcoBCbGJoCFq6JUxqG5NRrkCCT8bA00SdeCLkkAgBNMGgDYixipgCBjoGgFYxON8OgAHsNMQBA+dhptCtErKDZiWwBQDuyV2ivckgJJAxNgmUAeQuxMCVWLgEFgNNDZBjTsBon4IAET7vYLtkOR8BT2sGt+RUJASSQyNhYDsXkEBApJtWCVIYAIaQqHuAN7ia9h0JtgAuxN7oEwi78UAnhT8kXg9UmWpkrKjP8HF7xfqgcckfpyKa9JF1KwlCL5QFPxnH64NL1ROObHP6XuOWNJXGyqWODVzjv7EVoSZ5n8ef8N0/+N/4s7cUk9s017N7HnvxrJ/kMCu18Xn9GVKjQ+B0FGVAV6oK2BAYtf096ucZfFcUvBydWs3T8qhjyuqs9HzsVywYpS7pwUmvUqOX0/WPUXHJ9a8+pqktzmrIsfWJUqXdR1ZJI0hwyKGNt+NzmZeu6ruaxuEY3s+3c06ybx6XI16HA5CNuXqetzRalndei2McpSk/mbb9yzFjT+qROeBJJxdpgeh6Yq6fh+1mop00Ph6bFD0ii3wZrYsZGhsgYmw3H2gRW5OiUYE1FAVqOw+1llBQFdPg4/VOpzx5HgwJbbSk1Z2/KPJ63bWZ757ypRi10oyrLBOPlpGvJpcebH8TDs3vS8nLZp0WoeHIov6H4NIjKNWns0X6XO01Fv7Ms1sI2si4ZiUqmq9QPRYtWpQXd9SCWp9EjnYp7rcvVsyq/8zP2RB5ndkO1+gu1+hFTeVsi81EXBv1F8N+4Def3IvUPwSWnbZJaWnuBR8WT9RSySStmnJihhh3SW4unaV67WRTX7OG7JlZJ2rjO11+h6P4OH4+RftMm/wBkdZcEYqqVUlwjN1TWR0OjlO/mfB8jPK7M+R65/jHE/E/Uk5LTY3suaPO4YXK3wgzZJajPKct3JlqSjGkfW1YTDHjyZ5eVSb3B1uITZ1Zdfo+f4mOWnk91xZP4GTBBQUUssMnfjy3Vr+E5OnzPBqI5l4e6PXQjHU6dSj9Ml/I1j+j+HvZ6rp4fyRmx9uryOMn2Zo7xvyWqTW0k1Jcoy5NNkU7T+eO6ZbHPLK08n1efc+bnZnex6fHkWt2IGI82UXoABMzwAhkWUThJxlceUm0eO1E3PUZJyrucrZ65P50eR1cezV5Y+kme78v9uG5DIvlUkvuRi2k0uGaME1KDx/D7mylqptVW/B7HmITJSXoRYFulc05KGzaqyUnLualLuLcbjp9PSV5Jcv0RQt3vyBOGD40kk0vuQz4Z4Z1JNM14cMXpnPfuiLHrm18PNBTh7oio6bU5m440+63SR9C6XpI6DQwxpJTl80vueb/DXTsGq1y1Cg1jxb+1nrpyuTZ839m3/wCY9erHntFsjJhJkGz5jujJkGxyZBssgjJlcmSlIqbt2dJCk2CDkLUbctklbOkjLB1nU/B08ccXUpPf7Fkd4xfDaTOXFvqXVZSlvijv+h163PVljMcZGelQUOg4OfDpUOgsE5SdRhOT9IxssxtOwUFElp9ZP6cEYe+R/wCiJf0bqJ/1ut7F/Dij/qzpjptZucVtqKuTSXq2Z59Q02OXa8inL0grZuj0fRJp5VkzS9ck3/2NeLDhwqsODHD+7E7T88/ti7HEjqNXndaTQZZf2prtRHWYeo6fTSz6vPjwQXEIbt+x6G5Wcr8R4MmfSQcd4wds6zXjGLna81lz7d3zTb9WdbR6LS6XBHV9SyLJk5hhhxH7nDcu3Njv6YyTZt1OplPK+x1Br+ZuSRjtrL1PXT1uocu1Qxr6YxWxkuqFmmpTSiqrz6gb4zVj+ka2kl6kE29mTfN+gpHW6BhWXq+H0g+7+R7GTttnmvwpi7suXM/3Y0ekMtQmk+QVReweeQdJ7OwHKT+4oyk3TjSBPbcX2CpVZJJIgu5vkl7WACob2GAtlFtuiHcvDJtJ/YShG/pCDvpcAsjf0wolS9B2FQuTIvufEqLlVCcY80BUo3zKya2VWSUfYcY9zqtzNvIRLAnUpN88F0eCKVUq4JI+D+jZ55vZhORIYkBxjR2UZZc7lsnSZmyys1BTOXkzTkWzl4M2R72d8YlQlIgt2D3ZZig5SUVyzvjOs1p0mK33tbI12EIrHBRQH0dePjHnyvaLEPanwRbs6sH4F30JvwRbAJScnyxW2hOe3uVylJ+wE3NLYrlmrgi7sg4kDeedbUUSXxL7mWNMhTXgowZ+m48qe+5yNV0zPjd4sM5r2PRsE2Ga8n+U1fH5TL/8Wbun9Hyymsupg4qL2i/J3++vILL6lFHw2n80v0SBwXKdovcoy2pEJfD44IK396FclxKyUoLmMiLTptNMA+JLzQviP+ZDu33DvVUUT+IiMpN8FcpwhHum0kYM2rnmfbiTjD/uUatRq8eBUvnn6I58nm1c7m20uI+hbDTfvZHRPJlhiVQ5CIxwYsSTmlZHLn8R+VGfLnbf1NlEm5csqJyzPm7ZTkm5J2xtAsWTK1HHByfsBUuBNHQh0jWuNqOL7OVMy6nSajSv9vhlBeq3QFCJKVEQCNeLI0luzS/h6uHblXzLiXk5sZM0YslcsDXp+hajUK8efAl7vc1R/DOb97WY4/aNlOm1M8U1KN36He0mshqUvEvNhXMj+GE/r1z/APbAuj+F9N+/rMz+ySOxdApIg5kfw30797JqJfeRZH8PdKXODJL75GdDuQ00wrJDonSocaKMv705P/Uuh0zp0fp0GBf+2y9DUiBQ0+mh9OlwR/8AYWrtXGPGl7RIWCYHC/GeRvBpIVy2zzmDTRzNubaS5SZ2fxXnc+oYcPjHjtfqcbDkePIsi+pO69So7Wk6ZhxOOSCt8ptnY0upz4Ml5MjyY3t2vwcTFr1DHUNlLdX49hZNZKvqdhXtINTSlHh8EqOT+HNS9RpJQk94M7Hb7kqo079iSiCiSSZAqHWwcBYUAABBQt7GJgG9joE6YWn5CkHAwqwhJk+3a7ItISk1tewE9kiDbfkbdiAW6DuV00MVBS7VdoY9kGwCBOgYkAwQAA0kJoV0JSbCBi3ZOth+AqumCbJMi1fkBjXBFDKhhYIAHYJojW4VuBPaiAwoATJXZAkgJXsJW2GwJ0A/I2RteQv0CGArAqm2Lu9BNWCQD5HwCHsArHYqQVQDAQwGgEMBNiG0IAAKHQCsLHQnsAN7gLyOgGmOtt9yI0wIvBCXGzPL/jfFKHT9PbtfF/0Z6tM8z+PHfTNN/jf+LCVUgChfYypiCgAKrcNxkZSUVuEeb1v7LqU/7ykdeM++CfqjF1nEpZoZY+aTZujkjh08YJKbrmzSMPUpVpH7ujjnV6i3LS21XzI5JUWQyOJbHI3jr0M5ZjA9Joc3xdJjle9UzR3HM6S607j6SOhFma1FidjSZFbE0yKEt+CxURQ7AmgIp7A5eAJhZW515IylfkCxyXqef6xg7NT8VfTJbnaptcmTVaaWWDVWB56S3Fdfct1GCWGbU1RVSfk0y3yyd+i+b0Of329jQ5SnhWPGrZdpulZptOfyoCWmfDOhii5Is0+gx4krTbNKxpcIKqUA7FZesZLs9iCjtXoHZ6I0KBZGIGRQl6DyKOLG55HSRsdQi5S2S5Zwddq3rMzS2xQdJeoVDNllnndcukj03StJ+U0yTXzS3Zx+jaP4+o+I18kOPuemSPD+rZz/ABj0asf7DajFylwuTxP4g6i9XqnCL+SLpHe/EPUPyul+FCXzyPGxTyZN/O7H49P/AN1N2f8ASeGNLuZaFUqGfQeZFukRsctxcAPxR1OmdV/K4+zLbS4pcnJskmYyxmU5WscrK7mXrkMjrFpp29lbMGqyattTyRnjV7KqRDQLSzyrHqFJt8U6OrqOmd2By0uonOK3+HN2crjji7TK1fo861GmhO96p/cvON0nM8eoliltGXh+Gdj2PLtx5XTGgAEcGyAAIEeX6pHt1+Ze56eXBzup9Oxyx5tb3OUlVx/yPX+a8rjtjhYW45F27Mt1GNxmr3tWPJhUc2JRtKaTX6mvqmix6TFhlj7rls7dnveZznwRg6mnVpE200VBF0p98i/S4259zVxQtFhU25T/AEN8Pk2cVXqgp4sfdKUUqUlRnzdOzRyJQj3KTSVG2KjtR2Pw/glnzSyz3xY+L8s5bM5hOt4TtdfpWij07p+PAl8zVyfuXyZNyvkqkz4OzO5Zde6TkJvYrbCTINmJFJsg2DZCbpbnTGCMpWRbEB0kTpowda1X5fSdkX8+Tb7I6Edt3wjgqP8AS/W1DnFDd/Y9WjDyrnnlxp6Xh/L6WMmvnybv7G6OHLkfywf6nRUYwSUIJJcElJnqurt7XHzY46GTXz5O37FsdHhju3KX67F/IGpqxiedRhjxx+mCRO2uGIDpMZGPKjfyHjgBrgojXsMYAA+2Mk4yVxfKFuCA8z1zoksbefTq8b5iuUednCtu5/Y+k+3hnH6r0DDrE8mCseWt64YHilV7Et7NWbp+XSOUc8HGS/kzMt2a6wnFJKxoQePsB2Ola3VaPBOWl+E4t7xmrZvx/iPOv6/Rwl7wlR5nFrpY/lUU4mrHq8c+X2v0Isr1GHr2im18RSwv+1wdHFlxaiKlinDIvZnjFLvXhkYfs590HKEvDToK9vTT4JJWeZ03WtVipZZLLH35R2tJrsOrX7PJ2z8xYVsoi493DofzbbIZFRUa5k2SHQACQPYLog5T8JfyAndeASbElLa9iSv0AeyC6E1uCoB3uWYlu5ehW5LwXJVFI8v6tnhg6a8e1JDEhnwvr1gYgbSRYIZZGPJLZl2WXJkySOuMRXORRNkpyKnLej0YxmnFG/RwUV3vnwZMMO6aR0WkkkvB7dOHfblnTt0R+4roXcex5zdB3UiLYmFPuIv3oBAITTJEWERluKgb2ItgDISW5Jsg2BBxsjLZE26ZFsFVN7teSLkSl7lOTKlwENz3KpZ0n7opyZJS8mecW3ZRfPWy4jSK/j5HyyigSf6FRpWdr3Cep9IqzOn4RasajFymyoj8N5d8rb9vBJ9mJXRVl1KgqiZJZZSA05dT6GaUnLdkbvkZBBh2ttUiyMLdUWxgordAQx4Ffzu/Y6GmjGNdqr7GRSV7F+PJ2/8A4CurF7Ik2pRcJpSi+UzDDVJL/Rk/zkPQisus6HCVz0cu1+YSez+xxMmOeGbhlhKEl4aPTfnY+hTqcuDVQ7c0E/R+UWVnjzyJJ07L8+jlifdjffD/ADRn2fG3sVGvHqE6TST9Tfpsj8vdcM4t0X4c8sclvsCPU6bVNVGe/ubO+LrdHA0uqjkVN7m2GS6TI06ffBeUP4kPU5k+9K47r2Id862X+RFdb48F5I/mY3yjl/tX4GoZX4JwdL81FeAetivMV+pznh1EtrpCWgnJ3JsDmfiGaydQhlT2ljr+RzEvJ3td0uWXFUXc4cWjhyjLDLszRcJe5qItxf1KvxIlLnkpy5ksahi3flmrpWlx6nUL81mlGPovJUek/CWOUcOeck0pNUegcVLy0/YzaSEIYYQwxrGlSNKpGWiqcf3rXuSUm1wF2Pu9yKAYMQDTCwFasIHyDdoLoGwpJbAuQv0JbNBAlYOTXAroLCixPkYmAJBYAAWFifIIBgIfABXkEwsQEhcCUrdUxsBDCgoINqI272HQUBGt7GNcBWwUhiYkyokNISJJgIjki5xVTcK9CzYVARWy5sGOhNe9AIcQQwGILHswFsxodIIqkEKmCRLYaSKqKQEqEwF9wE2NMA38Cdkr24EAWMXkaAYgGAUJofckFxYCQxcPYEwJBQiVgKl6UHb6jsYC7UQku3yWCUF53Aik6s8z+O/+Haf/ABv9GeqVUeX/AB8l/Rmmr/rf+LCVXWxCqexFXLdy2JN0tjKm0JtEO53TG0BHI21sZpKMd5N/zL5MhXct1YGXLGOaDg1s/Jxc0MmnyuPc16bnpHBVwYdbp1li018y4ZYjjz1GXJBQnJtIqZZPFKDqSI0aZRLMa3I9pfpsfdNXwFdbp8O3D93ZtiijDXalE148bpGaoUHIsjCqJxhRKiKjwxMl27g1uBFIHFsmkSoCnsfkagW0PtAp7Q7LLe0ajXIFEsKaqSTXuiiWg0kncsMWzdRF4k3fAGbHpcOL+rhGP2LO30Rd8IahGOyAqUSagkt9yVbkqAioquB9q9CS+wWBHtRLYXcNtJW/AHM6zqXjxrBF7z5+xzMOKWScYQVtjyOWr105eO6l7I7vSdFGH7RrdbIznl449awna36LTx02njjj4W/3Lc+aODDPJJ0kiS5PN/ifqKv8vjf3Pl443bserKzGOJ1LVy1mqlNu1exDFHtjxuyvDDunuaWqPr448nI8WV7URS5HJ0Qe5pCQAJgJj2SbYjZ0zRvW6pR/5cN5v/Qix0Oh9Pdfmsq3f0I6c8csD+JjXy/vIviu2MYrZJUkS5VM55Y9dJXF6lpJJrWadWv3kjbp8vxsMZvlrdF08bxNuKvG+YlMNOsLcsTvFL/I82z5x1xqYh+CJ5bHQyLGInAEcmnll0Os32li2+6JXsczran+XhKLlSbTSPRp/wBnPZ8cvV5E46WSe8caT/mzbqtRHqGgxxi18SD3Rx2CbXDa+x9F5U5pxtPZothpXkxKcM2Ny8xumVJTlu7f3BRrkDZhWXTL54Jo24c+PNs12s5mLV5MacXUo+jLscvipyjFtLd0uArpY8Up5I4se8pOlR7PR6aOj0mPDBcLd+rOH+FNE3F63IvlW2NP/ueglI+T+zd2+MerVhydRk9ytscn5K3JngjuUitsk2VtmpAmyuTtjlIg2dcYlJsBEkv8jcZYur6v8to3FOpzVF34d0X5XQ/Fn/WZ/md+EcrsfWesrGl+xh9T9j1clTpLZcI+lpw8cXnzvaVe9jFuhnZyCChgAhEkJgA2IYCGgEAwDwAUwENXYFOp02LWYZYs0btbP0PH67oWr0uWXw8UsuO9nFWe1k1Eisk19LKy8Bkwzw/1uOcH6Si0Zcj7n7H0lp5V+0jGa/tIzZ+jaDOn8TTQi35jsDj53VcBFtM9jqPwnpp29PncH6S3OZqPwpr4NvE8eVe0inHFU5J2nRZHU5Y/vWvRl+fpWu06/aabJt5SsyOEo/VFp+6A0R1j8x/kaMWrSkmm4y9Tm2STsD1/TOt7LHqJd0f4vKO/CUMkFLG7T8o+aRnKP0tnW6Z1zJpJqMncPKbJxevagUaXV4dXhU8Ul7ovIoIyt7RbTJBYUkmiSsSYMAtMNgUdx0QSxxXd7ItIQjUfdkj4369nllx6tePIkNCGeN1BDJJJUSbM+WRqIpyzMuSW5blkZpPc7YREJMiluD3LcGNyl7Hpwx7WLeNemh2Q7pcsm5IT8L0EfSwx8Y82V6GxDbVEWzbIHbZFtJcke7bZhUnIi5ojYrAl3Cb2Iti7vAQeKsNiLISlXIE2yEmVSzpeWZ8mov8AeA0yyRjyyiepq6Mks0pPyQcvcItnm7vX+ZTKV8si5CbKG5EWwsVf9givv/aJJGieKMId05J29l6HLhmTT7rT8BLNKfLZRtllx4n8rTdGbJnlMqu/LJQxym6iiojdvcko3waMelvn5n7GrHpXVukl6gYIYm/BfHTOrl8q9y/JqMGBVD55mHLnyZpXJtLwgLpZYQtQVv1KXNt7uyCtBaXJFT7qD4hZh0mo1D+SPbH+KR0dP0/Fg+Z/tJ+r4REYMWDPmVxi0vVly004r5nbOhUr3ZZCEHVlVynjyeIsg8WV+KO68UXskQeBr90nRx44M3lil01Zt77ZeqOv8NegdjT8Do8xqdJm0sv2kfl8SXBSj2EYKS7ZxUovlM5+t6BHJeTRvtl/A+GXqccKE5RlaZ0NPre5VJ0Yc2LJp5vHng4S9yC2ew6PRYdRJLlM34M8JNLIu2+GeYxaqcai+DoYdT45X3CvSLEnuuCxYFXy8/Y4+l188UlfzQ/hO9pM2LUwvE1f8L5IquGn9f8AsWfARoe3AvHBBmlgT3RnzdPjnVTxpr3R0UrJKNcAcRfh/T3wl9kbdN0zS6dpxxpyXk2tCUfQCS4pDElQwo2EtySqhVuAeBp7bifIICVCdAht7gK0hN+w63IvkAJbKJG6BO1uAxB9gAdqhJg47hsA+AYmwTAdeoDYgCw5AYRBtrkdpob3YqCiwsKAAse4gtgSQPkjdDTTQCdCe5Kk0Raa4AKBLcatrcl2hCE20/YnsgaUtmihLdWAqrhiTsB3Y/G4uAsA8g1Y0mOgI+KCmNoaAVPyMA8hAS4IoltZVAmNsju+ABpNCSAAGwQAAUAWNACG/uFe4mAUnyDivUjVskAV7h83oFDVoAXG6GhWNAMATHYAhiQygPLfj7/hmm/xv/Fnq9jyv4+VdM03+N/4siVmScfFkkn6EkiSRlVLxNu7JdraabLaCgKI4VFeo/h+xdsKgKnjK3povlmmgpAYM/T8eVU0YcnQ298eT+Z3e1C7dgOAuh57/rYmvT9I7Gu/Jf2OqojUWVFWLBixqox39SyiSjQ6IpIaJJD7bArklJU219iSjS4LFBLwPtArSH2k+wGvQCKiq3BRJJNDAXaHah0PYCDavYORtCAi0KiYARSdkqAEAbCHQnwUKijXz+Hocsv7Jo5OZ1uTXTpr1kiDF0qLnNY0rk3uesxY1jgorwcj8P6N4tP8fIvnyceyOzajFt8Hz/07e3xj0a8eTrL1PVx0WlnO/mrY8HmyT1Gdzk7cmdT8Q9Rep1LxxfyR2Odpob2z1fm1eGPa5bMu1bjh2RSJS4F+pGTPS5IydsBMQAIGJutwJwxzyzjjxq5SdJHrNBpI6TSxxpfN+8/VnP6FofhY/wA1mXzy+j2R15ZKXJlpKhWV97Yds5eCC3vSW5myNJtY3s+UWR0spcsujpIrndGMsexqZcZI+hGTUWas2lcPmhbXp6GTKu58P+R5MtdjvMkXNC70NYpPiEn+hNaXNLjDP+Rnwq+UV96KtTCWbC4xq/c1rQaiX/Kr7yRNdPzfvOC+7N442VLZXnMvTpXdRt+gp6bDo8TUvmzyXF/Sej1OgzLTTeGUHkrZUefh0zqGae2lyOTe8pbHrxt/twykZEvBVNXlpfqbdTp56Obx5lU0rpOzNgj3TcmtjpGKi9NKTuMbR0+kabU5dR+Uwtxhl/rNvAY6hFJLc9X0PRfldL8Wcay5N/sjhv2TXi6a8e1ux4oafDDDiVQgqSIyZKTKpM+Fllcr2vZJwNlbYNlcpUaxU2yuUvcTmVylbpHaYobd+SNib2BcGuIkuTF1fVfltG0n881SN0XW74Obj0OTq3UPjZYuOkxOlf732O+nDyrGd5G38OaL8poPizX7bM+5+y8HVBUtkqSBn0Y8tDoQDCEBJcBSAjwCteXRIT44AAFWwwB/cB0FAAAPgKQcDYvIBSfKsFFLhUPyMCK5JbVTFQnjTlduwJKg4ewqoYB3S9SE8WLL/W4Mc/70EydIAcYsvRunZl82jxx/uqjn6n8KaTIr085Ypej3R3bAJx4fXfh/XaNOXYsmNfvROXVOpJqXoz6bb/Q5fU+habXpzxxWPN4kuC9HkNFrs2hyKeOTSXg9l0vq2DqEErSy1ujx2u6dqdDlcNRjdeJeGZsOWeDIp45OLXoB9Kaa8COH0b8Qwzxjh1Ukp8KR3vFrdMio02Sodqg5ARJV54I9yRzOu6/8ngxwi/nnJfojOXxrH67K2YynS54anBDLjlakt/uXn57ZL5Xr24/AAhsxFRk9jLllsy3LLYyZJcnTGIpyStlEnuTmytnpxiUoq2b8MFDHzuzNghvbNLa8Hu0Yf28+eSQiPcRcj1uKUpeCFteROW4nICTlZG0Qk/cXcgJORDuoi8iXJXPMuVJAXd69SEskV5MeTUq9mUZM8pcMDZk1KXkyy1LZRKVkbAseSTXJDuFYghtiaCx1YEdgon2K90FehRXTBuoyfpFk6ZHJB/ByNL91hHCjOSXFon8VfwOxQj8qJpeFu/Q0ghHLkklH5V6s6WmcMUUtROb9X2OkV4ZQ0sPoU88ls3xEoebJkb7ss5X6cAdXJrNLp4r4bWSTVqkc/Pq8+pdSk4x9I7FEVtxwSW7pJ2BGqY7/AFN2m6XqdQ02nCPqzrabpeDBu4qUvVkVxtP07UainXZB+WdPT9LwYfmlFTn6s6PYlxsvQO0gzOLXsvQK9jT2J8ojLF/CRVHbY1D0JuEl4Gk14AcU0WR3RXbXix455OXBRXo2FTlC1wVvHRpi7W7G4xYRk7aLINom8L8ZGiCxZIv6+5fYpxPLpsOsx9mfHGa9Wt0cHqH4cz4U8mjfxca5j+8v/ueixxn4pI047hwwPnbtNppqS2aa4JwySg+T2/UOk6PqMLyQWPN4yRW/6nlOp9G1XTPmypTwt0si8lQtPmWWcU5NHVhqYaVp4pv4i8o89FuL2dFscr23ZR9A6fqo63RrMtpX2tL1L6fhHI/C2/Tsj8fE2OynS2M8UqY1sF2BFOrQU0gp0OPFMBX4Y+3YTW/Ib+oQxMaW2/IUURd0JP3JNV9iOzexFP7A0F1sRclYEuOBILVBYBV8ol2pLYSYwChUNOvAMA2YmkIKtARboknsJggBy3HYqI073QE7F3B4FQErBMQbAOwsbqiOzAkqAXAAIBhsArHYP2FTAkqH9iK2JKSYQ0n5BugvbkXJQvIJDoKYCdAG/kKAYmwXoFAJt3yNMVCSbAnYJpvkjXuJxT//AABa9kRbIuFK03ZKEdtwGl6j44BiKE5ewu2TRKkx20AkmMEwAQN+g9vIOvACGRct6JRCGA9gQUJDoCf3QEKDtsm6I079gCgoaQwEA6BIoLPLfj//AIZpv8b/AMWeqo8t+P1XS9N/jf8AiwlRqhh5DwZUgHRXKck9oMgn2hQ421vsSoCDWwkmTHVgV0S7bJKBJRSAr7fcko7E6GgIKLJ9qGwoAUUFDpjrYBAOgoCKToHyPfwPt2sBCYwaATENgAUDSoNxpARoKJsTQERUNgAtxWMKAi/Yo1Gl/Nxjjktu5NmiinVdSwdPiu9d0n4Oefeem8ef26OOKjGMYrZLY5nX+ox0mmeKEv2klx6GTL+KcXwmseCUZeGzzmr1OTV5nkyO22ebX+e3PyzdMtkk5EIp5clvf1NdUkkV4Ydkfcm2e95vpPYjYNkWyoTYgbsApM3dJ0EtfqVa/YwdyZjhCWScccPqm0ke36fooaDSxwxXzVcn6sgisbpJKkuESWC+TTSGl7EaUwwJLgsSpUkWeBUBGhpA1TJJ+gCr0CvZDGTgjv6hv6jtCbT4HIdJ2KiatiocOo0NvsjKbfyxVsdHM6/qXh0iwQfz5ufsQef6ln/NaqeZ8S4+xlw5e2ajKPy+pfOKaqRr6X0fL1HKu1OOJfVNkyymM7Vxxtb+gaBa3P8AHkn8HHvv5Z6qT/kQ0+DFpNPDBgVQiv5jm9j4/wCjd/Jk9mGPjFU2VSZKTKps88joUmVyY5MrkzrIiEnZBtIkyD3O0ZJOy2KK4otir28s3J1Ku0+PvlbWyNS2VLhCxw7Maj/MkkfQ1YeMebPLoQDoEdHMhgBQDIpkgEPcEh8gKvUKTDcEtgGthMFv4GAAMVEAAkhhQABWwAAMYCBDtIAAA5CvcASQVtuOqS5Fv6AAL7jF5AjnwYtViePPBSi/XweR6v8Ah3LpG8ulTyYeardHsB9zKj5j9O+6aO90X8QZNO1h1L7sfCb8D/E+gxYdVHLiiksqbaXqeee3AH03Hlx58anikpJ+g2eC6V1jN0/IlfdB8xZ7PRa/DrsHfhlv5iBqjV3J0lu2eH6xrlreo5cl3jh8kT0P4g135bQShB1ky/KvZHB6X0+E4fnNXCX5XG9kl9bM5WSe1jo/hzXZdI4RzxccGZ1Fv1PW36cHjuu5+/TaPJGCx221FeEek6Tqlq+nY8l7rZnyv1a+zzj068v6bBSkq5G+Cqb2PDHZTmlsY8kt3uXZZmWb3OuEEG7ElckgLcca3Z69ePa528ia+VUh3YmyEsqi6W59LHHxnHmyvatZFuip5v0ISye5WFrlZDuS5ZTLNyvBnyahcJgbJ5I+pRPURXkxSzNvkqlK+QNM9TfG5RLI3y9ipyrgj8RXyUS725VVDbI88ElFtgKwW5NY36Fih7AVKJJY9i5R24H2gVKA6LvhtlkMLunYGbsb48E44G+TZHCky1Yo+gGRaZJFiwRa7a2ao0dnsZtS5qPyqkvQsHl8+GWm1EsMuY8fYeBKU5T8Q/7h1DFP4vd2v3ZXpZqKnB3UqKiUpNye+75HGNK0DjvwSgnJqMU3J+gGvQdPza5tx+XGnTl6s7+k6Xp9Mrrun6sOlaeePSRj2uMV6qrN3bRKqPba2Wwu0s3CiKqUKbYV6lqjYKFvgIq7bDs+5o+GvAuxoKocQUF5Re4B2KgMzx+gqd7xa9zT206oKtbAUxWxNImsW5PsoChxdkbdl8o70QcUEKM68lkcpVJUJMDZGSOT+KJrJ0uOnhJObyJ1fBteRY8cpy+mKtnA08pa5ZNRk2+JNtL0RRwZQzwdODf2FGWVulil/Jno1psPlblkIKKahsaR2Pw5j+F0PEpKpSk2zpHM6Tlfw3htfKrVcm79ontT+5mqtW3Iyvum+YomntTIqaVqxMj42YX7gS5QqoSkx2EMT+47oXJQJ0LuXND/AOwpJNAKVXsyDSH2VygcV4IojwNcAotL1QUvADVEvBDjklfoEAJXuwAKHV7McV6iQ1ugItbi7bJpA0BFNXXkJIGg8UAkD5HW2wJMAoaimLcOABqhUSt+UG1AQ3Y90Mez2CoJtsZJJA0kEJVe5LaiPL3FJbAHLGJJPzRLtfgqE2BLt9UABewWx9ouGADoBoBbASaIpAJodDaABdivkbigb3E020EDQlL2ZJ+wgobfkQwr0KgXysZH7kkFADpA0gEJhuvsJbu+KAlXsCq6HYq3Al2joa4EwGFiodMB0FArGArBIlSYdvoyhcDTH2vyCQQtzy34/wD+F6b/ABv/ABZ6ujyv/wBQP+F6b/G/8WAVYJV45JUNIyI0Jp0WUFbBVaTokokqFTAKChiq2A1wFAFkC8jWwUSSQDT2F5HsFIBoYhgFAwACI0NoSAKE0SoKKIUFUSoCBDQvsFASrYTFuMBUqI+CbRFoCIMPJCQBe6PKdUyS1Gvyb/LF0j1XCb9EeZ0mnhq+prFkl2xlNt+5P7VTpOn59ZP9nF9i5k+EVRxdmSSfzdrqz1GXPLTw1axpRwYYOMUl5o81BVDfl7lxvWaLojKVjbINm0DItg2RsIbBCJ4scs2WOLGrnN0kFdHomllqNfjcVaxtSbPZPeTsy9N0MNBpI4o05vecvVmolaKVLdsEDhbsFGiBsAGBEYwASGFBQCaBIkkOkwELtbdLdkmkXQioR/tPk5bds1ztbwx8lUMEuXX6nM1XQc+t1LzZdRCMeEkraR2kM+Zl+3O309E1Ry9L+HdFhkpZXPNJfxcHWjGGOChjioxXhCQM8+e7PP7W/GQNlM5E5Mokzm0jJlUnuSkyuUjpjBGTK27HNlbZ1kZJsSE2SijcKlFGrSYrfe1suCiEHOSivJ0oxUIqK4R6dGHb1xzy4iMkJ7I9zgSCgXAwhdrfgKolfoH3Aj2jGgW6AECGqQ2UJqwSoBXRAbjW4KXgVgNqkJWNbA3uFLgBsKAXgE2A7pADAFugUQE6AlSIN0BIEhBbsCQd1eSLFT8gSckLuE3FIj3JATTsHsyt5K9it5N+WBwvxdkvJpYeVGTPNrHPLOOPGu6c5Ukdf8T5O7qUF/DjOTp88tNqseZLucJd1eppl6PT/hjSQ096vLOWVq206UWcKWaXSuoSjpc/xIwf1Lhh1LrOq6g2py7Md7Qjwc0HXV6p1KfUMsMmRJKMapHQ0HXsT0cdHqofsk1vE4M0+yKXLO1h6bDQ9Hnq9TFPJJVBP1ZjLGZTlWVf17WabW5NMtL9MIu/Y6f4Ty/sM+J+Gmjyce5Koq1Fb+x6D8LZKyZn7I82/Dmvjrrvt6pspyy2JuWxmzSPkSe3rUZJFD5JydsgzvjEoirlRKU4x2sjKSxwt8syzyryfQ0Yc9vPnWt5Eot3sZ8mSMb3ozTzri7M2TK2+T0uPWuWoitnLcpnqO57MyPlMTbKL55W+WV9zIJjCG5OxbscY3sWwwSfgClRbJRxJ70a4Ya5LFBJ7IKzQwOuNi1YUi9elElCwKO1eg1C2aI4X4RbHB7AZY4r8E/hW+NjUsVKmiShXgDPHFVFq9lZaoWSUKAqUfNE0knuTpCpPbkBNWQnhUlyWqPoh9uwHPydOx5PqRRk6DhyLZ9vukddRJpUDjhYvw1p1L9pnzSXonSOnpum6LRr9hiSa8vdmoQBdhTbGluOtwIqPqh1vwTSH2gRS9gexNRY3FejAhFJku1p7bocYbk6ArcXVUHYW9tuhxgo8pgVqPsHYvQta3EwKWgpltA43uEUST5ItJl8tiDQFEoEXGi9og4gc7rE3j6Vna8xo8/DUSw6fHjid/ru/SssVzseWyt1D7Ghr/Nz9UXR1tK9kcq3ZKKctio9P+H8zy9RyW9ljPQqSR5z8LY7lmzf+1Hol9rMqssLRFEkRQCTb2G416Am4sCXbSryQ4Y3Jt8C+4B3b1Q6vcLp7CXzMB2O0KqCgByfFkWr3JPt9NxWAvmXA4u+ScWltQtkAq7lsyNSi6aJqv1G6fIRG7Gh9q8AAqBr0JP2DgCK22G6GxJNumUJIfb7BJNNUReVrbyA3EVrgFb3Y/0Ip0Qapktx9vcEJbrgjJpEn8pHt7gGkmhNVwOKcdhTjfDCmna9xOwSoGAqJVsKh16hAlfAJ0NbByA7sBcOgKB2DQCcmA1wPdCTGA02DFYFEr2Et2IEQOtxiYkA2AVYUAqGiVAVFckC2RKXIJBUVImhON+COOXdt5QE2gSG7QJgHawSaJV5BbgCE3vutiVIaAEgGDTABc8gm/Iyoa2GhDQDE1aq2gbpXV16FePVQlPscJxfq1sBZFTX1O0eV/8AqD/wvTf43/iz1tnk/wD6hf8AC9N/jf8AiwVZQU/Ax0qMhU3uwoYICLQVsTQmFRFsSe4qQCHsFIdECqwolYIA4D7DEwBEuVZEaYAmSVEdiSAfkGgQNlCqhEvAmAhUOh0QJDCgoBUK74JVtQKKQEWyJZSE0gKZRti7Ni5oVAZ8m2Kf2Z5DHLI9fePlSPY54v4M0uWnR53JCHTcMpTXdmne3oSLW3qvUcep6XDBBduRv9ocScqVFSyyl3Sflh3W9zUnGKlZFsVgoyb4ZoJgDiwQDSdpJWz13QelR0eBanKlLPNbX+6jl/hzp8dTqfzGVXjhwvVnq21wuESqAIybS2JJOjKnewktx9tjSKECCVR//A0gGt/sDQXQWAvIUSBFCSGD9gStkEoLfufgsQkqSiSPjfq2+WXHs148gGJEjxOgE2MhJ0iiubKpOiUmVTZqQRkyqfJOTK2/U6yCEiuT3JSZDydIyEWJcEYov0+P4mRLwuTpjj2s2tWkxdse+XL4NAttkuEM+lhj4x5cr1FgkyVAdGSSaBrYkl/IGgIU3wDvyS4CiBJD42AVO+QHa8haAKRQX6CUW2Oh7gR7aBIkJq+CKaiDRBOSdMnewAwCmNKwIb2PkbjRF7AJd1vakSQrE2BK99yLoG9uRJpLcCSsT25IPKkVzzKt2Bd3oi8qozSzLgg8j8AaJZEyueSuCnubBtgTlN+4J34K+4FMDzX4jf8A6s/8NHIk9z0X4j06nhjql9UNn9jzj3NM1GMXJ7Fi075bIX2lmFuc1b2X+ZUbunYsD1+GWqm44YO3Sts19Z1k9drIY8VvTwdYocW/UzxyrFGOLBHvzz2tePZHodF0/T9C0n9IdTayaqSvFhXglWOdmwafpXSZfH+fV5dow9PdkvwxstTL0UTjdR1mXX62epzP5pcL0R2fw1/Uah+8f9Tz7/8ASuur69NKdwX2M2STdk3P9mkUSe58mR60HuxxXdJIT5CUuzBlyfwwZ1w91K5uq1XxM8u36Y7Izyye5njN9qfruKTbPq4zkePL6sckR7iLaJRg5XXKNMhtsW91RdjwuU36JGjHg9gMsccm+C6OJPijZGCQnp48x2YEYYUkr5LFBegYseRP5mmi6EL8BVSjfCJLH7F6xk+ygKY41XBNYy2MH6FixgVKNElGRYopEqAgoeoNEw7QIpew2iS2C6YEFG/A+1LhbkkFpPcCKGgfIUA6BDSY+3yAq2DsJVfgKYCq3wSpEkh1sBDtezJVsOgSsBqkK145LFFeRSgk9kgIxbkvlj/MnGMr+Zoe/gW/kKkl6sGHI1wECargi4oJJLcSewBQ/A0D2CK2kyLRY3SISl7AQdeCud0WqNilHwwOP1THLJppxjbbXB5aUcqpZMb+XY95LTdxRk6ZinvKCso8NLNNKlDb7EtPNSm1Ll8HrZ9GwN/TQ8H4ew/EU5LZMJxd0XB8DRQguXuzqxjSFjwRxJKPCLCKjSsKa87DoAqGST+X7ostEZK1x5B+wEm9thOQ/HBEBp1Tqyfcn4IKNebGANW7AYm/YBAnvwIYEu4ViGUNVQceCKuyd0EK2h+BWxgK9wRGXsKPdW4VbygSp3ZC2tyVhErIOKcrG7YJtAK+0CXJFpogaJJ/oQjIbkvQoc/UimO4+QpPdAK2vIt3yOUe5hwA6TVEVFrzZLwAEadjpjABNOhE969iLAinbJA0gQDRGSt7Eq3sAIpbDSZPYKCIqIPYktuQasqoghpDQCodDRHyAeRglY6AAB7LcSaYRKkCSAAqS2IKNSbXkkgAT9xRjV0TpAkkAhpA1uNAKtyVAhgIlWxGhgAIBooAAfAQINwsEFDZ5T/6g/8AC9N/jf8Aiz1b52PK/wD1CX/pem/xv/FhKvIydD3HRkRRJ8AqABWK9yWz5E1XBFAUC25GyhdoUSXAmQKtx0A0AqoRIaSAgCVjasko0AkkiQUgbRQDVAh9qfJAq3BomkvAmiojQdpIRFKgolQJbgRr2DtJtAkgIdoOOxIKKK/Yy6/XYtDjvJ82SX0xRsyOOLHLJLiKs8VqtXk1Opyaie7bqK9EQbdRrM+ePdl1Hwo+IxMMMMtdl7YOcormcizpuhWvyfE1E3HEv8zparU6fS4liwpQhxt5ZUcrqEMWKEMOPmPn1MS2LdQ7ytvyUmkWPLk47hd3dzJtkBPkIktyXbe3khEtxq8kV6yQV7bpmlWl6fhxpU3Huf6mumSraPskhmWkUiS2BIZAbAIEihoYAQCS9AtcADQAtx1QJbDKIkoL5rfgTJrZV/M8+/Z4YumvHtNEkJDPh5Xt69kMYgMgbKpsnJlE2WCEmVSe5KbK29jpiIydIrbJSdlcmdYiMmCQicUdIzTiuF6nSwYljxr1Zn0mL4k+6tkbpUz26MP7cdlRWw2Kx8rk9TgFyHkFXqMoVDtryOrItbkA3Y0KiSKFW4ceLAGAv0DklW24kmAAJ+4K2iArexqxcIO4BhTFa8Ee6gqV0qIt72iNtj3QD735C7I7URckvIE26YnJJW2UvKvLKpZbdAXfE7nzRXPLWyZTKTZG75AnLK+ERbcnuRtITdcMB8B3pEe6yDe+wE3OuGL4j9SuT23dL3M2XW6fD9Uu5+iA2d7IZNRDFHunJRS9Tk5+qTkmsUe1erOfknLLK5ycmB0eodWxZMOTDjh3KS5Z512mdFafJNcNL3KsukSXy25FjLE9zTjSj21+osehz5H8sGl6ssy4cmB1LwVON/SLXWIONXGLkr9TZ1bqMNTgniywTz91vI3vXhL0OLj1GTT5o58L+aIajWRyzc+x9z5XgKhnknKFKnW56L8NL/Ys0vWaR5dXKVs9X+HVXTJe+Q8/6P8A83XV9ddv/sVN7k5eCr95nyo9ZkdZt0vUv+ySI61X0rPH1Vf5nXX/ALM5fHnoJuEV7E4YpM1Y9Mkla2L4Yklsj6seOsuLT87GjHgjHdouUUh9qplRVjjFJ0nuy1J1sPHD5UXRh7BVUYOyxR9i2MK8E0gKoY0ndFqS9CSiSUEgIpb8EuxNbokqSAISSiiQJIYAkgAEA1Ve4bhYwI9vkHH2JCbdhSXoSavlCS3sm4vkCFEkrDtZOMfUBJKg7fQn2xCgI0Oh9o1GtwFVDim2SW/IcMA7KDhEr2EAlwOhA7ALdjb9RRbJcgCkiS4IpEkAu3cTVEmw2YEY8jlyPgPAFbF2pknHfYlGCf3AIwi1wPsS5W5NfKuRN2EVtLcj22W0iHDAIwh5W5KkBFtXTe7CpSjW6YkiLjb5HwA6ChWDdLcA8ilKg7l6WRlcuIgNTXqSU4ye5Uk1yOgLOOOAjJPkSdA6Ak3vsEpXtSIEluAiVKgoAFQ+Bg2EJS7fBK73IcgkA+7cO5MVBQDtBavcjVia3Ati0ueBtwZWmDS8FD72th3e5Ae7QEkwcr4IbrZipqVgWKvIr3IttsE9wJVT3C6WwnaQRTfOwDUmOkxSjXDI7gTHtRGKdb8D4+wAnQ6FQnOnQFlpEPPsLu9gbAboKCNMldOgEkPtC9rIRe+7AmPlEZWgWyKJAnsBFvcCaodELokmA0lwDgmudyPL2JIBJVySpA3sIA7U+Rdq8EgAj2joYgAGrW4DW4QR22JIVCAkFAgsKaGIPIBxyNAFFANbIXA06AFIf3BRt2S9giNLwNJjSSGAuDyn/wBQt+lab/H/APFnrKPJ/wD1CVdK03+P/wCLAuQ6YByZCEMGgpDq2JEqQCoCVAEIdAAUu0aHT/QKAL9hN+w/IwIjW4MXek+0gY0kCJpICFPwTihitgOqQhrfkTQA6DYVDoBfcBi4AYWIAAFyA4oCvUYvjYJ47ruVHhtVieLJlxPZxdHv6RwPxD015P8AasMd19aX/co5uDLH+i4xwv5kqaM8+6eOppuuLMihlxvuxN7kcmfUSj2yk6KieqyRnkj2/uxopIxJpFZIfIUAUns0W48nZkU+1bNOisG+EB63F+INRNX+RU4+sWWv8Q44RTzaLPjs8/o9Rm0+17eh0sOXHq1OGbL2xa2jL1MtN6/Emi848y/QnD8QdOfM5x+8DzModuSUbT7XyFAeth1jpuT/APVRT/tbGnHqtLlr4epxSv8AtI8Q4xfhC+HDwq+xUe9afin9mG54fFm1GFr4OoyR/U24OvdQwNKfZmX9pbgesA4um/Emnm61GCWJ+q3R1cGr0+pV4c0Je17kVcgE0/QS9yCUVcvZE+dyKVL7kkfI/Xt8suR69ePIYxDPE6mDEKTpEFc2UyZOb3KZM3IItlcmNsrkzrjEJsg2EmR5OsiGi3HFykoryQijdpMVJ5H54OuvDyrOV5GnHBY4KMf1JMSsHb4PpScnHkt7SpWPt9wadAnS3KhJewwi00BQxAhgCsAt0AEkgf8AmRUt+Acl55IDexWDd8EfuBJyT4F3NEW2CuSAO71e4nwFU7Yd68AEX3L0JKK8splL3K3mSdeQNEpRjwVyybclMsjkyF+4Va8pVKTYEb3ALE0r2G2QcvQByRG6IudFGXPGG7ogvckQckuWYcmtils7+xkya7JLZUkUdTJqVjvdUYsvUUtoJtmDulke3dKRox6HLKnJdqYFWbU5c205beiK4YcmR/LF/dnRhpcWLd7v3JucYpqv5BGWGgXOWb+yLlix41UIJe4pZnHiiqeo9+Si2VvlqipuEH6lM8jkQsItee+CuT79pbkRBUHgS+l/oynNGMFbx17mtDUO5VJWgjmfEtpJUes/D6rpa95s85n0Tg+6C2O70HOlofhv6oyOP6PeDrq+uxPkrHKdiTvk+XI9RletyKGgkrW7XJNv0PP/AIi1ndKGng9oO5fc76cbcmM7yNsdTcd4L9GWwz43s32nmcGuzQ4lt6M0x6nLieNfofT8Xl69LCEZ7xkn+pOUEo8HnseuhacZuDN+HqUpKpzjNDg6qilRJd3hFOHU4svmn6GmKreyIEvXklsJK2D5Akh2JMOAGNMXgPID4GmLkar0AL3C6AKsKaQ/Yaj4JKDW/IEFF97fhE+3cceEnyTSAjSRJVxY6S87iSvdgKWxJIHG0SSAVIEPkKAK8krVEQAY0iLlFPlDpvgB7CoEvUbpcAIEyLb8cjTb5Al5sAj7hKSS5AlQJbkE26ZO7QU3VkX7D8EaYROL23Db0I8Ek2BJUlRH5U37isAH52CSdCWw3J1QCIPubpcepJDbQCqiLty8UhuwQEkgaFY72Ag16bDb2CToFuBHngE3wTF5Arlaa9CUY3xVBLG5b+g0nQC4XH6giSjfmiXYkubAikifZFkOGSTQRF3F7boaaaJURZVACsaak9gDgdg1QmnRAWF+KGkuXyD9ggr2BrYXc09xuVlVDt35G7GClyER8BFjaFRFEnYk2+SQbAKqQntuiVuqBx9giPfaGpMQvsUT9LBkd/I7YDTa+w+SNWPgCQmt+BqSvgOQIq7JcchTsTa/UA7mn6Dg+4i7b9hr2As9iEo7jdoLsBp0gtNAqHsAtwXINi5KJqhTdLYFstxgKPBJiteAAB2KwAaASGAxAMBNAlQxBDTB2hIlTZQlL2JJ2KgRFMATAATJJkWNcAS2FJegm6HbatFQla4sfcxxba3QNbAOMr5Joqg077XwSt+oFtHkv/qH/wAK03+P/wCLPVpnlP8A6hu+lab/AB//ABYFwDQUZUtgodAkEJRHTXI0D5AQwAKKAKpgAWADQAFgJogK9h0qEMA4HGSFQ1FAOw7qFwOrKJKafgT3YgbIJJLyJkeRgFoG2wSYwBIAGADBAAJOhVyqtEgoDk6voWDUSlPBJ4pPn0OBr+h63Bcox+LFeYntfsFtFR83jinG+9NNeGEVe57zX9Ow6zBOPZGORraSR4rLgnps8sGZOM4+PUqM75F5LJY2vBFQb8FESMpUy1wpe5Q7b4CLI6jLH97YmtS5fXTM9UAG7HqYV9LLFmxyf117M5qdDa9AvXTu3tNV9yTTfFP7HJtolGck9m0B0914F3I56z5E/qZL8xP1A2tpkouUXcJOMvDTMK1D8k46gUldzR9Z1un2lP40V4lyd/p3U8OvfZGMo5ErcWeKjnT4Z6/8P6X4OjeaS+fLx9jzbs/DHrtrnlXWW40JEkfCyy8r17JOAAAyGVzZKT2KZyLBXJlbexKT9CqTOuMKjJlUpEpMrZ1kZJuxxQluWRXB0h1bgxfEyJePJ02kkox2SKNNi+Hjt8su5Pfpw5OvPnkV0gUhtCe3g7uKVhJNiXA7dFCrYAFaRA3sJWxOXnwJzb87ASuhuST2KrsGwHPJ2vgipuRHtvlh9IVZ3MX6ke61sJyCHdPcbnXBW5Ee4CbltuyDmxNi5CiTsg43vZJNJ7qwlJegEVt5E2KTKpTUOWBZ3EO7azPk1UafaZp6mdbWgNuTNGG0mZ8mtgtooxTyN7tlPdKUqSsC7Lq8kuNjLlyOWzkzRHSzlvOSii2McWLim/UqMeLT5cv0xderNkNBjiryz39BZNQ6pbFMszrdkGxZMWHbHGP3ory6iUvJjeYrlNy8gaJZiqWV+CryAEnOVckVurCh+QFuBJRZZDE2VFSi2SjjbW/Jqx4PcvhiVWFZYYFaVbmiGKnuuC1Rp7EkiCKhGqa5I49PHFl+Ji2b5XqWpeSyKJZ1ZeLIStV5Je7aSK0qCeKGVVkjaPPdE66/yMuv6rh0uOUcUu/LXh7I8tmyzy5JTm7bds9XPpWkktsai/VFE+g45/Rkr7o7a8Jgxlla8unW5Ynas7OX8OZ1vCUJfqZJ9H1eJO8Ta9jr1yYbGpNPZsslo88OYNfdFbxZI+Ci7HqMkGnGbR0dL1rNhaUvnXucf5lymiUZkXr2Wj6tp9Skr7J+jN649TwN07i2n7HS6f1rLpZKOR90PcnFesBlWk1eHV41LFJP1XoXMgaeweQihgFggUbLFGluFKKHSQ0iSQCqyae1B2+gUBKkOlRGh1QCtNteg26TYtrCdOknTAItSSkTT2IpUvcFae4EnS4Cxdw96AOSE4NNO7RMLrkBQjGrokmhQdNiklfdwBMK2IqS+6J7ARqmNob4sd2BGmFd21Imq4YdqQC7aGAKgF9gBtXSsACvVDpApIGAnsyLe6ofkKAIv1Dt3Dga9wEk0D3foSE9wEr3EMhJNb2BJhYob/UOUd9uAE9xpAiVARsBtCAbsV0G4eQGO9hVsJAJ3djQJJjSCG3Ymh0OgI1sHw79hjdoog7i/VD7r24B7icbIJUBBJra7RIKJcjWwmAQ2k2KgdsW9AOh7CukF2UNpCaS3QccAgBRbJO0iLk4jtONsCL9yPkm68cEEwGiSoQ0gFsANElwBFInFisjbQE5PcjViW/JNJUAqVCRLYPsArBIdULv3KHTGhd1qhN0BJ0ON3vHb1IoO9hE3TIu/wBAsTk/AU0hvYitySAEwvcNhgOxWAN7ANMdkUOwHsxcMSdElTCBUSTFSAKkIVtDuwGgoQ2wAKDlDiyiP3QRuL2JOhAPuC3YJEkwgSSGluJjTAkeT/8AqF/wrTf4/wD4s9XZ5P8A+oL/APS9N/jf+LA0jEMyoChgAgqxsW4DUWD2YWD3IBBVAh0ihIEAIBiGKgGHkEgIHQiQtgEO6Bi5QANJCGA6AQAMEHgKAaHQgTdASChIkgEDYxACGxEkkBB22ZtVoNPrV+3xpy8S8o20goDir8M6a/6/IkaIfh/QQ+uMsn96R0aGDjlZfw50+d9sJQ+zMk/wppnvDUTj90d8APL5PwhN749TB/3lRly/hTXxtweOa9pHsWwRUeCn0DqMOdO39mUy6Xrcf1afIq9j6JbXkafruXo+aT02Zc4pp/3SHwprmEv5H06ov9yL/Qi4Q/6WP/4k6cfMvhv0Ydh9KeHE/wDk4/8A4kXo9NL6tNif/tHR837QSo+iT6R03In3aWF+yoyZvw107J9Cljfsx048t0fRS1uuhir5buX2PoKhGCUY7Rjskc/pfR8PTHNwk5yn5fhHRXB8j9mzyy8Xs1Y8hpDEhngdQIZFsKjJ7FE2WTl4KJM3jERbK5MbZXJneRmoyZDyNiS3OkiGka9Li753+6jPGNulyzp4sfZjUV+p6NOvtc87xZyHkLoFK2e748/1JvfgVfyFKVMj3+pUWOK8Mrct9iLklwRclxRRbexXL7ke5+oLjcAbDcTavYLZBJPYCNh55Adu/YhNruT9Bybogvm5VBR3+hFOUn6Fiil4IyVboAdiDuS5ZCWSKXIEiMpJFUsnmyqWQC6U0rbZTLUUrKZz7nyVSkvUCyedy4bKJTv6nsRlkK5OwCcor6SFynwFxRGWVrZFRJQSVyY3kjFfIUSnfLK3L3A0SyX5K3lop72Juwicslr3IOTYgAAQcoaVsAHRNY3aLYYre4FMYNlscLRohjSXBYl7AUQx+xdGKXglXsMins96CvcErJpACTrYkk0NDCkl7km6EolnaghLclGPkFGiSChpkk2hDQEkx9z9SNpDTAlSfMU/uiqenwz+rDB/oWIaYTjBk6VpMjp4+1+zMWf8PppvDJP2Z23s7JJsHHi9Ros2nm4zhwUdvqj3OfTw1EKyJX4Zwdf0meG5QXdAo5Ol1WXSZVPHJqj1fTOqYtalGUlHJ6ep5SeJxvYhCU8U1ODcWvQqPoag0t+R0cPo/X4ZUsOrdPhSZ6CMU0pRfcn5IquK+bgscO6Kp0SStjSSIqKiNRpErSWwNpoIj5BkW6ZGUl6hVifuF2qKe6L2uiTrwwJP2dUO1SdEN2ySugHe421XKsg7YlDzLkKmvdg3clTYktthrd+gRKx8iRKmAKkOStDUdhrYCuMS1JLkSV8DaaANnwCiTVJbckXJp7ARTTl9iblRC0/G4cgPncW46BrYBWAIOAFQ+5pbD5EkAePcdOh7DfGwEKY0AXb3oCSZFkhMIS4Boa4CiqrbokuCXYHaERaGgfsV273AsW6E7sFb3XAPYihKxRhTtuySew1QCbFQ2BQqGAyIaYNpLcSGnF8lCv0B8bjdCkpVtwBHbwMW9BwQHAAnZJ8FER2A9rCkh7EZXew1uEJ87DqwaGkAq2Eybi2iumnuANJrcVEqsFXACT23AHVgArSJKS8CaTEoqwLUtrZG15DYe1AJ9q4BbiasFaAbQkx8rcVAOrFxsSv2FQAqYdqsE/QG99wH2r1Iz2knfA/BGSKhqfcEoyav0IxjZKUnFU2FEZeCRCCsmkwGkHAboADndD8CAAHYIAH9gE36DW4BVj4BD5ASY7DZCAkFUIaYAPlCsd0gGuAeyBNEkURT7l6Cpok0J2AJ09yXcvBW1b8jquGBY3YUv1IJqh2BNS8UeU/+oNf0Xpv8b/xZ6izy3/1AX/pem/xv/FhGqqC/YGwRlTsA2CwAACwGgBMQDAOQIExpANIAAGHgAsLAACxiokAtvIVfAUNbAJJoAdiVgFhdOiX3CgAfIlwPwAANL1YbAHLGLYYBwAmFgNEkRTJWAwsXcJvcobewoceo2CaIE2Jk9qFtYEUiSQUGwA0FDHQVEGSbSFdhCv2KlqcTn2d1S9KLlZJdq37I360BFEkrFdsfCOe3Pxx63jO03yAID4OeXlevbJyGMiOzChsrkyT4KpMsEJsoctyU5WVtnXGIUnRVJkpMrO0jIY4gNyhjh3ZGoxXlnTGdqVt0WFX8SX6GqUkjPizRnjTxyUo+qG5M+jrx8Y8ud9rPiPcSnfOxXY17nRg5yqNrkFK1bFaXANgFglu2JPchmyZYyiseHvj5fdVAWkWJN1uqfoF3yA7QC2HsAJ2DHZHuQBY7RXKW1Ii5UrCpvIQlNvch3bbsg5+4EpS9ymU74FKa9TPPPT9ALZSpFbntyUy1Ka5KJ6j0CL5z9CqWSPmW5nlmk/JW5eoF8sq4SKpTfqVuZGwJuZHuIgUNsQAEFBQVuTULAglb2JKDLYY0WqCXgCiGL1RdHF6KixJLwSvYKjGKiS2QIdbgCJX5YJEklwyBLkkhPlUixe6AUeCSQRj7EuGFOmCVjsfgIkgsSGA0yVkQAlZKyC3GFS2BCGgJJjXsIlFADVocNyyEPVE+xKdpAKMNifYmmmrTJpU/Ymo+gRxeodEhlTngqM/T1PN6rSZME3GcGmfQEqd+SjV6LDq8bjkirfko+e9ri/Q7PSevZdG1jzPuxe/gh1XpGTRS7l80HwzluAH0PTajHqcKyYpKUWWNngtB1HPoMiljl8vmL4PWdP6tg18NpKOTzEDoNi4E3QmyAfBHImvpV2MK23ClGFrcI42nzaJEk1WwDqqALCwE36DsVbkkgBewJbk1BkmqCIpepNIENhSRNw+W7/QjWw72oArtSByFyKWy+wBbD3FF7BewA9n9xkZW914F33wmBO2FsUWS2oBXsHIVY6SABiBAKvUN/APliugJcka3oalYO0A9xkE2iSaa9wG6sLp7CCr4Al3bEN7HuOgEKUVIl2p8sdJLmwIJSjsA37ElL2Ai+NgQ5ewkmygE3QyLogFK/BPYgpJg7sIm6YpVFchFA8abtsoSZLu2IcDTsBrdbhSZG6dEkAUktgAdb3YCoHuJ9zezVEUmvIEuEGwluOgI/MnfgcZ7jsW1gWPJsVt27GlYqAbdr3Eudg3GuOAE4y5odjT23YmkAVfkaXuJe49l5ABgAD8CoE2h9zAO32ECk7Jd3qgIsaBpt7CaoB0iLJEfIErCkxJjTsoFGuCMk9rLEJgRVIFLcdWRcHfAE3wRvcdCAYgdgr8gNA9wTCwBIl4FQUwHuh8CsXIEmw5FYrAk035DtaQJjsAuhrdCQ1QDT8USRHYaYRZdoFFMq7tyyM9tygaQqXkLHsAdkaIdrtU9iygXoAjyv/1B/wCF6b/G/wDFnqnF0eT/AB+v/S9N/jf+LA1gIHfhGVKToUO7eySXDaJ3fgCI0gBEBsgVsKTHwVAgBICKYWJh5AGwUlQhpANAwSG90AId0xIbryAXYm6QWm9goBxewk9x0NUgCvUexFsadq2A6C0JteorAkOiK4HdAOkKxWIBsYhgAAFAKLvySXqQtKXakT4Ab9BqPuJOySewDcUlsRqh2DAi78DUX5Gh7LkBcPZBuO0+BAAtgfIBUkNqiCY1yA0t0N8guQR879mf/wAvRqn9mhiGfLegCYMTYEZMomyyciiTN4wVyZBsbZCTO0jNRbIjF5OkRKKOT1jXxjqFpqqMd2/c36/VrQ6V5f33tFe547PlnmySnN3Ju2z2fn1991x2Zcd/R6+elmnjlcHzE9Dp9Vi1MFLHNX5XofPseaWN7M6Ok1rTTjJxmj28efr21WDfgx9N1sdZgvZZI7SRrsgKaGpKvci5MQEw/UjdjKEhgIgd0Fh3JeCt5KuvAE3ZBySK5ZfcplkfkC+WX0K5zvczzzUUZNQ65A0zzKPJnnqUjLPO/UplksDVLUJoolmd8lDkR7gLJS3IORFsi2A3ITe4AAAgHQC+wElEnHEVFaVk447LFCiaSoCMcaXgmooE9x2FHanxsOqBPehkDQ0thJErKBDEiaRARJUCSJXYDiiRBezH+oEkxkUtx8AO9ySexAaAmCFQWBLySshe5IKkgIrcuhjb5QEYosUSxYbJxx1sBCMF55LlBbEowpcE4xCDspeoRSJ1TCSSYEY3ck72fJNtRj7isjPj3Afe/Idy8sqcqoG7Aeoww1OCWGfElz6HhtTjeLPlxS+qEu1nuEzyHXl2dazr+KKkUc1oIZJYpqWOTjJeg5Pbbk9J0/8ADmBaWM9ZcsuRXS/dRUPpPX4Zu3Bq/lnwp+p27bmu2nCuUeM610fN0x/Ei+7BJ7S9PYn0jruTSuOPK3PH7+CK9oorwJlem1GLVYVkwytPx6FlEU1uNqrIqLT3JNWAkySVIIwpFkY3s+AiNN0TUKJdqXkldgKtgStbsUpqLG2nEBVXAOTSryRcqdWSkpX4r1ChS25B34E1TW5JMCKtfcfc73B77iAG14EMT5AFTZKtqIOxpgNRcXYW+OB2HIAgbAKQEXNLklFtjcVKu5cMcn2r2AT3FVj5ToUboBcSqh0PyPawFs4+5GKVvbcspCat2BHkml2oi4hwwByoLB78kaoCTAAAE6Y5JcpiiJx+a1wENP1HaQqAokmiHaNDsgUYobihkap2AU6CMPLlY7HdARkvIqolLgVFBQDoYEGJskxVYCSHWwvAJWA0NCpryNcAJx8ggboW1bAO6Bb+BErSAXbSHFJoT+ZV4BRSVJ8AElQkDsF9gCT8eQQdttEmqAEh0JA69wGge3kimOmAvO5O0RcXRFJ2UW2Ju+AoEAvuGxIiANN8AoyQLbgfcwErQt7G3YvIEk9hdzsG9uCKAmnfINEbY7ABMbEuQGhioYDGJcA2AA+AsGAJB2hYAOgCwuwJKWwWiNAESuiSIDt2UTaVbMQINgJIdIje2wXYE79wTIrcYE7PJ/8A1CS/ovTV/wBb/wAWepUmeW/+oLvpWm/xv/FgaYokyKJWRSoAAgAAGAeA5BbkiBIKGHgBXQrDyNAIaTQ1yRlNXQEh2RT2GBIT3HQbAJQrdD3GroU1aq6AjNzcfk5BN18z3JpJJKxSgpAVuLk6jOiUk4wSsaisbq+SdKXIEVFV7gk0txSlXypCaX7zCpb+BJSvckttkNJ3vwEKh0FqxgKgobQbAKx0xb+glB3blfsBJzhCLcnSQsObHqYPJjvtut0SSS8AqSpKl7AJ0ld7Dg01twEqp7WKEaikgJ0vUTBbBdhQnQpb/YGrVMdOghRSVjCiXACoKHtQlK3SAO1XYyVX4FwFC4AzavWQ0ksMJPfLPto1Hyf2SzLr1avgAAPA7EyMnsSbKpsQQyMzykTm92UtnfGMlJkGNsidYgGls2+FyLyc7rut/LaZYYP58nPsjrrxuV5GcryON1jWvWatqL+SDqJjWKUizBBSd/zLMmTHj28+x9bHGSceLLLtUfAYVHH+9bI5M8pcbIgubZUj0n4Ym5azP6fDR6J+Dz34VxVHUZ3w6ijvp2ZrSVsECS8sbcUQFEl2pblM8qXkqllcnzsBpc4+CuWXfkzvIkrsonn7XyBqllfqUzzUzHPUNeSied+oG2WoMuXUycnvsZ5ZW3dlUptgXTzN+Sp5G/JW5CbAm5NkXIiLyUSYheRgAANIiEBNRJRjRRWossjAmkOgEkTRHaiSQAOgQAOgoYANIaIokkRUqCgXA7YAlRNEbHYE0DIpsdgNMle5ALAsToLsimSXAB9xpiGuQJWDtcDUbRdDH3KmBWk2uC2OO0XQwpF0cV+AKMeFIvjH1RbHDS4LFCgK4xRPsV7cjSSG6q0wCmAu70E5ASb9yLZGTISkFT7iEpEJTryQtvewibnXgO4itxWBYpWjyf4j/wCNyfrjiepXoeY/E0a6tGX8WJFg5TZ66XW9PpemYM+SXfkljVQT3s8iyjLbmjTLX1Pqup6lkvLJqC3jBPZGHgux6eU+E2asXTnP69kiCzonUc2k1UWm3j/eR7nDljnxRy43cWeEyajDg/ZaeKlLzLwem/C2VzWbBJt1BTRFjtRTfJOMSUY0ifjcioqN7EpJJbeAQ48OwFBd6tDr2FTXAdzXJQ3XlWQnJOlVEpX45IVcqYEZw7uGOKn27u16k3F3sFNKvBAVUVe4h0w3e4ULgXjcafqDSAVN8AtnuOlY5IAQqoSBtgOgTI2MBgCe4gH3IXPIUnuD9gDuaCMlfI0gcFzQD5BCRIB2Ra7oNW1YWFgKFxjTd15G3uILYDe4EVZIATGQfsPdpVsAStIFdbkt3yIAI3uPuQrfffjygHYxtJq0hVQQ0JoadCsAuh3YgAlaQnyAtygboO5Pa9/QjbvgaftuA78BsJtWH2AdBaQkDi/QAsA4DZgFWhJUOmgsBXuNpMW1kkwF4BA9xK7AnwLdgG4EU2nRJ2w8iboAi2uRtr0I3fI+3yAL1H3OxJDScQBuxxSBsErQE9hbIhxte4wG36CACgBbbhQqAlz4ItWFtBYAOhBbAHYw5QOgDuXoAkhgDY01QmgqgGhiQ0rYBbESoGgIoYAmA1THSQbBQAFADtANIdEFdllWuSiIw3WwJ+oBdE4Ut0R2Yo/L4CLfIUQWRN8bklIAbrY8p/8AUBf+maZ//vv/ABZ6x0zyn/1B/wCGab/G/wDFga0NIKsK2MqAewR435HsBHxstyKvyWEe1kAiV0Ri7dDYBdjEh2AADDYBSTk6i69wUO3ndjQoxUbbk39wJMBdyfDGBJBtYWiPkCXcrpCa3GkDABNhYwFyPcNgAi1uCok/cg5wXG/sgJppbsO5SezEkpR3Qo41BuQExkVcuFt6llBULYWN0KvQId+BrZCSGAIEne40AEZNJ1Vk1VWip43vvyOPyqrsCzkOEJPYOQErb3JFWaeSFLHG7JYe5p9/IE0OiXPIOlyBFIkkkQeVLhEHm9QLnJEHJLfwimWRU9zldb18sGi7IOp5Nr9gOT1TWz1nUXOFtRl240vO/J6/SylLS4viKppU0eW0enlo9HHWzh3Tm1HGn4vyd7peeU55cM23OCUnfueD9f8Alj6ejVXQItjvYTPkvSjJlM5UWSZnmzWMRCTtlbY5OiDPRGSYhgt2biI5Jxw4pZZulFWeQ1ueeq1Mss3y9jr9f1ndWmxv5VvJo4UvQ+j+fX4ztcNuXS+K47R2K273Y3Efaj1POgkXYsUsuSOOCtsjGLnLthFyfsjudK6flxr4k49rfqQdnRwhptJjwwpdq3ryzRGbfCKoRjFXJhLIktiKvcvcrnkpcmeWdJcmeeeTunRFaZ5q43KXqWjK8r9StzbYGiedszzyN8sj3EZMHQ5e5BsTe4myh2RbsGIAExsTAXgLsAUQBDokokkqCIpElEY0AJDAAGn6jvcjsCAmMiiQAuRiQ1RFNMkkRQWBLgA5QrAlvZJcELGmBOwsjyNATAinuNAO2MFEsjjb+wEEnROKb8FsMLZfjw+qAojjci2ODizRHF7FsMXsBVHEqrtLY468F0YJE4xQEIY0WKFElGmNugFuhic9yEp+4Db3E+GV9zTFKQDbIyfkhKVkbfqBKWRsh3NkZWwhe1gSpWNCTC9wHwAeBpIoSdM8/wDiuH+06XKuHFxZ6HsM+v6fDqGkeOW047wl6MDxcmPFGMsi71aIyThKUJfVFtMnjpLuk6LGXTh8LHCoUklbfojnavWvKnDE3DEuX5kQzZnl/ZxtQ8+5U8dpIoljS7U0ey/C8e3DqMjhW0VGXqvJ5LBhc5xxwVyk6SPd9Nh+V6fhwS+qMfm+5FjdCbLb7l7lMWpcE1G/JlpJe4rdipQW8nSJQcZrujwVDW1BLcHtwACcX4Bxa3G36CbbVMKfInwCaQeQgT2BJ0Lz7EtyKi1uFEmtiJUCHJ2LcZFRGk633BLcb4Ai0FDQ69AI8ByPyNARGkOg4AYyEvXkabAAFbsGmACsEGwAhpNivckn6AJqgvYlaZFoCN7k0yKSsfugJNkWwbvkUvl3b2AEvNDToWO27fBIA7iKlbHsPZIBD2E5b+olNS8UA73JEE1ZMAE1dAxoITQUNBtRRGlYpNRi3XCFLEnkU1Jprn3JvkCEJLJBSXkluvJFuhp2AXYWxi8gFtjoEACcfQEOhNAPwJkbd0O96Aam3sMKoACiSVckUxtgOXaxLZCABqS8cgxNLkadIofgW/gCSewFUouPzFkX3cg9xJUQTpLyJkQsBisV2xlACAlQEWwG0IB0q5I+RjUQABuN8BWwAKwSGAgbZKrE0ARdjEiSAER8kmhACdErItWuQiBMdkR2UMAEQFWxrYSHZQxMLTQcECfPBNcEe5CcmBZZ5b/6gv8A9K03+N/4s9MnseW/H3/DNN/jf+LKlb/A1uJjRlQA2IAAYmQNbCfIB7gAcDsQByFKxpDaATIzXcqJCUl3UtwCONRWyGNt8C3XuAJMkkkxRba3Q6AYhgluAUR3J1uNoCumOq5GKpPngB0nyCjBcRSYKI+33AKGkHgLAaaF3IjOTS2VijbStAOrZJ7C3T24HYApX4DdhRU8WWU5Ocqj+6l4AtToLbCEVFUSSiBBphRN1ewgBJUOvQWyFKa8AS7VduX6A5JPYp7q3bISyqgLZZWVyypvkolm9itS7twNEsqRVLK2VthYBKTfk4nXsyjkgm/B2Xxsea/EEm9Yl6IDr9K6hg1OPHh1LX7JpxvyaOj6hZuu6yUX8s47HmMGGWPTvLO0vB1fw5Pt6olfMThu1/4101329emJsVkZM+Jx7EJsoyMnORRJ2bxiItiGxUdYhMp1OaWDTylFXNqoou5YTxKbTfCPRpw8q555cedhoJTm5Znu92SzdNxuNQTTO/8ADxrwJxgt6R9Genmt68wujZ5TqLSXqzfpug4Y76ibn7LY6cpRTtFby0XqJYcGn00axY4xrz5HPMk92ZpzcmVt2EaJ6hv6St5ZPyUu1wK2USlLci5CbIsKb5ItUPhCYCZFkvBGghCaGD3AgJ7E69g7QIUFE6CgqCRJDoKKDyMQEDBAhtfoEAc7CaY0gp1Q0JDSAYWAmBOwsinsNEEkx+CKGghxZIiNBTGRGgGSSCMW/BbDG14Aio2WQx+pdjw34Zojh9gM8MS9C+GHe6NEMXsXRxgVRxF0caRNRUVuTitwIdiXCJUkWNog1bATTrYE2Fib9QJSm0iLlsQcqIPIgLGyDkiEsmxS5N+QLnJepCUvchuvIchT7gT2EMIAsXkdAHkECW43KK5YDSGUZNVHCrckkczVdYfGBW/UDtTzY8MO7JNRXuzkaz8QRxtrSx75Lz4OVNanWSvLKT9jXp+l2rewHDzznPNPLNbzlbIfEk1Xg9Pl6Zjlice042p6XPHL9m79ioy41GuST7Fxuxx0Gpm+1Y239jt9L/DGpytSzVjj7lOKejaS8sc+SL70/kj6HrsGGc1c9kPRdMw6SKS+aS8s20qIK444whsC/wAiTDgjROKlzwG0VSQ78CqnYQbk7+UTBu0BFsko7WRrYLYUthrgTBASXuMSCgDlhs7oJUhNprZBCV8MbVLkjW+xKtgpfqHd48AC2AdbBdCbYX6gMFyLwSVADCrIuTvZDUq28gSSDuUSD7nw6CvUCWz34FTErvccreydMCNbgFut1wC4AaRJIi3TBSb8bASpeBNEqrlCaQEGg8DYAKTSi2+EVRUsklKaqP7sS5pPlWD5AfcOyNbAtgGxUO6C16gKhdu9khgR7E+QJAt0AkPcT2BMIASskkvJF7S2exQPZkZXexJ7i4AjV8glQ3yIB2Akk+HY6oBgk2+ATJRn7AIVjkyDQCl7MMc0m+4EglC+EBbV8EeCGO0SAmhNDTQmAV6CokJsB1sHgjZKMkAmvRjG65EuChVQ4tN8kXsKK3IJuhA1QJANRT3HSQmpeBXXJRKrHVkLHFtADsRK75E0AJEhIYBewJiBADkFg0hASQxIYDoKAPAAAIADtQLYap8ik64AL3GRVMl2lAhiJUqIEh0qEAQdu+wJS4kOx2VUHEEvUle4m9wFaR5f8fST6Zpq/wCt/wCLPTs8v+PP+G6f/G/8WEroj2DgPBlSYuBsKICxhQUACBPehgA0IdsAAV7kgE2CSsYIoN7E5UMj2pN77kE0DErQAHknaogNcgStAKtx3RQmIk9xUQAD2ABAuQGAU/A3tyK/Rg0pKnuAJp8NMaRD4dV2/KixKkAvId3dKr2GQugJP2Ag5VuQeQC1umQlk3KZ5CtzbA0vIiqeWuCiWSmlfIr3AlKbfIu4j3JifqFSshGVJoUpEbYE3KiLe5XLIovdlM9TFBGrv2OPrNL+d6oqVwgrkyWTWylLtxJyZF6/UYMM8b+FFTVPbcDJ1TUwy5oabAvkg6deWX9EUsXV4KWzono9B8DC9Zmi0n9KZX07J8TrcZ8XZnZ7xrWH17GMtrIzlsyOKX7NEJs+HZ7e2ITZWSe7F2Ns3jBEKsbVbBFNtG5GUX8i3K3lryV6rL+2cVxHYolNtH0dOPMXm2X2veZVsVSysqbYrO7mbk2Qch3uRluwCyLYMTATe4WABCYMBVsVSYN2OhAIKHQwIUFEmJhEfADFRVLwAwAQDEAUJDCtyBoPAwCEhrgAAYIBgAnyhhW6AEh0MLClwMBpMgY0Sjjci+GBugKYx7mXQxexpx4PNGnHh24Aywwbe5ox4Gkv+5ojjrYthjAphi9i6OOi6MESUdwK4w2J17EuBNgJpeUO0iPruRYE3KyLdEe6iE5KgJuSorlk9CDkRuwHLI5Mg9wYnKgD2FwJOxgHI0thWhOVeQJeQsr+LEqlmu/QDT3L1IyzJcMxZMyS5M09VaqPIG7JqVBbujBm18m6xr9QhpM2oab4OhpuldrTaX6oDjx0+o1Urk3XubtN0q1cju49JGC4RfHEkqoDn49DHGlUbLPgS9KN8cZP4aA560kpcuicOm4+ZpWb6SE1YFeDTYcX0wV+pa21wxJNcDrywGm6thfcrQt/0GlUaQC8BQAVRQVYW7HbogAFZKwErSdkfuN0watACQNUtiLl2/YkpJpNO0wBDEwsAF59hS3WwoRcbTdgNJqV+CV7CQ2AWmhBSBqwExMf3G1QAKwsNrAE9xtA6Q72tgRsdgAAJLeyVC4AJAgu2F0wJL7AmR7kwsCUpLlsGV5F342v5Cxzdds+fUKnISYce4begQWSiQvcmmA26Ep3twJzV0/ImldoAYVYndbArAkrSCwCkAeAtoV0C3CHewt7Cg4CnfuG2xGvQaVoIl5CyK2GUHIUHANgCSTe3I2k0JboV0ADukKwQDu0IJNIXcroCVAFhYAAtx0ADChASIsYgCh9ouCSnQCodD7kw+xRFqheSUltZFJvggHJoFZKn5B7AK2STVUyIyhNXw6BdwwAe1CQmCAaZNUQVWPYBvYSYcgA7tCasA4ASXb5JJibRFuS4QFgJ0RTtb8jQDsVsLE9wJJsQXQfYAQ02giiTWwRB2twjOySSaBxSCjuHvV2RaCgh95JStEVFIi+fliwq3cUkkQ/aPykLsb+p2BLuTPL/jxr+jNOl/1v/Fnp1jijy/48VdN0/wDjf+LCV00A0qCiBeASHQcBSZJcEW6BNsgbXkAHVgLxuCQ6p8BQBQIGtw4AbYWLnkG6KE2NIhz4omQFgFD7b8gAckmklREqJIVfMG47RFAqG3YIoAqxgtiBNULkU1klL6qXsPgBpUgIuZFzAscvQg578kXOiDle4EpzlezoSyr7lXdYJ7gWTyXwVNsk1uRbCl9yLCTRFyS8gDSb4B0VyyqPkonn9CI0uSRTPKomeWWUiqTbKL5alrgpnqG+Gyun5ItPhIAlkk/Jk1GSpdt8nQxaXLka+VpHG1NvUTrw2iiyer+HH4eHeT8rlnoei/hztwrqPV5fDxpXHG+ZHC6HCD6kpSipOCtJ+p6DN1PBrNbKPU9TKGmww2hHfufogMnWdf8Am5dmNKGnhtGKOV0mX/qmIg7+NL5n2N7WPpb/APVsa8JmM/8AWtY/XrsUqgKUrI438jFI+Pz29iSe+5K1ezKXwOLZ0k9IHLubLsUbaKYo04fqiT+xx8zvU5faRBks3+8Zv77IWfT1/wCseXL6REle4mdGCESaINNPbgobREYWBGgoYmQJoAYfYoTQUMTQCBjoTQCfqRaJiCIhRIAqIMYqCEgtDfGwpK1QDW4Ne5H7D5YUxAuSST8kEVJN0uSS3JRh7E0qQFfbsPtJg1sUQSoJDok8bcXsQRSZJQvwW48bcUaMenb54AzQwt+C+ODbfY1w09F8cC5qwM2PTbI0RwpVSL4wfoWKGwEIQ2qiahXBOMX5JpUBGOPa2TpILAA87D4EnQm7AdikyMnRFyAlaIyZHu9WQlkV0twocnbpEX6sdisIgpKXAD4EwExP1BtEJTYDbSE5pEJSKnIKtlNsrc/ci51yVSk26iBKeRFEskpbI0YtDlyv5tkdLTdPjCvl39QjkYdDlytObaXudTTdMxwr5U2dGGKMfCLVFeEBRj0sYLwXKCS4JSi/Ab1uAu1X7EnCqoFXNg3ZQvI2xVdEtlyAld2TUl5QrEQStA6oiqcqslSoBWkt2PwVzUZfK0Hc4OMZbp+QJ2ANUIAGnaFwC2dhTSsV0O/QVANDcdhJVywUgCNVTQKKXAvIJgOrIvYd2xStgHgSXbuPt2CtqALTdgwqkJJu7KGl7hdOhUxMgnsJsS43HVoAtcUNJUQ9CVgO0JtcBS8Ee1pgSsYkvNA3J/u7AOxJ0CUq9hNSAL8ik7+w4quRsCEU0/Yn+6LyNvwBFDqxpBwBCNq1yNNjoSdfYBjDZoXIRCTua9Sdi7KdgluFNsSJUCoAGgSQeQFSYKXbsxiYD54BQvkSuyVlEaaBbkuRVREJxFW/JIKKqNsL3B2hPdcUBNNCdepBMKsIkK6APIAk3uHYm02SWyoAFt4BLcYbAMBbggCwBggBjTXkQygdCXAVuSSSAgS7tgAA5GthJbj4AHK2BGrdjAYCsa34AQ0NoGtgIvdgOgAS3GCFbQEgI3Y0rQAFgDuwGkNOiKb9CSAk65C1WyEFUBF8kkRb3GkA+Q7aG0IBbrcanvuMi0BO74HRWrJd1AOhdoJtg1KtgHsvInKyNU/m3LI9tcARQwargjbAZ5f8ef8ADNP/AI3/AIs9M7fCPM/ju/6M01r/AJ3+jCOmNMQeTKpALYH7FCatjqhA7IHY0yKHasBsLATAGw5AADYGILvYBrcBWNAMZEaAYADKGlYrV1e5GSclSbX2IwhCL+puRBaArBsB36icl6kXJEG73As7tiDk0Q+I7qht7ANshKT8AmRlNeN2BBuVsnF90NyHzN34H3UFHao8DISyorllCLJToreQqlO2QtsCc8jKpZHuS7WxOCT3AqdyF2ljvhInDTZcn7tIDPS8jWOU5VBNs6OPp8Iu5O2aYxhjXypAc3F03JJ3k2Rsx6LBjq1b9y55CqU9wLH2pfKqR43qWF6bUStbOR6uU/cwdR0sdXhar51wyjzug1S0mr+JLh7M3ZMazZXPHKLUnZzc2CUZOMlUkVfDyxW3d+gRt1Xbh3lJOXohdHl3dTxP3MDjLmV/qbejbdSxfcmXyrj9ewjtETCP0gfIv17UWSWyIvYO6zU+CSs0YuEULgvxPeJkcjLD4mpzfDzRT7naaMOozajTSSyY4tPiXhletzfC6lqXGdPvJvqPxcHwc/ZOPh+UfU1z/GPJl9Q/PzrfHEPzz/6a/mUKDrjYKfodWOtX5x1vjHHWRfMGjKpbjbtBOta1GOT8offF8SMcXtuTilW4XrVa9RNlCfuTjJr3AmFCUiVogVOxoaACImSoQVEBpbgEJoTJBXqFQB7EqItWqCIJpskOGMt+GBSo+xNQosSHQEO0KscoOfmhxh2rmwpVSoCdN0ThiIKqdE44m1bL4YW3wy+OCufIGXHivwXx07a4NcMKSLO1KLAz4MHyK47+5pjjSXBZBfKi1RArUF6FkYUWKKGlQAlY0gQbFDdCfACCi9hAJsgT5uwsTuwAi1ckwobEwK5xcnXjyNRUVUSTsi5doRFrci3uNzsg3uA3IhJ+gMi2Av1IykiMrYkpOklYUm7IJTbqKs149JKW8tjXi00YLdBHPxaKeRru2Rvw6KGPxZqjCKRJpeAK8cEvGxdHgIrYdpBR8q2JWl5Icux8AWWntZF+xGEaVvklsBHa6Jbph7ke50ETbtin4BMfgocVa3BpC5QqaXIA4puySqqEgoArck0mtxJpDtEVCWTsjck2iUXGStA6aIuFbxKJNoQJqSvhjUWQKg3JJeAWzATvyhLgk53sR5AaaaI3Q6SITuvlVgT8Be25WpSpKRbFqS3CoNtMLdkpqhLbkIdMO61vyO2hbMA3F5tjquAq0BFji6FVByA2IfaMBUDdBshtJoBKT/QmnsRUWnzsSfsEJyfBG/UPINWAWIKGgAKQxUFSItgmLd8oBqqEkOhoBUNJfqSq2DWwCFe4AABS8AHkAEx+QZQJ1yLyDERDTAjY0wHbJKVkR2gHwx8iW5JblEH7CnbWyJSVPYXzVxYFe7fBJKiSpjcU+QI1asVE6rYTASQ0iPklwAUNJJCsAGIjJtcAm2BIADgqgABBBQxPh1yEHa3ABgwAPISrb7g0Rl4YExbAMCDW5KLrYGiLi3uBbdiaIRfbsyezAi3QrJNWQaaYErDZi5Q0lQCoaJJL1DtVgIdAAAFAiS4AKH4EOwI0Oth2DoBC8g9nsxW29wJK7GLhEe5WBMTEpILVgNbEk0VtuwvcCcqYvsFoTdPYCQC7rHYDXB5b8e/8N0/+N/4s9Rao8t+PGn0zTV/1v/FhK6bED3Ayo4HdoQN7bFQ1vuOhRWxK6QUC7Vd+Q5ABgwsCAExhQEYp+Qaol5FIoQSkoq2PgW7e5BGOTurbkm9gr0QNANPYGRWwrAJtuNR29whFRXq/UFyR7+5ulwBJuhdzYeAX3oBWuL3C68EViSk5XYSlT4Ans/BCT8ClNdtLZkePO4UMXcoornP3oha9bAlLNJcIr+JKXKSCS7lyKMHFVYEZSI2OXILH3cAOKTVj7USjgycXsaIYYxSsDLGEpOooujo5PeTNCSXCH32EKGCEFxuTuiDyUR+JYVOUytzIykVylQFt2Vye5HvvyJyALISYSdcEL9QijU6PHqd3tJcNHM1HTdTBN42pxO0Oyo8fmhlg6nFr9DT0fbqGF+kkeiyYYZVU4poyx6fixZlkxOmvBL7jWP12PUCuGS4pvnyNzPl5Y2V65RPgIMV2hQ53JBcuAeVY8cpydKKsr7m9kcbrnUVGD0uGVt/W1/2OmvXcqzllyOHq8rzanJkv6pNlSk15E/Ij6cnI8dvasjmmn9TX6li1OWH0zf6mYlF+Co1x1+at+1/dEv6Qk1Xw4mJrcQG6Gv7VvjTLF1DG+cX+ZzQA6i1+L+BomtdifqciwsK7UdVjfkuhkjL6ZJnBU36k4ZZRdpgegi7GcSGpyRdqTNcOotJd6sDobCKMWqx5PPb9y/ngilQMb4FRFIZNQslGFckFaiPtpW0W1TKc8qaV8+AHaJRVkYwTd0WUBFrcKLFiuiyOH2AojFtl0MNLc0Y8O5dHCr3Az48S9C6OJehphjiidICmOJIsUEyaVk4xCq1Al8O4liSHKlEAjBJEqoE1WzHYAhkbFe4RZtQEd/At/IEmxBQUFAmgE2EJi8A3RG2FOxNiIthDciDdj5CgI0LgbYu1tBUJEe1tmnHhctzRjwJOq3Ax49NKT34NePTRh43NEcdEuxrdgVqCXKJ1e7Q1u/YlVKwIKnwqoVJkg2QDTVAkmJ8gk7AbSig2G1sRoBvkSB+wJAALYi7T24JIB88BbS3Y+NhSkkt0ES8WQvYkmqVcDpPwAo7olT8CqkHvZQ6oSBvcW6CpbAuSC8jT3AbgrVcgpU+2Q/IpR7iCQpJy4ZBXF01sTlOMQI9r2HwJytpoVsCW1g5qL9ERH2qS3QApRbsez4I/DVbMi7j5Ak1TGuCO+1k0AWLYbFRQQt2PdCWyBsgKCtwTY62CGxAtgtWAtnyPdDVPwD49wqSpw9xcIirFJNrmmESqxPYStc8g+QoGn6ifBFPwBOvcBJg+Qh7IHXgjwNMqn4Fe4WrpjuiCStIVitvyJPfkIl9wYd1gVUaY6HwJsgS5JJNN2xJg5AD9iLBy9BJ2gBIcY07GnQWAxNhwGzZUFNEtxJMdADlStqxRyKXGxNbDaXorAjVvgHLt2JWqIySbAjewDqkKgCgoP1Gm+AFQMnWwvAFbaS3CLTVpk3FPkqeOUH8jVejAsBi3pDVMATTYw7Yp2gKAfaIfd7AKgGnYMBD7bW4WHc2Acoa2En27BYDbYLcVjugBxTBIPFh3bgDT8Caa5JWDAgDRKSEARJEVySAKFQAAmhq0gHQAmC2Yr3H5Ak7E0CY72AiLySF5ABfD8kwsCHYHBOwq0BFU9hVuNxa3QO0AUHbQra4JpgVtNElY2KgCzzH47/4dp/8AG/0Z6evc8x+O/wDh2n/xv9GErppBQWCIpNDjCwjH5myd0QRqgGFFAAeRpAKgewN0LzyQML9QEwDttp2SUF5ZFSod2A24+CLoVJBsgHbS2CxN7EQG3uAuHySYCIpdr2JUVd++24Epyne0diLezfDH37FclfPkCEe9r5pMnbojVKgSAfuU/EuTL0iuWOKbk9gsVuPddiWOKXmw77+lE1CSW6IqPHBKMZPkshGFPu58BJqK2AXwO7dkvhKK+VgpurC3J8FDuh9wk68ilJBDTbYSmkVOMnK4uhy2W/IBJ9xGu3yR+JGK3I/EUuAJt78ilbRFyVkfiq+0CQWF7Cit2wgZF8k+0iBFRd8ia9yexFqwIuLrkrqVltCvwAY3JKpFnPBWJNp7HLPXMnSZ8XpMdbb7FLySW1kZNvls5TQ1/Ip1+bUdjxaSPPM/Jw5dN1dtvHfuegC2ejDHxnpzyy682+n5vOOX6EXo5LmM1+h6W2HPg31jjzD0rXr+qI/Aa8nqKX8K/kDUa+iP8h048usXhjWmk+JI9I8eN/8ALj/ITw4v+lD+Q6cec/KT/ij/ADD8rP1j/M9C8OL/AKcf5B8HEv8AlR/kXpx5/wDJz9Y/zF+Vn6r+Z6H4WL/pR/kHwML5wx/kOo849PkX7t/qQeOceYs9JLSYH+5X2ZW9Dja+WTX3HR57ua8D7jsZOnSaddrRhy6KcP3WkOiiM2aMOpyY3tL+ZQ8U47rchb8lHXxaxT2lszZiyRl5PPRk1wy6GeUeGRXoFXhkjk4dc1ybMOrhLaT/AFA1O6KPg92RJ70uTXjjGauLsvjgvejKssMVv2LVi9Eao4duKLI4q8AZoYWzRHCkWqOxJLYCuKSb2J0SSdcEkgIJDon2phQDikSI8DuwGhSW1PyNcCe817IBpJcDBD3QCAfIuCiSAUHab8EgEF2DFYU2KWyEJkEHyDGxAIXgkkDjsBD7D7SyELRZGHsBQsVtF0cSuq2LVjRNx2CFjgmtuEW0oorxtRbiOb9Apxd7hJ2qEh8gEVSGw8BYDS2IyW9ko7gBFMlargGQu3QDUm2Jv5qJrYO1AKlXInstluNquAsCHj3BJrd8kyLQBDu/edilDukvQkvpAA42GnsxBHe9igt0EbJUFECfI+ReSRQktgdJhYkA/Id1DVeRUmQJyVblfw3ad2mWOKewQi06btADVL7EeRzg09uAjvsA09gTI0+5+g2newEroGk3YUNbMCMuRR3JNWOMafAEJWmhp7lkl7FfkIb3YArQ9mFJEmtiLVocXvRQmSpVuJr9F6jUajuEJbCat2C5G6a9CKXdTQ3uyNJ/cmihqO3JGUU1TRJiQQmqRBr0LOdiMkl5CoIYWuBNUwGA1uuQ8gRfIXsScbFwBCMu50iyMV5Ivm0iVgSSSBkbtbiW3AD8iaJLgTASWwNEXKpUSTIIdrTHFSt3wTY3K0AiK5G5VwJSvlASsaoihoCSdMldkKsSTiyonYm2K22S2Aj3bElFtWitSuTVFqlQEavkdJ7Ib3EgF2tBexKyMl6ANSdDuyMW63CvcB1QmG/gTANxJU7CyWzAVhYNegLgoIyQ+9XQqV8BSYEtn5H27bEO3cXc4yrwwJWkNUhPcVAOT32CmR3ROLbW4C7WJuidN7ITgAkwJdiDtoBbkkIGA2KXsJpsN6Aa4HvRHcEwGwr0HexCpPdANE0Vr3JrgArcHEe6DcAXAbj8CqgAEOyID8gxLcOAAmtiFjT2uwJNshbvcLbAA2C/QSryNADbXgSlfKokG1ARs8z+O/8Ah2n/AMb/AEZ6ZnmPx1/wzTf43+jCV0wVgC2ZFP5lwRU35J2JRVcEAiXkXCF3ASsVtiuxrgqE9x0hU7GgpioE/UUpPwgB0hXQt/LEQSuwEthPkBguSNi3sCbaXJHvtbBIVbFRTmzu+1ceWQhJya7OC944yVNbAoxjStK/AUNBV8jm+xXWxKMe6pLhkEKHGFstUFY2kuAIfC9w7I1UlsScqIp+4EJY8ae1kJK37Fs5NLwV88oL1CS3IvcnNJLYqk6IpuaWwLL48Fe73B1+oF1+hW3cqXJU5yXDGskrtrYonGc+6vA3Ddtydk7vchJ77sIqePe7sIxp8FjpISmu6muQE41v5I/DlV0r9Sx1Y+QK4w7VTdkvANbgEG5F35J3sJqyiutgok7DwQQYqoltYN7AR8WA16A0BFoi+Sx0yCATRGtyxognuANIfCCgAiCVsbBPwAqIvkn42ItAQYE6Yow9QElfgbROkKUHVpWwF22HZZYlWzW46VgVqHuSUVW6smlQtwMeXS4cra7O1+qMGo6VkTbj8yO4ooO1t7IvUeTnp543VP8AUg1JcpnsJabHlVZMalZkzdDjK3gfa/R8Do80mWRyNLk16rpefA28mJpfxLgxSxyhxuijZp9Zkwu4yO3ousYp1HNs/U8wpE4zIr3eOePJG4STRJ7Hi9Prc2CalGbSO5pOtKaXxlfugOvVjSaIYc+LNFPHNP2LQGmSIXROLAAF3bjsAodUKrYyB2QTvI/YkiEd5N+4Fi2HyJWNANDoj3WySYUX4DwMaSYEWLYk1QMIiKhsaCq0rY+0n2bklDcCuML5LFjtE4478liSWwFePHSLVFInSoi6AUouriiLbukDbHCuQiPbvbG16E9vInsFRFe44/Mw7AJXsLwFUADiPkinuSsBSVrYSjRIG6QCd+BNsY0l5Ai7Ab4EgCwe65odITSAjxSsl4BJDAVDWwfYaW25Q0D2QJoHuQR8gDu/YGACp2NDT29wIK0nb3HF2N2xxVIBS2Vgmh167ioCUip3LbgsvYXbe4CT7Ul4JWhNbMjUkr8AT8he9B4FTe4E0JtpqhJhYE07ItbiGmwCqE0MfamtyhKVLccZLyK1VEWiItlTjRFLwRTZJTjfowpPZgpeJIk2iElasILT4BS3I/DjJptssUUlwVSk3yiPd6km6fJBq91yBNS2IyimyHbNSVFm5ERWPmnuQUMl1aSLRcOwI9vaubHFkuSPaiqLENqiPdRAx+CKd8DAdj2I0OgFOpbW/wBBpg43wxKNASBcjQFA1aF2he4btkQu0Egi23TLElQFe9krsGhrZgFCdkn6oTKBAGwbANITGnQnGN2AOUY8g5dy9CVRfgO1ARSrySW/Adq9QWwEZWnRHdMsfqKwF4FVkndbEVZQu0kkFsCAaIsn4I+QENMKAob9hXfI6CkADFuSST5Ai1YJ1sTr0F21u0AXXA07Ctg2sBXTBsJuotrcUX3RTYBe4eQ4Y+QHv4HuKPI5WgBbA1Y1uDi1ulYEe0ag0DlQ3O1sBW9pUySu/Ydd3I6QDryAIap8gQb+YbobgrtBXgCDT5RG99y2lewnCPkCKlXAu5vkFFrzsJpgEhx2VEVJrZkvsAxb+QQ17gRYlKiezRFw9AGp2O7IOIICVnmfx3/w7T/43+jPSO/B5n8df8N0/wDjf+LCV1FY6oW4WzKmOyPIcANsQrGtwBbDuyJOO3JQbiqhuW4m+AEDfigb3FyAmxLYbVCoB36CYw2IEuAJJoAI0OiaQeSiPaRlhTak1bjwWOVcEbe+/IBGSmnbVrwO6XoZo4ayX3eS+W/ADv0Dgr3RXK5S+rb0ILJS/UhFy3tB9K2JKTlF92xRFsaEF0AS3RnnjnJ+EiyU/F7kafLdkUnUY0VPn7l5FrfgCqv5lkYSa+bZehNJehICqLaTXCHtyxtbjTSAVWKSXpZJsQQq9gobIRlb4aAl2si0yb8ABChjaFYCoTJbhQFbjuHaScb3CtgIUBLtEwItCokhNgR3FSJEHu9gGKTSRITSYEIu2SrYbVcAk2gIjr2HGBJ42/IEaH8NsnCHa+bLNmUUqCJVRL51LaqFPulstgIvccY0t92JQyLlplkYN8kEKdklDcthAsWNeQKFD2Jxx7cF8YRS5G0BXGFImth0AByqaTXozHqel6TUpvs7JesTYCQHlOpdKnonf1wfEjmtOLPb6/B+Y0WSFbpWjxmSKkr8mkQTtEo5HFqnRDhHZ6X0J6nEs2qcscH9MVyyjLp9a8bW7T9UdjSdZbpZWpL1Fn/Duncf9myThKtu52cXVaPV9Ol3ZoPsulPwyD1+HU4syuEk/YuPFabqEoSu6afg9B0/rGPL8mZqL9SK6w7IxlGUbi1JeqGQO/egsRJLYBNNxpDhGvJKrHGLAdBWxJLYGBBRSfBJCYPkKbGhJWSpgRboFuNrahxjsERaJxSr3H2NcjSAi4vkkokkJTXADS96G0RTbZN0FRbdcibC9wYDTtDXJFbNEqAbYpW47CGgBbJDBoi472BJAyNuwAY4teRCYFtqiE99hJ0OSugJR2jRGbp7D8C5YAnaH9hUqYounVAS8FWZ1FfLJ7+CznkKoB2vACoL3oBp7Dt1Ql7j5AFwAEo0iiLbItWSk1YOSWxERqkHA+5cIi78ASbGtkQT235JpoKa3RHu3I9ztgBPZoXcuCN0yTVgSare9hdy4C9qFsrAi1TskmpLYh8SMnW42qewEqoK9Qu3uPZhElVUFBFKyVoBVQpD702KSAiIfgKAS3G0RWxJSKorYVjsewEO6NUuQUnw2Speg015IK1Hd7t2SSobe4WUG1bkYrsTryNi3YQ1dAwi9hNkDUqCyOw0yqdkZfYZLkiFCNoGkgUnF7Bu26CgKFF+pIIW3AElXoACQ6sEhNO9gBoE9hS+Zdvkil2lDBN91El6hKVASRFyp7iU2GzAd7g9xeRgRcmpV2v7kkDTbDJfbtyAworx9zXzclqQC3JKxN0CkmUDfhqhWSb2rwRkttgJeBEVLYkmAbiGmPcCIBOSiuNwV1wQNK0JpxJVt7iUvDAimu7d0iT34H2r0CqKEh9tAMBUNIXuSTAQ3wDCgBO0Jj8j2YEapgMae4C88AqG3bFQEtmPwQoal28gEgUmNbtsdAGzW5Uo9s/Ym3QrTYCf3JLgbgmrRFugC1fI0xbMbSSAknQrEmqB1T3AcZXuErCFdo+5egEGIkyIEWrYnFp2TE9+AI2NSXkTEgJ88B3VyQTabC7AlKVoimxMAJHmPx1/w7T/AON/oz01nmfxx/w3T/43+jCV1QDuoXduZUxSZFyYigJRewkSAABid+AGRUpyl6JEvAIIE7GJIYUmrAdsIogQJE9hMAqkHgHJVQlVFDb2I2K1YNpAJyE5bbsrzSaa7fJX2Tk93sQTeaCl8qbfsHxJvwkhRh2LZbicXPbcBOcnzIIxTkSjjUV6saiAwteomEYU7KGKXA2D4CK3FPcVUyaQNeSKjQdpJcEe65UAVQiSQpSUUAqYnXkIy7rVcCnBy/eoKG/Qj8ROfauScY0quwUUndBAr8hSQ2JukUMQo7q1wSrcgQqskxJbgJATaRECLF5JNIgwBuyNUhsHuBEVEqFVgRYJE6B7ICL2Iq7LIxvlE1ECpRRLtssaT8ABDgG7G1ew1ECBJcEu0koAQp2S7b4RNQ8lkYUgKlAmoFqSG9kBBRoO1MUU3Jtv9CaAiopOyQUF0A9iLBsTKFe4yNApbkF0N9n52PEamPw9Vnxv93Iz2kZ00eV63j+H1bL6ZIqRYjDp4RyazBCX0yyJP7We5fNLhbI8IpPHkhNcxkmd/qfXoYsKhpallmrcvETQ6Ot6hpun4+7NK5+IJ7s8p1PqufqM/nfbjT+WC4Rjy5cmfI55ZOUny2KONy2SCIWW4s0oSXlF0NDOfOyNMNLp9Pj+Lnd1wvMgNvT+qT0rjJ3LG/qieow5I5sMcsHcZK0eCWbvnOUY9sXwl4PX/hufxukxvftm0ZadCm+EWRi63ROMaJVtyQRpRVskmnwVzh27rf7lmJKrKAi0TnFv6WOlVeSCp34QKJYo15H22FRiSqxRilJliSQQoxVbht4JNoWwCdggbFYU29xUgAAQxWMBV5GhJjQCfJLlWJleTNHDj7p2ldcAWgFppNeUADsXduAPYAv2ExXuSAIje4lQ9gESjNSTS8EWOElHbkBJO9+CXdXAcv2ACO85NS2QlBQezskyM3UW/YATbmOU6dFWLInjcpOgv4iuG4Fkb9bJmfvnjfFluOfxId1NfcCSkm9vANkU14Q7sBpkk9iHJJbICMm7Q3uDBWEC2FLu/dWwSbvZWN216BUI3W/JIAsAAGABSJJ7EbBAFtslXqLcLAdJsbjtsIdgRpvwOEqdSQ7E9+QJ3sKHuQVpBFVvYROX1bcDctiLZEqne4/YSHKwFsCEhoBpIOAB7bkAxUFoG2gAPAbN15JduxRGC9yTVIgm+6kTqVBEUKS2Gk6p7BvZBBSrZjuyTgm78EqSjQFdslGSvci7T4CgqxpEJJ8oe9Ee6kUNK9ySK+OGGOTctyIt8CSdjJdyKItiRPtXNg65QFT5HdjlTYqATkRuxy+xCmmFWIdEbJJhCdklLYHwJIAi23wTfBGxpoASQw2BtlBQu2gvYakA096G0Jc2hrfkCFIfa/3SUl5QJtbkEFGXoS3rckpKxtWBBq+RxutxONk0qQCqwpMUZS7qkv1GAmqFdIlyKiiDb/UmpL9QUbFKID2AiuBoCVg5UhCYD7rGiKiTSoBvcjwxyUluiCmpSqS7WBICdWrCvUCHI1GycUiVegFaVDHJNEWwFLkSjuTXa17gl6gK62D2CW4luA0twatCqS9GhU0At3sDhtyOnQJN8gRgpJckmxtUQfuBK9iPnYaphSXACDjgUpVs0F2BFvcExNbkkAlzuO0wfBBbMCT4IUTTB8gRPN/jj/hun/xv9GelPM/jj/h+n/xf9GErpgA0jKlQhvYEt9wCgpokDYCQWK74ACQISGAyL5HYNlDXuDlRBsUu5LgCfdY2yqLflEiAsZH7shlydsfl3bKE80EnaZWpSyO96DDDu3kXukqSpBUEtx0PwBEAcIAAje4viRT3ZKvBBYorncCzZ7iCkuOAKEFpg9hBD+wNWK9gTaVvkikh9qe7IQfJZQEJyqPyoq7XJ7vYvcRdvsBBJLgY0qQKICa3AkhcgIilZJpjSoASpbIPuO6I3YCABADYDQAJoi4pk2iPAEOAG1Y1ECND7GN47adtUToogojUSQJgJuhDasaRBEKJ9hKMAKlFjp+C9RQdoEYxdbj7PJOg8gJxQlL2JhytwIxVbtkm7I0uQlKgJJJIi2iDyNcCtsCTmC4IMAJNhYrsAGrIKdvgn3CaQDW5w/xLj+fBnX91naMXWMEtT06SirlB9yKjy81vRnyR+Y0N39/JVkW6LEPFjtcG3DhSVpbmfFOlXqSy6pqHw8XL5kVGnNq8emVKp5a4T2X3OdkyZM03PJJybCsccTbbeRvYhG1yBdiWzfoeu/Ci7ekN+ZZW/wDseQjaXauZbHuenaeOj0ePDDwrf3JWo6XcOL7imMmy2KojSUoqUauiOLF23cm/QnQ1FeCIKaQ0nQDQEWgslzwQa3AkFgkOgFe4uBpINgE1aEtuSWwgoat2CZFty4YkpWt9vIVJsE2DVS9hhANMPAnyAxOuGr+4BW4ApXyNsiMAsGL9dwAFySIkuFsAwEnsOLVgMjaUlZNPcTW9gO7Itg23sgq+QGFWAJAKcISVSiq9gjFR+lUiTQJWAu29/IlFpUSVgwIqOxLZEU2S2oABbh3C2AnWxETk+BN0tyhW+7gknsVuXzbMlGV7Mgl7kOWTVC7dyg7vDCkDQEDodUJMb+Zc0AqoOfuSXBF0gCKaXzD8ivYFyAwCyPddgDdCsYUUFsaYmqViuwJXQ+5sjWw1wgHyOlWxGiUVsAcBaY17kXtwBGcHXyPcIKTS7lTJDcmlsAUkwsL2CiARJWJEqdFRGXG3IbCE3QDaAFJDu2AVRHt3JS2V+hFPuimiKf3E4pg5CUkyiSikFJMHIQRKxDS9QALpci71VBQmkAMXeo8jpJgkpbNACfcrHS8jVLgT3AXarsbimNR2E3QB21sNKwGtgISTQJOixPYSYEd0O9iT3I1RQCosXAml4Aj3A5jcULt34AE2S7iLVeATtASfFomp7FatJ2EeALHTDdIUWSYCtURG1QIBoBW0OwFdMd2qAKAi47UhRTWzJ+4SyQtRk0pPhAKhbdxJxaWxDe9wJtbhewIb42AO7YjtJ8C54Bp36AWcD5Iqn5Gl6ASWw4vYjTrfkVNMCdJikk1wHAN+gEe2hpWmNMaoCHaxy2ROVIV2twK93wG/oT7aQmn4AiIk+RAU5e/btdE629xyEuABKhgK6AjJWKKdkrsAHS8oi0vANgBETWw2yNgSXAmFiAGzzP44d9P0/wDi/wCjPTHmvxul/R+n/wAX/RhK6lXwCYu4SIqTBCsEwJWRGxU2A1wMVUFgMLItC7qAk2Rtg78DSYCQ2OiMu66SpepAbCtt0hpDWwFDhcqcm37Fqioxqh7XdA9yiF1wiXIBwQRodXyOxlEeGSSQnQrAlSsi6Y9xNAIdJIhJSq0GLG1vJtthEmrFRNpEdgpUOkwZHdMAaqWw7Q+RJegDEwvwBArFuTS2FQCoTTQ+A5AW9C8kuCKlfgBXYMSUu52thsoiA6pjogQUNRb8ElF+gEFuPtLFFIKKiHb7A0TCrAqGkNxoKClQUgy90cdxjbZPDD5F3L5mAkiagiaiq2GgIJD8g9gsIGMVIYAIPuRlNJEVKyLkVuZCU9gLHkISk3uV2S7tgJJpodkO4aYEm7C6I2BQ3J+BpsSQ36ED5HQkiSoASJKkU5dRiwRcsk0l7nJ1XX6uOmjfu+CjJ17py02T8xiaUJvePozmY1GU6k9vUlqtRqdXO803L0XhFNuO0lTKyMmT5mo8EUqGkrLFjTW+xUV+SUV5Y/kgubfsSxQeWavaIVv6PpY5syzZVai/lXqeqwtt2czpejySjFRg1D1o9Bg00cSV7slWCEJP5qpFqJtbC7TKlQ0mNbMLVcgHkbryCoKTKEpJcbitMGkvAlsRUxu/XYhJ2uaBSYQ2g4Gnu7IvcKAbI3RXljKddsq3AnKLr5Ca2SFG0knySfACbIoSTlLe6RJIAHaCg7PUBWC3HsJUrYDAg07tDVtbgHarb8si+9PZWizahAR39CSlWy3CnQJUADSsd7cCqgJJoGyNeQfGwDTJWRSoNwCW6oIXF1diYAWWKxJt8jATbYv1JBQCRJJeSEpKJJcIAaQqT5G9mABRDPvGPZu73JhFU9gFLHGUa4aEodiuTJtPud8BONxrwAQW1j7SO6Ww4zpUwDt2BRBzCMo0Ans6CiO7k2T4AZFrcLB7oAEHA/AEQoHKmLvV7ASsExcjKJJbC7YrdELk3vwOwJNiQcoa2ZAxSTvYkyNlBflhdhsw7NrQQ+AsE0rsivqsBpknwJrcGFNOifd7kFVMV0gHVA1YoS7vA9vARFUmSsW1tjoAsdbbCXI++MWrdAKcUq9SHb81ltp+UQfOwCSomkmLwNcAS24I8MTuw3AG9xB52GAuRrYENAJvcdofjciBKxPkOQugAEJIfAA2MUbk37BK47+AB8jBq2hpJAK2h8obSe9bguNyiKZJbkad8E0ANeoqXoSYmAJWHbTHHgkBDsV2N7khMCLAk0IBbAALkAGhuKSbIx3V+AGmm2l4G8cXTaTa49hKO9on9wFfqJpMkop8j7PRgQh6SG1TIuLbv0Jxd8gRcE/uLjZlrgrtMjKPcBGldoTn2NN8E624GoJqmrAO5PcHL0ILCo3u69PQfY1wwJppr3FVckd0rrgkn3KwBbj7L4EoDTlHngBSXat2R7nWxO1JC7QIpy9bHcvIN9vJKrjfgCPa2rRDhbjakns9hTVgK7RFySaQ39O6ElFgMKVD28C4AKQmxidARINkmiDTW4BzyAQkpLkYBwAN+BAM8z+N/wDh+n/xf9GelPNfjf8A4fp/8X/RhK6dDqiGVW18zVlbhPdRbMquu2SdFeOHZHd3JkpOigXJO6IRt8kqIDkSGgooLDkRKKAQu5vjwSYgIvJTrtbfsimeo+dfLSRc+7+KjLPHJz+Xh+oF8Mqnwq+5OyOLEoK27ZPYAoiS8ciYEXuqJfu0JyofIERxBxvawjjcb3sB9oJIL9QsBJ77gxNWxgCpIV2woceKAGhNDACI3XgTpApWABYMEiBKO92A1GgKGrQmEm0qXJGN+QhyQlsPewaIpMSdIaVuhNU6ATCqJVZLtrkohTY+wnwACitiTFVAArHyFB9gEK9yxK+RpLgIrq2NqkT7REVHHbRIGqEBJcCfIXsJMofIqQOVEJTIJN+hFyK5TZBsCyUiDlZFsV7AEmR5BsVASGKwAd+ATENJASRKtiPeo+Smedp33bAaVS5dA5RXkwZddCMfmaOdn6jOTaxugOxm1uLDG5TRy9T1me8cKS92YVjyZpfNbs26fpvcldgYJPPqpXOUpf8AYvw6Ft7pnawdPjDwaHp4xW0SjkQ0CStx4M2t0HxE3FVJeT0Cx7cFU9M5fusDxs8c4SqUWLtk/U9guk/Ge8K92joaToWkw1Kce6XuVOPHaDpWo1c0seJterR6np34dw6ep533zXjwdqEIYl244qK9ENsgUYRjFKKpLwiWxFARUrEN8EUFNiH5F5YAtySYkF7gNtURtUS2aISq6AAq/JJNJUJsAW3kLAGABQIYCW5JhsKwErsbBOgbbfAAnuKTYUD3AOAtUIKAadDv1I0ADtIaZFxtDSoCQNeUxAAIdWJUNugGkCQu5g3TAdUOyL3BbIB1YdtMAtgPwFiUrAAsd2RGubATVu2SsGACB7AKW0HJ8ICa3JQK8UlKNrgsAnLcrnyvRIHJkGygv0ASGQAqXgYm6AcQbtiEuQJgLurcdt+AEPZkZJiTaKJNEHFJk7IxfcQOPkb4I12vdkuVRRFSTVpgxxgoxqKHFeoCT7VuSc1FWDWxF78gStisCUU+QEHc19iTI8hC5B7EXLtTcvAscnJdzWwFqryDp8Cu0JefYBod7CXA4pN78ASVJCTCWxG7AfkkmVtutuSaewAyM4KaoHOnuT8ARjGopBdDAA7qZJNNFdA9gJSluLuIpbg0/AE2thDhsqbHVsBcDBx9GJXdNMBggCgC0hPcdIK22AS2HdhG6+YlSYDTSVBzsw7RNbgDbXCsSbfgGNMoIt27Q7C6C7ZA1V7g+Q8gUPkKFdDbAEMTfy7Fcc0lkUXHZ+QLiL5JNisASY+SuGR24zW/hosAj20wrclW3uRboCdBRFOwbaAbHVgt0TT2ASXoDsTdDTfkIVbjcXykSWxYt0FU9yX1bD91uTcIy2aEoqAEL3pjeyuO5J9rBLbYqK053uiTTZNIbSIqqcZONLYhHE4tXNv7F/ImkAvHIcoXkfAEHs6ompJqiLdsKAk4d0WiEZShcWS7mhWpbgRu9gobojLZbARktiPb5JqV7NbifAEPsSvYVC3WwBHgGgsLAixEpLYrdgDaTE3Y+1sjTT4AdIB0IAs81+Nv+H6f/F/0Z6U81+Nv+H6f/F/0YSum/mjTJKVKkhRjb5Jdqj5Mqi0k78ibskyLKGnXINt/YW1Ct+AJbeQuyCVkuAE79RqW25GrZKkuAHzuCCwrcBcMG2waH3NbAJKhiim7Y+EAdtbgLuJWBB8jSASl6MBrklYu5sKsBNrwRuyVULYBD8CYgHYIQbgSdUKw5HQC+4nyPyPyBEe7JbUDAg3QlvuT7UKvQgXd4BDpCp37AAJbEkrJUUQUR9qXuSoOAIb+g1xuMl27AQk/QBQi6+bkkmu+gIpO9ydMa3JJAQ7fUlS9CVA0BFIGqAG6AVsVBb8odogBbITkkRcrAJS9CuWShykVgNzsi5UgItgFuxN7bgmD3ASYnYcAAcCT3pg2o8kJ5EnzuBaLuRQ81FOTUehRqlkivJXPUpcMwT1O3uZZ5pSdII3ZtY03uYsmqnLaLHh0mXM+NjqaTpFJOSsK48MGXNLhs6Ok6S3Tktzu4NBCC3ijSsUY7JUBz8OgjBbo0RwKPCNagNY9wM8cW/DJrDf1GuMUl7hIDNHArLVjS2omkSAhulx/IlF+oXuBA3QnwAra3aAb2F5JJqStCaKBiboBb2QSW4MQrCnXoRfcn7EkACUge4do6pAAr3EnbGAWMQ01QDQ6EmFsAewk7G16iSoKGRyzccdx5JWOk1TVhFScmrUrZNd1fNsySio7oHuAqpAuB1tyRsBhQrslFX5AaGF0JuwAGIABIaQJJeRgKgS9RoGACbV7EWwQDod0IdWAlshpglsCQBuJPf2HfqKqfsFS8BYv1E3vSCJBJd0XF8Mih2AsKUF2+C2yptEoPu3QEmyFq9yb4IMBSkkt2NWFLyhMCXkUqAiwDyFWColsldgEfRj4ZFMkmuWAWJoHvumO7KFwMHyDAGkxrZkU9hOVATugsjGXcrpobAYCUr2G3XICJd9Iqc6+7Gn3AWJ91+gmt9g9hOUotdtV7hA16jkkthN34BqwFfgFYeSV+wEd19iSYnyAEm7RFJ37D3RK9gItEuEQm2tyUJNr2AErZJ2mQbuVE0AWCDaxN7gSpEXsyLm7ohOEpxajJp+oFyCiNdsUmwTsCaimR3g6GnQpPu5Aktwk6ILu9Rq/IA1YkqezJ7oTANxx8EbGm0wJPccYqPkV34ErKLGRE3Q4tALtaltxQt1G5KiX7w2BBq1zQsX0U92WJJvcbVcAJKmNv0FRTJuM/IF/JFrcjGVk+QDdJUidkV6EqAjJpckYptFnArTYCpIae4PncbinwAWDpkZPtXqNfSrATXa1XBPnki9/0JqntYEG2uAUn5JtURardxtFDacuCxLYimnwPurYInaQLIuGitteUHdbpJgWXbE23tWwm2L4k41tsA+z5rvYmo+4d3chTjcfdAJ7SD3sgm2thphU4y5sjJX5HSe4UELtfjcTe25NS7VZF7+OSCNg22tuRStAmwHF7bia9CS3CWwVDcUkyaITaKIbg/uC3Ipt3tRANtPZBYeBWvIADATKhNv9BCbfka4Ippg3Yh8gDI7DYkgBtUeZ/G3/AA/T/wCL/oz0rjZ5r8bKunaf/F/0YSuo78Ar8vcGKzKmxUNDsogwqhtqO5WsvdKu3YCxIKGDIEkDTBNg226KFugt2CTvcdAS8CbDlCqgBOhOW47FQDTRLwQSt2SSATViSSJSIgN7iTob4EmqpMAuwE27pD42AHVEEtyb4EAUA6AojuSQmgWxAN77DS2C1fGwXsAUHklBVHfkfbYERqNkqDdAR7aCiewgEmvCJEePsPuTdWAg7UxtIaQFcsfc022q9CX2I5Vc0u7Ykpw7lFcgCTK2lHJ3eS+iuckk9tyKXxPSiued3SlRCWOf1WqYRwdyvmQUnOSkmm2/uaoT742ZlDKnXakXY8c4KpNVdhFjEwbVEHLYIfcQchN7EQBt2RsbRAB7tiezC6It2AdxFjRFyQDFaXJXLKkUyytsC+U0vJXLKimUrK5TAunlTKXmSv1KZSZW7k+CosyZm+ChuUtkasGiy5WvlaOppulwhTkrYVxcOky5JpdrV+p1dJ0mKpyim/c7GLSwilsi/tS4QGXDpIQXCNEYqOySJCv5qIJJDUNyXDJJFCUaVBVEhANCYMi5egDQ72I20CIALHWwgGmDdKiLYc7ATgkoJARiqQ7oKYmh2JgIAcb3GlsAJBQXVj5AXgi2SaIyTpUAh1YL/Md0gItrwEUFbDiqCpAg5HdAFIGkg28tIFTCHSoi9iRFhCsE7lQbE0gqL4ElQ3yPYCFbgmN7kWBJtiV2K6GgJLkBBYCfIcASSCGnasbIpVRPwUVsBtbEVwQTiMhY7CpCE2NNeQE0DVkmRlxQCSvZDqmJUkkh2AMA5DlhDpRVit2u1Cmm4/VRRjyTjKvHlhWpu/YitgW+4rAkBFSXAO3wESE/USS8sbQEXuSUVW+4gbfCAlwKxWNMKLJWqsgJ77AWRaatCe5GK7Y0NFBJWtiFS88lgANX2oKI9zQ1LYglRGQdwnuAqTGthCi23TCLN7sHyNcEb+avQoLd0SEqsJd3daar0AYCjLuVrgkkAmiKTRNqkLlAFkW34H4BAFdypko7KhcIE7AkFi5FJOtgHyG6EntuK3dgSSEnUgTd+wvPsBNvuHSrYSaf3GuWAUxErYNARDjkYmAWFDihtUBFkkRavYdUBJsaYlTGlQEZx7vUSRNsI24LuVPyURuS5Q7bGluT2AhG06YOUlwifkAK1k3qSonSa2oWSCnFoioSitmBJRV7EnafGxWnJeCSne17gSvcHKhXvTHW1AZ3nalxsX45Rl8yM01WxGDeOSaugNr3YPgipqVUyyrArxpLnn3LO4jKN/ccYNLcAcU90PtoGJZIraToB7vwS24H3Re6aYKpK6AjJJRdR39hdrROTSiF7IBL3JUuaI9ycmqaolu+Ah9vdwFUqEm1yS7vJRFbDbBu+RPkKSdMk4J7oj4HG2uQHwJvcbZFyS5QQ3wRTG3aohTfBBN+4qTRF91UPdLYqlwxSkG97ie4Ap1tZCrfNiyKV3FELj55IJykoq2O0+GUuKlK+CSVMCcl5IumN0/JHYA3E0NNCbQCYAACYgAACxDALPNfjd30/T/4v+jPSHm/xt/uGD/F/wBGErp2C3Ym2wRlU6QmHgGiiNXyOO3CGKyCRFsLHVgRTHYJbkmBFNsL3okthlCrYS5BtjiQKXIqsk1YNUihUkgUhVaEo0+SCb38kLJLcHFICNJ8jpRVIdITQCv0FFSvclVByUP90gSaFQDTQvsPstCS7UAx9vuKiSi7ATj/ACDtt87E1sRSIJqr9gbtiAoAGJIBCb8N7kmirOq7XFEEsjUV82yFjxJ72VvGp7Sb/mTlJYoKKfzeAq1qMWlZVkyPiG3uQ5py3dlmZKMYpcsCtRf1MljjKUu7wmVvd78F+HuceKiBY2myGVVEmkDgnywiiUE2vYP3qWxY0kKvNBTtibsVisITIskyLdAJkWOyuToCdkGRc6RXLJXkCxypFbmkVSnZW5MC2WUqeRkfuKTAbkVSaTBsjVvZADkQ3b2W5qw6LJlatUjp6fpsIU+fuBysOhy5WrjSOlp+mQgk2tzowwxguCatuqArx4YxSpcFyivQUcdTtssoBLYKse4Rut1uUEYobir43Gh8gFKyV7EUMABgJsB+CDQXuMgiPkACpITFYFQAhxTavgSVWQS28CBMZQkqZIiMgBpBRHhhTa2BMXKsEr5Ak6ZXW5PZIUn3KgIp2+RkO2nySAYCsdgF0OyHI1sFR74OVV/kWJpKlRGW+1DhFpbhE7E1bHYWBCtyV7A/YjYEhPgGxX6ACQCpt8joIGgS2CwsAoKEm29kSS235Co0RbyXtROxACcvJJMQBDbTQqGgbYUgWwrJJWAm/QW65B80CVu3YErH4EkP2Ai0HBIQRJPYcVbIrjglHZAJ0vqIyUW9q+xN0+Stxp2A00iMk3J/wjewLeLCiMVQPYIppbuw8hEVs22STtDaQbeAEFbAxblEiPDHwBAEVblwN21sPHFQ8t36hT8ANpAmAvIMdAUQ39CXgHSE37WRD9w7kIKRQ3S3HBLtv1E/paCLqKXhEEg8i3JRRRRKORTuLv2LlxvySojJpPcCV7bAmQjJSVrgkgE5bk0Qav8AQmnsAmhVTJ9ySFdgKh0qbFwJSfdVbACGOT9CPkAr0Fb4GSQFblWzLEh9qe7QpLbYApcjshjlGduL42ZJ7gNbqwslCkqCUUt7AhvyPlDaVbCASkyTtiSpjU4t1e5RFxt2mTS2CvI7AVUSrYSY7AEr5AVjsBodMiTT2Ai7HuNsVgC49xr0BCk+12AMi4KS9CcXasdWBneOakmpcepL4kor5l/ItoVWBU+yRXJUyyeB33Rf6ELbdSXAE01GKV22Xw3RlatF2KTSXoBdW43wRTByvgA2bphLHGaqXA+USXG4GaemnFp4MjXsw+NmxOsmO16ovlKnZZtOHqvQDPHIsklTpPwaKooy4FXdj2a8Iqx6+UH26mDSXE0gjX5Ggi4ZId2OSkvUaV+xQJA1ToaTISyQWT4blUqtEUMLI96d7WRfd4XaBb4KnJQlfdt6DhJOXbO7JTjBxarcIFJS4Bu+SEY/Ls90CXe93uvAU5R2sbTW6JfutMjCVrtfgBX68ibSJNIh4Aaa5YSknwVt+rBPYBtPnwQaT3LLISaAhXsPkfeuKBARcSLdOmTtCnFMCAUCabobQCGhPgje4EmkyLVDboV2AgsGACbPNfjX/cMH+L/oz0lHm/xt/uGD/F/0YSuqOhJ+xKyKSE5b0hv2EopO/JAXuFNjrclZRDjYkuBPmySVkCQCbphyUMLBBRAAAmyh2xXuF7AiAb3C7Iu7JWAuAsdWDjQC5GJIGmihgEUlu3u/ANgMVDVpe4+PuAJNqg7Rrkd2AktycUR7W0R7mnQRKVCQ0F0wCtwW462uhJWFH2BDrcdAKtyGSLkqi0iYUBXDEo/U7Y5Qi07VvwToTjW6IK4YlHwLOk3C+7b0LFfktivPoFZsWPmUlsvUWXNUagPUzn3dq49jO3tsFacWbvdPksZiimt3yXYs3d8r8eQLJR4E2qBsi2GQpJilRFydisBtlbkKcytyAlLJ6FcpepFy9CDthRKTbE+AaB7BEOCLZNrbcUYtuuQKxJOTqKbNmPRynLikbsGkjj8bgc3FoZze6o6GHQRhTrc1xx14LVFJAVQxKJbFA1tyLHFR3crYEqG9gBACHuFAmFCJBwAQAAFDQxJ7DsAIslZECNbjoEPb1IEDVD4Iu2FMaS8kdx+ChthHcS4HZEDj5C6e4J3dkWVTse4uOBWyCSdgRTY2wBOtvA+4j4E06v8AyAk3ZFji7QNWAJ2Ado6AikMYN0gEJtLl0x8oVL0AlFtD7rEgSAlyxMa4IuwJJ7EXuEYvyxtAKvUXAxpWEOKsGgTSE5b0gEw8AHADqkHkVgA6TQuAEm2Axqn9xDQDWyE9x1YnsFHArrgLsAg7a3sadhTaIvZhUmxXe6QlK2wAbltQJkeZEkgiE7c1Hu3bL1sQjFd1+STsAlaVkbtBJtsPBQmA6EwHezIgFegEkxK0+RR9yXgCL3BA2/QexAMaEFgMQEcuT4UbcbQFl7C2IwmpwUlsmPkKdiFuCdPgodbBQ9gTICtxSdK6JWHgIS4AOAQVJDE1tsCKiV7icVLkQ1yAnFLZASaRCToCSASY7AGtgQbsPAA477MEgTDzYDa4DgLHKPuALgV70FggJLZ78ElJLghdgrQEn2tOlT9iPA6trcjNpNbgSW4yEW0/Uk2AeaFs3yK9w5YFnKK+2nZJKh8socZWgct6obivBC6dPkCTaXI7vgi4qS3JRjSATGrfI2EXfIDoN0DAAvYEDEtgJoUlaAdXwALdIlRCKqRZsBFi3Bxt7MYBGNWxSimN3ViTYFfakOCpUOSsTtV2gWr0BfVRGElLeqfoSavjkCXCJLgrhCSb7uCfCCFSaJxajsVyar5eSPdLzYVXCd53Fyrc021xUk/UzyjcraLcPc+N6CHi7VkailG+UiWWMpxqDp+omu6eyqQ4ZK+VrcKcVkqmxfD+bufK8ls/kj3NNr2BTjKHdF2gK5KuCPKLG1KDa5Xgyyzb012gTap3e43urumVdyXO69ScYKS2YDhOp+CUqbvyVZEsclXkkpKXD3AsUt6aJOiHdXKGqq0wHV7Mg4OPnYb5IqUk2vAB2xZFxJ+SLZRB2Qm/k2assbQnBMgrjNNU3uST39RNRT3QR7fAA6ZFsb5FQAqasTSG3RG74AHwRcVZJiAFwJoe4rATFYndgAzzf43/AOH6f/F/0Z6Ns83+NP8AcMH+L/owldWgWwAZU7AAAaQ6AAIsd7ABRGrZLZIAAPcfgAAi3bE0AAOqQIAIHQgABrkTpsAKGk/A6AAE0OgABp0rIfEl29zWwABZFpwT8gqsAAkpCS2fqAAKtyVoAAduhIACH2hTAAooEmAAFbCe3IAQRY02AAJ7bmVw7m2gAKksfds3Q44Y473tsAAbdIi2ABFTaTbsrc7YAApcka9QABOKvYjQAAn/AJhGEpPZAAGnHo3J3JmrHp4QVJAAF8MaLFFIAKGgbpAACrexpKwAipAAAJsAABoYAVEqAAAPAgAAQ9gACL3YkAAOwACKAbQAUJNDACBDoAAVegJgADAAATZIAAi4t7x5HwAAPkW9gAByFbbgACkn4dAvcAAkuBAAASpAAQnsgtgABQNABVFJh4ACIaEwAASBAADddpEAAE9wAAovYPuABQAAEF0R3b3AAIxdSZJ8AARGKpW3uyy9gABx+myPzOS9AAok6QABACasAKCh0AAHgXAAAmxU35/QAIGl6oaAAGkEo9yrwAFVBRcVVbEgACLfbzwO0wAgLFbUkqAAJxdsclaACogrXI0AATQAAAC5AAGJoAAdbCcaAABbBYAAIYAADsAARKgAArcAAqEmDpvdcAAVJboTACIVVuSQAUMTt8AAVOPAOKdX4AAGhgAAAAADAAExpAAAwAAAYAA17kkgAB+CE5KLVgAQmu5bEIqV0+QAKl2bc0whkadTT+4ABdBp3TGknyABFOWPw5XB3ZOGVyVNUwAByi21ZKLeNtJcgAU4t8+SLSeR0AAGXJqcbU8dTh5g0Rc4/wBbiVd3MQAAx5oajuh9E149SGSDWzXAABBvwNNpWgABd3xVvyiPa1vYABOOXt2nwWOvAABH7iuuGAAJZo1e5NNMAAjJIS4AAItiSAAB7EWwACL3QKNcAABQUAAG3kg2nwwABPgQAAHm/wAa/wDDtP8A4v8AowAJX//Z;" parent="1" vertex="1">
          <mxGeometry x="250" y="30" width="1705" height="960" as="geometry" />
        </mxCell>
        <mxCell id="ZFCfkoxtxYTRv5SqpdLA-2" value="" style="endArrow=classic;html=1;rounded=0;strokeColor=#00FFFF;strokeWidth=16;" parent="1" edge="1">
          <mxGeometry width="50" height="50" relative="1" as="geometry">
            <mxPoint x="1030" y="370" as="sourcePoint" />
            <mxPoint x="1030" y="70" as="targetPoint" />
          </mxGeometry>
        </mxCell>
        <mxCell id="3jTxPPVD2Rl5oit6WNZx-1" value="" style="endArrow=none;html=1;rounded=0;strokeWidth=15;strokeColor=#00ff00;entryX=0.428;entryY=0.271;entryDx=0;entryDy=0;entryPerimeter=0;" parent="1" target="ZFCfkoxtxYTRv5SqpdLA-4" edge="1">
          <mxGeometry width="50" height="50" relative="1" as="geometry">
            <mxPoint x="1027.3899999999999" y="306" as="sourcePoint" />
            <mxPoint x="989.9700000000003" y="279.67999999999995" as="targetPoint" />
          </mxGeometry>
        </mxCell>
        <mxCell id="3jTxPPVD2Rl5oit6WNZx-2" value="" style="endArrow=none;html=1;rounded=0;strokeWidth=15;strokeColor=#ff0000;entryX=0.493;entryY=0.281;entryDx=0;entryDy=0;entryPerimeter=0;" parent="1" edge="1" target="ZFCfkoxtxYTRv5SqpdLA-4">
          <mxGeometry width="50" height="50" relative="1" as="geometry">
            <mxPoint x="1027.96" y="306" as="sourcePoint" />
            <mxPoint x="1080" y="290" as="targetPoint" />
          </mxGeometry>
        </mxCell>
        <mxCell id="3jTxPPVD2Rl5oit6WNZx-3" value="" style="endArrow=none;html=1;rounded=0;strokeWidth=15;strokeColor=#0000ff;" parent="1" edge="1">
          <mxGeometry width="50" height="50" relative="1" as="geometry">
            <mxPoint x="1030" y="314" as="sourcePoint" />
            <mxPoint x="1030" y="238" as="targetPoint" />
          </mxGeometry>
        </mxCell>
        <mxCell id="3jTxPPVD2Rl5oit6WNZx-4" value="&lt;b style=&quot;&quot;&gt;&lt;i style=&quot;&quot;&gt;&lt;font color=&quot;#9933ff&quot; style=&quot;font-size: 50px;&quot;&gt;{s}&lt;/font&gt;&lt;/i&gt;&lt;/b&gt;" style="text;html=1;strokeColor=none;fillColor=none;align=center;verticalAlign=middle;whiteSpace=wrap;rounded=0;" parent="1" vertex="1">
          <mxGeometry x="1050" y="320" width="60" height="30" as="geometry" />
        </mxCell>
        <mxCell id="3jTxPPVD2Rl5oit6WNZx-5" value="&lt;b&gt;&lt;i style=&quot;&quot;&gt;&lt;font color=&quot;#00ffff&quot; style=&quot;font-size: 40px;&quot;&gt;Sa&lt;/font&gt;&lt;/i&gt;&lt;/b&gt;" style="text;html=1;strokeColor=none;fillColor=none;align=center;verticalAlign=middle;whiteSpace=wrap;rounded=0;strokeWidth=5;" parent="1" vertex="1">
          <mxGeometry x="1040" y="170" width="60" height="30" as="geometry" />
        </mxCell>
      </root>
    </mxGraphModel>
  </diagram>
</mxfile>
